<?xml version="1.0" encoding="utf-8"?>
<!-- Generator: Adobe Illustrator 15.0.0, SVG Export Plug-In . SVG Version: 6.00 Build 0)  -->
<!DOCTYPE svg PUBLIC "-//W3C//DTD SVG 1.1 Tiny//EN" "http://www.w3.org/Graphics/SVG/1.1/DTD/svg11-tiny.dtd">
<svg version="1.1" baseProfile="tiny" id="Layer_1" xmlns="http://www.w3.org/2000/svg" xmlns:xlink="http://www.w3.org/1999/xlink"
	 x="0px" y="0px" width="1500px" height="845px" viewBox="0 0 1500 845" overflow="inherit" xml:space="preserve">
<g>
	<path fill="#FFFFFF" d="M746.945,375.1c-3.367-2.902-7.541-4.354-12.522-4.354c-5.42,0-9.621,1.538-12.604,4.614
		c-2.984,3.076-4.858,7.242-5.625,12.499h36.375C752.186,382.254,750.312,378.001,746.945,375.1z"/>
	<path fill="#FFFFFF" d="M846.027,212.005c-7.719,0-13.022,3.482-15.91,10.446c-1.494,3.704-2.241,8.495-2.241,14.372
		c0,6.916,1.543,12.644,4.631,17.187c3.088,4.545,7.793,6.816,14.117,6.816c5.478,0,9.735-2.197,12.772-6.593
		c3.037-4.396,4.558-10.174,4.558-17.335c0-5.729-0.748-10.47-2.241-14.224C858.875,215.561,853.646,212.005,846.027,212.005z"/>
	<path fill="#FFFFFF" d="M435.035,370.746c-6.175,0-10.928,2.183-14.261,6.547c-3.334,4.364-5.001,10.59-5.001,18.678
		c0,8.089,1.667,14.327,5.001,18.716c3.333,4.389,8.086,6.583,14.261,6.583c6.173,0,10.914-2.194,14.224-6.583
		c3.308-4.39,4.963-10.627,4.963-18.716c0-8.087-1.655-14.314-4.963-18.678C445.949,372.929,441.208,370.746,435.035,370.746z"/>
	<path fill="#FFFFFF" d="M129.417,370.746c-6.174,0-10.927,2.183-14.261,6.547s-5,10.59-5,18.678c0,8.089,1.666,14.327,5,18.716
		c3.334,4.389,8.087,6.583,14.261,6.583c6.173,0,10.914-2.194,14.224-6.583c3.309-4.39,4.964-10.627,4.964-18.716
		c0-8.087-1.655-14.314-4.964-18.678C140.331,372.929,135.59,370.746,129.417,370.746z"/>
	<path fill="#FFFFFF" d="M943.291,214.951c-3.366-2.902-7.54-4.354-12.522-4.354c-5.419,0-9.62,1.538-12.603,4.614
		c-2.984,3.076-4.858,7.242-5.625,12.499h36.374C948.531,222.105,946.657,217.853,943.291,214.951z"/>
	<path fill="#FFFFFF" d="M253.323,210.598c-6.175,0-10.928,2.183-14.261,6.547c-3.334,4.364-5.001,10.59-5.001,18.678
		c0,8.089,1.667,14.327,5.001,18.716c3.333,4.389,8.086,6.583,14.261,6.583c6.173,0,10.914-2.194,14.224-6.583
		c3.308-4.39,4.963-10.627,4.963-18.716c0-8.087-1.655-14.314-4.963-18.678C264.237,212.781,259.496,210.598,253.323,210.598z"/>
	<path fill="#FFFFFF" d="M354.964,375.857c-3.063-2.567-6.619-3.852-10.668-3.852c-6.175,0-10.705,2.333-13.594,7
		c-2.89,4.667-4.334,10.458-4.334,17.373c0,7.458,1.469,13.421,4.407,17.891c2.938,4.47,7.396,6.705,13.372,6.705
		c5.976,0,10.52-2.223,13.631-6.667s4.668-10.198,4.668-17.261C362.446,387.168,359.951,380.105,354.964,375.857z"/>
	<path fill="#FFFFFF" d="M549.547,240.304l-4.806,0.889c-4.505,0.791-7.74,1.753-9.705,2.889c-3.325,1.926-4.987,4.915-4.987,8.964
		c0,3.606,1.015,6.211,3.046,7.816c2.03,1.605,4.501,2.407,7.409,2.407c4.614,0,8.863-1.333,12.751-4
		c3.887-2.667,5.904-7.531,6.055-14.594v-7.853c-1.352,0.841-2.717,1.519-4.093,2.038
		C553.839,239.378,551.95,239.86,549.547,240.304z"/>
	<path fill="#FFFFFF" d="M0,0v845h1499.999V0H0z M714.405,196.078h11.261v-22.521h20.891v22.521h13.112v15.039h-13.112v42.671
		c0,3.31,0.419,5.371,1.261,6.186c0.838,0.815,3.406,1.222,7.703,1.222c0.643,0,1.322-0.011,2.037-0.037
		c0.717-0.024,1.42-0.061,2.111-0.111v15.779l-10,0.371c-9.978,0.345-16.793-1.382-20.447-5.186
		c-2.371-2.419-3.556-6.148-3.556-11.186v-49.709h-11.261V196.078z M439.245,204.967c6.772-7.705,16.116-11.557,28.031-11.557
		c10.135,0,18.427,2.272,24.879,6.815c6.451,4.544,10.27,12.569,11.457,24.077H481.98c-0.396-3.012-1.411-5.729-3.044-8.149
		c-2.378-3.26-6.065-4.89-11.064-4.89c-7.131,0-12.008,3.532-14.631,10.594c-1.387,3.745-2.078,8.72-2.078,14.926
		c0,5.913,0.691,10.667,2.078,14.262c2.525,6.717,7.277,10.075,14.259,10.075c4.951,0,8.466-1.333,10.545-4
		s3.342-6.124,3.788-10.372h21.558c-0.495,6.421-2.818,12.496-6.971,18.224c-6.626,9.236-16.438,13.854-29.439,13.854
		c-13.003,0-22.568-3.853-28.699-11.557c-6.13-7.705-9.195-17.694-9.195-29.968C429.086,223.451,432.472,212.672,439.245,204.967z
		 M305.539,195.336h21.632v48.672c0,4.593,0.541,8.051,1.622,10.372c1.917,4.1,5.676,6.149,11.277,6.149
		c7.175,0,12.09-2.914,14.744-8.742c1.375-3.16,2.063-7.334,2.063-12.52v-43.931h21.41v80.75h-20.521v-11.409
		c-0.197,0.248-0.69,0.989-1.478,2.223c-0.788,1.235-1.724,2.322-2.807,3.259c-3.301,2.963-6.489,4.989-9.567,6.075
		c-3.079,1.086-6.686,1.63-10.823,1.63c-11.918,0-19.945-4.296-24.082-12.89c-2.315-4.741-3.472-11.729-3.472-20.965V195.336z
		 M42.667,196.078h11.557v-5.186c0-8.642,1.457-14.594,4.371-17.854c3.062-4.84,10.445-7.26,22.15-7.26
		c1.334,0,2.543,0.037,3.63,0.111c1.086,0.074,2.567,0.185,4.445,0.333v17.187c-1.186-0.148-3.174-0.259-5.964-0.333
		c-2.79-0.074-4.717,0.544-5.778,1.852c-1.062,1.309-1.593,2.753-1.593,4.333c0,1.582,0,3.853,0,6.816h13.854v14.89H75.485v65.118
		H54.521v-65.118H42.667V196.078z M12.305,166.889h22.669v109.197H12.305V166.889z M56.666,434.901
		c-5.351,15.31-9.582,24.805-12.697,28.484c-3.115,3.679-9.345,5.519-18.689,5.519c-1.879,0-3.387-0.013-4.523-0.037
		c-1.138-0.026-2.844-0.111-5.117-0.259v-16.891l2.667,0.148c2.074,0.098,4.049,0.024,5.926-0.222
		c1.877-0.248,3.457-0.815,4.741-1.704c1.234-0.84,2.383-2.593,3.445-5.26c1.062-2.667,1.519-4.297,1.371-4.889L4.118,355.485
		h23.484l17.632,59.562l16.668-59.562H84.35L56.666,434.901z M160.531,426.356c-6.815,8.413-17.162,12.62-31.04,12.62
		c-13.879,0-24.225-4.207-31.04-12.62s-10.224-18.542-10.224-30.385c0-11.645,3.408-21.736,10.224-30.273
		c6.815-8.537,17.161-12.806,31.04-12.806c13.878,0,24.225,4.269,31.04,12.806c6.815,8.537,10.224,18.628,10.224,30.273
		C170.755,407.814,167.347,417.943,160.531,426.356z M167.875,303.237c-3.115,3.679-9.345,5.519-18.689,5.519
		c-1.879,0-3.388-0.013-4.524-0.037c-1.138-0.026-2.844-0.111-5.117-0.259v-16.891l2.667,0.148c2.074,0.098,4.049,0.024,5.927-0.222
		c1.876-0.248,3.456-0.815,4.741-1.704c1.233-0.84,2.382-2.593,3.444-5.26c1.062-2.667,1.52-4.297,1.372-4.889l-29.671-84.306
		h23.483l17.632,59.562l16.669-59.562h22.446l-27.684,79.416C175.222,290.062,170.989,299.557,167.875,303.237z M254.382,436.234
		h-20.521v-11.409c-0.196,0.248-0.689,0.989-1.477,2.223c-0.789,1.235-1.724,2.322-2.808,3.259c-3.3,2.963-6.489,4.989-9.566,6.075
		c-3.079,1.086-6.687,1.63-10.823,1.63c-11.918,0-19.945-4.296-24.083-12.89c-2.314-4.741-3.471-11.729-3.471-20.965v-48.672h21.632
		v48.672c0,4.593,0.54,8.051,1.621,10.372c1.917,4.1,5.676,6.149,11.278,6.149c7.175,0,12.089-2.914,14.743-8.742
		c1.375-3.16,2.064-7.334,2.064-12.52v-43.931h21.409V436.234z M284.438,266.208c-6.815,8.413-17.163,12.62-31.04,12.62
		c-13.879,0-24.226-4.207-31.041-12.62s-10.223-18.542-10.223-30.385c0-11.645,3.407-21.736,10.223-30.273
		c6.815-8.537,17.162-12.806,31.041-12.806c13.877,0,24.225,4.269,31.04,12.806c6.815,8.537,10.224,18.628,10.224,30.273
		C294.661,247.666,291.253,257.794,284.438,266.208z M383.263,436.234h-20.521v-11.187c-3.013,4.791-6.445,8.273-10.298,10.446
		c-3.852,2.172-8.643,3.259-14.371,3.259c-9.435,0-17.373-3.815-23.817-11.445c-6.445-7.63-9.668-17.421-9.668-29.374
		c0-13.779,3.173-24.62,9.52-32.522c6.346-7.901,14.828-11.853,25.447-11.853c4.89,0,9.234,1.074,13.038,3.222
		c3.803,2.148,6.89,5.125,9.261,8.927v-38.523h21.409V436.234z M466.149,426.356c-6.815,8.413-17.163,12.62-31.04,12.62
		c-13.879,0-24.226-4.207-31.041-12.62s-10.223-18.542-10.223-30.385c0-11.645,3.407-21.736,10.223-30.273
		c6.815-8.537,17.162-12.806,31.041-12.806c13.877,0,24.225,4.269,31.04,12.806c6.815,8.537,10.224,18.628,10.224,30.273
		C476.373,407.814,472.965,417.943,466.149,426.356z M560.89,436.234h-21.633v-49.116c0-4.247-0.563-7.507-1.69-9.779
		c-2.061-4.149-5.982-6.223-11.767-6.223c-7.109,0-11.987,3.038-14.635,9.112c-1.373,3.211-2.06,7.31-2.06,12.297v43.708h-21.113
		v-80.601h20.447v11.779c2.704-4.148,5.262-7.136,7.672-8.964c4.327-3.26,9.812-4.889,16.451-4.889
		c8.311,0,15.108,2.185,20.396,6.556c5.286,4.371,7.931,11.619,7.931,21.743V436.234z M560.57,271.493
		c-0.248-1.432-0.444-3.062-0.593-4.889c-2.931,3.161-6.31,5.853-10.134,8.075c-4.57,2.617-9.737,3.926-15.5,3.926
		c-7.353,0-13.425-2.087-18.218-6.26c-4.795-4.173-7.191-10.086-7.191-17.743c0-9.927,3.856-17.113,11.567-21.558
		c4.229-2.419,10.449-4.149,18.658-5.186l7.239-0.889c3.93-0.493,6.74-1.111,8.433-1.852c3.035-1.284,4.553-3.284,4.553-6.001
		c0-3.308-1.164-5.593-3.492-6.853c-2.328-1.259-5.745-1.889-10.25-1.889c-5.056,0-8.637,1.235-10.738,3.704
		c-1.503,1.828-2.504,4.297-3.004,7.408h-20.372c0.445-7.062,2.43-12.865,5.951-17.409c5.605-7.112,15.228-10.667,28.869-10.667
		c8.878,0,16.765,1.753,23.66,5.26c6.895,3.507,10.341,10.125,10.341,19.854v37.041c0,2.568,0.049,5.68,0.148,9.334
		c0.148,2.767,0.567,4.643,1.26,5.63c0.69,0.989,1.728,1.803,3.111,2.445v3.111h-22.966
		C561.262,274.456,560.816,272.926,560.57,271.493z M598.586,343.039c0,7.458-1.874,13.335-5.62,17.632
		c-3.746,4.296-9.01,7.087-15.789,8.371v-7.779c5.125-1.53,8.657-4.123,10.594-7.778c1.037-2.173,1.481-4.371,1.333-6.593h-12.298
		v-19.483h21.78V343.039z M652.358,371.265h-13.112v42.671c0,3.31,0.419,5.371,1.259,6.186c0.839,0.815,3.408,1.222,7.705,1.222
		c0.641,0,1.32-0.011,2.037-0.037c0.715-0.024,1.419-0.061,2.111-0.111v15.779l-10.001,0.371
		c-9.978,0.345-16.793-1.382-20.447-5.186c-2.37-2.419-3.556-6.148-3.556-11.186v-49.709h-11.261v-15.039h11.261v-22.521h20.892
		v22.521h13.112V371.265z M668.2,276.086h-21.632V226.97c0-4.247-0.563-7.507-1.691-9.779c-2.061-4.149-5.981-6.223-11.767-6.223
		c-7.109,0-11.987,3.038-14.634,9.112c-1.373,3.211-2.06,7.31-2.06,12.297v43.708h-21.113v-80.601h20.446v11.779
		c2.704-4.148,5.263-7.136,7.672-8.964c4.327-3.26,9.812-4.889,16.451-4.889c8.312,0,15.109,2.185,20.396,6.556
		c5.287,4.371,7.931,11.619,7.931,21.743V276.086z M684.117,186.743V167.26h21.78v15.631c0,7.458-1.874,13.335-5.62,17.632
		c-3.747,4.296-9.011,7.087-15.79,8.371v-7.779c5.126-1.53,8.657-4.123,10.594-7.778c1.037-2.173,1.481-4.371,1.334-6.593H684.117z
		 M765.56,427.196c-7.233,7.853-17.359,11.779-30.38,11.779c-10.747,0-20.229-3.312-28.443-9.935
		c-8.215-6.624-12.321-17.4-12.321-32.329c0-13.987,3.707-24.714,11.124-32.178c7.415-7.463,17.041-11.197,28.875-11.197
		c7.027,0,13.359,1.262,18.991,3.784c5.633,2.523,10.285,6.505,13.954,11.946c3.308,4.798,5.452,10.362,6.434,16.694
		c0.568,3.71,0.8,9.052,0.696,16.026h-58.813c0.328,8.101,3.144,13.779,8.444,17.039c3.226,2.025,7.105,3.037,11.642,3.037
		c4.81,0,8.717-1.234,11.725-3.704c1.639-1.333,3.088-3.186,4.345-5.556h21.556C772.818,417.393,770.209,422.258,765.56,427.196z
		 M827.048,436.234l-13.897-24.277l-14.031,24.277h-25.632l27.558-40.893l-26.373-39.708h25.854l13.49,23.389l13.18-23.389h25.114
		l-26.521,39.337l27.559,41.264H827.048z M883.968,436.234h-21.409v-80.75h21.409V436.234z M883.968,345.854h-21.409v-19.484h21.409
		V345.854z M877.168,265.863c-5.956,8.249-14.272,12.372-24.944,12.372c-6.702,0-12.088-1.333-16.158-4
		c-2.433-1.58-5.064-4.345-7.894-8.297v10.149h-20.816V167.037h21.113v38.819c2.683-3.753,5.641-6.618,8.872-8.594
		c3.827-2.469,8.699-3.704,14.614-3.704c10.687,0,19.05,3.828,25.089,11.483c6.04,7.656,9.061,17.533,9.061,29.633
		C886.104,247.219,883.125,257.615,877.168,265.863z M960.649,431.382c-5.964,5.062-15.18,7.594-27.649,7.594
		c-12.72,0-22.109-2.68-28.171-8.038c-6.063-5.358-9.094-12.187-9.094-20.484h21.409c0.447,3.754,1.415,6.421,2.903,8.001
		c2.63,2.815,7.493,4.223,14.59,4.223c4.168,0,7.481-0.617,9.938-1.852c2.456-1.234,3.685-3.086,3.685-5.556
		c0-2.371-0.99-4.173-2.969-5.408c-1.979-1.234-9.342-3.358-22.088-6.371c-9.176-2.271-15.641-5.112-19.393-8.52
		c-3.754-3.358-5.631-8.198-5.631-14.52c0-7.457,2.933-13.865,8.798-19.224c5.865-5.358,14.118-8.038,24.759-8.038
		c10.097,0,18.325,2.013,24.685,6.038c6.359,4.026,10.011,10.977,10.951,20.854h-21.113c-0.297-2.715-1.064-4.864-2.302-6.445
		c-2.329-2.864-6.291-4.297-11.887-4.297c-4.606,0-7.887,0.716-9.843,2.148c-1.956,1.433-2.935,3.111-2.935,5.038
		c0,2.42,1.04,4.174,3.121,5.26c2.079,1.137,9.427,3.087,22.044,5.853c8.411,1.976,14.716,4.963,18.914,8.964
		c4.148,4.05,6.223,9.112,6.223,15.187C969.595,419.788,966.613,426.32,960.649,431.382z M970.835,241.638h-58.812
		c0.328,8.101,3.143,13.779,8.444,17.039c3.225,2.025,7.105,3.037,11.642,3.037c4.81,0,8.717-1.234,11.724-3.704
		c1.639-1.333,3.088-3.186,4.345-5.556h21.556c-0.568,4.791-3.178,9.656-7.827,14.594c-7.233,7.853-17.359,11.779-30.379,11.779
		c-10.747,0-20.229-3.312-28.443-9.935c-8.215-6.624-12.322-17.4-12.322-32.329c0-13.987,3.708-24.714,11.124-32.178
		c7.415-7.463,17.041-11.197,28.876-11.197c7.027,0,13.358,1.262,18.99,3.784c5.633,2.523,10.285,6.505,13.954,11.946
		c3.308,4.798,5.452,10.362,6.434,16.694C970.707,229.322,970.938,234.664,970.835,241.638z M1018.478,371.265h-13.112v42.671
		c0,3.31,0.419,5.371,1.26,6.186c0.839,0.815,3.407,1.222,7.704,1.222c0.642,0,1.321-0.011,2.037-0.037
		c0.716-0.024,1.42-0.061,2.111-0.111v15.779l-10.001,0.371c-9.977,0.345-16.792-1.382-20.446-5.186
		c-2.37-2.419-3.556-6.148-3.556-11.186v-49.709h-11.261v-15.039h11.261v-22.521h20.891v22.521h13.112V371.265z M1050.47,436.234
		h-22.447v-22.15h22.447V436.234z M1054.755,210.968h-13.854v65.118h-20.965v-65.118h-11.854v-14.89h11.557v-5.186
		c0-8.642,1.456-14.594,4.371-17.854c3.062-4.84,10.445-7.26,22.15-7.26c1.334,0,2.543,0.037,3.63,0.111
		c1.086,0.074,2.567,0.185,4.445,0.333v17.187c-1.186-0.148-3.174-0.259-5.964-0.333c-2.791-0.074-4.717,0.544-5.778,1.852
		c-1.062,1.309-1.593,2.753-1.593,4.333c0,1.582,0,3.853,0,6.816h13.854V210.968z M1130.604,266.208
		c-6.815,8.413-17.163,12.62-31.04,12.62c-13.879,0-24.225-4.207-31.041-12.62c-6.815-8.413-10.223-18.542-10.223-30.385
		c0-11.645,3.407-21.736,10.223-30.273c6.816-8.537,17.162-12.806,31.041-12.806c13.877,0,24.225,4.269,31.04,12.806
		c6.815,8.537,10.224,18.628,10.224,30.273C1140.827,247.666,1137.419,257.794,1130.604,266.208z M1224.454,276.086h-20.521v-11.409
		c-0.197,0.248-0.69,0.989-1.478,2.223c-0.788,1.235-1.724,2.322-2.807,3.259c-3.3,2.963-6.489,4.989-9.567,6.075
		c-3.079,1.086-6.686,1.63-10.822,1.63c-11.918,0-19.945-4.296-24.083-12.89c-2.314-4.741-3.472-11.729-3.472-20.965v-48.672h21.633
		v48.672c0,4.593,0.54,8.051,1.621,10.372c1.917,4.1,5.676,6.149,11.278,6.149c7.174,0,12.089-2.914,14.743-8.742
		c1.375-3.16,2.063-7.334,2.063-12.52v-43.931h21.41V276.086z M1314.378,276.086h-21.632V226.97c0-4.247-0.563-7.507-1.691-9.779
		c-2.06-4.149-5.981-6.223-11.766-6.223c-7.109,0-11.987,3.038-14.635,9.112c-1.373,3.211-2.06,7.31-2.06,12.297v43.708h-21.113
		v-80.601h20.446v11.779c2.704-4.148,5.263-7.136,7.673-8.964c4.326-3.26,9.811-4.889,16.45-4.889
		c8.312,0,15.109,2.185,20.397,6.556c5.286,4.371,7.93,11.619,7.93,21.743V276.086z M1403.858,276.086h-20.521v-11.187
		c-3.013,4.791-6.445,8.273-10.297,10.446c-3.853,2.172-8.644,3.259-14.372,3.259c-9.434,0-17.372-3.815-23.817-11.445
		s-9.668-17.421-9.668-29.374c0-13.779,3.173-24.62,9.52-32.522c6.346-7.901,14.828-11.853,25.447-11.853
		c4.89,0,9.234,1.074,13.038,3.222c3.803,2.148,6.89,5.125,9.261,8.927v-38.523h21.409V276.086z M1441.11,273.107
		c0,3.369-0.444,6.879-1.333,10.535c-0.889,3.654-2.544,6.816-4.964,9.483c-2.618,2.863-5.692,5.024-9.223,6.482
		c-3.532,1.456-5.964,2.186-7.298,2.186v-8.149c4.247-1.186,7.372-3.162,9.372-5.927c2-2.767,3.148-6.643,3.444-11.631h-12.816
		v-22.15h22.817V273.107z"/>
	<path fill="#FFFFFF" d="M1099.489,210.598c-6.175,0-10.927,2.183-14.261,6.547s-5.001,10.59-5.001,18.678
		c0,8.089,1.667,14.327,5.001,18.716c3.334,4.389,8.086,6.583,14.261,6.583c6.173,0,10.914-2.194,14.224-6.583
		c3.309-4.39,4.964-10.627,4.964-18.716c0-8.087-1.655-14.314-4.964-18.678C1110.403,212.781,1105.662,210.598,1099.489,210.598z"/>
	<path fill="#FFFFFF" d="M1375.56,215.709c-3.062-2.567-6.619-3.852-10.668-3.852c-6.174,0-10.705,2.333-13.594,7
		c-2.89,4.667-4.334,10.458-4.334,17.373c0,7.458,1.469,13.421,4.408,17.891c2.938,4.47,7.396,6.705,13.371,6.705
		s10.521-2.223,13.632-6.667s4.667-10.198,4.667-17.261C1383.042,227.02,1380.547,219.957,1375.56,215.709z"/>
</g>
</svg>
