<?xml version="1.0" encoding="utf-8"?>
<!-- Generator: Adobe Illustrator 15.0.0, SVG Export Plug-In . SVG Version: 6.00 Build 0)  -->
<!DOCTYPE svg PUBLIC "-//W3C//DTD SVG 1.1//EN" "http://www.w3.org/Graphics/SVG/1.1/DTD/svg11.dtd">
<svg version="1.1" id="Layer_1" xmlns="http://www.w3.org/2000/svg" xmlns:xlink="http://www.w3.org/1999/xlink" x="0px" y="0px"
	 width="1500px" height="845px" viewBox="0 0 1500 845" enable-background="new 0 0 1500 845" xml:space="preserve">
<path fill="#FFFFFF" d="M126.264,369.924c-14.521,0-18.907,12.555-18.907,25.109c0,12.402,4.387,24.958,18.907,24.958
	c14.672,0,19.059-12.556,19.059-24.958C145.323,382.479,140.937,369.924,126.264,369.924z"/>
<path fill="#FFFFFF" d="M1108.68,209.924c-14.521,0-18.908,12.555-18.908,25.109c0,12.404,4.387,24.958,18.908,24.958
	c14.672,0,19.059-12.554,19.059-24.958C1127.738,222.479,1123.352,209.924,1108.68,209.924z"/>
<path fill="#FFFFFF" d="M729.933,369.924c-13.614,0-17.546,10.588-17.849,16.64h34.94
	C745.059,375.672,740.369,369.924,729.933,369.924z"/>
<path fill="#FFFFFF" d="M430.744,369.924c-14.521,0-18.906,12.555-18.906,25.109c0,12.402,4.386,24.958,18.906,24.958
	c14.672,0,19.06-12.556,19.06-24.958C449.804,382.479,445.416,369.924,430.744,369.924z"/>
<path fill="#FFFFFF" d="M254.228,209.924c-14.521,0-18.907,12.555-18.907,25.109c0,12.404,4.387,24.958,18.907,24.958
	c14.672,0,19.06-12.554,19.06-24.958C273.287,222.479,268.9,209.924,254.228,209.924z"/>
<path fill="#FFFFFF" d="M533.297,251.823c0,8.017,6.201,9.983,13.159,9.983c16.79,0,17.396-13.311,17.396-18v-8.017
	c-3.63,3.177-11.193,3.328-17.849,4.538C539.347,241.688,533.297,243.958,533.297,251.823z"/>
<path fill="#FFFFFF" d="M936.095,209.924c-13.613,0-17.546,10.588-17.85,16.639h34.941
	C951.221,215.671,946.531,209.924,936.095,209.924z"/>
<path fill="#FFFFFF" d="M340.444,369.924c-14.066,0-18.907,12.102-18.907,24.958c0,12.252,5.597,25.109,18.907,25.109
	c14.219,0,18.454-12.403,18.454-25.26C358.898,382.025,354.36,369.924,340.444,369.924z"/>
<path fill="#FFFFFF" d="M850.182,259.991c12.706,0,18.303-11.949,18.303-24.958c0-13.16-5.597-25.109-18.303-25.109
	s-18.303,11.949-18.303,25.109C831.879,248.042,837.476,259.991,850.182,259.991z"/>
<path fill="#FFFFFF" d="M1370.504,209.924c-14.067,0-18.907,12.101-18.907,24.958c0,12.252,5.597,25.109,18.907,25.109
	c14.219,0,18.453-12.403,18.453-25.26C1388.957,222.024,1384.42,209.924,1370.504,209.924z"/>
<path fill="#FFFFFF" d="M-0.185-1.943v845h1500v-845H-0.185z M936.699,193.739c26.622,0,39.479,22.387,37.967,46.437h-56.421
	c0.605,13.613,7.262,19.815,19.21,19.815c8.622,0,15.58-5.294,16.941-10.134h18.907c-6.05,18.454-18.907,26.319-36.604,26.319
	c-24.654,0-39.933-16.941-39.933-41.143C896.768,211.587,912.951,193.739,936.699,193.739z M811.155,166.058L811.155,166.058h21.48
	v39.328h0.302c5.295-8.017,14.976-11.647,24.656-11.647c15.579,0,32.369,12.555,32.369,41.143c0,28.739-16.79,41.294-32.369,41.294
	c-11.496,0-21.025-3.479-25.715-12.101h-0.304v9.983h-20.42V166.058z M714.653,195.856L714.653,195.856h13.009v-23.445h21.479
	v23.445h15.73v14.37h-15.73v38.723c0,7.261,1.814,9.076,9.075,9.076c2.27,0,4.387-0.151,6.655-0.605v16.79
	c-3.631,0.605-8.318,0.756-12.555,0.756c-13.16,0-24.656-3.025-24.656-18.605v-46.135h-13.008V195.856z M468.862,193.739
	c18.454,0,35.396,9.681,36.756,29.647h-21.024c-1.361-8.773-6.958-13.462-15.882-13.462c-13.766,0-18.303,13.916-18.303,25.412
	c0,11.193,4.387,24.655,17.85,24.655c9.982,0,15.73-6.353,17.092-15.882h20.723c-2.723,20.723-17.092,32.067-37.664,32.067
	c-23.597,0-39.479-16.639-39.479-40.084C428.929,211.739,443.449,193.739,468.862,193.739z M327.134,195.856v44.168
	c0,12.857,3.782,19.21,13.765,19.21c11.647,0,16.64-6.504,16.64-22.386v-40.992h21.479v78.202h-20.42v-10.891h-0.454
	c-5.445,8.773-14.823,13.008-23.898,13.008c-22.841,0-28.589-12.857-28.589-32.218v-48.101H327.134z M46.248,195.856h12.856v-6.05
	c0-13.765,8.622-23.748,26.168-23.748c3.781,0,7.714,0.454,11.345,0.605v16.034c-2.571-0.302-5.144-0.454-7.865-0.454
	c-5.748,0-8.168,2.42-8.168,8.924v4.689h14.824v14.37H80.584v63.832H59.105v-63.832H46.248V195.856z M15.089,166.058h23.748v108
	H15.089V166.058z M51.391,443.891c-4.688,12.556-12.101,17.697-26.924,17.697c-4.386,0-8.773-0.303-13.16-0.756v-17.698
	c4.084,0.303,8.319,0.908,12.555,0.757c7.412-0.757,9.832-8.471,7.412-14.672L3.744,355.857h22.991l17.697,53.546h0.303
	l17.093-53.546h22.234L51.391,443.891z M126.264,436.176c-24.504,0-40.386-16.335-40.386-41.143
	c0-24.958,15.882-41.294,40.386-41.294c24.656,0,40.538,16.336,40.538,41.294C166.802,419.84,150.92,436.176,126.264,436.176z
	 M152.431,301.587c-4.386,0-8.772-0.302-13.16-0.756v-17.697c4.084,0.302,8.319,0.908,12.556,0.756
	c7.411-0.756,9.832-8.471,7.411-14.672l-27.528-73.361H154.7l17.696,53.546h0.304l17.092-53.546h22.234l-32.672,88.034
	C174.666,296.445,167.254,301.587,152.431,301.587z M251.053,434.059L251.053,434.059h-20.421v-10.891h-0.454
	c-5.445,8.773-14.823,13.008-23.899,13.008c-22.84,0-28.588-12.855-28.588-32.218v-48.101h21.479v44.168
	c0,12.856,3.782,19.21,13.765,19.21c11.647,0,16.64-6.504,16.64-22.387v-40.991h21.479V434.059z M254.228,276.176
	c-24.504,0-40.386-16.336-40.386-41.143c0-24.958,15.882-41.294,40.386-41.294c24.656,0,40.538,16.336,40.538,41.294
	C294.766,259.84,278.884,276.176,254.228,276.176z M379.622,434.059L379.622,434.059H359.2v-9.982h-0.303
	c-4.992,8.471-13.765,12.101-23.748,12.101c-23.597,0-35.092-20.269-35.092-41.897c0-21.025,11.647-40.538,34.639-40.538
	c9.228,0,18.303,3.933,23.144,11.646h0.303V326.06h21.479V434.059z M430.744,436.176c-24.504,0-40.386-16.335-40.386-41.143
	c0-24.958,15.882-41.294,40.386-41.294c24.656,0,40.538,16.336,40.538,41.294C471.282,419.84,455.4,436.176,430.744,436.176z
	 M534.054,434.059v-44.168c0-12.856-3.781-19.21-13.766-19.21c-11.646,0-16.639,6.504-16.639,22.387v40.991h-21.479v-78.201h20.42
	v10.891h0.454c5.444-8.773,14.823-13.008,23.898-13.008c22.84,0,28.588,12.856,28.588,32.219v48.1H534.054z M564.759,266.495
	c-6.808,7.109-16.79,9.681-26.319,9.681c-14.823,0-26.622-7.412-26.622-23.445c0-17.698,13.312-21.933,26.622-23.748
	c13.16-1.966,25.412-1.513,25.412-10.286c0-9.227-6.354-10.588-13.916-10.588c-8.168,0-13.462,3.328-14.219,11.798h-21.479
	c1.21-20.118,19.21-26.168,36.756-26.168c15.58,0,34.336,3.479,34.336,22.235v40.689c0,7.109,0.756,14.219,2.724,17.395h-21.782
	C565.515,271.638,564.909,269.066,564.759,266.495z M570.957,374.613v-9.983c7.715-2.571,9.983-7.865,9.983-15.277h-9.983v-23.294
	h21.479v23.144C592.891,362.664,583.513,372.949,570.957,374.613z M648.103,370.227h-15.731v38.724c0,7.261,1.815,9.076,9.076,9.076
	c2.27,0,4.387-0.151,6.655-0.605v16.79c-3.63,0.604-8.319,0.756-12.555,0.756c-13.16,0-24.655-3.023-24.655-18.604v-46.136h-13.008
	v-14.369h13.008v-23.445h21.479v23.445h15.731V370.227z M650.823,274.058V229.89c0-12.857-3.78-19.21-13.765-19.21
	c-11.647,0-16.639,6.504-16.639,22.386v40.992h-21.479v-78.202h20.42v10.891h0.454c5.445-8.773,14.824-13.008,23.899-13.008
	c22.84,0,28.588,12.857,28.588,32.219v48.1H650.823z M687.729,204.629c7.714-2.571,9.983-7.865,9.983-15.277h-9.983v-23.294h21.479
	v23.143c0.454,13.462-8.924,23.748-21.479,25.412V204.629z M768.504,400.176h-56.42c0.604,13.613,7.26,19.815,19.21,19.815
	c8.622,0,15.58-5.294,16.94-10.134h18.908c-6.051,18.453-18.908,26.318-36.605,26.318c-24.654,0-39.933-16.94-39.933-41.143
	c0-23.445,16.186-41.294,39.933-41.294C757.158,353.739,770.017,376.126,768.504,400.176z M826.737,434.059l-16.336-24.654
	l-16.336,24.654h-24.051l28.135-41.143l-25.715-37.059h24.505l13.765,20.42l13.613-20.42h23.748l-25.715,36.604l28.891,41.597
	H826.737z M878.465,434.059h-21.479v-78.201h21.479V434.059z M878.465,343.756h-21.479v-17.698h21.479V343.756z M925.355,436.176
	c-18.151,0-35.849-6.807-36.756-27.528h20.42c0.151,9.378,8.017,13.159,16.487,13.159c6.201,0,14.066-2.42,14.066-9.982
	c0-6.504-8.925-8.773-24.353-12.102c-12.403-2.723-24.808-7.108-24.808-20.874c0-19.966,17.243-25.108,34.033-25.108
	c17.093,0,32.823,5.748,34.487,24.958h-20.42c-0.605-8.319-6.958-10.588-14.673-10.588c-4.84,0-11.949,0.907-11.949,7.261
	c0,7.714,12.101,8.772,24.353,11.646c12.556,2.874,24.808,7.412,24.808,21.934C961.053,429.521,943.203,436.176,925.355,436.176z
	 M1013.536,370.227h-15.73v38.724c0,7.261,1.814,9.076,9.076,9.076c2.269,0,4.387-0.151,6.654-0.605v16.79
	c-3.63,0.604-8.318,0.756-12.555,0.756c-13.159,0-24.655-3.023-24.655-18.604v-46.136h-13.009v-14.369h13.009v-23.445h21.479v23.445
	h15.73V370.227z M1047.31,432.894h-23.453v-23.005h23.453V432.894z M1065.572,182.697c-2.571-0.302-5.144-0.454-7.866-0.454
	c-5.748,0-8.168,2.42-8.168,8.924v4.689h14.823v14.37h-14.823v63.832h-21.479v-63.832h-12.857v-14.37h12.857v-6.05
	c0-13.765,8.621-23.748,26.168-23.748c3.781,0,7.714,0.454,11.345,0.605V182.697z M1108.68,276.176
	c-24.505,0-40.387-16.336-40.387-41.143c0-24.958,15.882-41.294,40.387-41.294c24.655,0,40.537,16.336,40.537,41.294
	C1149.217,259.84,1133.334,276.176,1108.68,276.176z M1233.468,274.058L1233.468,274.058h-20.421v-10.891h-0.454
	c-5.445,8.773-14.823,13.008-23.899,13.008c-22.84,0-28.588-12.857-28.588-32.218v-48.101h21.479v44.168
	c0,12.857,3.781,19.21,13.766,19.21c11.646,0,16.639-6.504,16.639-22.386v-40.992h21.479V274.058z M1298.657,274.058V229.89
	c0-12.857-3.782-19.21-13.765-19.21c-11.647,0-16.639,6.504-16.639,22.386v40.992h-21.479v-78.202h20.42v10.891h0.454
	c5.445-8.773,14.823-13.008,23.899-13.008c22.84,0,28.588,12.857,28.588,32.219v48.1H1298.657z M1409.681,274.058h-20.42v-9.983
	h-0.304c-4.99,8.471-13.765,12.101-23.748,12.101c-23.597,0-35.093-20.269-35.093-41.899c0-21.025,11.647-40.538,34.64-40.538
	c9.228,0,18.303,3.933,23.144,11.647h0.302v-39.328h21.479V274.058z M1424.048,299.167v-10.891
	c6.354-1.059,11.042-7.563,10.738-14.218h-10.891v-23.294h23.748v23.294h0.001C1447.645,287.974,1437.057,297.201,1424.048,299.167z
	"/>
</svg>
