<?xml version="1.0" encoding="utf-8"?>
<!-- Generator: Adobe Illustrator 15.0.0, SVG Export Plug-In . SVG Version: 6.00 Build 0)  -->
<!DOCTYPE svg PUBLIC "-//W3C//DTD SVG 1.1//EN" "http://www.w3.org/Graphics/SVG/1.1/DTD/svg11.dtd">
<svg version="1.1" id="Layer_1" xmlns="http://www.w3.org/2000/svg" xmlns:xlink="http://www.w3.org/1999/xlink" x="0px" y="0px"
	 width="1500px" height="845px" viewBox="0 0 1500 845" enable-background="new 0 0 1500 845" xml:space="preserve">
<g>
	<path fill="#FFFFFF" d="M126.264,369.924c-14.521,0-18.907,12.555-18.907,25.109c0,12.403,4.386,24.958,18.907,24.958
		c14.672,0,19.059-12.555,19.059-24.958C145.323,382.479,140.937,369.924,126.264,369.924z"/>
	<path fill="#FFFFFF" d="M1108.68,209.924c-14.521,0-18.908,12.555-18.908,25.109c0,12.404,4.387,24.958,18.908,24.958
		c14.672,0,19.059-12.554,19.059-24.958C1127.738,222.479,1123.352,209.924,1108.68,209.924z"/>
	<path fill="#FFFFFF" d="M729.933,369.924c-13.614,0-17.546,10.588-17.849,16.639h34.941
		C745.059,375.672,740.37,369.924,729.933,369.924z"/>
	<path fill="#FFFFFF" d="M430.745,369.924c-14.521,0-18.907,12.555-18.907,25.109c0,12.403,4.386,24.958,18.907,24.958
		c14.672,0,19.059-12.555,19.059-24.958C449.804,382.479,445.417,369.924,430.745,369.924z"/>
	<path fill="#FFFFFF" d="M254.228,209.924c-14.521,0-18.907,12.555-18.907,25.109c0,12.404,4.386,24.958,18.907,24.958
		c14.672,0,19.059-12.554,19.059-24.958C273.287,222.479,268.9,209.924,254.228,209.924z"/>
	<path fill="#FFFFFF" d="M533.297,251.823c0,8.017,6.202,9.983,13.16,9.983c16.79,0,17.395-13.311,17.395-18v-8.017
		c-3.63,3.177-11.193,3.328-17.849,4.538C539.347,241.688,533.297,243.958,533.297,251.823z"/>
	<path fill="#FFFFFF" d="M936.095,209.924c-13.613,0-17.546,10.588-17.849,16.639h34.941
		C951.221,215.671,946.532,209.924,936.095,209.924z"/>
	<path fill="#FFFFFF" d="M340.444,369.924c-14.067,0-18.908,12.101-18.908,24.958c0,12.252,5.597,25.109,18.908,25.109
		c14.218,0,18.454-12.403,18.454-25.26C358.898,382.025,354.36,369.924,340.444,369.924z"/>
	<path fill="#FFFFFF" d="M-0.185-1.943v845h1500v-845H-0.185z M936.7,193.739c26.622,0,39.479,22.387,37.966,46.437h-56.42
		c0.605,13.613,7.261,19.815,19.21,19.815c8.622,0,15.58-5.294,16.941-10.134h18.907c-6.05,18.454-18.907,26.319-36.604,26.319
		c-24.655,0-39.933-16.941-39.933-41.143C896.768,211.587,912.952,193.739,936.7,193.739z M811.156,166.058h21.479v39.328h0.302
		c5.295-8.017,14.976-11.647,24.656-11.647c15.579,0,32.369,12.555,32.369,41.143c0,28.739-16.79,41.294-32.369,41.294
		c-11.496,0-21.025-3.479-25.715-12.101h-0.303v9.983h-20.42V166.058z M714.654,195.856h13.008v-23.445h21.479v23.445h15.731v14.37
		h-15.731v38.723c0,7.261,1.815,9.076,9.075,9.076c2.27,0,4.387-0.151,6.656-0.605v16.79c-3.631,0.605-8.319,0.756-12.555,0.756
		c-13.16,0-24.656-3.025-24.656-18.605v-46.135h-13.008V195.856z M468.862,193.739c18.454,0,35.395,9.681,36.756,29.647h-21.025
		c-1.361-8.773-6.958-13.462-15.882-13.462c-13.765,0-18.302,13.916-18.302,25.412c0,11.193,4.386,24.655,17.849,24.655
		c9.983,0,15.731-6.353,17.092-15.882h20.723c-2.723,20.723-17.092,32.067-37.664,32.067c-23.597,0-39.479-16.639-39.479-40.084
		C428.929,211.739,443.45,193.739,468.862,193.739z M305.655,195.856h21.479v44.168c0,12.857,3.782,19.21,13.765,19.21
		c11.647,0,16.639-6.504,16.639-22.386v-40.992h21.479v78.202h-20.42v-10.891h-0.454c-5.445,8.773-14.823,13.008-23.899,13.008
		c-22.84,0-28.588-12.857-28.588-32.218V195.856z M46.248,195.856h12.857v-6.05c0-13.765,8.622-23.748,26.168-23.748
		c3.781,0,7.714,0.454,11.344,0.605v16.034c-2.571-0.302-5.143-0.454-7.865-0.454c-5.748,0-8.168,2.42-8.168,8.924v4.689h14.824
		v14.37H80.584v63.832H59.105v-63.832H46.248V195.856z M15.089,166.058h23.748v108H15.089V166.058z M51.391,443.891
		c-4.689,12.555-12.101,17.697-26.924,17.697c-4.386,0-8.773-0.303-13.16-0.756v-17.698c4.084,0.303,8.319,0.908,12.555,0.757
		c7.412-0.757,9.832-8.471,7.412-14.672L3.744,355.857h22.992l17.697,53.546h0.303l17.092-53.546h22.235L51.391,443.891z
		 M126.264,436.176c-24.504,0-40.386-16.335-40.386-41.143c0-24.958,15.882-41.294,40.386-41.294
		c24.656,0,40.538,16.336,40.538,41.294C166.802,419.84,150.92,436.176,126.264,436.176z M152.431,301.587
		c-4.386,0-8.773-0.302-13.16-0.756v-17.697c4.084,0.302,8.319,0.908,12.555,0.756c7.412-0.756,9.832-8.471,7.412-14.672
		l-27.529-73.361H154.7l17.697,53.546h0.303l17.092-53.546h22.235l-32.672,88.034C174.666,296.445,167.254,301.587,152.431,301.587z
		 M251.052,434.059h-20.42v-10.891h-0.454c-5.445,8.773-14.823,13.008-23.899,13.008c-22.84,0-28.588-12.856-28.588-32.218v-48.101
		h21.479v44.168c0,12.857,3.782,19.21,13.765,19.21c11.647,0,16.639-6.504,16.639-22.386v-40.992h21.479V434.059z M254.228,276.176
		c-24.504,0-40.386-16.336-40.386-41.143c0-24.958,15.882-41.294,40.386-41.294c24.656,0,40.538,16.336,40.538,41.294
		C294.766,259.84,278.884,276.176,254.228,276.176z M379.621,434.059H359.2v-9.983h-0.302c-4.992,8.471-13.765,12.101-23.748,12.101
		c-23.597,0-35.092-20.269-35.092-41.898c0-21.025,11.647-40.538,34.639-40.538c9.227,0,18.302,3.933,23.143,11.647h0.303v-39.328
		h21.479V434.059z M430.745,436.176c-24.504,0-40.386-16.335-40.386-41.143c0-24.958,15.882-41.294,40.386-41.294
		c24.656,0,40.538,16.336,40.538,41.294C471.283,419.84,455.4,436.176,430.745,436.176z M555.533,434.059h-21.479v-44.168
		c0-12.857-3.781-19.21-13.765-19.21c-11.647,0-16.639,6.504-16.639,22.386v40.992h-21.479v-78.202h20.42v10.891h0.454
		c5.445-8.773,14.824-13.008,23.899-13.008c22.84,0,28.588,12.857,28.588,32.219V434.059z M564.759,266.495
		c-6.807,7.109-16.79,9.681-26.319,9.681c-14.823,0-26.622-7.412-26.622-23.445c0-17.698,13.311-21.933,26.622-23.748
		c13.16-1.966,25.412-1.513,25.412-10.286c0-9.227-6.353-10.588-13.916-10.588c-8.168,0-13.462,3.328-14.219,11.798h-21.479
		c1.21-20.118,19.21-26.168,36.756-26.168c15.58,0,34.336,3.479,34.336,22.235v40.689c0,7.109,0.756,14.219,2.723,17.395h-21.782
		C565.515,271.638,564.91,269.066,564.759,266.495z M570.958,374.613v-9.983c7.714-2.571,9.983-7.865,9.983-15.277h-9.983v-23.294
		h21.479v23.143C592.891,362.664,583.513,372.949,570.958,374.613z M648.103,370.227h-15.731v38.723
		c0,7.261,1.815,9.076,9.076,9.076c2.269,0,4.386-0.151,6.655-0.605v16.79c-3.63,0.604-8.319,0.756-12.555,0.756
		c-13.16,0-24.655-3.024-24.655-18.604v-46.135h-13.008v-14.37h13.008v-23.445h21.479v23.445h15.731V370.227z M672.303,274.058
		h-21.479V229.89c0-12.857-3.781-19.21-13.765-19.21c-11.647,0-16.639,6.504-16.639,22.386v40.992h-21.479v-78.202h20.42v10.891
		h0.454c5.445-8.773,14.824-13.008,23.899-13.008c22.84,0,28.588,12.857,28.588,32.219V274.058z M687.729,204.629
		c7.714-2.571,9.983-7.865,9.983-15.277h-9.983v-23.294h21.479v23.143c0.454,13.462-8.924,23.748-21.479,25.412V204.629z
		 M768.504,400.176h-56.42c0.605,13.613,7.26,19.815,19.21,19.815c8.622,0,15.58-5.294,16.941-10.134h18.908
		c-6.051,18.454-18.908,26.319-36.605,26.319c-24.655,0-39.933-16.941-39.933-41.143c0-23.445,16.185-41.294,39.933-41.294
		C757.159,353.739,770.017,376.126,768.504,400.176z M826.737,434.059l-16.336-24.655l-16.336,24.655h-24.051l28.135-41.143
		l-25.715-37.059h24.505l13.765,20.42l13.613-20.42h23.748l-25.715,36.605l28.891,41.597H826.737z M878.465,434.059h-21.479v-78.202
		h21.479V434.059z M878.465,343.756h-21.479v-17.698h21.479V343.756z M925.355,436.176c-18.151,0-35.849-6.807-36.756-27.529h20.42
		c0.151,9.378,8.017,13.16,16.487,13.16c6.202,0,14.067-2.42,14.067-9.983c0-6.504-8.925-8.773-24.353-12.101
		c-12.403-2.723-24.807-7.109-24.807-20.874c0-19.966,17.243-25.109,34.033-25.109c17.093,0,32.823,5.748,34.487,24.958h-20.42
		c-0.605-8.319-6.958-10.588-14.673-10.588c-4.84,0-11.949,0.908-11.949,7.261c0,7.714,12.101,8.773,24.353,11.647
		c12.555,2.874,24.807,7.412,24.807,21.933C961.053,429.521,943.204,436.176,925.355,436.176z M1013.537,370.227h-15.731v38.723
		c0,7.261,1.815,9.076,9.076,9.076c2.269,0,4.387-0.151,6.655-0.605v16.79c-3.63,0.604-8.319,0.756-12.555,0.756
		c-13.159,0-24.655-3.024-24.655-18.604v-46.135h-13.009v-14.37h13.009v-23.445h21.479v23.445h15.731V370.227z M1065.572,182.697
		c-2.572-0.302-5.144-0.454-7.866-0.454c-5.748,0-8.168,2.42-8.168,8.924v4.689h14.823v14.37h-14.823v63.832h-21.479v-63.832
		h-12.857v-14.37h12.857v-6.05c0-13.765,8.621-23.748,26.168-23.748c3.781,0,7.714,0.454,11.345,0.605V182.697z M1108.68,276.176
		c-24.505,0-40.387-16.336-40.387-41.143c0-24.958,15.882-41.294,40.387-41.294c24.655,0,40.537,16.336,40.537,41.294
		C1149.217,259.84,1133.335,276.176,1108.68,276.176z M1233.467,274.058h-20.42v-10.891h-0.454
		c-5.445,8.773-14.823,13.008-23.899,13.008c-22.84,0-28.588-12.857-28.588-32.218v-48.101h21.479v44.168
		c0,12.857,3.781,19.21,13.765,19.21c11.646,0,16.639-6.504,16.639-22.386v-40.992h21.479V274.058z M1320.137,274.058h-21.479
		V229.89c0-12.857-3.782-19.21-13.765-19.21c-11.647,0-16.639,6.504-16.639,22.386v40.992h-21.479v-78.202h20.42v10.891h0.454
		c5.445-8.773,14.823-13.008,23.899-13.008c22.84,0,28.588,12.857,28.588,32.219V274.058z M1409.681,274.058h-20.42v-9.983h-0.303
		c-4.991,8.471-13.765,12.101-23.748,12.101c-23.597,0-35.093-20.269-35.093-41.899c0-21.025,11.647-40.538,34.639-40.538
		c9.228,0,18.303,3.933,23.144,11.647h0.302v-39.328h21.479V274.058z M1447.645,274.058c0,13.916-10.588,23.143-23.597,25.109
		v-10.891c6.354-1.059,11.042-7.563,10.739-14.218h-10.891v-23.294h23.748V274.058z"/>
	<path fill="#FFFFFF" d="M850.182,259.991c12.706,0,18.303-11.949,18.303-24.958c0-13.16-5.597-25.109-18.303-25.109
		s-18.303,11.949-18.303,25.109C831.879,248.042,837.476,259.991,850.182,259.991z"/>
	<path fill="#FFFFFF" d="M1370.504,209.924c-14.067,0-18.907,12.101-18.907,24.958c0,12.252,5.597,25.109,18.907,25.109
		c14.219,0,18.454-12.403,18.454-25.26C1388.958,222.024,1384.42,209.924,1370.504,209.924z"/>
</g>
</svg>
