<?xml version="1.0" encoding="utf-8"?>
<!-- Generator: Adobe Illustrator 15.0.0, SVG Export Plug-In . SVG Version: 6.00 Build 0)  -->
<!DOCTYPE svg PUBLIC "-//W3C//DTD SVG 1.1 Tiny//EN" "http://www.w3.org/Graphics/SVG/1.1/DTD/svg11-tiny.dtd">
<svg version="1.1" baseProfile="tiny" id="Layer_1" xmlns="http://www.w3.org/2000/svg" xmlns:xlink="http://www.w3.org/1999/xlink"
	 x="0px" y="0px" width="1500px" height="845px" viewBox="0 0 1500 845" overflow="inherit" xml:space="preserve">
<g>
	<path fill="#FFFFFF" d="M780.852,322.387c9.904,0,13.1-8.521,13.1-17.467c0-8.733-3.516-17.786-13.207-17.786
		c-9.904,0-13.1,8.84-13.1,17.786S771.053,322.387,780.852,322.387z"/>
	<path fill="#FFFFFF" d="M794.485,393.642c-9.906,0-13.102,8.84-13.102,17.785c0,8.947,3.408,17.467,13.207,17.467
		c9.904,0,13.1-8.52,13.1-17.467C807.69,402.694,804.176,393.642,794.485,393.642z"/>
	<path fill="#FFFFFF" d="M844.649,423.144c0,5.645,4.365,7.029,9.266,7.029c11.822,0,12.248-9.373,12.248-12.674v-5.646
		c-2.557,2.238-7.881,2.344-12.568,3.195C848.908,416.007,844.649,417.604,844.649,423.144z"/>
	<path fill="#FFFFFF" d="M531.521,287.134c-9.585,0-12.354,7.455-12.568,11.715h24.603
		C542.172,291.181,538.87,287.134,531.521,287.134z"/>
	<path fill="#FFFFFF" d="M1069.801,287.134c-10.225,0-13.312,8.84-13.312,17.68c0,8.733,3.088,17.573,13.312,17.573
		c10.332,0,13.42-8.84,13.42-17.573C1083.221,295.974,1080.133,287.134,1069.801,287.134z"/>
	<path fill="#FFFFFF" d="M405.311,393.642c-9.585,0-12.354,7.455-12.568,11.715h24.603
		C415.962,397.688,412.66,393.642,405.311,393.642z"/>
	<path fill="#FFFFFF" d="M225.423,287.134c-10.225,0-13.313,8.84-13.313,17.68c0,8.733,3.088,17.573,13.313,17.573
		c10.331,0,13.42-8.84,13.42-17.573C238.843,295.974,235.754,287.134,225.423,287.134z"/>
	<path fill="#FFFFFF" d="M645.8,393.642c-9.585,0-12.354,7.455-12.568,11.715h24.603C656.45,397.688,653.149,393.642,645.8,393.642z
		"/>
	<path fill="#FFFFFF" d="M99.214,393.642c-10.225,0-13.313,8.84-13.313,17.68c0,8.732,3.089,17.572,13.313,17.572
		c10.331,0,13.42-8.84,13.42-17.572C112.634,402.481,109.545,393.642,99.214,393.642z"/>
	<path fill="#FFFFFF" d="M830.908,316.636c0,5.645,4.367,7.029,9.266,7.029c11.822,0,12.248-9.373,12.248-12.674v-5.646
		c-2.555,2.237-7.881,2.343-12.566,3.195C835.168,309.5,830.908,311.097,830.908,316.636z"/>
	<path fill="#FFFFFF" d="M1405.401,287.134c-9.586,0-12.354,7.455-12.566,11.715h24.602
		C1416.051,291.181,1412.75,287.134,1405.401,287.134z"/>
	<path fill="#FFFFFF" d="M1315.297,287.134c-8.947,0-12.887,8.414-12.887,17.68c0,9.159,3.939,17.573,12.887,17.573
		s12.887-8.414,12.887-17.573C1328.184,295.548,1324.244,287.134,1315.297,287.134z"/>
	<path fill="#FFFFFF" d="M0,0v845h1500V0H0z M895.344,308.116c-8.732-1.917-17.467-5.006-17.467-14.698
		c0-14.059,12.143-17.68,23.965-17.68c12.035,0,23.111,4.047,24.283,17.573h-14.379c-0.426-5.858-4.898-7.455-10.332-7.455
		c-3.408,0-8.414,0.639-8.414,5.112c0,5.432,8.521,6.178,17.148,8.201c8.84,2.023,17.467,5.219,17.467,15.443
		c0,14.484-12.568,19.171-25.135,19.171c-12.781,0-25.242-4.793-25.881-19.384h14.377c0.107,6.604,5.646,9.266,11.609,9.266
		c4.367,0,9.906-1.704,9.906-7.029C912.492,312.056,906.207,310.458,895.344,308.116z M842.625,285.856
		c-5.752,0-9.48,2.343-10.012,8.308h-15.125c0.852-14.166,13.527-18.426,25.881-18.426c10.971,0,24.178,2.449,24.178,15.656v28.65
		c0,5.006,0.533,10.012,1.916,12.248h-15.336c-0.533-1.704-0.959-3.515-1.064-5.325c-4.793,5.006-11.822,6.816-18.533,6.816
		c-10.438,0-18.744-5.219-18.744-16.509c0-12.461,9.371-15.443,18.744-16.721c9.266-1.385,17.893-1.065,17.893-7.243
		C852.422,286.814,847.949,285.856,842.625,285.856z M682.332,308.116c-8.734-1.917-17.467-5.006-17.467-14.698
		c0-14.059,12.142-17.68,23.964-17.68c12.035,0,23.112,4.047,24.284,17.573h-14.378c-0.426-5.858-4.899-7.455-10.331-7.455
		c-3.408,0-8.414,0.639-8.414,5.112c0,5.432,8.521,6.178,17.147,8.201c8.84,2.023,17.467,5.219,17.467,15.443
		c0,14.484-12.567,19.171-25.135,19.171c-12.781,0-25.242-4.793-25.881-19.384h14.378c0.106,6.604,5.645,9.266,11.609,9.266
		c4.367,0,9.905-1.704,9.905-7.029C699.48,312.056,693.196,310.458,682.332,308.116z M630.571,275.738
		c18.745,0,27.798,15.763,26.733,32.697h-39.727c0.426,9.586,5.112,13.952,13.526,13.952c6.071,0,10.97-3.728,11.929-7.136h13.313
		c-4.26,12.994-13.313,18.532-25.774,18.532c-17.361,0-28.118-11.929-28.118-28.97C602.453,288.305,613.849,275.738,630.571,275.738
		z M524.491,255.289h13.846l11.716,15.123h-12.461l-6.604-8.627l-6.816,8.627h-11.502L524.491,255.289z M531.947,275.738
		c18.745,0,27.798,15.763,26.733,32.697h-39.727c0.426,9.586,5.112,13.952,13.526,13.952c6.071,0,10.97-3.728,11.929-7.136h13.313
		c-4.26,12.994-13.313,18.532-25.774,18.532c-17.361,0-28.118-11.929-28.118-28.97C503.829,288.305,515.225,275.738,531.947,275.738
		z M413.725,277.228h14.378v7.669h0.319c3.834-6.177,10.438-9.159,16.828-9.159c16.083,0,20.129,9.053,20.129,22.686v33.869h-15.124
		v-31.1c0-9.053-2.663-13.526-9.692-13.526c-8.201,0-11.715,4.579-11.715,15.763v28.863h-15.124V277.228z M86.646,256.248h15.124
		v12.461H86.646V256.248z M86.646,277.228h15.124v55.064H86.646V277.228z M39.145,299.062c-11.29-2.981-22.686-7.349-22.686-21.62
		c0-15.55,14.698-23.005,28.437-23.005c15.87,0,30.461,6.922,30.461,24.496H59.168c-0.532-9.16-7.029-11.503-15.018-11.503
		c-5.325,0-11.502,2.236-11.502,8.627c0,5.858,3.621,6.604,22.686,11.503c5.538,1.385,22.579,4.898,22.579,22.153
		c0,13.952-10.97,24.39-31.632,24.39c-16.828,0-32.591-8.308-32.378-27.053h16.189c0,10.118,7.881,14.059,16.828,14.059
		c5.858,0,14.804-1.703,14.804-9.479C61.724,303.429,50.328,302.044,39.145,299.062z M47.558,438.8H30.731l-18.852-55.064h15.869
		l11.609,37.597h0.213l11.609-37.597h15.017L47.558,438.8z M99.214,440.29c-17.254,0-28.437-11.502-28.437-28.969
		c0-17.574,11.183-29.076,28.437-29.076c17.36,0,28.544,11.501,28.544,29.076C127.758,428.788,116.574,440.29,99.214,440.29z
		 M189.211,438.8h-14.378v-7.668h-0.319c-3.834,6.176-10.438,9.158-16.828,9.158c-16.082,0-20.129-9.053-20.129-22.686v-33.869
		h15.124v31.099c0,9.055,2.663,13.527,9.692,13.527c8.201,0,11.716-4.58,11.716-15.764v-28.863h15.124V438.8z M173.768,332.292
		H156.94l-18.852-55.064h15.869l11.609,37.598h0.213l11.609-37.598h15.017L173.768,332.292z M223.932,440.29
		c-12.781,0-25.242-4.793-25.881-19.383h14.378c0.106,6.604,5.645,9.266,11.609,9.266c4.367,0,9.905-1.705,9.905-7.029
		c0-4.58-6.284-6.178-17.147-8.521c-8.734-1.916-17.467-5.006-17.467-14.697c0-14.058,12.142-17.679,23.964-17.679
		c12.035,0,23.112,4.047,24.284,17.572h-14.378c-0.426-5.857-4.899-7.455-10.331-7.455c-3.408,0-8.414,0.639-8.414,5.113
		c0,5.432,8.521,6.178,17.147,8.201c8.84,2.023,17.467,5.219,17.467,15.443C249.067,435.604,236.5,440.29,223.932,440.29z
		 M225.423,333.784c-17.254,0-28.437-11.503-28.437-28.97c0-17.574,11.183-29.076,28.437-29.076
		c17.361,0,28.544,11.502,28.544,29.076C253.967,322.281,242.784,333.784,225.423,333.784z M263.765,311.097v-33.869h15.124v31.101
		c0,9.053,2.663,13.526,9.692,13.526c8.201,0,11.716-4.58,11.716-15.764v-28.863h15.124v55.064h-14.378v-7.668h-0.32
		c-3.834,6.177-10.438,9.159-16.828,9.159C267.812,333.784,263.765,324.73,263.765,311.097z M339.171,438.8h-15.124v-31.1
		c0-9.053-2.663-13.527-9.692-13.527c-8.201,0-11.716,4.58-11.716,15.764V438.8h-15.124v-55.064h14.378v7.668h0.319
		c3.834-6.177,10.438-9.158,16.828-9.158c16.083,0,20.129,9.053,20.129,22.685V438.8z M367.288,379.05
		c0.32,9.479-6.284,16.72-15.124,17.892v-7.029c5.432-1.811,7.03-5.539,7.03-10.758h-7.03v-16.401h15.124V379.05z M350.141,333.784
		c-12.781,0-25.242-4.793-25.881-19.384h14.378c0.107,6.604,5.645,9.266,11.609,9.266c4.367,0,9.905-1.704,9.905-7.029
		c0-4.58-6.284-6.178-17.147-8.521c-8.734-1.917-17.467-5.006-17.467-14.698c0-14.059,12.142-17.68,23.964-17.68
		c12.035,0,23.112,4.047,24.284,17.573h-14.378c-0.426-5.858-4.899-7.455-10.331-7.455c-3.408,0-8.414,0.639-8.414,5.112
		c0,5.432,8.521,6.178,17.147,8.201c8.84,2.023,17.467,5.219,17.467,15.443C375.277,329.097,362.709,333.784,350.141,333.784z
		 M432.47,414.942h-39.727c0.426,9.586,5.112,13.951,13.526,13.951c6.071,0,10.97-3.727,11.929-7.135h13.313
		c-4.26,12.994-13.313,18.531-25.774,18.531c-17.361,0-28.118-11.928-28.118-28.969c0-16.51,11.396-29.076,28.118-29.076
		C424.483,382.246,433.535,398.007,432.47,414.942z M475.605,438.8l-11.503-17.361L452.599,438.8h-16.935l19.81-28.971
		l-18.106-26.093h17.254l9.692,14.378l9.585-14.378h16.721l-18.106,25.775l20.343,29.289H475.605z M493.497,272.542
		c0.32,9.479-6.284,16.722-15.124,17.893v-7.029c5.432-1.811,7.029-5.538,7.029-10.757h-7.029v-16.401h15.124V272.542z
		 M514.159,438.8h-15.124v-55.064h15.124V438.8z M514.159,375.215h-15.124v-12.461h15.124V375.215z M549.306,440.29
		c-12.781,0-25.242-4.793-25.881-19.383h14.378c0.107,6.604,5.645,9.266,11.609,9.266c4.367,0,9.905-1.705,9.905-7.029
		c0-4.58-6.284-6.178-17.147-8.521c-8.734-1.916-17.467-5.006-17.467-14.697c0-14.058,12.142-17.679,23.964-17.679
		c12.035,0,23.112,4.047,24.284,17.572h-14.378c-0.426-5.857-4.899-7.455-10.331-7.455c-3.408,0-8.414,0.639-8.414,5.113
		c0,5.432,8.521,6.178,17.147,8.201c8.84,2.023,17.467,5.219,17.467,15.443C574.442,435.604,561.874,440.29,549.306,440.29z
		 M571.674,319.832v-32.484h-9.16v-10.119h9.16V260.72h15.124v16.508h11.077v10.119h-11.077v27.266c0,5.111,1.278,6.391,6.391,6.391
		c1.598,0,3.088-0.107,4.686-0.427v11.822c-2.556,0.427-5.858,0.532-8.84,0.532C579.768,332.931,571.674,330.801,571.674,319.832z
		 M613.529,393.854h-11.077v27.266c0,5.111,1.278,6.391,6.391,6.391c1.598,0,3.088-0.107,4.686-0.428v11.822
		c-2.556,0.428-5.858,0.533-8.84,0.533c-9.266,0-17.36-2.131-17.36-13.1v-32.484h-9.16v-10.119h9.16v-16.508h15.124v16.508h11.077
		V393.854z M672.959,414.942h-39.727c0.426,9.586,5.112,13.951,13.526,13.951c6.071,0,10.97-3.727,11.929-7.135H672
		c-4.26,12.994-13.313,18.531-25.774,18.531c-17.361,0-28.118-11.928-28.118-28.969c0-16.51,11.396-29.076,28.118-29.076
		C664.971,382.246,674.024,398.007,672.959,414.942z M729.088,438.8h-50.591v-11.396l28.65-32.271h-26.52v-11.396h46.438v11.396
		l-28.651,32.271h30.674V438.8z M753.053,277.228h14.379v7.03h0.213c3.621-5.858,9.586-8.521,16.402-8.521
		c17.254,0,25.027,13.952,25.027,29.608c0,14.698-8.094,28.438-24.176,28.438c-6.604,0-12.889-2.876-16.51-8.308h-0.213v26.201
		h-15.123V277.228z M798.637,440.29c-6.604,0-12.887-2.875-16.508-8.307h-0.213v26.201h-15.125v-74.449h14.379v7.029h0.213
		c3.621-5.857,9.586-8.52,16.402-8.52c17.254,0,25.029,13.951,25.029,29.607C822.815,426.552,814.719,440.29,798.637,440.29z
		 M867.865,438.8c-0.531-1.705-0.957-3.516-1.064-5.326c-4.793,5.006-11.822,6.816-18.531,6.816
		c-10.438,0-18.746-5.219-18.746-16.508c0-12.461,9.373-15.443,18.746-16.721c9.266-1.385,17.893-1.066,17.893-7.244
		c0-6.496-4.473-7.455-9.799-7.455c-5.752,0-9.479,2.343-10.012,8.308h-15.123c0.852-14.166,13.525-18.425,25.881-18.425
		c10.971,0,24.176,2.449,24.176,15.656v28.65c0,5.006,0.533,10.012,1.918,12.248H867.865z M916.221,440.29
		c-12.781,0-25.242-4.793-25.881-19.383h14.377c0.107,6.604,5.646,9.266,11.609,9.266c4.367,0,9.906-1.705,9.906-7.029
		c0-4.58-6.285-6.178-17.148-8.521c-8.732-1.916-17.467-5.006-17.467-14.697c0-14.058,12.143-17.679,23.965-17.679
		c12.035,0,23.111,4.047,24.283,17.572h-14.379c-0.426-5.857-4.898-7.455-10.332-7.455c-3.408,0-8.414,0.639-8.414,5.113
		c0,5.432,8.521,6.178,17.148,8.201c8.84,2.023,17.467,5.219,17.467,15.443C941.356,435.604,928.787,440.29,916.221,440.29z
		 M967.555,438.8h-16.721v-16.402h16.721V438.8z M996.313,287.347h-11.076v27.266c0,5.111,1.277,6.391,6.389,6.391
		c1.598,0,3.09-0.107,4.688-0.427v11.822c-2.557,0.427-5.857,0.532-8.84,0.532c-9.268,0-17.361-2.13-17.361-13.1v-32.484h-9.16
		v-10.119h9.16V260.72h15.125v16.508h11.076V287.347z M1039.02,290.33c-1.385-0.32-3.621-0.533-5.432-0.533
		c-11.076,0-14.91,7.988-14.91,17.68v24.816h-15.125v-55.064h14.379v10.225h0.213c2.77-6.922,10.225-11.715,17.574-11.715
		c1.064,0,2.344,0.213,3.301,0.532V290.33z M1069.801,333.784c-17.254,0-28.438-11.503-28.438-28.97
		c0-17.574,11.184-29.076,28.438-29.076c17.361,0,28.545,11.502,28.545,29.076C1098.346,322.281,1087.162,333.784,1069.801,333.784z
		 M1159.799,332.292h-14.379v-7.668h-0.318c-3.834,6.177-10.438,9.159-16.828,9.159c-16.082,0-20.131-9.054-20.131-22.687v-33.869
		h15.125v31.101c0,9.053,2.662,13.526,9.691,13.526c8.201,0,11.717-4.58,11.717-15.764v-28.863h15.123V332.292z M1201.762,332.292
		h-16.828l-18.852-55.064h15.869l11.609,37.598h0.213l11.609-37.598h15.018L1201.762,332.292z M1262.682,332.292
		c-0.531-1.704-0.957-3.515-1.064-5.325c-4.793,5.006-11.822,6.816-18.531,6.816c-10.438,0-18.746-5.219-18.746-16.509
		c0-12.461,9.373-15.443,18.746-16.721c9.266-1.385,17.893-1.065,17.893-7.243c0-6.497-4.473-7.455-9.799-7.455
		c-5.752,0-9.479,2.343-10.012,8.308h-15.123c0.852-14.166,13.525-18.426,25.881-18.426c10.971,0,24.176,2.449,24.176,15.656v28.65
		c0,5.006,0.533,10.012,1.918,12.248H1262.682z M1320.516,333.784c-8.094,0-14.805-2.45-18.105-8.521h-0.213v7.029h-14.379v-76.045
		h15.123v27.691h0.213c3.729-5.645,10.545-8.201,17.361-8.201c10.971,0,22.793,8.84,22.793,28.97
		C1343.309,324.943,1331.487,333.784,1320.516,333.784z M1368.444,332.292h-15.123v-76.045h15.123V332.292z M1432.561,308.435
		h-39.727c0.426,9.586,5.111,13.952,13.525,13.952c6.07,0,10.971-3.728,11.93-7.136h13.312
		c-4.26,12.994-13.312,18.532-25.775,18.532c-17.359,0-28.117-11.929-28.117-28.97c0-16.509,11.396-29.076,28.117-29.076
		C1424.573,275.738,1433.625,291.5,1432.561,308.435z M1458.973,332.292c0,9.799-7.455,16.295-16.615,17.68v-7.668
		c4.473-0.746,7.775-5.325,7.562-10.012h-7.668V315.89h16.721V332.292z"/>
	<path fill="#FFFFFF" d="M630.144,287.134c-9.585,0-12.354,7.455-12.568,11.715h24.603
		C640.795,291.181,637.493,287.134,630.144,287.134z"/>
	<path fill="#FFFFFF" d="M1239.465,316.636c0,5.645,4.365,7.029,9.266,7.029c11.822,0,12.248-9.373,12.248-12.674v-5.646
		c-2.557,2.237-7.881,2.343-12.568,3.195C1243.725,309.5,1239.465,311.097,1239.465,316.636z"/>
</g>
</svg>
