<?xml version="1.0" encoding="utf-8"?>
<!-- Generator: Adobe Illustrator 16.0.0, SVG Export Plug-In . SVG Version: 6.00 Build 0)  -->
<!DOCTYPE svg PUBLIC "-//W3C//DTD SVG 1.1//EN" "http://www.w3.org/Graphics/SVG/1.1/DTD/svg11.dtd">
<svg version="1.1" id="Layer_1" xmlns="http://www.w3.org/2000/svg" xmlns:xlink="http://www.w3.org/1999/xlink" x="0px" y="0px"
	 width="1500px" height="845px" viewBox="0 0 1500 845" enable-background="new 0 0 1500 845" xml:space="preserve">
<g>
	<path fill="#FFFFFF" d="M1030.416,274.69c-32.508,0-49.896,28.476-49.896,59.472s17.39,59.472,49.896,59.472
		s49.896-28.476,49.896-59.472S1062.924,274.69,1030.416,274.69z"/>
	<path fill="#FFFFFF" d="M475.766,274.69c-34.522,0-47.375,28.98-47.375,59.724s10.836,59.22,47.375,59.22
		c33.769,0,48.637-27.216,48.637-59.22C524.402,304.93,510.542,274.69,475.766,274.69z"/>
	<path fill="#FFFFFF" d="M650.15,274.69c-28.729,0-45.612,26.712-47.627,52.416h95.003C697.021,299.89,679.886,274.69,650.15,274.69
		z"/>
	<path fill="#FFFFFF" d="M0,0v845h1500V0H0z M86.18,403.209c-42.084,0-76.356-17.388-75.852-63.756h11.088
		c-2.268,39.312,29.232,54.18,64.764,54.18c21.672,0,52.164-9.828,52.164-41.076c0-30.492-30.744-35.784-61.488-42.084
		c-30.492-6.3-61.235-13.608-61.235-47.88c0-34.524,32.004-47.88,60.479-47.88c37.548,0,67.032,16.128,68.796,55.692h-11.088
		c-1.26-30.744-24.444-46.116-57.708-46.116c-20.412,0-49.392,8.568-49.392,38.304c0,28.98,30.744,33.769,61.236,40.068
		c30.744,6.3,61.487,14.112,61.487,49.896C149.431,389.854,113.647,403.209,86.18,403.209z M185.213,398.925h-9.576V269.398h9.576
		V398.925z M185.213,244.954h-9.576v-25.956h9.576V244.954z M387.82,398.925h-9.576v-88.704c0-33.012-23.437-35.532-30.996-35.532
		c-23.436,0-40.572,16.632-40.572,47.627v76.608H297.1V310.22c0-32.508-22.176-35.532-30.492-35.532
		c-18.396,0-41.076,14.364-41.076,47.627v76.608h-9.576V269.398h9.576v26.46h0.504c4.032-16.38,21.168-29.484,40.572-29.484
		c24.696,0,36.289,14.112,39.06,27.468h0.504c7.561-17.64,20.16-27.468,41.076-27.468c23.436,0,40.572,13.608,40.572,44.1V398.925z
		 M475.766,401.949c-21.42,0-39.562-9.072-47.124-29.988h-0.504v73.332h-9.575V269.398h9.575v29.736h0.504
		c4.032-12.852,18.648-32.76,47.124-32.76c39.816,0,58.213,31.5,58.213,68.04C533.979,373.726,515.33,401.949,475.766,401.949z
		 M568.25,398.925h-9.576V218.998h9.576V398.925z M707.102,335.421h-104.58c-0.504,30.492,15.625,58.212,47.627,58.212
		c24.444,0,41.832-14.616,46.368-38.556h9.576c-5.04,30.24-25.2,46.872-55.944,46.872c-37.8,0-57.707-29.736-57.203-65.521
		c-0.504-35.532,18.144-70.056,57.203-70.056C690.722,266.374,708.866,298.378,707.102,335.421z M921.805,398.925h-11.844
		L874.43,281.494h-0.505l-35.783,117.432h-12.096L784.97,269.398h10.332l36.54,118.439h0.504l35.279-118.439h12.854l35.53,118.439
		h0.504l36.288-118.439h10.584L921.805,398.925z M1030.416,401.949c-38.053,0-59.473-30.996-59.473-67.788
		s21.42-67.788,59.473-67.788c38.052,0,59.472,30.996,59.472,67.788S1068.468,401.949,1030.416,401.949z M1172.289,278.218
		c-10.08-1.26-24.192,1.26-35.784,12.6c-9.576,9.828-13.607,17.892-14.616,37.296v70.812h-9.574V269.398h9.574v28.728h0.757
		c5.039-16.884,26.207-30.492,49.645-29.484L1172.289,278.218L1172.289,278.218z M1277.12,398.925l-55.188-73.835l-29.482,24.948
		v48.888h-9.576V218.998h9.576v119.195l79.883-68.795h13.859l-56.699,48.384l60.732,81.144L1277.12,398.925L1277.12,398.925z
		 M1346.42,401.949c-29.482,0-51.659-15.876-52.415-46.116h9.575c1.513,23.94,19.404,37.8,42.84,37.8
		c16.885,0,41.076-5.04,41.076-27.468c0-21.924-22.176-25.2-44.352-29.736c-22.429-4.536-44.604-10.332-44.604-36.792
		c0-25.704,24.946-33.264,46.871-33.264c27.468,0,47.88,11.844,47.88,41.328h-9.576c-0.252-23.436-16.632-33.012-38.304-33.012
		c-17.64,0-37.296,6.552-37.296,24.948c0,20.664,22.176,23.94,43.092,28.477c25.704,4.788,45.863,10.836,45.863,38.052
		C1397.072,394.137,1369.102,401.949,1346.42,401.949z M1447.47,398.925h-12.853v-25.956h12.853V398.925z"/>
</g>
</svg>
