<?xml version="1.0" encoding="utf-8"?>
<!-- Generator: Adobe Illustrator 15.0.0, SVG Export Plug-In . SVG Version: 6.00 Build 0)  -->
<!DOCTYPE svg PUBLIC "-//W3C//DTD SVG 1.1 Tiny//EN" "http://www.w3.org/Graphics/SVG/1.1/DTD/svg11-tiny.dtd">
<svg version="1.1" baseProfile="tiny" id="Layer_1" xmlns="http://www.w3.org/2000/svg" xmlns:xlink="http://www.w3.org/1999/xlink"
	 x="0px" y="0px" width="195px" height="14px" viewBox="0 0 195 14" overflow="inherit" xml:space="preserve">
<g>
	<rect x="49.888" y="6.515" fill="#6B6B6B" width="4.989" height="0.971"/>
	<rect x="59.866" y="6.515" fill="#6B6B6B" width="4.989" height="0.971"/>
	<rect x="39.911" y="6.515" fill="#6B6B6B" width="4.989" height="0.971"/>
	<rect x="79.821" y="6.515" fill="#6B6B6B" width="4.989" height="0.971"/>
	<rect x="69.843" y="6.515" fill="#6B6B6B" width="4.989" height="0.971"/>
	<rect x="29.932" y="6.515" fill="#6B6B6B" width="4.99" height="0.971"/>
	<rect y="6.515" fill="#6B6B6B" width="4.989" height="0.971"/>
	<rect x="9.978" y="6.515" fill="#6B6B6B" width="4.989" height="0.971"/>
	<rect x="89.798" y="6.515" fill="#6B6B6B" width="4.989" height="0.971"/>
	<rect x="19.955" y="6.515" fill="#6B6B6B" width="4.989" height="0.971"/>
	<rect x="159.642" y="6.515" fill="#6B6B6B" width="4.989" height="0.971"/>
	<rect x="169.619" y="6.515" fill="#6B6B6B" width="4.989" height="0.971"/>
	<rect x="149.664" y="6.515" fill="#6B6B6B" width="4.989" height="0.971"/>
	<rect x="179.597" y="6.515" fill="#6B6B6B" width="4.989" height="0.971"/>
	<rect x="139.687" y="6.515" fill="#6B6B6B" width="4.989" height="0.971"/>
	<rect x="119.731" y="6.515" fill="#6B6B6B" width="4.988" height="0.971"/>
	<rect x="129.709" y="6.515" fill="#6B6B6B" width="4.989" height="0.971"/>
	<rect x="109.754" y="6.515" fill="#6B6B6B" width="4.988" height="0.971"/>
	<rect x="99.776" y="6.515" fill="#6B6B6B" width="4.988" height="0.971"/>
	<polygon fill="#6B6B6B" points="187.8,0 187.8,14 195,7 	"/>
</g>
</svg>
