<?xml version="1.0" encoding="utf-8"?>
<!-- Generator: Adobe Illustrator 16.0.0, SVG Export Plug-In . SVG Version: 6.00 Build 0)  -->
<!DOCTYPE svg PUBLIC "-//W3C//DTD SVG 1.1//EN" "http://www.w3.org/Graphics/SVG/1.1/DTD/svg11.dtd">
<svg version="1.1" id="Layer_1" xmlns="http://www.w3.org/2000/svg" xmlns:xlink="http://www.w3.org/1999/xlink" x="0px" y="0px"
	 width="140px" height="140px" viewBox="0 0 140 140" enable-background="new 0 0 140 140" xml:space="preserve">
<g>
	<path fill="#D10014" d="M62.262,66.747l-1.624,1.519l2.119,0.02l1.617-1.527c1.841-0.052,3.489-0.227,4.941-0.525
		c1.449-0.299,2.712-0.646,3.789-1.034c1.074-0.394,1.953-0.797,2.625-1.209c0.681-0.412,1.154-0.753,1.431-1.023
		c0.312-0.309,0.626-0.658,0.946-1.052c0.317-0.394,0.451-0.782,0.403-1.171c-0.044-0.386-0.349-0.753-0.914-1.099
		c-0.565-0.344-1.585-0.621-3.064-0.831c-0.276-0.042-0.539-0.08-0.794-0.111c-0.256-0.029-0.5-0.06-0.743-0.09l3.366-3.182
		c0.793-0.022,1.287,0.126,1.494,0.447c0.205,0.322,0.067,0.726-0.416,1.211l4.975-0.117c0.582-0.639,0.888-1.183,0.921-1.637
		c0.031-0.453-0.136-0.823-0.515-1.113c-0.373-0.288-0.926-0.504-1.664-0.65c-0.73-0.144-1.586-0.228-2.562-0.25l1.462-1.382
		L78,52.021l-1.467,1.374c-1.078,0.072-2.199,0.21-3.355,0.416c-1.158,0.204-2.279,0.474-3.364,0.809
		c-1.084,0.333-2.103,0.733-3.059,1.202c-0.96,0.466-1.766,0.995-2.425,1.588c-0.647,0.582-0.986,1.063-1.024,1.445
		c-0.034,0.384,0.137,0.7,0.52,0.951c0.377,0.256,0.902,0.455,1.571,0.602c0.673,0.147,1.381,0.275,2.121,0.382
		c0.207,0.022,0.396,0.046,0.565,0.073c0.165,0.028,0.297,0.052,0.39,0.074l-3.993,3.736c-0.973-0.106-1.611-0.354-1.923-0.743
		c-0.309-0.385-0.087-0.913,0.669-1.585l-4.996,0.039c-1.289,1.369-1.582,2.406-0.875,3.119
		C58.063,66.224,59.7,66.638,62.262,66.747z M69.565,57.049c0.266-0.247,0.59-0.466,0.96-0.653c0.375-0.188,0.775-0.348,1.215-0.48
		c0.436-0.132,0.875-0.234,1.306-0.304c0.438-0.07,0.853-0.112,1.249-0.123l-3.115,2.914c-0.979-0.108-1.6-0.265-1.862-0.466
		C69.061,57.732,69.143,57.438,69.565,57.049z M70.219,61.22c1.186,0.177,1.939,0.381,2.271,0.611
		c0.331,0.229,0.25,0.582-0.239,1.055c-0.299,0.291-0.68,0.543-1.137,0.757c-0.457,0.212-0.94,0.394-1.458,0.537
		c-0.516,0.146-1.047,0.257-1.585,0.338c-0.542,0.078-1.039,0.13-1.486,0.153L70.219,61.22z"/>
	<path fill="#D10014" d="M70,0C31.34,0,0,31.34,0,70s31.34,70,70,70s70-31.34,70-70S108.66,0,70,0z M23.316,71.854
		c-0.179-0.477-0.04-1.016,0.344-1.35l23.001-21.611c0.221-0.194,0.506-0.3,0.802-0.3h68.076c0.494,0,0.939,0.297,1.129,0.754
		c0.189,0.458,0.084,0.983-0.266,1.333L94.24,72.293c-0.23,0.229-0.541,0.357-0.866,0.357h-68.91
		C23.953,72.65,23.495,72.334,23.316,71.854z M116.761,74L99.996,90.689c-0.458,0.459-1.08,0.719-1.729,0.719H23.53v-4.895h73.726
		l19.505-19.51V74z M116.761,62.279L97.549,81.312c-0.458,0.461-1.082,0.719-1.729,0.719H23.531v-4.896h71.275l21.953-21.955
		L116.761,62.279L116.761,62.279z"/>
</g>
</svg>
