<?xml version="1.0" encoding="utf-8"?>
<!-- Generator: Adobe Illustrator 15.0.0, SVG Export Plug-In . SVG Version: 6.00 Build 0)  -->
<!DOCTYPE svg PUBLIC "-//W3C//DTD SVG 1.1 Tiny//EN" "http://www.w3.org/Graphics/SVG/1.1/DTD/svg11-tiny.dtd">
<svg version="1.1" baseProfile="tiny" id="Layer_1" xmlns="http://www.w3.org/2000/svg" xmlns:xlink="http://www.w3.org/1999/xlink"
	 x="0px" y="0px" width="140px" height="140px" viewBox="0 0 140 140" overflow="inherit" xml:space="preserve">
<g>
	<circle fill="#BF2D2D" cx="109.271" cy="68.733" r="0.475"/>
	<path fill="#BF2D2D" d="M107.531,70.475h3.166c0.177,0,0.318-0.142,0.318-0.316s-0.142-0.316-0.318-0.316h-3.166
		c-0.177,0-0.317,0.142-0.317,0.316S107.354,70.475,107.531,70.475z"/>
	<path fill="#BF2D2D" d="M37.091,102.213h-3.907c-0.228,0-0.412,0.184-0.412,0.41v0.412c0,0.226,0.184,0.411,0.412,0.411h3.907
		c0.227,0,0.411-0.186,0.411-0.411v-0.412C37.502,102.396,37.318,102.213,37.091,102.213z"/>
	<path fill="#BF2D2D" d="M47.373,68.701H22.489c-0.227,0-0.411,0.185-0.411,0.411h0.001v31.044c0,0.228,0.184,0.411,0.41,0.411
		h24.883c0.227,0,0.411-0.184,0.411-0.411V69.112C47.783,68.886,47.599,68.701,47.373,68.701z"/>
	<circle fill="#BF2D2D" cx="109.432" cy="103.725" r="1.267"/>
	<path fill="#BF2D2D" d="M117.351,72.058h-16.155c-0.351,0-0.634,0.284-0.634,0.634v27.55c0,0.35,0.283,0.634,0.634,0.634h16.155
		c0.348,0,0.633-0.284,0.633-0.634v-27.55C117.983,72.342,117.698,72.058,117.351,72.058z"/>
	<path fill="#BF2D2D" d="M70,0C31.34,0,0,31.34,0,70s31.34,70,70,70c38.661,0,70-31.34,70-70S108.661,0,70,0z M30.704,36.275
		c0-1.399,1.135-2.533,2.535-2.533h73.487c1.397,0,2.532,1.134,2.532,2.533V64.94h-3.166V38.175c0-0.35-0.284-0.633-0.635-0.633
		H34.822c-0.35,0-0.633,0.283-0.633,0.633v26.456h-3.485V36.275z M49.635,103.446c0,0.907-0.737,1.644-1.646,1.644H22.078
		c-0.908,0-1.645-0.736-1.645-1.644V68.29c0-0.908,0.737-1.645,1.645-1.645H47.99c0.909,0,1.646,0.736,1.646,1.645V103.446z
		 M86.771,104.965H73.196c-0.3,0-0.47,0-0.47,0H57.569c-0.95,0-1.477-0.502-0.422-0.818c5.185-1.555,5.173-10.661,5.173-10.661
		l0.06,0.014v-1.175c0-0.349,0.283-0.633,0.632-0.633h18.371c0.351,0,0.634,0.284,0.634,0.633v1.161c0,0-0.011,9.106,5.175,10.661
		C88.248,104.463,87.72,104.965,86.771,104.965z M96.789,90.74H51.836V80.292h44.953V90.74z M117.033,106.258h-15.521
		c-1.4,0-2.534-1.135-2.534-2.533V69.525c0-1.399,1.134-2.533,2.534-2.533h15.521c1.398,0,2.533,1.134,2.533,2.533v34.198
		C119.566,105.123,118.433,106.258,117.033,106.258z"/>
</g>
</svg>
