<?xml version="1.0" encoding="utf-8"?>
<!-- Generator: Adobe Illustrator 16.0.0, SVG Export Plug-In . SVG Version: 6.00 Build 0)  -->
<!DOCTYPE svg PUBLIC "-//W3C//DTD SVG 1.1//EN" "http://www.w3.org/Graphics/SVG/1.1/DTD/svg11.dtd">
<svg version="1.1" id="Layer_1" xmlns="http://www.w3.org/2000/svg" xmlns:xlink="http://www.w3.org/1999/xlink" x="0px" y="0px"
	 width="140px" height="140px" viewBox="0 0 140 140" enable-background="new 0 0 140 140" xml:space="preserve">
<path fill="#D10014" d="M70,0C31.34,0,0,31.34,0,70s31.34,70,70,70c38.661,0,70-31.34,70-70S108.661,0,70,0z M57.616,88.155
	c-4.605,0-9.012-0.56-13.087-1.577c-6.059,3.404-14.007,7.203-21.455,8.693C18.625,96.16,20,94.912,21.1,94.05
	c6.735-5.282,9.992-9.18,11.64-12.233c-7.743-4.609-12.628-11.333-12.628-18.827c0-13.902,16.791-25.166,37.503-25.166
	c20.711,0,37.503,11.265,37.503,25.167C95.118,76.891,78.327,88.155,57.616,88.155z M118.639,102.071
	c-5.02-1.003-10.66-4.242-13.957-6.355c-3.133,0.979-6.619,1.528-10.301,1.528c-8.548,0-16.066-2.948-20.43-7.412
	c14.169-4.157,24.097-13.63,25.033-25.07c11.283,1.447,19.815,8.098,19.815,16.096c0,4.297-2.466,8.205-6.5,11.127
	c0.283,1.86,1.108,4.423,6.89,8.957C119.757,101.386,120.936,102.531,118.639,102.071z"/>
</svg>
