<?xml version="1.0" encoding="utf-8"?>
<!-- Generator: Adobe Illustrator 15.0.0, SVG Export Plug-In . SVG Version: 6.00 Build 0)  -->
<!DOCTYPE svg PUBLIC "-//W3C//DTD SVG 1.1//EN" "http://www.w3.org/Graphics/SVG/1.1/DTD/svg11.dtd">
<svg version="1.1" id="Layer_1" xmlns="http://www.w3.org/2000/svg" xmlns:xlink="http://www.w3.org/1999/xlink" x="0px" y="0px"
	 width="396px" height="256px" viewBox="0 0 396 256" enable-background="new 0 0 396 256" xml:space="preserve">
<g>
	<path fill="#A081BA" d="M182.7,155.416c0,0-46.488-42.697,0.545-85.608c0,0,1.376,17.204,29.411,16.769
		C212.656,86.577,183.027,107.586,182.7,155.416z"/>
	<path fill="#A081BA" d="M184.682,155.534c0,0,51.165-5.597,50.116-55.662c0,0-7.985,6.067-20.947,6.467
		C200.887,106.739,189.778,108.359,184.682,155.534z"/>
	<path fill="#A081BA" d="M223.217,38.5c0,0,8.998,12.927,9.766,23.341c0,0-7.91,1.113-15.606,10.161c0,0,9.751-19.987-12.048-20.744
		C205.328,51.259,217.776,45.013,223.217,38.5z"/>
	
		<ellipse transform="matrix(0.6618 0.7497 -0.7497 0.6618 119.4729 -129.2505)" fill="#4B3021" cx="202.978" cy="67.78" rx="12.039" ry="16.023"/>
	
		<ellipse transform="matrix(0.519 0.8548 -0.8548 0.519 187.1234 -143.6055)" fill="#4B3021" cx="221.16" cy="94.463" rx="9.032" ry="12.021"/>
	<g>
		<path fill="#4B3021" d="M143.681,168.444h9.928c2.773,0,5,0.621,6.533,1.826c1.569,1.167,2.408,2.956,2.408,5.255
			c0,2.08-0.949,4.196-3.138,5.438c4.342,1.533,4.452,5.146,4.452,6.277c0,2.153-0.839,4.525-2.482,5.876
			c-2.481,2.081-4.27,2.336-8.832,2.336h-8.869V168.444z M150.58,178.7h2.445c0.474,0,1.204,0,1.824-0.256
			c0.621-0.292,1.095-0.839,1.095-1.896c0-1.022-0.475-1.534-1.059-1.79c-0.584-0.254-1.313-0.254-1.861-0.254h-2.445V178.7z
			 M150.58,189.394h3.248c0.437,0,1.313,0,2.044-0.328c0.766-0.328,1.386-0.985,1.386-2.263c0-1.169-0.584-1.753-1.313-2.045
			c-0.694-0.29-1.57-0.29-2.116-0.29h-3.248V189.394z"/>
		<path fill="#4B3021" d="M164.956,182.24c0-8.832,6.789-14.306,14.233-14.306c8.321,0,14.27,6.495,14.27,14.014
			c0,7.518-5.913,14.016-14.306,14.016c-8.503,0-14.197-6.753-14.197-13.687V182.24z M171.853,181.912
			c0,4.124,2.811,7.993,7.445,7.993c4.891,0,7.263-4.453,7.263-7.92c0-3.504-2.372-7.993-7.336-7.993
			c-4.781,0-7.372,4.088-7.372,7.884V181.912z"/>
		<path fill="#4B3021" d="M195.354,195.452v-27.008h9.233l5.072,17.409l4.928-17.409h9.271v27.008h-6.351l0.219-20.219l-5.84,20.219
			h-4.562l-5.84-20.219l0.22,20.219H195.354z"/>
		<path fill="#4B3021" d="M232.794,195.452h-7.481l10.693-27.008h5.948l10.365,27.008h-7.554l-1.278-3.905h-9.453L232.794,195.452z
			 M238.67,176.656l-2.92,9.416h5.949L238.67,176.656z"/>
		<path fill="#A081BA" d="M143.681,200.405h4.367v13.259h5.059v3.836h-9.426V200.405z"/>
		<path fill="#A081BA" d="M158.534,217.5h-4.735l6.767-17.095h3.767l6.56,17.095h-4.782l-0.808-2.472h-5.983L158.534,217.5z
			 M162.253,205.604l-1.847,5.96h3.764L162.253,205.604z"/>
		<path fill="#4B3021" d="M177.5,217.5v-17.095h5.844l3.21,11.02l3.119-11.02h5.867V217.5h-4.02l0.138-12.798l-3.695,12.798h-2.888
			l-3.696-12.798l0.139,12.798H177.5z"/>
		<path fill="#4B3021" d="M202.032,217.5h-4.735l6.769-17.095h3.764l6.561,17.095h-4.78l-0.81-2.472h-5.982L202.032,217.5z
			 M205.752,205.604l-1.848,5.96h3.765L205.752,205.604z"/>
		<path fill="#4B3021" d="M215.731,217.5v-17.095h5.844l3.211,11.02l3.119-11.02h5.868V217.5h-4.021l0.139-12.798l-3.696,12.798
			h-2.887l-3.697-12.798l0.14,12.798H215.731z"/>
		<path fill="#4B3021" d="M239.732,217.5h-4.735l6.769-17.095h3.766l6.561,17.095h-4.782l-0.809-2.472h-5.983L239.732,217.5z
			 M243.452,205.604l-1.849,5.96h3.766L243.452,205.604z"/>
	</g>
</g>
</svg>
