<?xml version="1.0" encoding="utf-8"?>
<!-- Generator: Adobe Illustrator 15.0.0, SVG Export Plug-In . SVG Version: 6.00 Build 0)  -->
<!DOCTYPE svg PUBLIC "-//W3C//DTD SVG 1.1//EN" "http://www.w3.org/Graphics/SVG/1.1/DTD/svg11.dtd">
<svg version="1.1" id="Layer_1" xmlns="http://www.w3.org/2000/svg" xmlns:xlink="http://www.w3.org/1999/xlink" x="0px" y="0px"
	 width="396px" height="256px" viewBox="0 0 396 256" enable-background="new 0 0 396 256" xml:space="preserve">
<g>
	<defs>
		<rect id="SVGID_1_" x="104.898" y="45.807" width="186.203" height="164.386"/>
	</defs>
	<clipPath id="SVGID_2_">
		<use xlink:href="#SVGID_1_"  overflow="visible"/>
	</clipPath>
	<path clip-path="url(#SVGID_2_)" fill="#FFFFFF" d="M161.002,172.846c-1.903,1.398-4.271-1.531-6.067-1.479
		c-0.626,0.016-0.817,0.492-1.333,0.74c-1.408,0.676-3.168,1.309-4.884,1.922c-0.761-0.701-0.156-1.43-0.148-2.516
		c0.344,0.049,0.568-0.023,0.741-0.146c1.538-2.08,4.019-5.752,7.251-3.848C158.056,169.279,160.355,170.238,161.002,172.846"/>
	<path clip-path="url(#SVGID_2_)" fill="#FFFFFF" d="M283.071,50.812c-1.022,0.733-2.106,1.403-2.977,2.289
		c-4.754-0.16-8.853,4.271-12.59,1.603c1.411-3.371,7.814-10.136,13.733-8.699C283.32,46.509,284.341,48.638,283.071,50.812"/>
	<path clip-path="url(#SVGID_2_)" fill="#FFFFFF" d="M267.41,181.881c1.183-0.809,1.856-1.945,3.553-1.924
		c2.247,0.029,4.237,2.039,3.699,4.588c-0.722,0.438-0.94-0.277-1.776-0.148c-1.898,1.348-0.635,6.52-0.888,9.324
		c-0.396,4.379-1.122,9.873,3.552,10.508c7.481,1.018,5.909-7.816,6.213-14.799c0.101-2.219,0.709-4.666-0.886-5.625
		c-1.047,0.039-1.481,0.689-2.517,0.74c-1.693-3.893,4.021-6.168,5.773-2.959c1.291-1.201,3.425-2.369,5.328-1.332
		c1.308,0.713,2.342,3.168,1.034,4.291c-1.417,0.049-1.251-1.049-2.515-0.887c-1.29,0.162-1.458,2.24-1.48,3.848
		c-0.037,2.855-0.027,4.006-0.146,7.102c-0.164,4.189-0.167,9.535-2.073,11.842c-3.425,4.143-12.946,3.773-17.019,0.59
		c-3.204-2.5-4.492-6.873-4.146-12.727c-0.604-0.383-0.961,0.562-1.922,0.295c-1.085-2.246,0.948-3.594,2.219-4.438
		c-0.303-2.098,0.641-4.574-0.297-5.92c-0.809-0.504-1.357,0.373-2.367,0.146C259.399,179.824,266.015,178.451,267.41,181.881"/>
	<path clip-path="url(#SVGID_2_)" fill="#FFFFFF" d="M189.12,188.838c1.271-1.324-0.135-4.367-1.628-3.996
		c-1.218,0.301-0.416,1.846-1.036,2.959c0.443,2.127-0.616,5.303,0,7.549c-0.478,0.979-0.11,2.344-0.147,3.848
		c-0.052,2.02-0.857,4.475,0.443,5.33c1.013,0.121,1.037-0.742,1.925-0.742c0.112,0.43,0.233,0.852,0.59,1.035
		c-0.624,2.398-1.128,5.311-3.847,5.328c-1.677,0.012-2.921-1.199-3.7-2.664c-0.951,1.354-1.75,2.654-3.552,2.664
		c-2.708,0.012-4.429-3.102-3.699-6.363c1.007-0.094,1.169,0.686,1.923,0.59c2.175-0.27,0.917-7.02,1.184-9.025
		c-0.506-0.4-0.916,0.557-1.775,0.295c-0.902-2.096,0.377-4.416,2.073-4.885c0.083-1.719,0.573-4.971-0.297-6.213
		c-2.155,0.119-3.081,2.896-2.219,4.291c-3.279,2.43-8.509-0.74-6.512-4.885c1.114-2.312,5.589-4.168,10.656-3.996
		c0.975,0.033,2.014,0.453,2.959,0.445c0.811-0.01,1.626-0.393,2.368-0.445c4.584-0.312,9.977,1.318,11.099,4.293
		C197.443,188.264,192.665,190.988,189.12,188.838"/>
	<path clip-path="url(#SVGID_2_)" fill="#FFFFFF" d="M242.991,189.279c-0.821,1.951-2.496,3.814-2.812,5.773
		c2.123-0.41,4.394,0.082,5.921,0C245.243,192.947,244.779,190.451,242.991,189.279 M250.687,180.697
		c0.254,0.66-0.774,1.906-0.739,3.256c0.044,1.768,1.383,4.254,2.22,6.365c1.615,4.072,2.67,6.502,4.291,10.654
		c0.52,1.33,1.301,3.836,2.366,3.996c1.142,0.17,1.646-1.266,2.371-1.332c1.334,4.67-4.818,8.232-7.253,4.291
		c-1.688,2.172-6.646,2.283-7.104-0.887c-0.203-1.4,0.468-2.641,1.332-3.553c0.708,0.674,0.646,2.115,1.776,2.367
		c-0.017-5.451-8.044-8.221-13.025-5.178c-0.597,1.373-1.582,2.361-1.924,3.994c1.421,0.65,1.76-0.982,2.96-1.035
		c1.754,5.102-5.503,8.225-7.844,4.291c-1.171,1.027-2.491,2.355-4.438,1.777c-1.706-1.086-1.656-4.91-0.147-6.217
		c4.734,4.77,6.544-5.49,8.582-7.842c-0.407-1.195-1.461-0.244-2.22-0.445c-0.21-2.684,1.778-4.434,4.588-4.588
		c1.306-2.049,2.442-4.266,3.403-6.66c-0.159-0.727-1.064-0.709-1.331-1.332c0.439-1.178,1.026-1.824,1.775-2.219
		C243.459,178.762,247.67,183.068,250.687,180.697"/>
	<path clip-path="url(#SVGID_2_)" fill="#FFFFFF" d="M278.359,131.168c1.396-2.396-0.411-6.505-3.053-5.29
		c-1.393,6.286-0.725,12.083-1.018,19.331c-0.099,2.443-1.128,5.266,0.409,7.326c1.564,0.346,1.486-0.955,2.644-1.02
		c0.386,0.361,0.35,1.143,1.018,1.223c-0.81,3.066-1.29,7.055-4.477,7.529c-2.778,0.412-4.585-1.596-5.901-3.664
		c-2.263,6.941-12.609,2.494-9.769-5.088c6.11,3.494,3.899-6.812,4.274-11.598c-0.671-0.508-1.744,0.945-2.646,0.205
		c-0.897-3.287,0.782-5.723,3.054-6.512c-0.348-3.143,0.929-6.537-0.407-8.343c-2.716-0.339-4.279,3.617-3.257,5.9
		c-3.646,2.463-8.86-0.016-9.36-3.256c-0.971-6.289,6.548-8.723,12.82-8.953c1.9-0.069,4.108,0.435,6.309,0.406
		c3.887-0.05,6.691-0.935,10.58,0c3.699,0.89,9.998,3.813,8.141,9.361C286.785,131.515,281.534,133.26,278.359,131.168"/>
	<path clip-path="url(#SVGID_2_)" fill="#FFFFFF" d="M126.963,191.354c-0.358-3.783-1.114-7.359-5.477-6.807
		c-4.026,0.506-5.629,4.805-5.918,9.471c-0.207,3.309,0.142,6.992,1.184,8.879c1.319,2.393,5.527,3.873,7.991,0.889
		c-0.133-2.158,0.86-5.221-0.148-6.809c-1.146-0.209-0.814,1.061-1.628,1.184c-2.97-3.988,2.972-8.826,5.772-4.736
		c1.524-1.516,5.079-2.389,5.919,0.299c0.055,1.828,0.01,3.559-0.887,4.438c-0.993,0.205-0.678-0.9-1.479-0.887
		c-0.959,2.236-0.443,5.535-0.74,7.695c-1.302,1.285-3.307,2.02-5.031,2.961c-1.798,0.977-3.669,2.008-5.624,2.217
		c-2.932,0.318-6.871-1.086-9.028-3.107c-2.742-2.568-4.231-6.631-4.292-12.135c-0.78-0.127-1.001,0.887-1.627,0.445
		c-0.49-1.869,0.654-4.141,2.516-4.59c0.895-2.328,1.774-4.566,3.551-6.51c4.287-4.688,13.122-5.402,17.907-1.629
		c0.806,0.635,1.943,2.342,2.072,3.994C132.249,189.844,129.521,191.123,126.963,191.354"/>
	<path clip-path="url(#SVGID_2_)" fill="#FFFFFF" d="M153.305,189.43c-1.691,1.365-2.413,3.705-3.404,5.771
		c1.859-0.26,4.134-0.145,6.068,0.148C155.296,193.162,154.348,191.246,153.305,189.43 M160.557,180.994
		c-1.721,2.736-0.029,5.861,1.183,8.881c1.513,3.76,2.491,6.652,4.144,10.803c0.593,1.484,1.711,4.383,2.961,4.439
		c1.109,0.049,1.405-1.137,2.071-1.332c1.458,4.863-4.825,8.092-7.251,4.291c-0.853,0.289-0.897,0.885-1.48,1.184
		c-4.115,2.115-7.612-2.994-3.997-5.623c0.286,0.996,0.495,2.07,1.48,2.369c0.11-4.119-5.228-7.242-10.063-6.365
		c-2.698,0.49-4.148,2.451-4.737,5.328c1.252,0.393,1.795-1.016,2.96-1.184c1.579,5.043-5.597,8.379-7.844,4.291
		c-1.076,1.295-4.193,3.049-5.475,0.74c0.113-1.859-0.398-4.344,0.74-5.18c0.919,0.664,2.339,2.178,3.847,0.889
		c1.896-1.621,3.656-7.084,4.737-8.879c-0.466-1.057-1.469-0.047-2.22-0.297c0.179-2.83,1.554-4.465,4.588-4.441
		c0.525-0.607,1.223-1.863,1.923-3.256c1.031-2.047,2.656-3.947,0.148-4.885c0.899-1.691,1.926-2.557,3.553-2.662
		c2.079-0.137,4.197,1.684,6.067,1.629C159.022,181.699,159.547,180.799,160.557,180.994"/>
	<path clip-path="url(#SVGID_2_)" fill="#FFFFFF" d="M205.548,182.918c3.539-4.34,19.008-3.918,17.464,4.143
		c-0.153,0.803-0.795,1.221-1.184,2.072c-1.201,0.676-3.629,1.373-4.886,0.297c0.257-1.52,0.338-2.545-0.442-3.553
		c-1.173-0.541-2.521-1.07-3.848-0.889c-1.43,0.197-2.276,1.135-3.255,1.777c-0.085,1.389-0.417,3.176-0.15,4.439
		c2.385-1.305,7.538-1.818,8.288,1.334c0.49,2.055-0.68,4.578-3.255,4.141c-0.708-0.428-0.791-1.479-1.48-1.924
		c-2.073-0.146-3.1,0.748-3.848,1.924c0.15,2.293-0.699,3.795,0.147,5.771c1.114,2.6,6.398,3.498,7.698,1.48
		c0.828-1.287-0.072-2.736-0.298-4.143c1.644-1.074,4.771-1.145,6.067,0.295c3.469,8.84-12.488,12.537-17.463,6.512
		c-1.198,0.842-1.366,2.51-2.666,2.961c-3.121,1.082-5.188-2.664-4.142-5.92c1.113,0.064,1.289,0.77,2.073,0.443
		c1.667-0.693,0.484-7.393,0.74-9.324c-0.471-0.215-1.002,0.771-1.776,0.74c-1.144-1.803,0.21-4.105,1.776-4.588
		c0.518-1.75,0.213-4.322,0.295-6.512c-0.97-0.648-2.058,0.436-2.664,0.148c-0.184-2.52,0.892-5.014,4.291-4.439
		C204.198,180.715,205.032,181.658,205.548,182.918"/>
	<path clip-path="url(#SVGID_2_)" fill="#FFFFFF" d="M213.649,131.371c1.706-2.174-0.872-7.188-2.848-5.493
		c-1.054,0.902-1.137,7.877-1.221,11.802c-0.057,2.6,0.239,5.76,0.203,7.732c-0.039,2.213-1.257,6.133,0.406,7.324
		c1.317,0.1,1.317-1.125,2.646-1.016c0.126,0.551,0.401,0.953,0.812,1.219c-0.766,2.33-0.486,4.322-2.032,6.105
		c-2.336,2.695-7.093,0.754-8.141-2.236c-2.517,6.477-12.555,2.873-10.174-5.088c1.835,0.234,3.097,1.391,4.274-0.205
		c0.126-3.742,0.281-7.082,0.202-11.393c-0.707-0.547-1.911,0.773-2.645,0.203c-0.886-2.729,0.405-5.865,2.849-6.514
		c-0.021-2.938,1.216-6.694-0.406-8.545c-2.831,0.222-4.222,3.504-2.851,6.104c-5.357,3.049-12.008-1.76-8.952-7.324
		c1.851-3.374,8.676-5.428,14.649-5.088c8.462,0.479,19.051-0.945,22.179,5.289C225.327,129.676,218.938,134.111,213.649,131.371"/>
	<path clip-path="url(#SVGID_2_)" fill="#FFFFFF" d="M220.346,65.691c5.16-4.239,16.229-6.24,24.264-2.977
		c3.195,1.297,7.505,5.333,5.725,9.845c-1.158,2.938-7.12,4.831-10.53,2.518c4.085-8.216-11.253-9.783-13.05-3.435
		c-0.58,2.058,0.183,4.361,0,7.097c4.073-2.161,12.77-3.123,14.425,1.832c-0.156,1.835-0.092,3.652-1.146,5.036
		c-1.208,0.786-3.389,1.694-5.036,0.686c-0.314-5.514-7.12-2.908-8.469,0c0.046,4.037-1.997,16.198,4.806,11.905
		c2.351,4.244-2.139,9.601-6.639,8.699c-2.708-0.544-3.156-3.229-4.808-5.265c-1.669,1.993-2.249,4.756-5.035,5.265
		c-3.894,0.708-5.703-2.325-7.327-5.037c0.342-1.186,0.577-2.476,0.917-3.662c1.75,0.777,4.076,1.522,4.808-0.688
		c-0.303-4.547,0.456-9.831,0-14.193c-1.359,0.013-1.761,0.985-2.747,1.373c-2.868-2.174,0.521-6.177,2.974-6.637
		c-0.599-4.401,1.595-8.86-0.685-11.676c-1.607-0.181-2.488,1.407-3.436,1.146C207.519,59.767,219.392,59.589,220.346,65.691"/>
	<path clip-path="url(#SVGID_2_)" fill="#FFFFFF" d="M263.155,65.691c3.499-2.698,8.705-4.905,16.253-4.12
		c6.108,0.636,11.722,4.377,11.217,9.842c-0.384,4.136-5.293,6.667-9.616,4.35c2.526-8.039-8.705-8.431-11.673-3.89
		c-0.199,1.964-0.794,4.666-0.229,6.639c2.941-1.201,10.149-3.075,12.362,0.916c1.59,2.865-0.025,8.551-4.579,7.554
		c-1.016-0.739-1.257-2.252-2.289-2.975c-1.621,0.343-2.533,0.057-3.436,0.456c-0.832,0.371-2.632,2.399-2.746,3.207
		c-0.691,4.927-0.09,11.116,5.953,12.133c5.726,0.961,8.436-2.921,5.952-8.014c5.13-2.771,11.013-0.866,10.301,5.037
		c-1.313,10.865-21.305,13.506-27.928,5.493c-1.968,2.066-2.9,5.163-6.413,4.809c-3.553-0.36-5.459-5.079-4.119-9.385
		c1.322-0.201,1.661,1.355,3.205,0.686c2.83-1.225,0.269-10.932,1.375-14.193c-1.27-0.724-1.582,1.256-3.205,0.917
		c-1.354-3.379,0.815-6.267,3.205-7.326c0.123-3.166,0.32-6.016,0.228-9.844c-1.5-1.004-3.182,0.671-4.119,0.229
		C250.913,60.726,262.117,58.778,263.155,65.691"/>
	<path clip-path="url(#SVGID_2_)" fill="#FFFFFF" d="M132.867,130.559c-1.171-2.882-6.311-5.05-8.751-1.629
		c-0.593,2.798-0.3,6.48-0.813,9.359C128.789,142.566,135.246,136.418,132.867,130.559 M123.506,144.598
		c-1.092,1.021-1.97,14,2.646,8.547c1.994,5.945-6.093,10.969-8.546,4.477c-1.37,1.684-2.497,3.607-6.105,3.053
		c-2.364-1.227-3.638-4.188-3.255-7.529c1.034,0.053,3.392,2.684,4.476,0c0.716-1.773,0.609-9.832,0.407-11.598
		c-0.118-1.033-0.262-1.889-0.813-2.24c-1.541-0.399-1.75,1.43-2.85,0.816c-0.227-3.281,1.357-4.748,3.663-5.496
		c-0.524-2.666,1.519-8.71-0.813-9.564c-1.537-0.562-1.874,0.97-3.46,1.019c-1.843-6.748,7.699-8.249,10.581-4.069
		c5.46-4.042,17.291-3.472,21.571,1.218c4.518,5.217,4.717,15.669-1.222,19.535c-0.657,0.428-1.611,0.439-2.646,0.814
		C133.523,144.895,128.329,146.1,123.506,144.598"/>
	<path clip-path="url(#SVGID_2_)" fill="#FFFFFF" d="M157.081,123.029c3.254-2.715,9.277-4.624,15.059-3.46
		c4.487,0.906,8.841,3.141,9.156,7.327c0.318,4.196-3.376,7.04-8.342,5.493c-0.041-1.803,0.583-4.376-1.019-5.493
		c-3.2-1.662-7.277-0.996-9.564,1.628c-0.192,1.998-0.385,4.309-0.204,6.104c3.627-1.706,9.373-2.875,11.193,1.018
		c1.147,2.457-0.471,7.592-4.477,6.309c-0.695-0.797-0.808-2.178-2.036-2.441c-2.028-0.547-3.688,1.033-5.086,2.238
		c0.071,3.043-0.706,5.066,0,7.527c1.299,4.527,10.985,6.266,11.395,1.018c0.138-1.764-0.913-2.039-0.814-4.068
		c3.813-2.113,9.062-1.023,9.158,3.459c0.11,5.242-6.068,9.631-12.413,10.174c-5.311,0.453-9.934-1.447-12.82-4.273
		c-1.235,1.416-1.636,3.445-3.257,4.068c-4.325,1.668-7.308-3.689-5.9-8.139c1.37-0.088,1.892,1.32,3.256,0.613
		c1.392-2.947,0.61-8.781,0.814-12.617c-0.895-0.471-1.269,1.111-2.646,0.811c-1.374-3.035,0.762-5.623,2.848-6.51
		c-0.236-3.428,0.864-6.552-0.406-8.952c-1.378-0.116-1.681,0.379-3.053,0.61C145.929,118.584,156.085,117.201,157.081,123.029"/>
	<path clip-path="url(#SVGID_2_)" fill="#FFFFFF" d="M236.033,122.011c2.537-4.878,11.095-2.466,9.972,3.458
		c-0.63,0.528-1.447-0.059-2.238,0c-2.215,0.636-1.242,2.747-1.424,5.292c-0.52,7.247-1.006,13.285-0.815,21.771
		c0.379,0.029,0.681,0.135,0.815,0.406c1.122-0.027,1.202-1.102,2.442-1.018c0.223,0.592,0.646,0.979,1.017,1.426
		c-0.903,2.375-1.136,6.814-4.479,7.326c-2.651,0.404-4.528-1.74-5.898-3.664c-2.367,6.572-12.416,2.432-9.972-5.088
		c1.684-0.275,1.73,0.926,3.054,0.611c2.9-0.689,0.756-9.031,1.424-12.41c-0.966-0.008-1.797,0.947-2.646,0.406
		c-0.885-3.205,0.691-5.674,2.851-6.512c-0.074-3.08,1.342-6.955-0.613-8.75c-1.237-0.154-1.724,0.447-2.849,0.406
		C224.452,119.979,233.94,116.589,236.033,122.011"/>
	<path clip-path="url(#SVGID_2_)" fill="#FFFFFF" d="M137.248,78.511c-0.92-5.604-1.704-11.496-8.699-10.531
		c-3.007,0.416-5.677,2.508-6.867,5.037c-3.729,7.913-3.502,31.037,9.842,27.471c3.829-1.023,4.688-4.387,5.266-9.842
		c8.308-0.826,9.449,8.91,5.035,12.817c-3.102,2.747-9.874,4.465-15.793,3.892c-10.125-0.979-18.553-11.1-18.315-23.12
		c-0.797-1.195-1.803,0.942-2.747,0.228c-0.441-4.028,1.209-5.962,3.892-6.865c2.417-6.742,6.77-13.94,14.65-15.796
		c4.668-1.102,10.883-0.348,14.881,1.372c0.936,0.403,3.148,1.584,3.892,2.289C146.284,69.258,145.234,78.782,137.248,78.511"/>
	<path clip-path="url(#SVGID_2_)" fill="#FFFFFF" d="M176.851,75.764c-2.651,2.079-3.617,5.845-5.266,8.929
		c3.231-0.358,6.111-0.133,9.157,0.228C180.284,81.936,178.326,78.494,176.851,75.764 M188.068,62.715
		c-2.759,4.25-0.011,8.932,1.833,13.506c2.387,5.932,3.88,10.484,6.409,16.94c0.941,2.403,2.571,6.779,4.579,6.867
		c1.716,0.079,2.172-1.758,3.205-2.06c2.222,7.417-7.491,12.633-11.218,6.639c-2.93,3.764-10.774,3.258-10.988-2.06
		c-0.076-1.895,0.951-3.515,2.06-4.807c1.256,0.879,0.918,3.354,2.747,3.663c-0.225-4.567-4.396-8.971-9.385-9.844
		c-7.183-1.258-12.41,1.783-13.507,8.242c1.951,0.621,2.876-1.472,4.579-1.832c2.6,7.879-8.702,13.05-12.132,6.639
		c-1.795,0.864-2.216,2.661-4.12,2.977c-5.554,0.92-5.892-6.587-3.205-9.843c1.88,0.785,2.257,3.061,5.035,2.06
		c1.543-0.554,3.089-3.531,4.121-5.495c1.732-3.296,3.472-6.83,4.121-8.928c-0.649-1.56-2.433,0.226-3.433-0.458
		c0.305-4.35,2.534-6.775,7.097-6.867c1.002-0.786,1.904-2.882,2.975-5.037c0.867-1.742,2.757-4.29,2.519-5.494
		c-0.251-1.267-1.669-0.895-2.061-2.061c0.317-1.48,1.655-2.888,2.747-3.434c3.781-1.892,8.4,2.191,12.363,1.832
		C185.973,63.717,186.642,62.17,188.068,62.715"/>
</g>
</svg>
