<?xml version="1.0" encoding="utf-8"?>
<!-- Generator: Adobe Illustrator 15.0.0, SVG Export Plug-In . SVG Version: 6.00 Build 0)  -->
<!DOCTYPE svg PUBLIC "-//W3C//DTD SVG 1.1//EN" "http://www.w3.org/Graphics/SVG/1.1/DTD/svg11.dtd">
<svg version="1.1" id="Layer_1" xmlns="http://www.w3.org/2000/svg" xmlns:xlink="http://www.w3.org/1999/xlink" x="0px" y="0px"
	 width="396px" height="256px" viewBox="-19 -12.5 396 256" enable-background="new -19 -12.5 396 256" xml:space="preserve">
<g>
	<g>
		<path fill="#FFFFFF" d="M180.085,122.07c11.614-0.246,22.899-6.083,29.636-16.601c2.289-3.573,3.824-7.398,4.729-11.307
			c-4.503-1.717-9.531-2.205-14.589-1.098C186.544,95.989,177.974,108.777,180.085,122.07z"/>
		<path fill="#FFFFFF" d="M214.799,79.603c-1.725-9.513-7.207-18.319-15.992-23.947c-9.401-6.022-20.543-7.126-30.408-3.983
			C175.768,70.225,194.764,81.798,214.799,79.603z"/>
		<path fill="#FFFFFF" d="M169.739,83.118c-2.135-9.731-6.511-18.388-12.455-25.57c-3.169,2.458-6.005,5.454-8.29,9.025
			c-10.742,16.765-5.855,39.069,10.915,49.811c2.069,1.324,4.227,2.411,6.431,3.269C171.071,108.508,172.526,95.847,169.739,83.118z
			"/>
	</g>
	<path fill="#FFFFFF" d="M88.55,156.719c2.321,0,2.753,1.516,2.974,2.319h2.809c-0.149-1.981-1.78-4.753-5.801-4.753
		c-3.465,0-6.179,2.396-6.179,7.09c0,4.645,2.567,7.061,6.145,7.061c3.367,0,5.277-2.039,5.835-4.961h-2.809
		C91.193,165.123,90.103,166,88.55,166c-2.379,0-3.332-2.171-3.332-4.583C85.219,157.614,87.203,156.719,88.55,156.719z"/>
	<path fill="#FFFFFF" d="M104.328,166.133v-5.389c0-2.455-2.563-2.883-3.968-2.883c-2.044,0-4.156,0.428-4.458,3.479h2.529
		c0.073-0.581,0.298-1.384,1.607-1.384c0.675,0,1.727,0.055,1.727,1.158c0,0.562-0.509,0.733-0.918,0.788l-2.36,0.354
		c-1.667,0.243-2.902,1.235-2.902,3.184c0,2.06,1.534,2.902,3.033,2.902c1.78,0,2.62-0.826,3.222-1.443
		c0.055,0.562,0.092,0.711,0.243,1.178h2.824v-0.393C104.59,167.576,104.328,167.312,104.328,166.133z M101.765,164.503
		c0,1.217-1.182,1.966-2.342,1.966c-0.505,0-1.217-0.279-1.217-1.197c0-1.086,0.805-1.328,1.779-1.498
		c1.084-0.168,1.514-0.336,1.78-0.541V164.503z"/>
	<path fill="#FFFFFF" d="M108.705,159.842h-0.037v-1.723h-2.508v9.957h2.623v-5.182c0-1.102,0.372-2.379,2.411-2.379
		c0.243,0,0.528,0,0.75,0.038v-2.657c-0.169-0.021-0.337-0.035-0.507-0.035C109.846,157.861,109.249,158.834,108.705,159.842z"/>
	<path fill="#FFFFFF" d="M115.986,159.842h-0.035v-1.723h-2.512v9.957h2.622v-5.182c0-1.102,0.374-2.379,2.411-2.379
		c0.244,0,0.528,0,0.749,0.038v-2.657c-0.166-0.021-0.335-0.035-0.505-0.035C117.127,157.861,116.528,158.834,115.986,159.842z"/>
	<path fill="#FFFFFF" d="M129.293,165.16h-2.696c-0.207,0.709-0.955,1.083-1.686,1.083c-2.112,0-2.264-1.687-2.339-2.429h6.831
		v-0.474c0-4.547-2.714-5.479-4.68-5.479c-4.361,0-4.771,3.834-4.771,5.033c0,4.098,2.154,5.447,4.959,5.447
		C126.613,168.343,128.6,167.559,129.293,165.16z M124.687,160.012c0.843,0,1.869,0.486,2.021,2.098h-4.06
		C122.799,160.797,123.451,160.012,124.687,160.012z"/>
	<path fill="#FFFFFF" d="M134.175,168.076v-8.084h1.704v-1.873h-1.704v-0.391c0-0.821,0.021-1.104,0.919-1.104h0.73v-2.114
		c-0.225-0.019-0.581-0.037-1.348-0.037c-1.798,0-2.919,0.785-2.919,2.844v0.804h-1.442v1.873h1.442v8.084L134.175,168.076
		L134.175,168.076z"/>
	<path fill="#FFFFFF" d="M141.886,168.343c2.678,0,5.091-1.649,5.091-5.245c0-3.591-2.413-5.236-5.091-5.236
		c-2.675,0-5.093,1.646-5.093,5.236C136.792,166.693,139.21,168.343,141.886,168.343z M141.886,160.068
		c2.021,0,2.393,1.759,2.393,3.029c0,1.273-0.372,3.034-2.393,3.034c-2.021,0-2.396-1.761-2.396-3.034
		C139.488,161.827,139.865,160.068,141.886,160.068z"/>
	<path fill="#FFFFFF" d="M157.188,158.119h-2.62v5.75c0,1.775-1.159,2.264-2.023,2.264c-0.804,0-1.699-0.298-1.699-1.837v-6.177
		h-2.623v6.554c0,2.545,1.424,3.67,3.39,3.67c1.382,0,2.432-0.603,3.031-1.668h0.04v1.401h2.505L157.188,158.119L157.188,158.119z"
		/>
	<path fill="#FFFFFF" d="M162.239,162.896c0-1.103,0.377-2.379,2.416-2.379c0.244,0,0.524,0,0.75,0.037v-2.658
		c-0.17-0.021-0.338-0.035-0.506-0.035c-1.589,0-2.191,0.974-2.733,1.98h-0.036v-1.723h-2.508v9.957h2.617V162.896z"/>
	<path fill="#FFFFFF" d="M172.72,168.076h1.125v-8.76h1.87v-0.935h-1.87v-1.196c0-0.881,0.037-1.836,1.194-1.836
		c0.207,0,0.451,0.039,0.676,0.096v-1.03c-0.299-0.058-0.598-0.075-0.938-0.075c-1.495,0-2.058,0.975-2.058,2.508v1.535h-1.441
		v0.936h1.441L172.72,168.076L172.72,168.076z"/>
	<path fill="#FFFFFF" d="M178.633,163.327c0-2.175,0.673-4.046,3.201-3.988v-1.22c-1.628,0-2.542,0.525-3.161,2.081h-0.04v-1.817
		h-1.118v9.693h1.118V163.327z"/>
	<path fill="#FFFFFF" d="M190.947,168.172c0.171,0.037,0.316,0.057,0.506,0.057c0.316,0,0.711-0.131,0.882-0.188v-0.879
		c-0.958,0.337-1.181,0.129-1.181-0.751v-5.279c0-2.241-1.557-3.013-3.522-3.013c-2.112,0-3.812,0.919-3.981,3.201h1.14
		c0.207-1.682,1.272-2.188,2.83-2.188c1.737,0,2.41,0.825,2.41,1.963c0,0.341-0.036,0.843-0.408,1.015
		c-0.377,0.168-1.07,0.281-1.479,0.315l-1.556,0.209c-2.265,0.298-3.385,1.291-3.385,2.92c0,1.87,1.532,2.789,3.237,2.789
		c1.399,0,2.672-0.565,3.608-1.612C190.068,167.405,190.202,168.059,190.947,168.172z M190.029,164.503
		c0,1.966-1.76,2.827-3.535,2.827c-1.068,0-2.098-0.562-2.098-1.739c0-1.313,1.028-1.931,2.734-2.062
		c0.973-0.073,1.945-0.146,2.896-0.543v1.517H190.029z"/>
	<path fill="#FFFFFF" d="M201.786,161.732c0-0.803-0.022-1.532-0.486-2.227c-0.694-1.011-1.776-1.388-2.958-1.388
		c-1.348,0-2.229,0.659-3.127,1.608v-1.346h-1.119v9.693h1.119v-5.223c0-0.67,0.018-1.215,0.246-1.832
		c0.354-0.992,1.307-1.891,2.693-1.891c1.795,0,2.508,0.88,2.508,2.62v6.324h1.124V161.732z"/>
	<path fill="#FFFFFF" d="M212.657,164.729h-1.199c-0.261,1.608-1.31,2.603-2.978,2.603c-2.317,0-3.256-2.039-3.256-4.08
		c0-2.022,0.957-4.118,3.256-4.118c1.5,0,2.496,0.86,2.884,2.305h1.146c-0.34-2.25-1.8-3.316-4.027-3.316
		c-2.897,0-4.451,2.436-4.451,5.131c0,2.859,1.365,5.094,4.451,5.094C210.916,168.343,212.268,166.882,212.657,164.729z"/>
	<path fill="#FFFFFF" d="M214.27,163.23c0,3.39,2.021,5.069,4.491,5.111c2.709,0,4.49-2.044,4.49-5.111
		c0-2.846-1.46-5.111-4.49-5.111C215.761,158.119,214.27,160.404,214.27,163.23z M222.055,163.23c0,2.076-0.938,4.1-3.294,4.1
		c-2.153,0-3.298-1.686-3.298-4.1c0-2.1,0.938-4.1,3.298-4.1C221.135,159.132,222.03,160.945,222.055,163.23z"/>
	<path fill="#FFFFFF" d="M229.969,158.119c-1.238,0-2.715,0.693-3.369,1.965h-0.041v-1.701h-1.121v13.514h1.121v-5.371
		c0.717,1.179,2.099,1.817,3.469,1.817c2.957,0,4.322-2.416,4.322-5.13C234.35,160.35,233.093,158.119,229.969,158.119z
		 M229.837,167.33c-2.041,0-3.278-1.872-3.278-4.061c0-2.34,1.162-4.139,3.278-4.139c1.892,0,3.293,1.366,3.312,3.801
		C233.245,165.366,232.157,167.33,229.837,167.33z"/>
	<path fill="#FFFFFF" d="M240.991,158.119c-1.349,0-2.23,0.658-3.126,1.609v-5.125h-1.125v13.473h1.125v-5.223
		c0-0.67,0.016-1.215,0.242-1.832c0.354-0.992,1.308-1.891,2.695-1.891c1.797,0,2.508,0.88,2.508,2.62v6.324h1.121v-6.343
		c0-0.805-0.018-1.533-0.483-2.228C243.257,158.496,242.17,158.119,240.991,158.119z"/>
	<path fill="#FFFFFF" d="M251.002,158.119c-2.996,0-4.488,2.285-4.488,5.111c0,3.39,2.021,5.069,4.488,5.111
		c2.712,0,4.494-2.044,4.494-5.111C255.496,160.386,254.036,158.119,251.002,158.119z M251.002,167.33
		c-2.154,0-3.293-1.686-3.293-4.1c0-2.1,0.936-4.1,3.293-4.1c2.38,0,3.275,1.814,3.295,4.1
		C254.297,165.307,253.361,167.33,251.002,167.33z"/>
	<path fill="#FFFFFF" d="M261.799,158.119c-1.348,0-2.225,0.658-3.124,1.609v-1.347h-1.126v9.693h1.126v-5.222
		c0-0.672,0.021-1.215,0.242-1.834c0.354-0.992,1.312-1.89,2.694-1.89c1.798,0,2.51,0.88,2.51,2.62v6.324h1.123v-6.344
		c0-0.804-0.018-1.532-0.487-2.227C264.064,158.496,262.979,158.119,261.799,158.119z"/>
	<path fill="#FFFFFF" d="M271.905,158.119c-2.772,0-4.455,2.32-4.455,5.15c0,2.862,1.35,5.072,4.455,5.072
		c2.471,0,3.633-1.406,4.192-3.24h-1.252c-0.338,1.422-1.479,2.229-2.941,2.229c-2.152,0-3.273-1.739-3.256-3.838h7.526
		C276.193,160.012,274.564,158.119,271.905,158.119z M268.648,162.557c0.226-1.832,1.274-3.425,3.257-3.425
		c2.021,0,3.067,1.536,3.067,3.425H268.648z"/>
	<path fill="#FFFFFF" d="M154.607,180.253h0.863v-0.769h-0.381c-0.131,0-0.204-0.062-0.204-0.202v-4.979
		c0-0.416-0.177-0.593-0.595-0.593h-0.886v0.771h0.376c0.133,0,0.207,0.065,0.207,0.201v1.178c0,0.178,0.018,0.314,0.018,0.314
		h-0.018c0,0-0.363-0.724-1.447-0.724c-1.242,0-2.126,0.967-2.126,2.458c0,1.453,0.801,2.456,2.069,2.456
		c1.15,0,1.541-0.853,1.541-0.853h0.016c0,0-0.007,0.104-0.007,0.241C154.033,180.066,154.198,180.253,154.607,180.253z
		 M152.66,179.584c-0.776,0-1.323-0.656-1.323-1.675c0-1.066,0.611-1.677,1.346-1.677c0.896,0,1.332,0.832,1.332,1.666
		C154.015,179.1,153.358,179.584,152.66,179.584z"/>
	<path fill="#FFFFFF" d="M161.314,177.65c0-1.217-0.705-2.199-2.021-2.199c-1.333,0-2.358,0.967-2.358,2.458
		c0,1.392,1.015,2.456,2.496,2.456c1.114,0,1.807-0.687,1.807-0.687l-0.391-0.64c0,0-0.565,0.544-1.373,0.544
		c-0.835,0-1.554-0.563-1.612-1.565h3.422C161.285,178.02,161.314,177.771,161.314,177.65z M157.902,177.361
		c0.14-0.775,0.693-1.195,1.38-1.195c0.588,0,1.074,0.42,1.106,1.195H157.902z"/>
	<path fill="#FFFFFF" d="M168.564,179.52c-0.975,0-1.641-0.785-1.641-0.785l-0.55,0.658c0,0,0.781,0.974,2.172,0.974
		c1.297,0,2.075-0.862,2.075-1.864c0-2.148-3.152-1.854-3.152-3.179c0-0.491,0.442-0.88,1.15-0.88c0.519,0,1.01,0.25,1.01,0.597
		v0.302h0.854v-0.537c0-0.891-1.171-1.205-1.864-1.205c-1.231,0-2.094,0.771-2.094,1.752c0,2.041,3.16,1.825,3.16,3.198
		C169.685,179.152,169.175,179.52,168.564,179.52z"/>
	<path fill="#FFFFFF" d="M176.067,179.734c0,0.332,0.193,0.519,0.589,0.519h0.863v-0.769h-0.377c-0.134,0-0.207-0.062-0.207-0.202
		v-3.718h-0.899v2.196c0,0.927-0.564,1.769-1.527,1.769c-0.741,0-0.87-0.52-0.87-1.166v-2.223c0-0.399-0.179-0.576-0.606-0.576
		h-0.877v0.769h0.377c0.133,0,0.204,0.063,0.204,0.202v2.029c0,1.244,0.54,1.801,1.596,1.801c0.928,0,1.531-0.61,1.727-1.074h0.019
		c0,0-0.01,0.12-0.01,0.271v0.172H176.067z"/>
	<path fill="#FFFFFF" d="M183.178,180.253h0.863v-0.769h-0.382c-0.129,0-0.202-0.062-0.202-0.202v-4.979
		c0-0.416-0.177-0.593-0.594-0.593h-0.889v0.771h0.375c0.137,0,0.207,0.065,0.207,0.201v1.178c0,0.178,0.02,0.314,0.02,0.314h-0.02
		c0,0-0.361-0.724-1.447-0.724c-1.238,0-2.123,0.967-2.123,2.458c0,1.453,0.801,2.456,2.068,2.456c1.147,0,1.541-0.853,1.541-0.853
		h0.016c0,0-0.008,0.104-0.008,0.241C182.604,180.066,182.77,180.253,183.178,180.253z M181.232,179.584
		c-0.78,0-1.324-0.656-1.324-1.675c0-1.066,0.609-1.677,1.345-1.677c0.896,0,1.332,0.832,1.332,1.666
		C182.585,179.1,181.93,179.584,181.232,179.584z"/>
	<path fill="#FFFFFF" d="M188.261,180.365c1.231,0,2.134-0.965,2.134-2.456c0-1.456-0.797-2.458-2.058-2.458
		c-1.104,0-1.511,0.771-1.511,0.771h-0.021c0,0,0.021-0.166,0.021-0.391v-1.529c0-0.416-0.178-0.593-0.596-0.593h-0.887v0.771h0.377
		c0.131,0,0.202,0.065,0.202,0.201v5.57h0.868v-0.322c0-0.205-0.023-0.354-0.023-0.354h0.023
		C186.792,179.575,187.212,180.365,188.261,180.365z M188.15,176.241c0.791,0,1.332,0.655,1.332,1.677c0,1.064-0.61,1.68-1.351,1.68
		c-0.891,0-1.328-0.834-1.328-1.671C186.805,176.732,187.457,176.241,188.15,176.241z"/>
	<path fill="#FFFFFF" d="M195.755,179.734c0,0.332,0.194,0.519,0.595,0.519h0.86v-0.769h-0.381c-0.127,0-0.205-0.062-0.205-0.202
		v-3.718h-0.896v2.196c0,0.927-0.565,1.769-1.529,1.769c-0.741,0-0.873-0.52-0.873-1.166v-2.223c0-0.399-0.174-0.576-0.602-0.576
		h-0.882v0.769h0.382c0.129,0,0.201,0.063,0.201,0.202v2.029c0,1.244,0.537,1.801,1.596,1.801c0.929,0,1.527-0.61,1.723-1.074h0.021
		c0,0-0.012,0.12-0.012,0.271L195.755,179.734L195.755,179.734z"/>
	<path fill="#FFFFFF" d="M200.021,180.253v-1.917c0-0.289,0.027-0.574,0.115-0.843c0.206-0.696,0.737-1.104,1.313-1.104
		c0.146,0,0.269,0.029,0.269,0.029v-0.891c0,0-0.121-0.021-0.242-0.021c-0.725,0-1.262,0.543-1.483,1.227h-0.017
		c0,0,0.017-0.142,0.017-0.322v-0.299c0-0.379-0.193-0.547-0.601-0.547h-0.854v0.77h0.382c0.134,0,0.202,0.064,0.202,0.202v3.718
		L200.021,180.253L200.021,180.253z"/>
	<path fill="#FFFFFF" d="M204.068,181.422c-0.398,0-0.685-0.326-0.685-0.336l-0.368,0.652c0,0,0.405,0.462,1.102,0.462
		c0.658,0,1.224-0.38,1.509-1.104l1.854-4.574c0.064-0.15,0.146-0.188,0.299-0.188h0.119v-0.77h-0.537
		c-0.381,0-0.551,0.101-0.688,0.474l-0.972,2.644c-0.095,0.238-0.16,0.564-0.16,0.564h-0.019c0,0-0.073-0.326-0.166-0.564
		l-1.064-2.644c-0.148-0.373-0.287-0.474-0.67-0.474h-0.529v0.77h0.115c0.146,0,0.23,0.037,0.294,0.188l1.603,3.713l-0.211,0.513
		C204.723,181.165,204.432,181.422,204.068,181.422z"/>
	<path fill="#FFFFFF" d="M177.559,141.255c-18.923,0.11-36.339,1.589-50.293,3.993c14.892-1.902,31.762-3.028,49.657-3.139
		c19.933-0.117,38.656,1.043,54.841,3.164C217.104,142.656,198.182,141.132,177.559,141.255z"/>
</g>
</svg>
