<?xml version="1.0" encoding="utf-8"?>
<!-- Generator: Adobe Illustrator 16.0.0, SVG Export Plug-In . SVG Version: 6.00 Build 0)  -->
<!DOCTYPE svg PUBLIC "-//W3C//DTD SVG 1.1//EN" "http://www.w3.org/Graphics/SVG/1.1/DTD/svg11.dtd">
<svg version="1.1" id="Layer_1" xmlns="http://www.w3.org/2000/svg" xmlns:xlink="http://www.w3.org/1999/xlink" x="0px" y="0px"
	 width="358px" height="231px" viewBox="0 0 358 231" enable-background="new 0 0 358 231" xml:space="preserve">
<g>
	<path fill="#FFFFFF" d="M168.435,122.033v0.953c0,0.469-0.086,0.986-0.269,1.566c-0.174,0.578-0.596,1.195-1.255,1.856
		c-0.303,0.329-0.646,0.575-1.03,0.739c-0.384,0.169-0.731,0.291-1.028,0.373c-0.358,0.11-0.731,0.168-1.115,0.168H160.6
		c-0.715,0-1.346,0.26-1.897,0.783c-0.552,0.522-0.822,1.165-0.822,1.938v1.853c0,0.663,0.125,1.184,0.37,1.571
		c0.11,0.193,0.236,0.356,0.369,0.492c0.142,0.143,0.347,0.266,0.622,0.373c0.219,0.107,0.499,0.206,0.843,0.29
		c0.342,0.083,0.792,0.123,1.34,0.123c0.716,0,1.281-0.077,1.695-0.229c0.408-0.152,0.698-0.279,0.864-0.392
		c0.358-0.273,0.603-0.604,0.742-0.99c0.136-0.382,0.208-0.799,0.208-1.239h3.502v0.991c0,0.743-0.153,1.432-0.472,2.062
		c-0.315,0.634-0.804,1.184-1.461,1.653c-0.468,0.326-1.114,0.616-1.941,0.863c-0.823,0.25-1.871,0.371-3.136,0.371
		c-0.934,0-1.746-0.075-2.43-0.225c-0.69-0.153-1.289-0.346-1.796-0.581c-0.511-0.229-0.928-0.5-1.259-0.799
		c-0.328-0.305-0.607-0.607-0.825-0.91c-0.493-0.714-0.726-1.54-0.7-2.475v-12.208c0-0.334,0.054-0.774,0.164-1.322
		c0.108-0.548,0.399-1.101,0.871-1.65c0.464-0.549,1.165-1.022,2.101-1.422c0.937-0.398,2.226-0.596,3.875-0.596
		c1.651,0,2.944,0.197,3.88,0.596c0.934,0.399,1.635,0.873,2.104,1.422c0.469,0.55,0.753,1.106,0.863,1.671s0.163,0.998,0.163,1.302
		V122.033 M151.488,118.946h-3.547v13.236c0,0.247,0.031,0.515,0.103,0.806c0.069,0.289,0.223,0.571,0.47,0.846
		c0.252,0.273,0.602,0.499,1.054,0.682c0.455,0.175,1.048,0.27,1.795,0.27h0.125v3.085c-1.651,0-2.942-0.195-3.879-0.594
		c-0.932-0.398-1.644-0.873-2.123-1.424c-0.483-0.548-0.779-1.107-0.886-1.669c-0.109-0.563-0.165-0.997-0.165-1.302v-13.936h-2.641
		v-2.93h2.641v-5.49h3.506v5.49h3.547V118.946z M138.538,119.104c-0.333,0-0.605,0.009-0.827,0.021
		c-0.222,0.016-0.481,0.025-0.785,0.025c-0.743,0-1.337,0.094-1.792,0.286c-0.458,0.192-0.807,0.419-1.053,0.683
		c-0.248,0.26-0.409,0.535-0.476,0.822c-0.068,0.289-0.104,0.559-0.104,0.807v16.122h-3.506v-16.825
		c0-0.301,0.054-0.736,0.167-1.301c0.111-0.562,0.395-1.116,0.867-1.67c0.466-0.549,1.167-1.021,2.103-1.424
		c0.934-0.396,2.224-0.595,3.879-0.595c0.463,0,0.871-0.009,1.211-0.019c0.347-0.014,0.709,0.005,1.097,0.061L138.538,119.104z
		 M125.953,122.986v10.229c0,0.494-0.085,1.035-0.268,1.628c-0.175,0.591-0.525,1.134-1.046,1.63
		c-0.526,0.497-1.239,0.907-2.146,1.239c-0.908,0.327-2.093,0.492-3.549,0.492c-1.458,0-2.639-0.165-3.545-0.492
		c-0.909-0.332-1.623-0.742-2.145-1.239c-0.524-0.496-0.875-1.039-1.055-1.63c-0.178-0.593-0.266-1.134-0.266-1.628v-1.941
		c0-1.046,0.266-1.99,0.801-2.845c0.54-0.852,1.303-1.455,2.294-1.815c0.493-0.165,1.058-0.356,1.689-0.576
		c0.628-0.221,1.245-0.438,1.834-0.642c0.595-0.205,1.105-0.389,1.546-0.554c0.441-0.166,0.716-0.264,0.826-0.289
		c0.105-0.058,0.252-0.133,0.432-0.23c0.183-0.092,0.351-0.236,0.516-0.428c0.166-0.196,0.309-0.414,0.434-0.663
		c0.126-0.245,0.187-0.537,0.187-0.866v-0.783c0-0.273-0.057-0.555-0.165-0.845c-0.114-0.288-0.305-0.558-0.576-0.804
		c-0.278-0.249-0.643-0.448-1.091-0.599c-0.457-0.152-1.026-0.23-1.717-0.23c-1.374,0-2.303,0.284-2.785,0.851
		c-0.479,0.562-0.718,1.242-0.718,2.042h-3.508v-0.99c0-0.688,0.13-1.336,0.391-1.938c0.259-0.605,0.679-1.141,1.257-1.587
		c0.577-0.458,1.307-0.814,2.186-1.073c0.879-0.263,1.937-0.392,3.176-0.392c2.424,0,4.192,0.472,5.322,1.421
		c1.125,0.947,1.688,2.139,1.688,3.569V122.986z M107.889,121.997h-3.462v-0.415c0-0.273-0.057-0.555-0.167-0.845
		c-0.108-0.288-0.302-0.558-0.576-0.804c-0.275-0.249-0.642-0.448-1.095-0.599c-0.452-0.152-1.025-0.23-1.711-0.23
		c-1.373,0-2.302,0.284-2.783,0.851c-0.482,0.562-0.723,1.242-0.723,2.042v10.022c0,1.042,0.25,1.818,0.743,2.327
		c0.497,0.512,1.418,0.766,2.763,0.766c1.375,0,2.313-0.27,2.806-0.805c0.494-0.539,0.743-1.302,0.743-2.288h3.462v1.195
		c0,0.494-0.086,1.035-0.267,1.628c-0.178,0.591-0.53,1.134-1.051,1.63c-0.522,0.497-1.238,0.907-2.144,1.239
		c-0.909,0.327-2.091,0.492-3.549,0.492c-1.458,0-2.642-0.165-3.547-0.492c-0.908-0.332-1.622-0.742-2.146-1.239
		c-0.521-0.496-0.873-1.039-1.048-1.63c-0.181-0.593-0.272-1.134-0.272-1.628v-12.208c0-0.688,0.13-1.336,0.391-1.938
		c0.265-0.605,0.682-1.141,1.26-1.587c0.581-0.458,1.306-0.814,2.185-1.073c0.883-0.263,1.941-0.392,3.177-0.392
		c2.448,0,4.229,0.472,5.342,1.421c1.112,0.947,1.669,2.139,1.669,3.569V121.997z M170.052,65.211L55,77.076l25.161,88.127
		l99.39-19.272L170.052,65.211z"/>
	<path fill="#FFFFFF" d="M164.354,120.037c-0.249-0.262-0.597-0.483-1.051-0.661c-0.454-0.179-1.052-0.271-1.795-0.271
		c-0.772,0-1.395,0.093-1.874,0.271c-0.482,0.178-0.854,0.392-1.119,0.639c-0.257,0.249-0.433,0.519-0.512,0.806
		c-0.085,0.285-0.122,0.541-0.122,0.764v4.289c0.058-0.25,0.175-0.447,0.371-0.6c0.194-0.149,0.412-0.267,0.656-0.35
		c0.249-0.082,0.495-0.138,0.744-0.165c0.249-0.026,0.44-0.042,0.578-0.042h2.349c0.634,0,1.181-0.228,1.65-0.68
		c0.466-0.455,0.702-0.997,0.702-1.63v-0.743c0-0.245-0.035-0.512-0.101-0.805C164.758,120.571,164.603,120.295,164.354,120.037"/>
	<path fill="#FFFFFF" d="M121.458,127.851c-0.409,0.141-0.86,0.295-1.336,0.475c-0.484,0.183-0.932,0.339-1.344,0.476
		c-0.493,0.164-0.962,0.331-1.401,0.496c-0.331,0.138-0.65,0.324-0.95,0.575c-0.248,0.219-0.474,0.505-0.682,0.846
		c-0.205,0.345-0.303,0.778-0.303,1.299c0,1.045,0.243,1.821,0.738,2.333c0.496,0.509,1.414,0.763,2.763,0.763
		c1.377,0,2.309-0.268,2.808-0.807c0.494-0.534,0.741-1.3,0.741-2.289v-5.071c-0.057,0.271-0.196,0.481-0.416,0.621
		C121.857,127.703,121.653,127.799,121.458,127.851"/>
	<path fill="#FFFFFF" d="M198.796,123.895h-0.047v-0.248c0-0.523-0.092-0.956-0.281-1.303c-0.192-0.342-0.414-0.621-0.662-0.844
		c-0.305-0.25-0.631-0.442-0.986-0.578c-0.443-0.164-0.916-0.327-1.405-0.496c-0.419-0.136-0.851-0.295-1.323-0.471
		c-0.465-0.18-0.919-0.337-1.358-0.475c-0.191-0.056-0.393-0.152-0.594-0.293c-0.213-0.135-0.339-0.355-0.399-0.656v14.103v-0.037
		c0,0.275,0.061,0.56,0.166,0.866c0.115,0.304,0.296,0.576,0.558,0.823c0.265,0.248,0.622,0.445,1.07,0.598
		c0.455,0.153,1.03,0.229,1.716,0.229c1.316,0,2.229-0.268,2.74-0.807c0.512-0.534,0.779-1.16,0.807-1.876V123.895 M202.26,132.224
		v0.991c0,0.688-0.129,1.334-0.395,1.938c-0.255,0.605-0.675,1.133-1.255,1.586c-0.576,0.453-1.306,0.811-2.185,1.074
		c-0.882,0.26-1.942,0.388-3.177,0.388c-2.422,0-4.191-0.471-5.3-1.417c-1.115-0.952-1.687-2.126-1.717-3.53V107.97h3.507v6.022
		c0,0.331,0.061,0.619,0.166,0.868c0.115,0.247,0.248,0.467,0.415,0.661c0.166,0.188,0.333,0.334,0.516,0.434
		c0.175,0.092,0.322,0.169,0.433,0.226c0.111,0.026,0.383,0.126,0.822,0.287c0.44,0.163,0.955,0.35,1.551,0.556
		c0.589,0.207,1.199,0.423,1.832,0.64c0.637,0.224,1.193,0.411,1.695,0.581c0.985,0.354,1.755,0.959,2.284,1.814
		c0.536,0.852,0.807,1.799,0.807,2.846V132.224z"/>
	<rect x="207.367" y="107.97" fill="#FFFFFF" width="3.468" height="29.903"/>
	<path fill="#FFFFFF" d="M225.439,126.948c-0.055,0.269-0.195,0.479-0.412,0.618c-0.224,0.137-0.426,0.232-0.619,0.287
		c-0.415,0.135-0.861,0.295-1.337,0.474c-0.487,0.178-0.935,0.337-1.346,0.474c-0.495,0.164-0.961,0.331-1.405,0.496
		c-0.324,0.138-0.642,0.327-0.946,0.575c-0.241,0.219-0.474,0.502-0.682,0.846c-0.201,0.343-0.309,0.775-0.309,1.299
		c0,1.048,0.254,1.823,0.749,2.333c0.49,0.507,1.413,0.763,2.759,0.763c1.374,0,2.31-0.27,2.807-0.807
		c0.492-0.534,0.741-1.3,0.741-2.289V126.948 M221.892,116.015c2.415,0,4.192,0.472,5.322,1.423
		c1.127,0.947,1.688,2.139,1.688,3.569v12.208c0,0.494-0.086,1.035-0.271,1.628c-0.175,0.593-0.524,1.134-1.047,1.628
		c-0.522,0.499-1.234,0.909-2.145,1.239c-0.907,0.329-2.091,0.491-3.548,0.491c-1.458,0-2.641-0.162-3.549-0.491
		c-0.902-0.33-1.619-0.74-2.146-1.239c-0.522-0.494-0.873-1.035-1.05-1.628c-0.181-0.593-0.269-1.134-0.269-1.628v-1.939
		c0-1.048,0.269-1.994,0.807-2.845c0.538-0.852,1.298-1.457,2.288-1.818c0.493-0.164,1.056-0.358,1.689-0.575
		c0.632-0.221,1.242-0.435,1.837-0.639c0.591-0.208,1.109-0.392,1.55-0.56c0.433-0.165,0.711-0.263,0.819-0.286
		c0.113-0.055,0.258-0.133,0.433-0.228c0.182-0.093,0.354-0.239,0.517-0.431c0.165-0.196,0.309-0.417,0.435-0.663
		c0.127-0.245,0.187-0.54,0.187-0.866v-0.783c0-0.273-0.055-0.557-0.166-0.848c-0.112-0.285-0.304-0.555-0.575-0.803
		c-0.281-0.244-0.643-0.444-1.092-0.597c-0.456-0.149-1.022-0.228-1.715-0.228c-1.38,0-2.306,0.283-2.784,0.848
		c-0.484,0.562-0.724,1.242-0.724,2.04h-3.505v-0.988c0-0.69,0.132-1.336,0.396-1.94c0.256-0.606,0.678-1.137,1.257-1.588
		c0.573-0.454,1.304-0.812,2.187-1.072C219.59,116.146,220.659,116.015,221.892,116.015"/>
	<path fill="#FFFFFF" d="M247.008,137.873h-3.5v-16.209c0-0.245-0.039-0.512-0.105-0.805c-0.067-0.285-0.228-0.562-0.476-0.822
		c-0.248-0.262-0.598-0.483-1.054-0.664c-0.447-0.174-1.045-0.266-1.792-0.266c-0.769,0-1.396,0.092-1.88,0.266
		c-0.482,0.181-0.849,0.395-1.104,0.642c-0.272,0.249-0.436,0.516-0.522,0.806c-0.075,0.285-0.125,0.543-0.125,0.762v16.291h-3.502
		v-16.866c0-0.331,0.051-0.774,0.165-1.319c0.107-0.553,0.403-1.104,0.889-1.653c0.479-0.549,1.182-1.022,2.119-1.422
		c0.933-0.399,2.229-0.598,3.878-0.598c1.653,0,2.945,0.198,3.879,0.598c0.937,0.399,1.64,0.873,2.105,1.422
		c0.463,0.55,0.749,1.106,0.865,1.671c0.109,0.562,0.16,0.998,0.16,1.302V137.873"/>
	<path fill="#FFFFFF" d="M261.608,121.997v-0.415c0-0.273-0.051-0.555-0.166-0.845c-0.105-0.288-0.3-0.558-0.571-0.804
		c-0.28-0.249-0.643-0.448-1.096-0.602c-0.457-0.149-1.03-0.228-1.711-0.228c-1.38,0-2.306,0.284-2.784,0.851
		c-0.479,0.561-0.719,1.242-0.719,2.042v10.022c0,1.042,0.248,1.82,0.738,2.327c0.496,0.51,1.417,0.766,2.765,0.766
		c1.375,0,2.311-0.27,2.807-0.805c0.487-0.539,0.737-1.302,0.737-2.288h3.468v1.195c0,0.494-0.087,1.035-0.271,1.628
		c-0.173,0.591-0.526,1.137-1.049,1.63c-0.522,0.497-1.232,0.907-2.148,1.237c-0.91,0.329-2.086,0.491-3.544,0.491
		c-1.462,0-2.639-0.162-3.549-0.491c-0.902-0.33-1.621-0.74-2.144-1.237c-0.522-0.493-0.874-1.039-1.049-1.63
		c-0.185-0.593-0.271-1.134-0.271-1.628v-12.208c0-0.69,0.127-1.336,0.396-1.938c0.258-0.605,0.678-1.141,1.253-1.587
		c0.581-0.458,1.304-0.814,2.188-1.073c0.875-0.263,1.934-0.392,3.176-0.392c2.443,0,4.225,0.47,5.341,1.421
		c1.118,0.947,1.671,2.139,1.671,3.569v0.99H261.608"/>
	<path fill="#FFFFFF" d="M283.14,124.219v13.651h-3.508v-14.224c0-0.523-0.092-0.956-0.283-1.303
		c-0.194-0.342-0.411-0.621-0.667-0.844c-0.3-0.274-0.628-0.48-0.985-0.615c-0.438-0.168-0.905-0.337-1.401-0.5
		c-0.414-0.136-0.851-0.285-1.316-0.451c-0.47-0.166-0.926-0.315-1.363-0.453c-0.197-0.056-0.401-0.152-0.622-0.293
		c-0.221-0.135-0.354-0.355-0.411-0.656v19.339h-3.462v-29.939h3.462v6.061c0,0.331,0.062,0.622,0.186,0.868
		c0.125,0.247,0.27,0.467,0.433,0.661c0.166,0.188,0.336,0.336,0.517,0.434c0.175,0.092,0.327,0.169,0.435,0.226
		c0.108,0.026,0.384,0.126,0.827,0.287c0.434,0.163,0.944,0.35,1.52,0.556c0.583,0.207,1.193,0.423,1.833,0.64
		c0.649,0.224,1.219,0.411,1.72,0.581c0.986,0.354,1.754,0.959,2.288,1.814c0.533,0.852,0.801,1.799,0.801,2.846V124.219"/>
	<path fill="#FFFFFF" d="M297.74,122.036v-0.372c0-0.245-0.029-0.51-0.097-0.803c-0.078-0.287-0.235-0.564-0.475-0.824
		c-0.254-0.262-0.604-0.483-1.056-0.664c-0.455-0.174-1.053-0.266-1.79-0.266c-0.771,0-1.398,0.092-1.883,0.266
		c-0.479,0.181-0.854,0.395-1.116,0.642c-0.258,0.246-0.429,0.516-0.512,0.804c-0.081,0.287-0.124,0.545-0.124,0.764v4.291
		c0.053-0.252,0.175-0.447,0.374-0.602c0.191-0.15,0.413-0.265,0.655-0.348c0.246-0.085,0.496-0.138,0.744-0.165
		c0.249-0.026,0.439-0.042,0.58-0.042h2.35c0.631,0,1.181-0.23,1.646-0.682c0.472-0.453,0.702-0.992,0.702-1.628V122.036
		 M294.239,116.015c1.647,0,2.938,0.198,3.874,0.598c0.935,0.399,1.64,0.873,2.109,1.422c0.463,0.548,0.749,1.104,0.856,1.671
		c0.113,0.564,0.17,0.998,0.17,1.302v1.979c0,0.469-0.094,0.984-0.269,1.566c-0.182,0.578-0.604,1.195-1.262,1.854
		c-0.3,0.332-0.643,0.578-1.028,0.744c-0.386,0.164-0.733,0.291-1.032,0.371c-0.359,0.112-0.729,0.166-1.111,0.166h-3.136
		c-0.719,0-1.346,0.262-1.897,0.785c-0.551,0.52-0.825,1.167-0.825,1.938v1.853c0,0.661,0.124,1.184,0.374,1.571
		c0.107,0.193,0.229,0.356,0.37,0.494c0.136,0.139,0.344,0.261,0.619,0.371c0.217,0.11,0.498,0.207,0.843,0.287
		c0.342,0.084,0.792,0.126,1.345,0.126c0.71,0,1.276-0.075,1.686-0.229c0.417-0.15,0.704-0.281,0.866-0.392
		c0.361-0.273,0.604-0.606,0.744-0.993c0.141-0.382,0.205-0.796,0.205-1.236h3.509v0.991c0,0.743-0.16,1.432-0.476,2.062
		c-0.32,0.634-0.805,1.186-1.463,1.653c-0.47,0.327-1.115,0.616-1.934,0.861c-0.83,0.252-1.876,0.37-3.138,0.37
		c-0.937,0-1.746-0.074-2.44-0.222c-0.688-0.153-1.285-0.346-1.792-0.579c-0.511-0.229-0.93-0.499-1.257-0.801
		c-0.33-0.303-0.608-0.605-0.824-0.912c-0.496-0.714-0.729-1.538-0.699-2.473v-12.208c0-0.331,0.054-0.774,0.16-1.319
		c0.115-0.553,0.4-1.105,0.87-1.653c0.465-0.549,1.166-1.022,2.103-1.422C291.292,116.213,292.586,116.015,294.239,116.015"/>
	<path fill="#FFFFFF" d="M190.34,151.539v1.174h1.753v1.049h-1.753v7.812h-1.372v-7.812l-1.196-0.162v-0.887h1.196v-1.409
		c0-2.081,2.183-2.407,3.088-2.516l0.255,1.068C192.236,149.856,190.34,149.983,190.34,151.539"/>
	<path fill="#FFFFFF" d="M199.398,152.713h1.336v8.861h-1.336V152.713z M200.025,149.276c0.527,0,0.999,0.381,0.999,0.924
		c0,0.56-0.507,0.958-1.031,0.958s-0.994-0.38-0.994-0.924C198.999,149.675,199.505,149.276,200.025,149.276"/>
	<path fill="#FFFFFF" d="M210.35,158.011c0,1.249,0.182,2.387,0.541,3.562h-1.426c-0.362-0.978-0.453-2.531-0.453-3.562v-8.985
		h1.338V158.011"/>
	<path fill="#FFFFFF" d="M228.447,161.574v-6.727c0-0.813-0.254-1.285-1.138-1.285c-0.795,0-1.7,0.305-2.312,0.812
		c0.013,0.163,0.013,0.311,0.013,0.473v6.727h-1.374v-6.727c0-0.813-0.253-1.285-1.138-1.285c-0.851,0-1.684,0.414-2.315,0.924
		v7.088h-1.371v-8.859h1.371v0.649c0.706-0.506,1.558-0.921,2.442-0.921c0.814,0,1.681,0.143,2.096,0.939
		c0.636-0.507,1.916-0.939,2.712-0.939c1.629,0,2.387,0.775,2.387,2.404v6.727H228.447"/>
	<path fill="#FFFFFF" d="M240.303,161.843c-0.903,0-1.917-0.45-2.582-1.047l0.504-0.977c0.544,0.416,1.462,0.96,2.151,0.96
		c0.853,0,1.735-0.38,1.735-1.356c0-0.727-0.543-1.103-1.123-1.393l-1.879-0.942c-0.953-0.488-1.57-1.174-1.57-2.293
		c0-1.665,1.555-2.352,3.003-2.352c1.011,0,2.112,0.396,2.727,1.228l-0.723,0.726c-0.508-0.508-1.317-0.887-2.041-0.887
		c-0.744,0-1.612,0.357-1.612,1.212c0,0.703,0.708,1.048,1.249,1.319l1.661,0.814c1.031,0.504,1.632,1.264,1.632,2.42
		C243.435,161.066,241.896,161.843,240.303,161.843"/>
	<path fill="#FFFFFF" d="M262.031,152.713h1.338v8.861h-1.338V152.713z M262.663,149.276c0.524,0,0.997,0.381,0.997,0.924
		c0,0.56-0.507,0.958-1.033,0.958c-0.523,0-0.991-0.38-0.991-0.924C261.636,149.675,262.143,149.276,262.663,149.276"/>
	<path fill="#FFFFFF" d="M276.839,161.574v-6.727c0-0.797-0.165-1.285-1.067-1.285c-0.995,0-2.225,0.562-2.642,0.924v7.088h-1.375
		v-8.859h1.375v0.649c0.613-0.434,1.918-0.921,2.875-0.921c1.884,0,2.208,1.047,2.208,2.404v6.727H276.839"/>
	<path fill="#FFFFFF" d="M289.528,161.843c-2.496,0-3.567-2.438-3.567-4.608c0-2.115,1.05-4.791,3.544-4.791
		c0.797,0,1.735,0.341,2.317,0.901l-0.618,0.813c-0.433-0.358-1.101-0.631-1.676-0.631c-1.629,0-2.192,2.222-2.192,3.525
		c0,1.392,0.543,3.706,2.298,3.706c0.595,0,1.483-0.468,1.989-0.797l0.451,0.853C291.423,161.376,290.395,161.843,289.528,161.843"
		/>
	<path fill="#FFFFFF" d="M300.299,161.843c-0.561,0-1.051-0.433-1.051-1.011c0-0.614,0.564-1.103,1.158-1.103
		c0.565,0,1.051,0.433,1.051,1.011C301.457,161.337,300.898,161.843,300.299,161.843"/>
</g>
</svg>
