<?xml version="1.0" encoding="utf-8"?>
<!-- Generator: Adobe Illustrator 15.0.0, SVG Export Plug-In . SVG Version: 6.00 Build 0)  -->
<!DOCTYPE svg PUBLIC "-//W3C//DTD SVG 1.1//EN" "http://www.w3.org/Graphics/SVG/1.1/DTD/svg11.dtd">
<svg version="1.1" id="Layer_1" xmlns="http://www.w3.org/2000/svg" xmlns:xlink="http://www.w3.org/1999/xlink" x="0px" y="0px"
	 width="396px" height="256px" viewBox="-19 -12.5 396 256" enable-background="new -19 -12.5 396 256" xml:space="preserve">
<g>
	<path fill="#FFFFFF" d="M169.649,122.018v0.91c0,0.447-0.082,0.941-0.257,1.494c-0.166,0.553-0.569,1.142-1.198,1.773
		c-0.29,0.312-0.617,0.548-0.984,0.704c-0.366,0.163-0.698,0.278-0.981,0.356c-0.342,0.105-0.698,0.16-1.065,0.16h-2.996
		c-0.683,0-1.286,0.249-1.811,0.748c-0.527,0.499-0.785,1.112-0.785,1.851v1.77c0,0.633,0.119,1.131,0.353,1.5
		c0.105,0.184,0.226,0.34,0.353,0.47c0.135,0.136,0.331,0.254,0.594,0.356c0.208,0.102,0.477,0.196,0.805,0.276
		c0.326,0.079,0.756,0.118,1.279,0.118c0.684,0,1.223-0.074,1.619-0.22c0.389-0.145,0.666-0.266,0.825-0.374
		c0.342-0.261,0.576-0.577,0.708-0.945c0.129-0.364,0.199-0.763,0.199-1.183h3.344v0.946c0,0.709-0.146,1.366-0.451,1.969
		c-0.301,0.605-0.767,1.13-1.395,1.578c-0.447,0.312-1.063,0.588-1.854,0.824c-0.786,0.238-1.787,0.354-2.994,0.354
		c-0.892,0-1.667-0.072-2.32-0.215c-0.659-0.146-1.23-0.331-1.714-0.556c-0.488-0.218-0.886-0.478-1.203-0.763
		c-0.313-0.291-0.579-0.579-0.787-0.869c-0.471-0.681-0.693-1.47-0.669-2.362v-11.656c0-0.319,0.052-0.739,0.157-1.262
		c0.103-0.524,0.381-1.052,0.832-1.576c0.443-0.523,1.112-0.976,2.005-1.357c0.895-0.38,2.125-0.569,3.7-0.569
		c1.577,0,2.812,0.188,3.705,0.569c0.892,0.381,1.561,0.834,2.009,1.357c0.448,0.525,0.719,1.056,0.824,1.596
		c0.105,0.54,0.156,0.953,0.156,1.243v0.982 M153.469,119.07h-3.387v12.637c0,0.237,0.03,0.492,0.098,0.771
		c0.066,0.276,0.213,0.545,0.449,0.808c0.24,0.261,0.575,0.477,1.006,0.65c0.435,0.168,1.001,0.259,1.714,0.259h0.12v2.945
		c-1.577,0-2.81-0.187-3.704-0.567c-0.89-0.38-1.57-0.833-2.027-1.359c-0.461-0.523-0.744-1.057-0.846-1.594
		c-0.104-0.537-0.158-0.951-0.158-1.243V119.07h-2.521v-2.798h2.521v-5.242h3.348v5.242h3.387V119.07z M141.104,119.221
		c-0.318,0-0.578,0.009-0.79,0.021c-0.211,0.015-0.459,0.023-0.75,0.023c-0.709,0-1.277,0.09-1.711,0.272
		c-0.438,0.184-0.771,0.401-1.005,0.653c-0.237,0.248-0.391,0.511-0.455,0.785c-0.065,0.275-0.099,0.533-0.099,0.77v15.394h-3.348
		v-16.064c0-0.287,0.051-0.703,0.16-1.242c0.105-0.537,0.377-1.065,0.827-1.595c0.445-0.523,1.115-0.975,2.008-1.359
		c0.892-0.378,2.124-0.568,3.704-0.568c0.442,0,0.832-0.009,1.157-0.018c0.331-0.015,0.677,0.004,1.047,0.059L141.104,119.221z
		 M129.087,122.928v9.766c0,0.473-0.081,0.989-0.256,1.555c-0.167,0.564-0.501,1.083-0.999,1.557
		c-0.502,0.475-1.183,0.866-2.049,1.183c-0.867,0.312-1.999,0.47-3.389,0.47c-1.392,0-2.519-0.157-3.384-0.47
		c-0.868-0.316-1.55-0.708-2.048-1.183c-0.5-0.474-0.835-0.992-1.007-1.557c-0.17-0.565-0.254-1.082-0.254-1.555v-1.854
		c0-0.997,0.254-1.899,0.765-2.715c0.516-0.814,1.244-1.39,2.19-1.733c0.471-0.157,1.01-0.341,1.612-0.55
		c0.6-0.212,1.189-0.419,1.751-0.613c0.568-0.195,1.055-0.372,1.476-0.529c0.421-0.158,0.684-0.252,0.789-0.276
		c0.1-0.055,0.241-0.126,0.413-0.219c0.175-0.089,0.335-0.226,0.493-0.409c0.159-0.187,0.295-0.396,0.415-0.633
		c0.12-0.234,0.179-0.513,0.179-0.826v-0.748c0-0.26-0.055-0.53-0.158-0.807c-0.109-0.275-0.292-0.533-0.55-0.769
		c-0.265-0.236-0.614-0.427-1.042-0.571c-0.436-0.145-0.98-0.219-1.64-0.219c-1.312,0-2.198,0.27-2.659,0.812
		c-0.457,0.536-0.686,1.187-0.686,1.95h-3.35v-0.945c0-0.657,0.124-1.276,0.374-1.851c0.247-0.578,0.648-1.09,1.2-1.516
		c0.551-0.437,1.248-0.777,2.087-1.024c0.839-0.252,1.849-0.375,3.032-0.375c2.314,0,4.002,0.452,5.082,1.358
		c1.074,0.903,1.612,2.042,1.612,3.407L129.087,122.928L129.087,122.928z M111.84,121.983h-3.306v-0.396
		c0-0.261-0.054-0.529-0.159-0.807c-0.103-0.275-0.288-0.533-0.55-0.768c-0.263-0.238-0.613-0.429-1.046-0.572
		c-0.431-0.146-0.979-0.22-1.633-0.22c-1.311,0-2.198,0.271-2.657,0.812c-0.46,0.537-0.69,1.187-0.69,1.95v9.569
		c0,0.994,0.239,1.735,0.709,2.221c0.475,0.488,1.354,0.731,2.638,0.731c1.313,0,2.208-0.258,2.679-0.769
		c0.471-0.515,0.709-1.243,0.709-2.184h3.306v1.141c0,0.472-0.083,0.988-0.255,1.554c-0.17,0.565-0.506,1.084-1.003,1.558
		c-0.499,0.474-1.182,0.865-2.047,1.182c-0.868,0.312-1.996,0.471-3.388,0.471s-2.523-0.158-3.387-0.471
		c-0.867-0.316-1.549-0.708-2.049-1.182c-0.498-0.474-0.833-0.992-1-1.558c-0.173-0.565-0.26-1.082-0.26-1.554v-11.656
		c0-0.657,0.124-1.276,0.373-1.851c0.253-0.578,0.651-1.09,1.203-1.516c0.555-0.437,1.247-0.777,2.086-1.024
		c0.843-0.251,1.853-0.374,3.033-0.374c2.337,0,4.038,0.451,5.1,1.357c1.062,0.903,1.594,2.042,1.594,3.407V121.983z
		 M171.193,67.764L61.342,79.093l24.024,84.144l94.897-18.4L171.193,67.764z"/>
	<path fill="#FFFFFF" d="M165.752,120.111c-0.238-0.249-0.57-0.461-1.003-0.631c-0.433-0.171-1.004-0.258-1.714-0.258
		c-0.737,0-1.332,0.088-1.79,0.258c-0.46,0.17-0.815,0.374-1.068,0.61c-0.246,0.237-0.414,0.495-0.489,0.77
		c-0.081,0.271-0.116,0.517-0.116,0.729v4.095c0.055-0.238,0.167-0.427,0.354-0.573c0.186-0.142,0.394-0.255,0.627-0.334
		c0.238-0.078,0.472-0.131,0.71-0.157c0.238-0.025,0.42-0.04,0.552-0.04h2.243c0.605,0,1.127-0.218,1.575-0.649
		c0.445-0.435,0.67-0.952,0.67-1.556v-0.71c0-0.234-0.034-0.488-0.097-0.769C166.138,120.622,165.99,120.357,165.752,120.111"/>
	<path fill="#FFFFFF" d="M124.796,127.573c-0.391,0.134-0.821,0.281-1.276,0.453c-0.462,0.174-0.89,0.323-1.283,0.454
		c-0.471,0.156-0.918,0.315-1.338,0.474c-0.316,0.131-0.621,0.31-0.907,0.549c-0.236,0.209-0.452,0.482-0.651,0.808
		c-0.196,0.33-0.289,0.743-0.289,1.24c0,0.998,0.232,1.739,0.705,2.229c0.473,0.484,1.35,0.729,2.638,0.729
		c1.315,0,2.205-0.257,2.681-0.771c0.472-0.509,0.708-1.241,0.708-2.186v-4.841c-0.055,0.258-0.188,0.458-0.397,0.593
		C125.177,127.432,124.981,127.522,124.796,127.573"/>
	<path fill="#FFFFFF" d="M198.638,123.795h-0.045v-0.237c0-0.499-0.088-0.911-0.269-1.243c-0.184-0.326-0.395-0.594-0.631-0.806
		c-0.292-0.239-0.604-0.422-0.942-0.553c-0.423-0.156-0.874-0.312-1.342-0.474c-0.399-0.129-0.812-0.281-1.263-0.449
		c-0.444-0.171-0.878-0.321-1.296-0.453c-0.184-0.054-0.376-0.146-0.567-0.279c-0.204-0.13-0.324-0.34-0.381-0.627v13.465v-0.034
		c0,0.262,0.058,0.534,0.158,0.826c0.109,0.291,0.282,0.55,0.532,0.786c0.254,0.236,0.594,0.424,1.022,0.57
		c0.434,0.146,0.982,0.22,1.638,0.22c1.256,0,2.129-0.257,2.616-0.771c0.488-0.511,0.743-1.107,0.771-1.792v-8.149 M201.945,131.748
		v0.945c0,0.657-0.123,1.274-0.377,1.851c-0.244,0.578-0.646,1.082-1.199,1.515c-0.549,0.432-1.247,0.774-2.086,1.025
		c-0.842,0.249-1.854,0.371-3.033,0.371c-2.312,0-4.002-0.45-5.061-1.354c-1.064-0.909-1.61-2.029-1.64-3.37V108.59h3.35v5.75
		c0,0.316,0.058,0.591,0.158,0.829c0.11,0.236,0.237,0.446,0.396,0.631c0.158,0.18,0.318,0.319,0.493,0.414
		c0.167,0.088,0.308,0.162,0.413,0.217c0.106,0.024,0.365,0.119,0.785,0.273c0.42,0.155,0.912,0.334,1.48,0.53
		c0.563,0.197,1.145,0.404,1.749,0.611c0.608,0.214,1.14,0.393,1.619,0.555c0.939,0.339,1.675,0.916,2.181,1.731
		c0.512,0.814,0.771,1.718,0.771,2.719L201.945,131.748L201.945,131.748z"/>
	<rect x="206.821" y="108.59" fill="#FFFFFF" width="3.312" height="28.552"/>
	<path fill="#FFFFFF" d="M224.077,126.711c-0.054,0.256-0.187,0.456-0.394,0.59c-0.215,0.131-0.406,0.221-0.592,0.274
		c-0.396,0.128-0.822,0.281-1.277,0.452c-0.464,0.169-0.892,0.321-1.284,0.452c-0.472,0.156-0.918,0.315-1.341,0.474
		c-0.31,0.132-0.614,0.312-0.904,0.549c-0.229,0.209-0.452,0.479-0.651,0.808c-0.191,0.327-0.295,0.74-0.295,1.241
		c0,0.999,0.243,1.74,0.716,2.227c0.468,0.484,1.349,0.729,2.634,0.729c1.312,0,2.206-0.259,2.681-0.771
		c0.469-0.511,0.708-1.242,0.708-2.186V126.711 M220.69,116.272c2.305,0,4.002,0.45,5.081,1.357
		c1.075,0.904,1.611,2.043,1.611,3.407v11.656c0,0.473-0.082,0.989-0.259,1.555c-0.167,0.566-0.5,1.083-1,1.555
		c-0.497,0.477-1.178,0.868-2.047,1.183c-0.866,0.314-1.997,0.47-3.389,0.47s-2.521-0.155-3.389-0.47
		c-0.861-0.314-1.546-0.706-2.048-1.183c-0.499-0.472-0.834-0.988-1.003-1.555c-0.173-0.565-0.257-1.082-0.257-1.555v-1.852
		c0-0.999,0.257-1.902,0.77-2.715c0.515-0.814,1.24-1.392,2.186-1.736c0.471-0.156,1.008-0.342,1.612-0.549
		c0.604-0.212,1.186-0.415,1.754-0.611c0.564-0.197,1.06-0.374,1.479-0.534c0.413-0.157,0.68-0.251,0.782-0.273
		c0.108-0.052,0.247-0.126,0.413-0.217c0.175-0.089,0.339-0.229,0.494-0.411c0.158-0.188,0.295-0.399,0.415-0.634
		c0.122-0.233,0.18-0.515,0.18-0.826v-0.748c0-0.261-0.054-0.531-0.159-0.81c-0.106-0.272-0.291-0.53-0.549-0.767
		c-0.269-0.232-0.614-0.424-1.043-0.57c-0.435-0.142-0.976-0.218-1.638-0.218c-1.317,0-2.201,0.27-2.657,0.81
		c-0.463,0.536-0.692,1.187-0.692,1.948h-3.346v-0.943c0-0.658,0.125-1.276,0.377-1.853c0.245-0.579,0.648-1.086,1.201-1.516
		c0.547-0.435,1.245-0.776,2.088-1.024C218.491,116.396,219.513,116.272,220.69,116.272"/>
	<path fill="#FFFFFF" d="M244.67,137.142h-3.342v-15.477c0-0.234-0.037-0.488-0.101-0.769c-0.063-0.271-0.217-0.537-0.454-0.785
		c-0.235-0.249-0.57-0.461-1.006-0.634c-0.427-0.166-0.998-0.254-1.711-0.254c-0.734,0-1.332,0.088-1.795,0.254
		c-0.461,0.173-0.812,0.377-1.054,0.613c-0.26,0.237-0.417,0.493-0.499,0.77c-0.071,0.271-0.119,0.519-0.119,0.728v15.555h-3.344
		v-16.104c0-0.316,0.049-0.739,0.158-1.26c0.102-0.528,0.384-1.054,0.848-1.578c0.457-0.525,1.129-0.977,2.023-1.357
		c0.891-0.382,2.128-0.571,3.703-0.571c1.578,0,2.811,0.188,3.703,0.571c0.895,0.38,1.565,0.833,2.01,1.357
		c0.441,0.525,0.716,1.057,0.826,1.596c0.104,0.537,0.152,0.953,0.152,1.242V137.142"/>
	<path fill="#FFFFFF" d="M258.61,121.983v-0.396c0-0.261-0.049-0.529-0.159-0.807c-0.1-0.275-0.285-0.533-0.544-0.768
		c-0.268-0.238-0.614-0.429-1.047-0.575c-0.437-0.143-0.983-0.217-1.633-0.217c-1.319,0-2.203,0.27-2.659,0.812
		c-0.457,0.536-0.687,1.187-0.687,1.95v9.568c0,0.996,0.236,1.738,0.705,2.222c0.474,0.487,1.353,0.732,2.641,0.732
		c1.312,0,2.206-0.259,2.68-0.769c0.464-0.515,0.703-1.244,0.703-2.186h3.312v1.142c0,0.472-0.083,0.988-0.259,1.554
		c-0.165,0.564-0.502,1.086-1.002,1.557c-0.498,0.475-1.177,0.866-2.051,1.181c-0.868,0.314-1.992,0.47-3.383,0.47
		c-1.397,0-2.521-0.155-3.389-0.47c-0.861-0.314-1.548-0.706-2.048-1.181c-0.498-0.471-0.834-0.992-1.001-1.557
		c-0.178-0.565-0.26-1.082-0.26-1.554v-11.656c0-0.659,0.121-1.276,0.379-1.852c0.246-0.577,0.646-1.089,1.196-1.514
		c0.555-0.438,1.244-0.778,2.09-1.025c0.835-0.25,1.846-0.373,3.032-0.373c2.331,0,4.033,0.447,5.099,1.355
		c1.068,0.904,1.596,2.043,1.596,3.408v0.945h-3.312"/>
	<path fill="#FFFFFF" d="M279.17,124.104v13.034h-3.351v-13.581c0-0.499-0.087-0.913-0.27-1.244
		c-0.186-0.327-0.394-0.593-0.638-0.806c-0.286-0.263-0.599-0.458-0.939-0.588c-0.419-0.16-0.864-0.321-1.338-0.478
		c-0.396-0.129-0.812-0.271-1.256-0.43c-0.45-0.158-0.885-0.301-1.302-0.433c-0.188-0.054-0.384-0.146-0.595-0.279
		c-0.211-0.13-0.338-0.34-0.393-0.627v18.465h-3.305v-28.586h3.305v5.787c0,0.316,0.061,0.594,0.178,0.829
		c0.119,0.236,0.258,0.446,0.414,0.631c0.158,0.18,0.32,0.321,0.494,0.414c0.166,0.088,0.312,0.162,0.415,0.217
		c0.104,0.024,0.366,0.119,0.789,0.273c0.414,0.155,0.901,0.334,1.451,0.53c0.557,0.197,1.14,0.404,1.75,0.611
		c0.62,0.214,1.165,0.393,1.643,0.555c0.941,0.339,1.675,0.916,2.185,1.731c0.509,0.814,0.766,1.718,0.766,2.719v1.254"/>
	<path fill="#FFFFFF" d="M293.109,122.021v-0.355c0-0.234-0.028-0.486-0.093-0.767c-0.075-0.273-0.225-0.539-0.454-0.787
		c-0.242-0.249-0.576-0.461-1.009-0.634c-0.434-0.166-1.005-0.254-1.708-0.254c-0.736,0-1.335,0.088-1.798,0.254
		c-0.457,0.173-0.815,0.377-1.065,0.613c-0.247,0.234-0.409,0.493-0.489,0.767c-0.077,0.274-0.118,0.521-0.118,0.73v4.097
		c0.051-0.24,0.166-0.427,0.356-0.575c0.183-0.143,0.396-0.253,0.626-0.332c0.234-0.081,0.474-0.131,0.71-0.157
		c0.238-0.025,0.419-0.04,0.555-0.04h2.244c0.603,0,1.126-0.221,1.571-0.651c0.45-0.433,0.67-0.947,0.67-1.554v-0.354
		 M289.767,116.272c1.572,0,2.805,0.188,3.699,0.57c0.892,0.38,1.565,0.833,2.014,1.357c0.442,0.523,0.714,1.054,0.817,1.596
		c0.107,0.538,0.162,0.953,0.162,1.243v1.889c0,0.448-0.09,0.939-0.258,1.495c-0.173,0.553-0.576,1.142-1.204,1.771
		c-0.287,0.316-0.614,0.551-0.981,0.709c-0.369,0.157-0.7,0.278-0.985,0.354c-0.343,0.107-0.696,0.158-1.062,0.158h-2.994
		c-0.686,0-1.284,0.251-1.811,0.75c-0.526,0.497-0.789,1.115-0.789,1.851v1.769c0,0.632,0.12,1.132,0.358,1.501
		c0.102,0.184,0.219,0.34,0.353,0.472c0.131,0.132,0.328,0.249,0.591,0.354c0.207,0.105,0.476,0.197,0.806,0.272
		c0.326,0.081,0.756,0.122,1.283,0.122c0.679,0,1.22-0.072,1.61-0.22c0.398-0.143,0.673-0.268,0.827-0.374
		c0.345-0.261,0.576-0.579,0.711-0.948c0.134-0.364,0.195-0.76,0.195-1.18h3.351v0.946c0,0.709-0.153,1.366-0.454,1.969
		c-0.307,0.605-0.77,1.132-1.397,1.578c-0.449,0.312-1.064,0.588-1.847,0.822c-0.793,0.24-1.791,0.354-2.996,0.354
		c-0.895,0-1.667-0.071-2.33-0.212c-0.657-0.146-1.227-0.331-1.711-0.554c-0.487-0.219-0.888-0.476-1.2-0.765
		c-0.315-0.289-0.581-0.577-0.787-0.871c-0.474-0.681-0.696-1.468-0.666-2.36v-11.656c0-0.316,0.05-0.74,0.151-1.26
		c0.11-0.528,0.383-1.055,0.831-1.578c0.444-0.523,1.113-0.976,2.009-1.357C286.953,116.46,288.188,116.272,289.767,116.272"/>
	<path fill="#FFFFFF" d="M190.563,150.189v1.121h1.674v1.001h-1.674v7.46h-1.31v-7.46l-1.143-0.154v-0.847h1.143v-1.345
		c0-1.987,2.084-2.299,2.949-2.402l0.242,1.019C192.375,148.582,190.563,148.703,190.563,150.189"/>
	<path fill="#FFFFFF" d="M199.213,151.311h1.275v8.461h-1.275V151.311z M199.812,148.028c0.503,0,0.953,0.364,0.953,0.883
		c0,0.534-0.483,0.915-0.983,0.915c-0.501,0-0.949-0.363-0.949-0.882C198.832,148.41,199.314,148.028,199.812,148.028"/>
	<path fill="#FFFFFF" d="M209.669,156.369c0,1.192,0.175,2.279,0.517,3.401h-1.361c-0.345-0.935-0.433-2.417-0.433-3.401v-8.579
		h1.277V156.369"/>
	<path fill="#FFFFFF" d="M226.948,159.771v-6.423c0-0.776-0.242-1.227-1.087-1.227c-0.759,0-1.622,0.29-2.207,0.774
		c0.013,0.156,0.013,0.298,0.013,0.452v6.423h-1.312v-6.423c0-0.776-0.241-1.227-1.086-1.227c-0.813,0-1.607,0.395-2.21,0.882v6.768
		h-1.31v-8.459h1.31v0.62c0.673-0.484,1.487-0.88,2.331-0.88c0.777,0,1.605,0.137,2.001,0.896c0.607-0.484,1.829-0.896,2.59-0.896
		c1.556,0,2.279,0.74,2.279,2.296v6.423H226.948"/>
	<path fill="#FFFFFF" d="M238.269,160.027c-0.862,0-1.831-0.43-2.466-0.999l0.481-0.934c0.521,0.397,1.396,0.918,2.054,0.918
		c0.814,0,1.657-0.364,1.657-1.296c0-0.694-0.519-1.053-1.072-1.329l-1.794-0.9c-0.91-0.466-1.499-1.12-1.499-2.188
		c0-1.59,1.484-2.246,2.867-2.246c0.965,0,2.017,0.378,2.604,1.173l-0.69,0.692c-0.485-0.484-1.258-0.847-1.949-0.847
		c-0.71,0-1.539,0.341-1.539,1.158c0,0.67,0.677,0.999,1.193,1.259l1.585,0.777c0.985,0.481,1.56,1.207,1.56,2.311
		C241.26,159.286,239.79,160.027,238.269,160.027"/>
	<path fill="#FFFFFF" d="M259.015,151.311h1.277v8.461h-1.277V151.311z M259.618,148.028c0.5,0,0.952,0.364,0.952,0.883
		c0,0.534-0.485,0.915-0.987,0.915c-0.499,0-0.946-0.363-0.946-0.882C258.637,148.41,259.121,148.028,259.618,148.028"/>
	<path fill="#FFFFFF" d="M273.152,159.771v-6.423c0-0.762-0.157-1.227-1.019-1.227c-0.949,0-2.124,0.536-2.522,0.882v6.768h-1.312
		v-8.459h1.312v0.62c0.586-0.415,1.831-0.88,2.745-0.88c1.799,0,2.108,1,2.108,2.296v6.423H273.152"/>
	<path fill="#FFFFFF" d="M285.268,160.027c-2.382,0-3.405-2.327-3.405-4.399c0-2.019,1.003-4.575,3.384-4.575
		c0.761,0,1.657,0.327,2.213,0.861l-0.59,0.776c-0.413-0.342-1.051-0.603-1.602-0.603c-1.555,0-2.092,2.121-2.092,3.365
		c0,1.329,0.518,3.539,2.193,3.539c0.568,0,1.417-0.447,1.899-0.762l0.431,0.815C287.077,159.582,286.096,160.027,285.268,160.027"
		/>
	<path fill="#FFFFFF" d="M295.553,160.027c-0.535,0-1.004-0.413-1.004-0.965c0-0.586,0.539-1.054,1.106-1.054
		c0.538,0,1.003,0.414,1.003,0.966C296.658,159.545,296.125,160.027,295.553,160.027"/>
</g>
</svg>
