<?xml version="1.0" encoding="utf-8"?>
<!-- Generator: Adobe Illustrator 15.0.0, SVG Export Plug-In . SVG Version: 6.00 Build 0)  -->
<!DOCTYPE svg PUBLIC "-//W3C//DTD SVG 1.1//EN" "http://www.w3.org/Graphics/SVG/1.1/DTD/svg11.dtd">
<svg version="1.1" id="Layer_1" xmlns="http://www.w3.org/2000/svg" xmlns:xlink="http://www.w3.org/1999/xlink" x="0px" y="0px"
	 width="396px" height="256px" viewBox="-19 -12.5 396 256" enable-background="new -19 -12.5 396 256" xml:space="preserve">
<g>
	<path fill="#FFFFFF" d="M144.459,112.195c4.113,0,6.774-1.875,7.982-5.627l-3.183-1.516c-0.287,1.307-0.838,2.33-1.65,3.066
		c-0.815,0.735-1.763,1.104-2.847,1.104c-1.326,0-2.415-0.485-3.271-1.458c-0.855-0.973-1.283-2.245-1.283-3.817
		c0-1.503,0.404-2.793,1.215-3.87c0.808-1.076,2.002-1.614,3.584-1.614c1.913,0,3.257,1.021,4.031,3.068h2.73v-5.694h-2.729v1.255
		c-1.302-1.007-2.918-1.51-4.845-1.51c-1.55,0-2.973,0.324-4.271,0.97c-1.297,0.647-2.329,1.61-3.097,2.887
		c-0.766,1.278-1.15,2.769-1.15,4.474c0,2.395,0.738,4.373,2.213,5.938C139.364,111.413,141.554,112.195,144.459,112.195z"/>
	<path fill="#FFFFFF" d="M159.827,112.253c2.487,0,4.314-0.917,5.483-2.754l-2.787-0.895c-0.876,0.884-1.743,1.325-2.603,1.325
		c-0.658,0-1.284-0.212-1.877-0.638c-0.592-0.425-0.916-1.151-0.971-2.174h8.378c0-1.193-0.182-2.273-0.546-3.241
		c-0.363-0.969-1.014-1.776-1.952-2.429c-0.937-0.65-2.049-0.976-3.335-0.976c-1.774,0-3.233,0.582-4.379,1.744
		c-1.148,1.163-1.721,2.61-1.721,4.346c0,1.704,0.557,3.078,1.668,4.124C156.298,111.73,157.844,112.253,159.827,112.253z
		 M159.432,102.855c0.705,0,1.262,0.219,1.67,0.661c0.406,0.442,0.651,0.977,0.735,1.604h-4.706
		C157.349,103.609,158.115,102.855,159.432,102.855z"/>
	<path fill="#FFFFFF" d="M173.204,109.407h-1.732v-5.079c0.698-0.486,1.379-0.73,2.045-0.73c0.38,0,0.653,0.112,0.82,0.337
		c0.165,0.226,0.249,0.643,0.249,1.256v6.808h5.287v-2.591h-1.696v-4.485c0-2.896-1.134-4.345-3.404-4.345
		c-1.116,0-2.217,0.407-3.301,1.219v-1.045h-5.309v2.59v0.001h1.719v6.065h-1.719v2.591h7.041V109.407z"/>
	<path fill="#FFFFFF" d="M182.069,109.226c0,1.955,0.982,2.931,2.951,2.931c0.883,0,1.785-0.189,2.707-0.568v-2.486
		c-0.418,0.155-0.795,0.232-1.129,0.232c-0.4,0-0.658-0.076-0.771-0.227c-0.113-0.152-0.169-0.448-0.169-0.891v-4.877h2.538v-2.59
		h-2.538v-4.346l-3.59,2.58v1.767h-2.367v2.588h2.367V109.226z"/>
	<path fill="#FFFFFF" d="M196.591,109.408h-2.242v-1.382c0-0.93,0.185-1.735,0.558-2.418c0.374-0.681,0.845-1.123,1.419-1.324
		c0.572-0.2,1.312-0.301,2.22-0.301v-3.394c-0.227-0.008-0.42-0.011-0.583-0.011c-0.975,0-1.822,0.3-2.537,0.899
		c-0.717,0.6-1.176,1.313-1.378,2.133v-2.858h-5.241v2.59h1.953v6.065h-2.08v2.591h7.912V109.408z"/>
	<path fill="#FFFFFF" d="M200.211,110.685c1.112,1.045,2.66,1.568,4.642,1.568c2.486,0,4.314-0.917,5.484-2.754l-2.789-0.895
		c-0.874,0.884-1.742,1.325-2.602,1.325c-0.658,0-1.284-0.212-1.875-0.638c-0.594-0.425-0.917-1.151-0.973-2.174h8.379
		c0-1.193-0.184-2.273-0.545-3.241c-0.367-0.969-1.017-1.776-1.955-2.429c-0.936-0.65-2.047-0.976-3.334-0.976
		c-1.773,0-3.233,0.582-4.379,1.744c-1.147,1.163-1.72,2.61-1.72,4.346C198.545,108.265,199.099,109.639,200.211,110.685z
		 M204.459,102.855c0.703,0,1.259,0.219,1.668,0.661c0.408,0.442,0.653,0.977,0.737,1.604h-4.707
		C202.375,103.609,203.14,102.855,204.459,102.855z"/>
	<path fill="#FFFFFF" d="M223.865,112.252c2.604,0,4.423-1.133,5.462-3.398l-2.788-1.226c-0.31,0.543-0.72,0.979-1.231,1.307
		c-0.511,0.33-1.054,0.494-1.625,0.494c-0.722,0-1.33-0.253-1.826-0.761c-0.493-0.506-0.742-1.291-0.742-2.353
		c0-0.874,0.234-1.574,0.701-2.097c0.47-0.521,1.101-0.784,1.89-0.784c1.238,0,2.147,0.627,2.731,1.883h2.555v-4.566v-0.001h-2.453
		v0.929c-1.052-0.736-2.188-1.104-3.404-1.104c-1.519,0-2.848,0.517-3.99,1.551c-1.145,1.034-1.715,2.444-1.715,4.235
		c0,1.788,0.584,3.218,1.748,4.286C220.343,111.718,221.907,112.252,223.865,112.252z"/>
	<path fill="#FFFFFF" d="M231.356,108.671c0,1.109,0.308,1.968,0.924,2.577c0.615,0.609,1.465,0.912,2.551,0.912
		c1.107,0,2.198-0.373,3.275-1.12v0.958h5.404v-2.589h-1.814v-8.656h-5.32v2.59h1.73v5.066c-0.719,0.533-1.383,0.801-1.986,0.801
		c-0.45,0-0.759-0.101-0.932-0.308c-0.17-0.204-0.254-0.587-0.254-1.145v-7.005h-5.264v2.59h1.686V108.671z"/>
	<polygon fill="#FFFFFF" points="249.379,95.836 244.024,95.836 244.024,98.427 245.79,98.427 245.79,109.407 244.024,109.407 
		244.024,111.998 250.995,111.998 250.995,109.407 249.379,109.407 	"/>
	<path fill="#FFFFFF" d="M256.579,96.404l-3.59,2.58v1.767h-2.367v2.588h2.367v5.887c0,1.955,0.982,2.931,2.949,2.931
		c0.885,0,1.787-0.189,2.709-0.568v-2.486c-0.418,0.155-0.795,0.232-1.127,0.232c-0.402,0-0.66-0.076-0.772-0.227
		c-0.112-0.152-0.169-0.448-0.169-0.891v-4.877h3.008v-2.59h-3.008V96.404z"/>
	<path fill="#FFFFFF" d="M272.246,100.753h-5.321v2.59h1.73v5.066c-0.719,0.533-1.383,0.801-1.986,0.801
		c-0.449,0-0.759-0.101-0.929-0.308c-0.172-0.204-0.255-0.587-0.255-1.145v-7.005h-5.266v2.59h1.686v5.329
		c0,1.109,0.308,1.968,0.924,2.577c0.615,0.609,1.465,0.912,2.55,0.912c1.108,0,2.199-0.373,3.276-1.12v0.958h5.402v-2.589h-1.812
		V100.753z"/>
	<path fill="#FFFFFF" d="M281.437,101.477c-0.715,0.6-1.176,1.313-1.377,2.133v-2.858h-5.238v2.59h1.951v6.065h-2.079v2.591h7.911
		v-2.59h-2.243v-1.382c0-0.93,0.186-1.735,0.558-2.418c0.371-0.681,0.846-1.123,1.418-1.324c0.574-0.2,1.315-0.301,2.221-0.301
		v-3.394c-0.226-0.008-0.42-0.011-0.582-0.011C282.999,100.578,282.155,100.878,281.437,101.477z"/>
	<path fill="#FFFFFF" d="M296.544,103.876c-0.363-0.969-1.015-1.776-1.951-2.429c-0.937-0.65-2.051-0.976-3.336-0.976
		c-1.772,0-3.234,0.582-4.38,1.744c-1.147,1.163-1.719,2.61-1.719,4.346c0,1.704,0.555,3.078,1.666,4.124
		c1.112,1.045,2.661,1.568,4.641,1.568c2.488,0,4.314-0.917,5.486-2.754l-2.79-0.895c-0.875,0.884-1.742,1.325-2.602,1.325
		c-0.658,0-1.282-0.212-1.875-0.638c-0.596-0.425-0.918-1.151-0.972-2.174h8.377C297.09,105.924,296.909,104.844,296.544,103.876z
		 M288.771,105.12c0.217-1.511,0.984-2.265,2.301-2.265c0.706,0,1.261,0.219,1.669,0.661c0.407,0.442,0.651,0.977,0.737,1.604
		H288.771z"/>
	<polygon fill="#FFFFFF" points="303.183,109.407 303.183,95.836 297.824,95.836 297.824,98.427 299.593,98.427 299.593,109.407 
		297.824,109.407 297.824,111.998 304.796,111.998 304.796,109.407 	"/>
	<polygon fill="#FFFFFF" points="135.176,121.775 137.488,121.775 137.488,132.477 135.176,132.477 135.176,135.207 144.18,135.207 
		144.18,132.477 141.695,132.477 141.695,128.246 145.192,128.246 145.192,125.516 141.695,125.516 141.695,121.775 
		146.551,121.775 146.551,124.029 149.642,124.029 149.642,119.045 135.176,119.045 	"/>
	<path fill="#FFFFFF" d="M157.1,124.812c-0.715,0.602-1.174,1.311-1.377,2.133v-2.857h-5.239v2.59h1.953v6.066h-2.081v2.59h7.913
		v-2.59h-2.243v-1.383c0-0.93,0.185-1.736,0.557-2.416c0.372-0.682,0.845-1.125,1.417-1.326c0.575-0.201,1.315-0.301,2.22-0.301
		v-3.395c-0.225-0.008-0.419-0.012-0.58-0.012C158.663,123.912,157.818,124.213,157.1,124.812z"/>
	<path fill="#FFFFFF" d="M166.632,123.734c-1.656,0-3.056,0.523-4.2,1.574c-1.144,1.049-1.714,2.486-1.714,4.316
		c0,1.828,0.57,3.266,1.714,4.316c1.143,1.049,2.544,1.574,4.2,1.574c1.688,0,3.097-0.531,4.224-1.592
		c1.127-1.062,1.69-2.494,1.69-4.299c0-1.83-0.569-3.268-1.708-4.316C169.7,124.258,168.297,123.734,166.632,123.734z
		 M168.241,131.957c-0.415,0.512-0.955,0.77-1.621,0.77c-0.743,0-1.3-0.285-1.667-0.855c-0.368-0.568-0.552-1.291-0.552-2.168
		c0-2.137,0.74-3.205,2.219-3.205c0.69,0,1.236,0.27,1.639,0.809c0.402,0.537,0.604,1.285,0.604,2.246
		C168.863,130.646,168.656,131.447,168.241,131.957z"/>
	<path fill="#FFFFFF" d="M185.167,128.131c0-2.896-1.134-4.346-3.404-4.346c-1.115,0-2.215,0.406-3.301,1.219v-1.045h-5.309v2.59
		h1.719v6.064h-1.719v2.592h7.041v-2.592h-1.732v-5.078c0.698-0.486,1.379-0.729,2.047-0.729c0.379,0,0.651,0.109,0.818,0.336
		c0.165,0.225,0.249,0.643,0.249,1.254v6.811h5.287v-2.592h-1.696V128.131z"/>
	<path fill="#FFFFFF" d="M192.181,119.611l-3.591,2.582v1.766h-2.366v2.592h2.366v5.887c0,1.953,0.985,2.932,2.951,2.932
		c0.884,0,1.786-0.189,2.709-0.568v-2.486c-0.42,0.154-0.796,0.232-1.128,0.232c-0.402,0-0.662-0.078-0.773-0.229
		c-0.111-0.152-0.168-0.447-0.168-0.891v-4.877h3.008v-2.592h-3.008V119.611z"/>
	<path fill="#FFFFFF" d="M206.724,127.086c-0.362-0.969-1.015-1.775-1.951-2.428c-0.938-0.652-2.049-0.977-3.334-0.977
		c-1.775,0-3.235,0.58-4.381,1.742c-1.146,1.16-1.722,2.611-1.722,4.348c0,1.703,0.558,3.078,1.67,4.123
		c1.11,1.047,2.658,1.566,4.64,1.566c2.486,0,4.314-0.916,5.484-2.752l-2.787-0.895c-0.875,0.883-1.744,1.324-2.603,1.326
		c-0.658,0-1.284-0.213-1.876-0.641c-0.594-0.424-0.917-1.148-0.973-2.172h8.379C207.271,129.133,207.088,128.053,206.724,127.086z
		 M198.951,128.328c0.216-1.51,0.983-2.266,2.299-2.266c0.706,0,1.263,0.221,1.671,0.662c0.406,0.441,0.652,0.975,0.735,1.604
		H198.951z"/>
	<path fill="#FFFFFF" d="M219.996,128.131c0-2.896-1.134-4.346-3.403-4.346c-1.117,0-2.216,0.406-3.301,1.219v-1.045h-5.311v2.59
		h1.721v6.064h-1.721v2.592h7.041v-2.592h-1.73v-5.078c0.697-0.486,1.379-0.729,2.045-0.729c0.381,0,0.653,0.109,0.819,0.336
		c0.167,0.225,0.249,0.643,0.249,1.254v6.811h5.287v-2.592h-1.696V128.131z"/>
	<path fill="#FFFFFF" d="M232.79,128.512c0-1.037-0.07-1.787-0.213-2.246c-0.145-0.461-0.391-0.885-0.739-1.273
		c-0.349-0.387-0.879-0.703-1.592-0.947c-0.712-0.244-1.61-0.365-2.694-0.365c-2.797,0-4.613,0.889-5.449,2.66l2.892,0.523
		c0.575-0.59,1.262-0.883,2.069-0.883c0.649,0,1.17,0.184,1.558,0.551c0.386,0.369,0.58,0.84,0.58,1.412v0.686
		c-0.976-0.379-1.84-0.568-2.592-0.568c-1.347,0-2.447,0.363-3.298,1.092c-0.853,0.729-1.278,1.631-1.278,2.709
		c0,1.066,0.403,1.92,1.214,2.555s1.773,0.953,2.889,0.953c1.075,0,2.098-0.352,3.065-1.051v0.889h5.401v-2.592l0,0h-1.812V128.512z
		 M229.201,131.963c-0.836,0.783-1.587,1.176-2.253,1.176c-0.426,0-0.775-0.146-1.047-0.441c-0.271-0.295-0.407-0.648-0.407-1.057
		c0-0.457,0.169-0.807,0.505-1.047c0.337-0.24,0.713-0.359,1.123-0.359c0.518,0,1.212,0.268,2.079,0.811V131.963z"/>
	<path fill="#FFFFFF" d="M242.318,132.146c-0.511,0.328-1.054,0.494-1.626,0.494c-0.721,0-1.33-0.254-1.824-0.762
		c-0.496-0.508-0.744-1.293-0.744-2.354c0-0.875,0.234-1.576,0.703-2.098c0.469-0.523,1.1-0.785,1.889-0.785
		c1.239,0,2.148,0.629,2.73,1.883h2.558v-4.564h-2.456v0.93c-1.052-0.736-2.186-1.105-3.402-1.105c-1.519,0-2.85,0.518-3.99,1.553
		c-1.143,1.031-1.715,2.443-1.715,4.234c0,1.789,0.582,3.217,1.748,4.287c1.166,1.068,2.729,1.602,4.688,1.602
		c2.604,0,4.425-1.131,5.462-3.395l-2.789-1.229C243.242,131.379,242.83,131.818,242.318,132.146z"/>
	<path fill="#FFFFFF" d="M87.406,81.319c-18.858,0-34.202,15.344-34.202,34.202c0,16.334,11.513,30.022,26.847,33.397
		c0.078,0.018,0.155,0.039,0.234,0.055c1.733,0.369,3.512,0.609,5.331,0.705c0-1.416,0-3.104,0-4.971c0-6.521,0-15.258,0-22.418
		c0-1.75,0-3.4,0-4.908c0-1.981,0-3.702,0-5.038c0-5.496-3.272-8.377-9.358-8.377c-1.047,0-2.554,0.199-3.601,0.523v3.359v1.485
		c0.981-0.328,2.162-0.46,3.143-0.46c2.684,0,4.251,0.852,4.251,3.798v1.804v2.906h-7.394v2.49v2.418h7.394v21.531
		c-12.575-3.27-21.889-14.715-21.889-28.299c0-16.124,13.119-29.245,29.244-29.245c16.127,0,29.246,13.122,29.246,29.245
		c0,13.606-9.344,25.065-21.948,28.315v-21.547h7.394v-2.418v-2.49h-7.394v-2.906v-1.804c0-2.946,1.569-3.798,4.251-3.798
		c0.981,0,2.161,0.132,3.143,0.46v-1.485v-3.358c-1.048-0.325-2.553-0.523-3.6-0.523c-6.086,0-9.358,2.881-9.358,8.377
		c0,1.336,0,3.056,0,5.039c0,1.506,0,3.158,0,4.906c0,7.16,0,15.9,0,22.424c0,1.867,0,3.555,0,4.969
		c1.819-0.094,3.599-0.328,5.333-0.693c0.077-0.018,0.154-0.039,0.232-0.057c15.364-3.352,26.904-17.055,26.904-33.41
		C121.608,96.663,106.266,81.319,87.406,81.319z"/>
	<circle fill="#FFFFFF" cx="87.378" cy="97.093" r="5.43"/>
</g>
</svg>
