<?xml version="1.0" encoding="utf-8"?>
<!-- Generator: Adobe Illustrator 15.0.0, SVG Export Plug-In . SVG Version: 6.00 Build 0)  -->
<!DOCTYPE svg PUBLIC "-//W3C//DTD SVG 1.1//EN" "http://www.w3.org/Graphics/SVG/1.1/DTD/svg11.dtd">
<svg version="1.1" id="Layer_1" xmlns="http://www.w3.org/2000/svg" xmlns:xlink="http://www.w3.org/1999/xlink" x="0px" y="0px"
	 width="396px" height="256px" viewBox="-19 -12.5 396 256" enable-background="new -19 -12.5 396 256" xml:space="preserve">
<g>
	<path fill="#FFFFFF" d="M204.479,109.75c-0.908,0-1.977-0.473-2.643-1.067l0.877-1.383c0.438,0.35,1.207,0.806,1.785,0.806
		c0.891,0,1.484-0.631,1.484-1.505c0-1.838-4.373-2.118-4.373-5.478c0-1.784,1.365-2.922,3.096-2.922
		c1.051,0,2.26,0.524,2.871,1.381l-1.051,1.032c-0.42-0.454-1.104-0.839-1.73-0.839c-0.754,0-1.314,0.49-1.314,1.261
		c0,2.309,4.375,2.012,4.375,5.581C207.855,108.524,206.316,109.75,204.479,109.75"/>
	<path fill="#FFFFFF" d="M213.438,105.497l-2.449,1.016c-0.07,0.245-0.139,0.524-0.139,0.77c0,0.49,0.279,0.963,0.805,0.963
		c1.117,0,1.783-1.383,1.783-2.433V105.497z M215.137,109.731c-0.77,0-1.383-0.473-1.523-1.242
		c-0.523,0.805-1.172,1.259-2.168,1.259c-1.559,0-2.328-0.927-2.328-2.449c0-0.542,0.279-1.26,0.525-1.732l3.762-1.627v-0.858
		c0-0.664-0.422-0.856-1.016-0.856c-0.77,0-1.68,0.524-2.221,1.05l-0.633-1.103c0.701-0.84,1.91-1.521,3.01-1.521
		c1.576,0,2.715,0.77,2.715,2.449v4.987c0,0.21,0.068,0.454,0.33,0.454c0.107,0,0.211-0.052,0.316-0.104l0.471,0.927
		C216.012,109.59,215.572,109.731,215.137,109.731"/>
	<path fill="#FFFFFF" d="M220.49,101.979c-0.91,0-1.189,0.788-1.189,1.559c0,0.875,0.191,1.715,1.225,1.715
		c0.91,0,1.172-0.84,1.172-1.593C221.697,102.89,221.416,101.979,220.49,101.979 M221.051,109.241h-1.016
		c0,0-1.031,0.525-1.031,1.243c0,0.893,0.664,1.137,1.311,1.137c1.018,0,2.064-0.63,2.064-1.715
		C222.379,109.241,221.521,109.241,221.051,109.241 M223.221,102.487c0.121,0.402,0.244,0.857,0.244,1.295
		c0,1.436-0.807,2.467-2.223,2.816c-0.191,0.035-0.387,0.054-0.596,0.105c-0.279,0.07-1.051,0.21-1.051,0.787
		c0,0.474,1.383,0.332,1.785,0.332h0.561c1.174,0,2.205,0.683,2.205,1.943c0,2.064-2.047,3.185-3.902,3.185
		c-1.418,0-3.043-0.561-3.043-2.223c0-0.874,0.926-1.522,1.572-1.803c-0.523-0.069-1.031-0.647-1.031-1.241
		c0-0.683,0.611-1.174,1.225-1.4c-1.014-0.42-1.469-1.575-1.469-2.556c0-1.872,1.242-3.079,3.096-3.079
		c0.492,0,0.998,0.071,1.436,0.262h2.188v1.576L223.221,102.487L223.221,102.487z"/>
	<path fill="#FFFFFF" d="M228.939,102.016c-0.893,0-1.312,0.769-1.504,1.556h2.922C230.289,102.768,229.832,102.016,228.939,102.016
		 M227.189,105.094c-0.016,0.104-0.016,0.211-0.016,0.314c0,0.98,0.418,2.782,1.678,2.782c0.736,0,1.697-0.489,2.293-0.945
		l0.611,1.19c-0.75,0.63-2.029,1.312-3.01,1.312c-2.588,0-3.43-2.59-3.43-4.76s1.383-4.341,3.744-4.341
		c1.697,0,3.062,1.663,3.115,3.291c0,0.385,0.018,0.77,0.018,1.154h-5.004V105.094z"/>
	<path fill="#FFFFFF" d="M236.412,109.75c-0.857,0-1.924-0.525-2.592-1.05l0.686-1.226c0.488,0.351,1.346,0.806,1.959,0.806
		c0.664,0,1.311-0.263,1.311-1.032c0-0.508-0.473-0.841-0.875-1.05c-0.785-0.421-1.592-0.823-2.379-1.243
		c-0.629-0.332-0.945-1.085-0.945-1.784c0-1.697,1.486-2.521,3.045-2.521c0.91,0,2.117,0.386,2.66,1.189l-0.963,0.945
		c-0.42-0.438-1.139-0.718-1.732-0.718c-0.523,0-1.189,0.368-1.189,0.962c0,0.438,0.49,0.719,0.822,0.876l2.137,1.085
		c0.787,0.402,1.225,1.26,1.225,2.117C239.578,108.891,238.02,109.75,236.412,109.75"/>
	<rect x="240.873" y="104.236" fill="#FFFFFF" width="3.764" height="1.575"/>
	<path fill="#FFFFFF" d="M248.607,100.02v0.892h1.592v1.541h-1.592v7.034h-1.84v-7.069l-1.119-0.192v-1.313h1.119v-0.979
		c0-2.693,3.256-2.799,3.256-2.799l0.314,1.33C250.338,98.462,248.607,98.566,248.607,100.02"/>
	<path fill="#FFFFFF" d="M254.801,102.016c-0.893,0-1.311,0.769-1.506,1.556h2.924C256.146,102.768,255.691,102.016,254.801,102.016
		 M253.051,105.094c-0.018,0.104-0.018,0.211-0.018,0.314c0,0.98,0.42,2.782,1.682,2.782c0.734,0,1.695-0.489,2.291-0.945
		l0.613,1.19c-0.754,0.63-2.031,1.312-3.012,1.312c-2.59,0-3.43-2.59-3.43-4.76s1.383-4.341,3.744-4.341
		c1.697,0,3.062,1.663,3.115,3.291c0,0.385,0.018,0.77,0.018,1.154h-5.004V105.094z"/>
	<path fill="#FFFFFF" d="M269.045,109.486v-6.404c0-0.63-0.158-0.841-0.754-0.841c-0.752,0-1.436,0.508-1.82,0.787v6.458h-1.836
		v-6.159c0-0.63-0.158-1.086-0.752-1.086c-0.684,0-1.752,0.7-2.049,0.945v6.3h-1.836v-8.575h1.836v0.613
		c0.334-0.298,1.453-0.875,2.152-0.875c0.98,0,1.646,0.542,2.014,1.016c0.543-0.333,1.539-1.016,2.395-1.016
		c1.943,0,2.486,1.086,2.486,2.433v6.404H269.045z"/>
	<path fill="#FFFFFF" d="M282.535,109.486v-6.404c0-0.63-0.158-0.841-0.754-0.841c-0.752,0-1.436,0.508-1.82,0.787v6.458h-1.836
		v-6.159c0-0.63-0.158-1.086-0.752-1.086c-0.686,0-1.752,0.7-2.047,0.945v6.3h-1.838v-8.575h1.838v0.613
		c0.332-0.298,1.449-0.875,2.15-0.875c0.98,0,1.645,0.542,2.014,1.016c0.543-0.333,1.539-1.016,2.395-1.016
		c1.943,0,2.486,1.086,2.486,2.433v6.404H282.535z"/>
	<path fill="#FFFFFF" d="M290.021,102.016c-0.893,0-1.311,0.769-1.506,1.556h2.924C291.369,102.768,290.916,102.016,290.021,102.016
		 M288.271,105.094c-0.018,0.104-0.018,0.211-0.018,0.314c0,0.98,0.42,2.782,1.68,2.782c0.734,0,1.697-0.489,2.293-0.945l0.613,1.19
		c-0.754,0.63-2.031,1.312-3.012,1.312c-2.588,0-3.43-2.59-3.43-4.76s1.383-4.341,3.744-4.341c1.697,0,3.062,1.663,3.115,3.291
		c0,0.385,0.02,0.77,0.02,1.154h-5.006V105.094z"/>
	<path fill="#FFFFFF" d="M297.494,109.75c-0.857,0-1.928-0.525-2.59-1.05l0.682-1.226c0.49,0.351,1.348,0.806,1.961,0.806
		c0.664,0,1.311-0.263,1.311-1.032c0-0.508-0.473-0.841-0.875-1.05c-0.787-0.421-1.592-0.823-2.381-1.243
		c-0.629-0.332-0.943-1.085-0.943-1.784c0-1.697,1.486-2.521,3.045-2.521c0.91,0,2.117,0.386,2.66,1.189l-0.965,0.945
		c-0.418-0.438-1.137-0.718-1.73-0.718c-0.525,0-1.189,0.368-1.189,0.962c0,0.438,0.49,0.719,0.822,0.876l2.135,1.085
		c0.787,0.402,1.225,1.26,1.225,2.117C300.66,108.891,299.102,109.75,297.494,109.75"/>
	<path fill="#FFFFFF" d="M206.514,121.446c0,0-0.943-0.289-1.596-0.289c-1.447,0-1.666,1.792-1.666,3.239
		c0,0.853,0.182,2.772,1.451,2.863c1.23,0.09,1.811-1.866,1.811-2.792V121.446z M208.434,128.909c0,0-0.727,0.035-1.053-0.182
		c-0.395-0.271-0.578-0.707-0.689-1.176c-0.289,0.558-0.979,1.355-2.117,1.355c-2.01,0-3.277-1.976-3.277-4.312
		c0-2.516,0.76-5.104,3.549-5.104c0.744,0,1.668,0.289,1.668,0.289v-3.731h1.9v10.723c0,0.545,0.037,0.781,0.598,0.781
		L208.434,128.909z"/>
	<path fill="#FFFFFF" d="M213.844,120.902c-0.924,0-1.357,0.798-1.557,1.611h3.021C215.238,121.683,214.768,120.902,213.844,120.902
		 M212.031,124.091c-0.02,0.108-0.02,0.219-0.02,0.324c0,1.014,0.438,2.879,1.74,2.879c0.762,0,1.758-0.506,2.373-0.978l0.635,1.233
		c-0.781,0.652-2.1,1.356-3.117,1.356c-2.68,0-3.549-2.681-3.549-4.928s1.432-4.489,3.877-4.489c1.76,0,3.17,1.719,3.225,3.404
		c0,0.396,0.018,0.796,0.018,1.195h-5.182V124.091z"/>
	<path fill="#FFFFFF" d="M224,128.635c-0.201-0.505-0.525-1.628-0.525-3.71v-8.879h1.865v8.879c0,1.465,0.217,2.353,0.617,3.71H224z
		"/>
	<path fill="#FFFFFF" d="M227.875,121.538l-1.123-0.779c0.561-0.815,1.215-1.903,1.215-2.917c0-0.146-0.02-0.289-0.055-0.436
		c0.289-0.215,0.74-0.454,1.086-0.454c0.559,0,1.16,0.618,1.445,1.053C229.793,119.273,228.871,120.505,227.875,121.538"/>
	<path fill="#FFFFFF" d="M235.152,120.902c-0.922,0-1.355,0.798-1.557,1.611h3.023C236.549,121.683,236.078,120.902,235.152,120.902
		 M233.342,124.091c-0.018,0.108-0.018,0.219-0.018,0.324c0,1.014,0.436,2.879,1.738,2.879c0.76,0,1.756-0.506,2.373-0.978
		l0.633,1.233c-0.777,0.652-2.1,1.356-3.113,1.356c-2.682,0-3.553-2.681-3.553-4.928s1.432-4.489,3.879-4.489
		c1.756,0,3.166,1.719,3.223,3.404c0,0.396,0.02,0.796,0.02,1.195h-5.182V124.091z"/>
	<path fill="#FFFFFF" d="M242.432,128.909c-0.889,0-1.99-0.546-2.68-1.088l0.705-1.267c0.508,0.358,1.395,0.83,2.029,0.83
		c0.688,0,1.357-0.271,1.357-1.067c0-0.523-0.49-0.867-0.904-1.088c-0.816-0.432-1.65-0.848-2.465-1.284
		c-0.65-0.345-0.977-1.124-0.977-1.849c0-1.753,1.537-2.605,3.148-2.605c0.941,0,2.191,0.396,2.754,1.23l-0.998,0.979
		c-0.436-0.453-1.178-0.742-1.791-0.742c-0.545,0-1.232,0.381-1.232,0.994c0,0.455,0.508,0.744,0.854,0.907l2.209,1.121
		c0.814,0.416,1.268,1.304,1.268,2.192C245.709,128.021,244.098,128.909,242.432,128.909"/>
	<path fill="#FFFFFF" d="M249.094,128.909c-1.322,0-1.811-1.033-1.811-2.228v-5.363l-1.145-0.198v-1.359h1.217v-1.594h1.791v1.594
		h1.611v1.615h-1.576v5.25c0,0.287,0.02,0.635,0.455,0.635c0.418,0,0.941-0.234,0.941-0.234l0.453,1.338
		C250.252,128.747,249.98,128.909,249.094,128.909"/>
	<path fill="#FFFFFF" d="M261.914,121.446c0,0-0.943-0.289-1.594-0.289c-1.449,0-1.67,1.792-1.67,3.239
		c0,0.853,0.186,2.772,1.449,2.863c1.234,0.09,1.814-1.866,1.814-2.792V121.446L261.914,121.446z M263.832,128.909
		c0,0-0.727,0.035-1.051-0.182c-0.398-0.271-0.578-0.707-0.689-1.176c-0.285,0.558-0.977,1.355-2.115,1.355
		c-2.012,0-3.279-1.976-3.279-4.312c0-2.516,0.76-5.104,3.551-5.104c0.742,0,1.668,0.289,1.668,0.289v-3.731h1.898v10.723
		c0,0.545,0.035,0.781,0.6,0.781L263.832,128.909z"/>
	<path fill="#FFFFFF" d="M266.398,121.538l-1.119-0.779c0.561-0.815,1.211-1.903,1.211-2.917c0-0.146-0.018-0.289-0.055-0.436
		c0.291-0.215,0.742-0.454,1.088-0.454c0.561,0,1.158,0.618,1.447,1.053C268.322,119.273,267.396,120.505,266.398,121.538"/>
	<path fill="#FFFFFF" d="M273.752,118.692c-1.646,0-2.08,2.465-2.08,4.238c0,1.775,0.436,4.238,2.08,4.238
		c1.65,0,2.082-2.463,2.082-4.238C275.834,121.157,275.402,118.692,273.752,118.692 M273.752,128.909
		c-2.949,0-4.055-3.298-4.055-5.979c0-2.682,1.154-5.979,4.055-5.979c2.936,0,4.059,3.297,4.059,5.979
		C277.811,125.611,276.686,128.909,273.752,128.909"/>
	<path fill="#FFFFFF" d="M281.518,128.909c-1.318,0-1.809-1.033-1.809-2.228v-5.363l-1.143-0.198v-1.359h1.215v-1.594h1.793v1.594
		h1.611v1.615h-1.578v5.25c0,0.287,0.021,0.635,0.457,0.635c0.414,0,0.939-0.234,0.939-0.234l0.453,1.338
		C282.68,128.747,282.408,128.909,281.518,128.909"/>
	<path fill="#FFFFFF" d="M286.604,128.909c-1.318,0-1.809-1.033-1.809-2.228v-5.363l-1.143-0.198v-1.359h1.217v-1.594h1.791v1.594
		h1.611v1.615h-1.576v5.25c0,0.287,0.021,0.635,0.455,0.635c0.414,0,0.939-0.234,0.939-0.234l0.455,1.338
		C287.766,128.747,287.492,128.909,286.604,128.909"/>
	<path fill="#FFFFFF" d="M293.596,124.507l-2.537,1.051c-0.07,0.253-0.141,0.544-0.141,0.795c0,0.509,0.287,0.997,0.83,0.997
		c1.158,0,1.848-1.427,1.848-2.517V124.507z M295.352,128.891c-0.793,0-1.43-0.491-1.574-1.288
		c-0.543,0.835-1.215,1.307-2.246,1.307c-1.613,0-2.408-0.962-2.408-2.535c0-0.562,0.291-1.307,0.541-1.795l3.896-1.684v-0.889
		c0-0.688-0.438-0.887-1.051-0.887c-0.797,0-1.738,0.539-2.301,1.086l-0.65-1.143c0.727-0.866,1.973-1.573,3.113-1.573
		c1.631,0,2.809,0.796,2.809,2.534v5.16c0,0.222,0.072,0.473,0.346,0.473c0.107,0,0.215-0.056,0.324-0.105l0.488,0.958
		C296.26,128.747,295.807,128.891,295.352,128.891"/>
	<path fill="#FFFFFF" d="M305.729,128.635h-1.811l-0.908-3.259c-0.232-0.888-0.469-2.445-0.469-2.445s-0.236,1.576-0.49,2.445
		l-0.924,3.259h-1.881l-2.719-8.875h2.008l1.633,6.034l1.43-6.034h1.812l1.559,6.034c0.613-1.939,1.176-4.297,1.395-6.034h1.992
		C307.936,122.876,306.852,126.137,305.729,128.635"/>
	<path fill="#FFFFFF" d="M313.258,124.507l-2.533,1.051c-0.072,0.253-0.146,0.544-0.146,0.795c0,0.509,0.291,0.997,0.834,0.997
		c1.158,0,1.846-1.427,1.846-2.517V124.507L313.258,124.507z M315.018,128.891c-0.801,0-1.434-0.491-1.578-1.288
		c-0.543,0.835-1.215,1.307-2.246,1.307c-1.613,0-2.41-0.962-2.41-2.535c0-0.562,0.291-1.307,0.543-1.795l3.896-1.684v-0.889
		c0-0.688-0.438-0.887-1.051-0.887c-0.797,0-1.738,0.539-2.301,1.086l-0.652-1.143c0.729-0.866,1.975-1.573,3.115-1.573
		c1.631,0,2.809,0.796,2.809,2.534v5.16c0,0.222,0.072,0.473,0.346,0.473c0.105,0,0.217-0.056,0.326-0.105l0.486,0.958
		C315.922,128.747,315.469,128.891,315.018,128.891"/>
	<polygon fill="#FFFFFF" points="41.699,109.616 41.699,98.205 47.856,98.205 47.856,99.96 43.672,99.96 43.672,102.79 
		46.88,102.79 46.88,104.564 43.672,104.564 43.672,107.823 48.037,107.823 48.037,109.616 	"/>
	<path fill="#FFFFFF" d="M53.776,105.489l-2.536,1.048c-0.074,0.254-0.145,0.546-0.145,0.798c0,0.506,0.289,0.998,0.832,0.998
		c1.161,0,1.849-1.433,1.849-2.521V105.489z M55.533,109.872c-0.794,0-1.431-0.49-1.575-1.287c-0.542,0.834-1.212,1.305-2.247,1.305
		c-1.611,0-2.408-0.96-2.408-2.537c0-0.561,0.29-1.301,0.543-1.791l3.893-1.686v-0.887c0-0.689-0.434-0.889-1.05-0.889
		c-0.797,0-1.74,0.544-2.298,1.09l-0.653-1.142c0.725-0.87,1.973-1.577,3.114-1.577c1.63,0,2.809,0.794,2.809,2.536v5.161
		c0,0.217,0.072,0.472,0.345,0.472c0.107,0,0.216-0.056,0.325-0.109l0.487,0.957C56.438,109.726,55.985,109.872,55.533,109.872"/>
	<path fill="#FFFFFF" d="M60.781,109.889c-0.884,0-1.992-0.546-2.679-1.084l0.707-1.271c0.506,0.362,1.393,0.834,2.027,0.834
		c0.689,0,1.359-0.272,1.359-1.07c0-0.524-0.49-0.867-0.908-1.087c-0.814-0.434-1.644-0.851-2.46-1.286
		c-0.654-0.343-0.979-1.12-0.979-1.845c0-1.757,1.538-2.609,3.15-2.609c0.944,0,2.192,0.4,2.754,1.229l-0.997,0.979
		c-0.435-0.451-1.177-0.74-1.792-0.74c-0.543,0-1.233,0.38-1.233,0.994c0,0.453,0.507,0.742,0.851,0.904l2.211,1.122
		c0.815,0.417,1.267,1.306,1.267,2.195C64.06,109,62.449,109.889,60.781,109.889"/>
	<path fill="#FFFFFF" d="M67.897,109.889c-1.322,0-1.811-1.033-1.811-2.228v-5.361l-1.142-0.201v-1.356h1.213v-1.593h1.795v1.593
		h1.611v1.613h-1.575v5.251c0,0.29,0.016,0.634,0.451,0.634c0.417,0,0.943-0.237,0.943-0.237l0.452,1.34
		C69.057,109.725,68.785,109.889,67.897,109.889"/>
	<path fill="#FFFFFF" d="M80.572,99.674c-1.648,0-2.083,2.46-2.083,4.235c0,1.776,0.434,4.24,2.083,4.24
		c1.646,0,2.082-2.464,2.082-4.24C82.654,102.135,82.218,99.674,80.572,99.674 M80.572,109.889c-2.952,0-4.058-3.297-4.058-5.979
		c0-2.679,1.16-5.974,4.058-5.974c2.934,0,4.056,3.295,4.056,5.974C84.627,106.592,83.505,109.889,80.572,109.889"/>
	<path fill="#FFFFFF" d="M88.79,109.889c-1.321,0-1.813-1.033-1.813-2.228v-5.361l-1.139-0.201v-1.356h1.212v-1.593h1.793v1.593
		h1.613v1.613h-1.577v5.251c0,0.29,0.02,0.634,0.456,0.634c0.417,0,0.939-0.237,0.939-0.237l0.451,1.34
		C89.949,109.725,89.675,109.889,88.79,109.889"/>
	<path fill="#FFFFFF" d="M94.332,109.889c-1.323,0-1.813-1.033-1.813-2.228v-5.361l-1.139-0.201v-1.356h1.211v-1.593h1.792v1.593
		h1.613v1.613H94.42v5.251c0,0.29,0.018,0.634,0.453,0.634c0.416,0,0.939-0.237,0.939-0.237l0.456,1.34
		C95.489,109.725,95.22,109.889,94.332,109.889"/>
	<path fill="#FFFFFF" d="M101.772,105.489l-2.535,1.048c-0.073,0.254-0.146,0.546-0.146,0.798c0,0.506,0.289,0.998,0.833,0.998
		c1.159,0,1.848-1.433,1.848-2.521V105.489z M103.53,109.872c-0.796,0-1.43-0.49-1.575-1.287c-0.544,0.834-1.214,1.305-2.244,1.305
		c-1.613,0-2.412-0.96-2.412-2.537c0-0.561,0.292-1.301,0.545-1.791l3.893-1.686v-0.887c0-0.689-0.434-0.889-1.053-0.889
		c-0.796,0-1.735,0.544-2.298,1.09l-0.654-1.142c0.725-0.87,1.978-1.577,3.119-1.577c1.629,0,2.806,0.794,2.806,2.536v5.161
		c0,0.217,0.071,0.472,0.345,0.472c0.107,0,0.218-0.056,0.324-0.109l0.49,0.957C104.437,109.726,103.98,109.872,103.53,109.872"/>
	<path fill="#FFFFFF" d="M114.358,109.616h-1.813l-0.905-3.259c-0.238-0.888-0.471-2.447-0.471-2.447s-0.236,1.579-0.49,2.447
		l-0.923,3.259h-1.884l-2.718-8.874h2.013l1.628,6.031l1.431-6.031h1.812l1.558,6.031c0.616-1.936,1.177-4.294,1.392-6.031h1.994
		C116.565,103.856,115.48,107.119,114.358,109.616"/>
	<path fill="#FFFFFF" d="M122.339,105.489l-2.536,1.048c-0.072,0.254-0.145,0.546-0.145,0.798c0,0.506,0.292,0.998,0.834,0.998
		c1.157,0,1.847-1.433,1.847-2.521V105.489z M124.096,109.872c-0.795,0-1.431-0.49-1.574-1.287
		c-0.544,0.834-1.214,1.305-2.246,1.305c-1.614,0-2.411-0.96-2.411-2.537c0-0.561,0.292-1.301,0.543-1.791l3.895-1.686v-0.887
		c0-0.689-0.436-0.889-1.05-0.889c-0.795,0-1.739,0.544-2.299,1.09l-0.653-1.142c0.726-0.87,1.975-1.577,3.114-1.577
		c1.629,0,2.807,0.794,2.807,2.536v5.161c0,0.217,0.075,0.472,0.344,0.472c0.111,0,0.218-0.056,0.327-0.109l0.49,0.957
		C125.002,109.726,124.55,109.872,124.096,109.872"/>
	<path fill="#FFFFFF" d="M67.897,128.635v-6.285l0.146-1.321l-2.643,7.606H63.77l-2.645-7.606l0.146,1.321v6.285h-1.976v-11.408
		h2.318l2.716,7.733c0.183,0.543,0.254,1.014,0.254,1.014s0.074-0.486,0.253-1.014l2.715-7.733h2.322v11.408H67.897z"/>
	<path fill="#FFFFFF" d="M72.514,119.761h1.864v8.875h-1.864V119.761z M73.417,118.729c-0.65,0-1.211-0.489-1.211-1.157
		c0-0.688,0.617-1.253,1.284-1.253c0.652,0,1.214,0.494,1.214,1.162C74.705,118.167,74.088,118.729,73.417,118.729"/>
	<path fill="#FFFFFF" d="M81.623,121.446c0,0-0.941-0.289-1.595-0.289c-1.448,0-1.664,1.792-1.664,3.239
		c0,0.853,0.18,2.772,1.448,2.863c1.23,0.09,1.811-1.866,1.811-2.792V121.446z M83.542,128.909c0,0-0.725,0.035-1.05-0.182
		c-0.4-0.271-0.583-0.707-0.689-1.176c-0.289,0.558-0.979,1.355-2.12,1.355c-2.009,0-3.277-1.976-3.277-4.312
		c0-2.516,0.761-5.104,3.55-5.104c0.741,0,1.667,0.289,1.667,0.289v-3.731h1.9v10.723c0,0.545,0.038,0.781,0.599,0.781
		L83.542,128.909z"/>
	<path fill="#FFFFFF" d="M94.188,128.635h-1.812l-0.905-3.259c-0.235-0.888-0.471-2.445-0.471-2.445s-0.234,1.576-0.487,2.445
		l-0.924,3.259h-1.884l-2.716-8.875h2.009l1.631,6.034l1.429-6.034h1.812l1.56,6.034c0.614-1.939,1.177-4.297,1.395-6.034h1.988
		C96.396,122.876,95.311,126.137,94.188,128.635"/>
	<path fill="#FFFFFF" d="M98.224,119.761h1.864v8.875h-1.864V119.761z M99.126,118.729c-0.652,0-1.212-0.489-1.212-1.157
		c0-0.688,0.615-1.253,1.287-1.253c0.651,0,1.214,0.494,1.214,1.162C100.415,118.167,99.796,118.729,99.126,118.729"/>
	<path fill="#FFFFFF" d="M106.101,128.635h-1.397l-3.224-8.875h2.047l1.938,6.141c0.799-2.026,1.413-4.003,1.865-6.141h2.029
		C108.526,122.804,107.439,125.776,106.101,128.635"/>
	<path fill="#FFFFFF" d="M114.031,120.902c-0.926,0-1.36,0.798-1.562,1.611h3.027C115.424,121.683,114.955,120.902,114.031,120.902
		 M112.22,124.091c-0.021,0.108-0.021,0.219-0.021,0.324c0,1.014,0.436,2.879,1.74,2.879c0.761,0,1.755-0.506,2.372-0.978
		l0.636,1.233c-0.781,0.652-2.102,1.356-3.117,1.356c-2.68,0-3.548-2.681-3.548-4.928s1.43-4.489,3.874-4.489
		c1.758,0,3.173,1.719,3.224,3.404c0,0.396,0.019,0.796,0.019,1.195h-5.179V124.091z"/>
	<path fill="#FFFFFF" d="M121.762,128.909c-0.887,0-1.993-0.546-2.683-1.088l0.708-1.267c0.507,0.358,1.393,0.83,2.029,0.83
		c0.688,0,1.359-0.271,1.359-1.067c0-0.523-0.492-0.867-0.906-1.088c-0.816-0.432-1.648-0.848-2.464-1.284
		c-0.653-0.345-0.979-1.124-0.979-1.849c0-1.753,1.542-2.605,3.152-2.605c0.942,0,2.191,0.396,2.752,1.23l-0.994,0.979
		c-0.437-0.453-1.177-0.742-1.795-0.742c-0.54,0-1.229,0.381-1.229,0.994c0,0.455,0.506,0.744,0.849,0.907l2.211,1.121
		c0.815,0.416,1.268,1.304,1.268,2.192C125.039,128.021,123.425,128.909,121.762,128.909"/>
	<path fill="#FFFFFF" d="M145.214,120.952c-3.569-12.149,3.385-24.896,15.537-28.468c5.652-1.663,11.433-1.042,16.36,1.317
		c-5.932-3.649-13.327-4.864-20.534-2.748c-13.502,3.971-21.227,18.131-17.26,31.634c3.971,13.5,18.129,21.226,31.631,17.257
		c7.211-2.119,12.77-7.146,15.782-13.424c-2.865,4.652-7.393,8.302-13.047,9.965C161.534,140.056,148.791,133.101,145.214,120.952"
		/>
	<path fill="#FFFFFF" d="M161.765,94.904c-5.794,1.703-10.259,5.743-12.681,10.787c2.303-3.736,5.939-6.669,10.483-8.004
		c9.764-2.87,20.004,2.716,22.873,12.478c2.871,9.764-2.716,20.005-12.479,22.875c-4.545,1.336-9.19,0.838-13.151-1.059
		c4.771,2.932,10.711,3.912,16.505,2.207c10.848-3.188,17.055-14.566,13.865-25.416C183.992,97.923,172.611,91.718,161.765,94.904"
		/>
</g>
</svg>
