<?xml version="1.0" encoding="utf-8"?>
<!-- Generator: Adobe Illustrator 15.0.0, SVG Export Plug-In . SVG Version: 6.00 Build 0)  -->
<!DOCTYPE svg PUBLIC "-//W3C//DTD SVG 1.1//EN" "http://www.w3.org/Graphics/SVG/1.1/DTD/svg11.dtd">
<svg version="1.1" id="Layer_1" xmlns="http://www.w3.org/2000/svg" xmlns:xlink="http://www.w3.org/1999/xlink" x="0px" y="0px"
	 width="396px" height="256px" viewBox="-19 -12.5 396 256" enable-background="new -19 -12.5 396 256" xml:space="preserve">
<g>
	<path fill="#FFFFFF" d="M236.643,119.444c10.686-2.972,18.972-12.931,18.972-24.56c0-13.99-11.338-25.329-25.327-25.329h-50.414
		c-22.357,0-40.976,15.971-45.09,37.123h-24.884V86.015h32.027v-6.83h-38.559v34.206h37.277c1.099-20.72,18.24-37.11,39.239-37.11
		h50.403c10.229,0,18.536,8.365,18.536,18.604c0,10.234-8.308,18.541-18.536,18.541h-5.077l31.712,46.727h7.578L236.643,119.444z"/>
	<polygon fill="#FFFFFF" points="141.927,69.624 109.899,69.624 93.5,69.624 93.5,86.015 93.5,106.679 93.5,123.074 93.5,160.152 
		100.389,160.152 100.389,76.207 141.927,76.207 	"/>
	<path fill="#FFFFFF" d="M230.287,110.429c8.584-0.004,15.535-6.951,15.556-15.54c-0.021-8.594-6.972-15.623-15.569-15.627h-50.393
		c-20.071,0.035-36.287,16.186-36.319,36.242c0.033,20.052,16.249,36.275,36.319,36.316c12.063,0,22.734-5.898,29.337-14.948h-8.69
		c-5.346,5.16-12.615,8.351-20.654,8.351c-16.419,0-29.724-13.303-29.724-29.719c0-16.424,13.306-29.722,29.724-29.722l50.414-0.126
		c5.095,0,9.228,4.147,9.228,9.234c0,5.095-4.133,9.234-9.228,9.234l-22.605-0.021l37.817,56.048h7.821l-33.736-49.722H230.287z"/>
	<path fill="#FFFFFF" d="M179.881,154.793c-21.42,0-38.808-17.13-39.284-38.417H103.37v43.776h6.522v-37.078h24.669
		c3.618,21.775,22.522,38.369,45.312,38.369c17.662,0,32.989-9.971,40.688-24.571h-7.734
		C205.828,147.643,193.69,154.793,179.881,154.793z"/>
</g>
</svg>
