<?xml version="1.0" encoding="utf-8"?>
<!-- Generator: Adobe Illustrator 16.0.0, SVG Export Plug-In . SVG Version: 6.00 Build 0)  -->
<!DOCTYPE svg PUBLIC "-//W3C//DTD SVG 1.1//EN" "http://www.w3.org/Graphics/SVG/1.1/DTD/svg11.dtd">
<svg version="1.1" id="Layer_1" xmlns="http://www.w3.org/2000/svg" xmlns:xlink="http://www.w3.org/1999/xlink" x="0px" y="0px"
	 width="358px" height="231px" viewBox="0 0 358 231" enable-background="new 0 0 358 231" xml:space="preserve">
<g>
	<path fill="#FFFFFF" d="M106.283,106.474v-21.73h33.678v-7.181H99.415v35.968h39.198c1.156-21.788,19.18-39.022,41.262-39.022
		h52.999c10.757,0,19.492,8.796,19.492,19.562c0,10.762-8.735,19.497-19.492,19.497h-5.338l33.347,49.134h7.969l-29.294-42.806
		c11.237-3.124,19.95-13.597,19.95-25.825c0-14.71-11.923-26.633-26.634-26.633h-53.011c-23.51,0-43.088,16.794-47.414,39.036
		H106.283z"/>
	<polygon fill="#FFFFFF" points="96.282,74.431 139.961,74.431 139.961,67.509 106.283,67.509 89.038,67.509 89.038,84.744 
		89.038,106.474 89.038,123.714 89.038,162.702 96.282,162.702 	"/>
	<path fill="#FFFFFF" d="M221.621,110.417h11.253c9.028-0.005,16.336-7.309,16.359-16.341c-0.023-9.037-7.331-16.427-16.371-16.432
		H179.87c-21.104,0.037-38.156,17.02-38.19,38.109c0.035,21.085,17.086,38.146,38.19,38.188c12.687,0,23.908-6.203,30.85-15.719
		h-9.139c-5.62,5.426-13.265,8.782-21.718,8.782c-17.266,0-31.256-13.989-31.256-31.251c0-17.27,13.991-31.254,31.256-31.254
		l53.011-0.133c5.358,0,9.704,4.362,9.704,9.71c0,5.358-4.346,9.71-9.704,9.71l-23.769-0.021l39.765,58.936h8.226L221.621,110.417z"
		/>
	<path fill="#FFFFFF" d="M179.87,157.066c-22.523,0-40.807-18.011-41.307-40.396H99.417v46.032h6.858v-38.988h25.941
		c3.804,22.897,23.683,40.347,47.647,40.347c18.573,0,34.69-10.486,42.785-25.838h-8.133
		C207.155,149.548,194.392,157.066,179.87,157.066"/>
</g>
</svg>
