<?xml version="1.0" encoding="utf-8"?>
<!-- Generator: Adobe Illustrator 15.0.0, SVG Export Plug-In . SVG Version: 6.00 Build 0)  -->
<!DOCTYPE svg PUBLIC "-//W3C//DTD SVG 1.1//EN" "http://www.w3.org/Graphics/SVG/1.1/DTD/svg11.dtd">
<svg version="1.1" id="Layer_1" xmlns="http://www.w3.org/2000/svg" xmlns:xlink="http://www.w3.org/1999/xlink" x="0px" y="0px"
	 width="396px" height="256px" viewBox="-19 -12.5 396 256" enable-background="new -19 -12.5 396 256" xml:space="preserve">
<g>
	<g>
		<path fill="#FFFFFF" d="M77.368,106.667c-2.856,0-2.976,0.119-2.976,1.903v8.389c0,6.247,0.298,7.079,3.63,7.438l1.725,0.178
			c0.356,0.238,0.238,1.31-0.119,1.488c-3.213-0.119-5.235-0.18-7.556-0.18c-2.558,0-4.581,0.119-6.901,0.18
			c-0.356-0.18-0.476-1.131-0.118-1.488l1.011-0.178c3.332-0.596,3.451-1.189,3.451-7.438V95.542c0-6.247-0.417-7.258-3.51-7.496
			l-1.548-0.119c-0.356-0.239-0.237-1.31,0.119-1.488c2.915,0.06,4.938,0.178,7.496,0.178c2.32,0,4.343-0.06,6.901-0.178
			c0.357,0.178,0.477,1.249,0.119,1.488l-1.131,0.119c-3.45,0.356-3.569,1.249-3.569,7.496v6.842c0,1.844,0.119,1.903,2.976,1.903
			h17.014c2.855,0,2.975-0.061,2.975-1.903v-6.842c0-6.247-0.119-7.139-3.629-7.496l-1.13-0.119
			c-0.356-0.239-0.238-1.31,0.118-1.488c2.737,0.119,4.76,0.178,7.199,0.178c2.32,0,4.343-0.06,7.02-0.178
			c0.357,0.178,0.477,1.249,0.119,1.488l-1.248,0.119c-3.451,0.356-3.57,1.249-3.57,7.496v21.417c0,6.247,0.119,7.02,3.57,7.438
			l1.428,0.178c0.356,0.238,0.236,1.31-0.119,1.488c-2.856-0.119-4.879-0.18-7.199-0.18c-2.439,0-4.581,0.061-7.199,0.18
			c-0.356-0.18-0.475-1.131-0.118-1.488l1.13-0.178c3.629-0.596,3.629-1.189,3.629-7.438v-8.389c0-1.784-0.119-1.903-2.975-1.903
			H77.368z"/>
		<path fill="#FFFFFF" d="M122.436,95.542c0-6.187-0.119-7.08-3.629-7.496l-0.952-0.119c-0.356-0.239-0.237-1.31,0.12-1.488
			c2.557,0.119,4.58,0.178,7.019,0.178h11.185c3.809,0,7.318,0,8.033-0.178c0.355,1.012,0.713,5.295,0.951,7.913
			c-0.238,0.357-1.19,0.477-1.487,0.119c-0.893-2.796-1.429-4.879-4.522-5.652c-1.248-0.297-3.152-0.357-5.77-0.357H129.1
			c-1.784,0-1.784,0.119-1.784,2.38v11.898c0,1.666,0.179,1.666,1.963,1.666h3.45c2.499,0,4.343-0.119,5.058-0.357
			c0.714-0.238,1.131-0.594,1.428-2.082l0.476-2.439c0.298-0.355,1.31-0.355,1.547,0.06c0,1.429-0.237,3.749-0.237,6.009
			c0,2.143,0.237,4.403,0.237,5.711c-0.237,0.417-1.249,0.417-1.547,0.062l-0.536-2.32c-0.236-1.071-0.653-1.963-1.844-2.261
			c-0.832-0.238-2.261-0.298-4.581-0.298h-3.45c-1.784,0-1.963,0.06-1.963,1.607v8.388c0,3.153,0.179,5.176,1.13,6.188
			c0.714,0.715,1.963,1.368,7.198,1.368c4.581,0,6.307-0.237,7.615-0.892c1.07-0.597,2.678-2.679,4.225-5.771
			c0.416-0.297,1.249-0.119,1.486,0.418c-0.416,2.081-1.903,6.662-2.677,8.27c-5.354-0.119-10.649-0.18-15.944-0.18h-5.354
			c-2.558,0-4.58,0.061-8.091,0.18c-0.356-0.18-0.476-1.131-0.119-1.488l1.964-0.178c3.392-0.299,3.688-1.189,3.688-7.438V95.542
			H122.436z"/>
		<path fill="#FFFFFF" d="M162.153,95.542c0-6.247-0.119-7.198-3.867-7.496l-1.488-0.119c-0.356-0.239-0.237-1.31,0.119-1.488
			c3.332,0.119,5.355,0.178,7.734,0.178c2.32,0,4.344-0.06,7.318-0.178c0.356,0.178,0.475,1.249,0.118,1.488l-1.428,0.119
			c-3.51,0.297-3.629,1.249-3.629,7.496v20.704c0,3.749,0.179,5.294,1.249,6.425c0.654,0.655,1.785,1.368,6.484,1.368
			c5.057,0,6.306-0.237,7.258-0.772c1.189-0.715,2.736-2.854,3.927-5.891c0.356-0.297,1.487-0.06,1.487,0.356
			c0,0.654-1.667,6.724-2.499,8.33c-3.033-0.119-8.686-0.18-14.813-0.18h-5.473c-2.498,0-4.402,0.061-7.734,0.18
			c-0.356-0.18-0.476-1.131-0.119-1.488l1.786-0.178c3.45-0.357,3.569-1.189,3.569-7.438L162.153,95.542L162.153,95.542z"/>
		<path fill="#FFFFFF" d="M200.023,95.661c0-6.306-0.119-7.318-3.629-7.615l-1.487-0.119c-0.356-0.239-0.237-1.31,0.118-1.488
			c2.975,0.119,4.998,0.178,7.497,0.178c2.38,0,4.401-0.06,7.376-0.178c0.357,0.178,0.477,1.249,0.12,1.488l-1.487,0.119
			c-3.51,0.297-3.629,1.309-3.629,7.615v21.179c0,6.307,0.119,7.139,3.629,7.557l1.487,0.178c0.356,0.238,0.237,1.31-0.12,1.488
			c-2.975-0.119-4.996-0.18-7.376-0.18c-2.499,0-4.522,0.061-7.497,0.18c-0.355-0.18-0.475-1.131-0.118-1.488l1.487-0.178
			c3.51-0.418,3.629-1.25,3.629-7.557V95.661z"/>
		<path fill="#FFFFFF" d="M281.084,126.834c-4.996,0-8.15-1.546-9.279-2.201c-0.715-1.309-1.488-5.531-1.607-8.328
			c0.299-0.416,1.189-0.535,1.428-0.179c0.894,3.034,3.332,8.864,10.232,8.864c4.998,0,7.438-3.271,7.438-6.842
			c0-2.618-0.534-5.534-4.879-8.329l-5.65-3.689c-2.975-1.963-6.426-5.354-6.426-10.232c0-5.651,4.401-10.232,12.137-10.232
			c1.845,0,3.984,0.357,5.533,0.773c0.771,0.238,1.605,0.357,2.08,0.357c0.537,1.428,1.072,4.76,1.072,7.258
			c-0.238,0.357-1.189,0.535-1.488,0.178c-0.772-2.856-2.379-6.723-8.09-6.723c-5.83,0-7.08,3.867-7.08,6.604
			c0,3.451,2.855,5.95,5.058,7.318l4.76,2.975c3.748,2.32,7.437,5.771,7.437,11.422
			C293.756,122.373,288.818,126.834,281.084,126.834z"/>
		<path fill="#FFFFFF" d="M257.561,91.851c-1.939-2.251-4.389-4.13-7.152-5.424c-5.509-2.641-12.328-2.765-18.051-0.246
			c-5.752,2.45-10.314,7.515-12.156,13.333c-0.945,2.901-1.251,5.967-0.938,8.92c0.312,2.948,1.256,5.791,2.642,8.271
			c2.782,5.017,7.468,8.559,12.503,10.133c1.361,0.432,2.754,0.711,4.15,0.867c-6.137-1.357-11.451-5.754-13.662-12.125
			c-3.391-9.766,1.779-20.434,11.547-23.823c9.768-3.39,20.434,1.78,23.822,11.547c1.695,4.882,1.25,9.989-0.838,14.302
			c0.423-0.678,0.822-1.369,1.172-2.097c1.146-2.385,1.892-5.018,2.113-7.758c0.108-1.367,0.106-2.764-0.051-4.158
			c-0.078-0.699-0.189-1.388-0.337-2.09l-0.26-1.075l-0.259-0.933C260.898,96.679,259.514,94.126,257.561,91.851z"/>
	</g>
	<g>
		<path fill="#FFFFFF" d="M199.391,146.514h-2.43v-6.996h2.43c2.199,0,3.719,1.51,3.719,3.488S201.59,146.514,199.391,146.514z
			 M199.391,140.247h-1.639v5.536h1.639c1.77,0,2.898-1.198,2.898-2.758C202.289,141.467,201.16,140.247,199.391,140.247z"/>
		<path fill="#FFFFFF" d="M210.439,140.236h-4.268v2.39h3.817v0.72h-3.817v2.448h4.316v0.72h-5.107v-6.996h5.059V140.236z"/>
		<path fill="#FFFFFF" d="M217.949,139.518h0.85l-3.008,7.047h-0.699l-3.01-7.047h0.881l2.488,6.027L217.949,139.518z"/>
		<path fill="#FFFFFF" d="M225.84,140.236h-4.27v2.39h3.817v0.72h-3.817v2.448h4.317v0.72h-5.107v-6.996h5.06V140.236z"/>
		<path fill="#FFFFFF" d="M228.082,139.518h0.789v6.268h3.938v0.729h-4.728V139.518L228.082,139.518z"/>
		<path fill="#FFFFFF" d="M237.721,146.634c-2.129,0-3.559-1.669-3.559-3.608c0-1.938,1.448-3.627,3.577-3.627
			c2.13,0,3.56,1.668,3.56,3.607C241.299,144.943,239.85,146.634,237.721,146.634z M237.721,140.127c-1.6,0-2.738,1.279-2.738,2.879
			s1.159,2.898,2.758,2.898c1.6,0,2.738-1.279,2.738-2.879C240.479,141.425,239.32,140.127,237.721,140.127z"/>
		<path fill="#FFFFFF" d="M246.061,144.045h-1.699v2.469h-0.789v-6.996h2.619c1.578,0,2.618,0.84,2.618,2.229
			C248.81,143.266,247.551,144.045,246.061,144.045z M246.131,140.247h-1.771v3.077h1.729c1.158,0,1.918-0.619,1.918-1.549
			C248.01,140.767,247.26,140.247,246.131,140.247z"/>
		<path fill="#FFFFFF" d="M254.211,144.595h-0.041l-2.547-3.737v5.656h-0.771v-6.996h0.8l2.549,3.818l2.55-3.818h0.799v6.996h-0.789
			v-5.667L254.211,144.595z"/>
		<path fill="#FFFFFF" d="M265.189,140.236h-4.268v2.39h3.817v0.72h-3.817v2.448h4.317v0.72h-5.106v-6.996h5.057V140.236z"/>
		<path fill="#FFFFFF" d="M272.58,139.518h0.771v6.996h-0.63l-4.518-5.736v5.736h-0.771v-6.996h0.739l4.408,5.607V139.518
			L272.58,139.518z"/>
		<path fill="#FFFFFF" d="M278.582,146.514h-0.801v-6.267h-2.348v-0.729h5.496v0.729h-2.348V146.514L278.582,146.514z"/>
		<path fill="#FFFFFF" d="M285.371,142.636c1.561,0.34,2.279,0.909,2.279,1.989c0,1.209-1,1.988-2.389,1.988
			c-1.109,0-2.021-0.369-2.858-1.119l0.489-0.58c0.73,0.66,1.43,0.99,2.398,0.99c0.938,0,1.56-0.49,1.56-1.199
			c0-0.66-0.351-1.029-1.819-1.34c-1.607-0.351-2.348-0.869-2.348-2.029c0-1.119,0.969-1.918,2.299-1.918
			c1.02,0,1.748,0.289,2.458,0.859l-0.46,0.608c-0.648-0.528-1.299-0.76-2.02-0.76c-0.908,0-1.488,0.5-1.488,1.14
			C283.473,141.936,283.832,142.307,285.371,142.636z"/>
	</g>
</g>
</svg>
