<?xml version="1.0" encoding="utf-8"?>
<!-- Generator: Adobe Illustrator 16.0.0, SVG Export Plug-In . SVG Version: 6.00 Build 0)  -->
<!DOCTYPE svg PUBLIC "-//W3C//DTD SVG 1.1//EN" "http://www.w3.org/Graphics/SVG/1.1/DTD/svg11.dtd">
<svg version="1.1" id="Layer_1" xmlns="http://www.w3.org/2000/svg" xmlns:xlink="http://www.w3.org/1999/xlink" x="0px" y="0px"
	 width="358px" height="231px" viewBox="0 0 358 231" enable-background="new 0 0 358 231" xml:space="preserve">
<g>
	<path fill="#FFFFFF" d="M125.015,28.674v116.861H230.72V28.674H125.015z M212.898,53.594c0.684-1.771,1.688-3.797,2.561-4.785
		c0.046-0.437,0.277-0.712,0.843-0.669c0.938,0.073,1.373,0.112,1.58,0.385c0.011-0.012,0.021-0.024,0.032-0.036
		c0.227,0.191,0.26,0.537,0.26,1.221c0,1.388-0.127,4.292-0.127,4.292s-0.758,0.756-1.264,0.884
		c-0.503,0.126-2.271,1.893-4.543,1.893c-0.037,0-0.058-0.032-0.08-0.06c-0.008,0-0.016,0.002-0.023,0.002
		C211.49,56.722,212.242,54.678,212.898,53.594z M202.293,56.596c0.505-2.398,0-2.524,1.136-3.66s0.757-1.641,1.894-1.641
		c1.136,0,1.262-1.01,2.271,0.126c0.211,0.236,0.436,0.49,0.658,0.746c-0.005-0.026-0.01-0.053-0.016-0.079
		c0.89,1.013,1.771,2.105,1.352,2.419c-0.504,0.379-1.515,2.02-2.145,2.4c-0.632,0.378-0.884,1.514-2.4,1.765
		c-1.514,0.255-2.902,0.759-3.408,0.885c0,0,0.015-0.031,0.04-0.098c-0.048,0.014-0.101,0.029-0.139,0.039
		C201.536,59.499,201.788,58.994,202.293,56.596z M203.177,61.265c0,0,0.021,0.022,0.015,0.084c0.029-0.008,0.055-0.017,0.085-0.025
		c0,0,0.379,0.38-2.526,2.651c0,0-0.011-0.047-0.02-0.122c-0.027,0.021-0.051,0.04-0.078,0.062
		C200.652,63.916,200.148,62.022,203.177,61.265z M200.273,67.197c1.641-0.884,4.418-3.155,6.059-5.175
		c1.641-2.019,2.019-2.523,3.785-2.775c1.768-0.253,3.534-1.01,4.67-1.389s5.68-3.533,7.319-4.038
		c1.641-0.505,2.903-1.136,2.903-1.136s-0.011,0.047-0.026,0.121c0.078-0.037,0.133-0.064,0.133-0.064s-0.506,2.272-0.506,2.777
		c0,0.505-0.756,2.399-2.019,3.662c-1.262,1.262-4.418,3.03-5.049,3.407c-0.632,0.378-4.167,3.536-2.02,6.565
		c2.145,3.03,3.029,4.923,2.775,7.575c-0.252,2.65,0.254,4.798-1.388,5.302c-1.641,0.506-3.661,1.263-5.176,1.137
		c-1.516-0.126-3.788,0.504-6.061,1.387c-2.272,0.885-3.788,1.769-4.544,1.518c0,0,0.002-0.022,0.008-0.056
		c-0.035-0.007-0.076-0.004-0.107-0.015c0,0,0.505-3.533,0.126-5.175c-0.28-1.215-1.112-1.943-1.526-2.24
		c-0.082-0.054-0.143-0.09-0.143-0.09l-0.002-0.008c-0.057-0.036-0.096-0.059-0.096-0.059s-1.515-4.543-1.136-6.562
		C198.634,69.847,198.634,68.08,200.273,67.197z M219.431,86.443c0.272,0.122,0.226,0.523-0.499,1.393
		c-1.264,1.517-1.643,1.262-2.778,1.894c-1.136,0.633-2.398,0.885-3.03,0.885c-0.631,0-1.135,0.503-2.02,0.883
		c-0.884,0.378-2.777-0.125-4.041-0.379c-0.711-0.142-1.742-0.565-2.214-0.93c-0.452-0.311-0.554-0.595,0.222-0.654
		c0.889-0.069,2.145-0.884,3.912-0.758c1.766,0.126,2.65-0.126,4.543-0.757s3.785-1.136,4.795-1.515
		C218.837,86.312,219.283,86.254,219.431,86.443z M198.119,49.253l0.687,0.406c-0.239,2.353-0.324,7.439-1.917,9.882
		c-0.443,0.681-2.869,1.378-1.313,3.552c0.63,0.883,1.641,1.642,0.63,2.777c-1.01,1.136-1.01,2.906-3.281,2.526
		c0,0-0.027-0.03-0.055-0.061c-0.016-0.002-0.025,0-0.041-0.002c0,0-1.641-1.767-2.398-4.165c-0.078-0.249-0.283-2.194,0.581-3.368
		s4.929-10.31,5.271-10.82S198.119,49.253,198.119,49.253z M182.48,49.15c1.135-0.379,0.63-1.262,0.63-2.271
		s1.263,0.252,2.146,0.884c0.884,0.631,0.506,0.883,1.515,0.631c1.01-0.253,1.388-0.884,2.146-1.01s2.02,0,3.028-0.253
		c1.01-0.252,1.01-1.009,2.02-1.388c0.237-0.089,0.38-0.007,0.462,0.175c0.015-0.014,0.029-0.024,0.045-0.038
		c0.082,0.109,0.123,0.287,0.132,0.505c-0.034,0.094-0.069,0.194-0.104,0.292c-0.053,0.752-0.355,1.733-0.534,2.221
		c-0.714,1.946-4.161,8.922-5.644,11.152c-0.195,0.293-0.352,0.637-0.697,0.84c-0.047,0.03-0.096,0.061-0.129,0.055
		c-0.096-0.016-0.219-0.082-0.362-0.185c-0.947-0.605-2.997-3.278-4.021-4.417c-1.136-1.262-1.64-3.533-1.893-5.301
		C180.965,49.276,181.344,49.529,182.48,49.15z M178.693,48.898c0.092-0.111,0.158-0.104,0.207-0.028
		c0.444-0.084,0.01,3.618,0.01,3.618s-0.023-0.081-0.072-0.214c-0.011,0.096-0.018,0.157-0.018,0.157s-0.379-1.262-1.137-2.02
		C176.927,49.655,178.062,49.655,178.693,48.898z M128.338,51.298c0.078-0.021,0.16-0.041,0.254-0.054
		c0.884-0.127,0.884,0.378,1.642,0.504c0.757,0.127,1.767,0,2.523-0.631s0.884-0.504,1.767-0.126
		c0.884,0.379,2.524,0.253,2.902,0.505c0.379,0.252,1.137,0.884,0.632,1.515s-1.136,1.388-0.632,2.271
		c0.506,0.883,0.632-0.187,1.01,0.696c0.379,0.884,0.506,0.365,0.379,1.249c-0.127,0.883,0.127,1.641,0.631,1.641
		c0.505,0,1.641-0.379,1.641-0.379s1.01,0.631,1.768,0.758c0.756,0.126,1.009,0.126,1.641,1.136c0.63,1.01,1.514,1.01,2.397,0.631
		c0.883-0.379,1.767-1.515,1.388-3.155s-0.631-2.146-0.631-2.65s0.126-0.252,1.515,0c1.389,0.253,1.894,0.505,2.397-0.757
		c0.505-1.263,0.631-2.524-1.009-3.66c-1.642-1.136-2.108-0.888-2.739-1.267s-1.389-1.262-0.758-1.894
		c0.158-0.158,0.568-0.497,1.105-0.899c0.388-0.291,1.533,0.414,2.006,0.102c1.486-0.983,1.917-2.583,2.82-2.231
		c1.211,0.472,2.264,1.898,1.097,3.481c-0.424,0.575,0.128,1.192,0.381,1.571c0.252,0.379-0.505,2.397,0.757,2.902
		s1.641,1.136,2.776,1.136s1.515-0.505,2.019-1.009c0.506-0.505,0.631-1.136,1.768-0.758c1.136,0.379,3.029,1.515,3.659,1.262
		c0.632-0.252,0.884-1.136,1.136-1.893c0.253-0.757,0.884,0.126,1.768,0.126c0.883,0,1.893-1.01,2.271-1.136
		s1.136,0.379,2.145,1.389c1.01,1.01,1.01,1.01,1.01,1.01s0-0.379,2.398,1.641c2.397,2.019,4.417,3.154,5.301,4.795
		c0.883,1.641,4.416,5.427,5.047,6.941c0.632,1.515,2.398,4.669,3.66,6.688s2.398,4.669,3.786,6.058
		c1.388,1.388,1.767,2.65,1.641,3.281s-1.767,4.796-3.912,5.932s-2.524,1.262-3.66,1.009c-1.086-0.241-1.941-0.594-2.786,0.59
		c-0.174-0.667-0.428-1.467-0.747-1.978l-0.2-0.157c0,0-0.683-1.093-1.229-1.639c-0.546-0.546-0.41-2.049-0.273-3.278
		c0.049-0.44,0.133-1.154,0.138-2.049c0.007-1.156-0.137-2.8-1.127-3.602c-0.405-0.329-0.888-0.734-1.605-1.042
		c-1.756-0.75-3.252-0.012-4.14,0.704c-0.321,0.258-1.113,1.061-1.521,1.61c-0.43,0.577-0.859,1.355-0.826,2.125
		c0.068,1.502,0.547,1.843,1.023,2.253c0.479,0.41,0.363,1.596,0.637,2.142c0.273,0.546,0.866,1,1.071,1.479
		c0.204,0.478,0.291,0.99,0.769,0.99c0.246,0,0.948-0.159,1.349-0.376c0.253-0.137,0.518-0.179,0.632-0.136
		c0.115,0.042,0.164,0.357,0.174,0.4c0.015,0.07,0,0.143-0.026,0.215c-0.164,0.211-1.464,0.982-1.7,1.455
		c-0.252,0.505-1.01,1.599-1.936,2.44c-0.926,0.841-0.589,1.851-1.178,1.851s-2.188,0.505-2.188,0.841
		c0,0.337-1.683,0.674-2.44,1.431c-0.757,0.757-3.28,1.767-4.038,2.608c-0.757,0.841-1.683,1.514-2.607,1.43
		c-0.926-0.084-1.6,0.169-1.6,0.421c0,0.253-1.766,0-1.766,0c-2.524,0.126-4.67,0.631-6.941,1.01
		c-1.287,0.214-3.898,0.624-6.184,1.767c-0.378,0.188-0.645,1.877-0.732,2.968c-1.555-0.783-3.913-1.63-4.82-1.832
		c-1.137-0.252-1.263-1.388-4.417-1.641c-3.155-0.252-5.806-1.01-7.698-1.893c-0.256-0.12-0.509-0.216-0.76-0.3V51.298z
		 M227.397,142.213h-99.06v-29.815c2.309,0.106,5.819,0.888,7.7,1.241l0.03,0.001c2.036,0.375,6.776,0.626,8.276,1.001
		c0.319,0.081,0.849,0.166,1.505,0.254c-0.094,2.177-0.223,3.987-0.369,4.282c0,0-0.303,1.535-0.713,2.423
		c-0.407,0.889-1.233,1.76-1.69,2.168c-0.457,0.412-1.63,1.5-1.983,1.825c-0.353,0.326-1.27,0.926-1.56,0.991
		c-0.29,0.067-0.497,0.236-0.659,0.225c-0.162-0.011-0.719,0.055-0.768,0.225c-0.068,0.23-0.183,0.669,0.453,0.879
		s0.931-0.05,1.041-0.051c0.109-0.001,0.246-0.055,0.748,0.076c1.059,0.275,2.747-0.647,3.219-0.891
		c0.472-0.241,1.258-0.529,1.957-0.58c0.699-0.049,0.86,0.083,1.553,0.021c0.919-0.082,1.084-0.725,1.197-1.191
		s-0.004-0.838-0.189-1.569c-0.121-0.477-0.35-1.157-0.153-1.851c0.064-0.229,0.134-0.984,0.626-2.01
		c0.863-1.798,1.189-4.593,1.189-4.593c1.477,0.163,2.512,0.343,3.566,0.492c-0.205,0.51-0.616,1.727-0.273,2.527
		c0,0,0.504,1.891,0.504,3.15c0,1.263,0.378,6.554,0.253,8.191c-0.126,1.637-0.757,4.79-1.64,5.921
		c-0.881,1.139-1.764,2.523-2.394,2.899c-0.63,0.38-1.638,1.007-2.144,1.007c-0.315,0-0.948,0.07-0.887,0.616
		c0.039,0.351,0.635,0.574,0.895,0.656c0.066,0.021,0.143,0.041,0.229,0.062c0.428,0.102,1.046,0.19,1.316,0.208
		c0.985,0.063,1.716-0.213,3.11-0.911c2.016-1.007,2.143-0.756,2.646-0.756s1.639-0.251,1.26-2.016
		c-0.379-1.766-0.253-3.78,0.379-5.165c0.629-1.389,1.638-5.169,1.512-8.065c-0.127-2.899-0.631-5.798-0.631-5.798
		s3.101-0.812,5.726-1.637h0.069c1.948,0,4.875,0.038,7.521-0.163c1.815-0.244,3.713-1.395,3.713-1.395s1.016-0.836,1.27-1.266
		c0.716-1.215,2.312-3.539,3.07-4.233c1.514-1.389,7.319-7.193,9.212-8.582c1.894-1.388,2.903-2.019,5.427-3.281
		c2.524-1.262,3.155-2.146,4.039-3.786c0.883-1.64,2.145-3.028,3.533-2.649c1.389,0.378,4.417,4.164,8.203,3.407
		c3.785-0.758,5.679-2.02,7.698-2.65c2.019-0.631,2.776-1.389,4.038-2.398c1.262-1.009,1.389-0.504,2.02-1.136
		c0.631-0.631,1.514-1.262,1.01-2.019c-0.505-0.758-1.515-1.767-1.515-1.767s0.757-0.379,1.388-0.379s1.137-0.253,1.137-1.262
		c0-1.01-0.758-2.524,0.757-3.155c0.325-0.136,0.906-0.42,1.631-0.795V142.213z M227.397,74.527
		c-0.221,0.039-0.459,0.054-0.767,0.054c-1.389,0-1.893-0.378-2.65,0.756c-0.758,1.138-3.283,4.293-3.283,4.293
		s0.013-0.084,0.029-0.236c-0.084,0.105-0.135,0.169-0.135,0.169s0.758-5.3-1.135-8.203c-1.894-2.902-3.029-5.048-1.137-6.688
		c1.894-1.641,3.029-2.776,4.165-3.28c1.136-0.506,1.767-1.389,2.524-1.389c0.07,0,0.162,0.004,0.253,0.007
		c0.346-0.142,1.15-0.722,2.135-1.487V74.527z M227.397,56.5c-0.62,0.563-1.198,0.956-1.427,0.576c0,0,1.15-2.958,1.314-3.943
		c0.016-0.097,0.059-0.202,0.112-0.31V56.5z M227.397,49.916l-0.64,0.569c0.023,0.033,0.039,0.056,0.066,0.093l-0.311,0.275
		c0.01-0.062,0.019-0.118,0.026-0.175l-0.269,0.239c0,0-0.949,0.271-1.902,0.564c0.026,0.022,0.056,0.043,0.081,0.064
		c-0.341,0.105-0.678,0.212-0.975,0.311c-1.138,0.378-3.409,0.631-3.409,0.631l0.006-0.07c-0.07,0.008-0.111,0.013-0.111,0.013
		l0.253-3.281c0,0,1.262-1.262,1.893-1.388c0.632-0.126,0.884,0,1.515,0.631s1.389,0.757,2.271,0.757
		c0.847,0,1.454,0.687,1.505,0.746V49.916z M153.751,201.892h-3.188c-1.409,0-1.705-0.539-1.705-1.952v-1.042
		c0-1.217,0.296-1.955,1.867-1.955h3.254c0.889,0,1.4,0.198,1.4,0.899v0.271h2.986c0.025-2.759-0.524-3.672-4.778-3.672h-3.507
		c-2.69,0-4.289,0.676-4.289,3.527v2.898c0,2.853,1.599,3.525,4.289,3.525h4.819c2.993,0,3.585-1.288,3.585-2.936v-0.912h-2.983
		C155.501,201.756,155.096,201.892,153.751,201.892z M133.133,194.547h-8.135v9.74h2.986v-2.447h5.93
		c2.111,0,2.741-1.672,2.741-3.121v-0.84C136.655,195.976,135.972,194.547,133.133,194.547z M133.591,198.379
		c0,0.582-0.27,1.038-0.967,1.038h-4.64v-2.451h4.381c0.904,0,1.226,0.377,1.226,1.036V198.379z M155.68,151.267h-10.171v37.77
		h10.171V151.267z M152.395,185.752h-3.602v-31.201h3.602V185.752z M169.347,161.544v-10.277h-10.17v37.77h10.17v-10.275h-3.284
		v6.991h-3.602v-13.933h3.707v-3.282h-3.707v-13.986h3.602v6.993H169.347z M139.513,204.287h2.982v-9.74h-2.982V204.287z
		 M128.293,171.819h3.549v17.217h3.283v-37.77h-3.283v17.271h-3.549v-17.271h-3.285v37.77h3.285V171.819z M141.959,151.267h-3.284
		v37.77h3.284V151.267z M200.084,185.752h-3.602v-34.485h-3.285v34.485h-3.549v-34.485h-3.286v37.77h17.007v-37.77h-3.285V185.752z
		 M224.993,198.234c-3.197,0.01-3.558-0.015-3.558-0.857c0-0.532,0.452-0.757,1.127-0.757h3.308c1.371,0,1.452,0.295,1.452,1.006
		h2.982v-0.307c0-1.706-0.322-2.878-3.763-2.878h-4.167c-3.768,0-3.931,1.355-3.931,3.118c0,2.395,0.517,2.935,5.003,2.935
		c3.849,0,4.198,0.051,4.198,0.903c0,0.75-0.649,0.816-1.278,0.816h-3.656c-0.86,0-1.275-0.08-1.29-1.12h-2.988v0.676
		c0,2.114,1.089,2.623,3.806,2.623h3.617c3.966,0,4.856-0.435,4.856-3.052C230.712,198.499,229.635,198.22,224.993,198.234z
		 M206.812,189.036h3.285v-17.217h3.602v17.217h3.284v-37.77h-10.171V189.036z M210.097,154.551h3.602v13.986h-3.602V154.551z
		 M159.882,196.966h4.2v7.321h2.987v-7.321h4.19v-2.419h-11.378V196.966z M220.533,178.761v10.275h10.17v-37.77h-3.284v17.271
		h-3.603v-17.271h-3.283v20.553h6.886v13.933h-3.603v-6.991H220.533z M207.311,200.382h7.262v-2.017h-7.262v-1.556h7.666v-2.263
		h-10.652v9.74h10.828v-2.338h-7.842V200.382z M182.761,189.036v-37.77H172.59v37.77h3.285v-17.217h3.603v17.217H182.761z
		 M175.875,168.537v-13.986h3.603v13.986H175.875z M197.863,194.547h-9.007v9.74h2.982v-2.531h4.691c0.93,0,1.228,0.337,1.228,1.361
		v1.17h2.983v-1.653c0-1.604-0.739-1.993-1.629-2.154v-0.029c1.373-0.321,1.668-1.086,1.668-2.393v-0.615
		C200.78,195.69,200.162,194.547,197.863,194.547z M197.878,198.313c0,0.698-0.297,1.023-1.103,1.023h-4.937v-2.371h4.665
		c0.942,0,1.374,0.159,1.374,1.028V198.313z M182.436,200.168c0,1.238-0.443,1.724-1.671,1.724h-2.96
		c-1.223,0-1.668-0.485-1.668-1.724v-5.621h-2.988v6.269c0,2.422,1.254,3.577,4.001,3.577h4.279c2.745,0,3.994-1.155,3.994-3.577
		v-6.269h-2.987V200.168z"/>
</g>
</svg>
