<?xml version="1.0" encoding="utf-8"?>
<!-- Generator: Adobe Illustrator 15.0.0, SVG Export Plug-In . SVG Version: 6.00 Build 0)  -->
<!DOCTYPE svg PUBLIC "-//W3C//DTD SVG 1.1//EN" "http://www.w3.org/Graphics/SVG/1.1/DTD/svg11.dtd">
<svg version="1.1" id="Layer_1" xmlns="http://www.w3.org/2000/svg" xmlns:xlink="http://www.w3.org/1999/xlink" x="0px" y="0px"
	 width="396px" height="256px" viewBox="-19 -12.5 396 256" enable-background="new -19 -12.5 396 256" xml:space="preserve">
<g>
	<path fill="#FFFFFF" d="M126.156,27.641v116.861h105.705V27.641H126.156z M214.039,52.561c0.684-1.771,1.688-3.797,2.561-4.785
		c0.047-0.437,0.277-0.712,0.844-0.669c0.938,0.073,1.373,0.112,1.58,0.385c0.01-0.012,0.02-0.024,0.031-0.036
		c0.227,0.191,0.26,0.537,0.26,1.221c0,1.388-0.127,4.292-0.127,4.292s-0.758,0.756-1.264,0.884
		c-0.504,0.126-2.271,1.894-4.543,1.894c-0.037,0-0.059-0.032-0.08-0.061c-0.008,0-0.016,0.002-0.023,0.002
		C212.631,55.689,213.383,53.645,214.039,52.561z M203.434,55.562c0.506-2.397,0-2.523,1.137-3.66
		c1.135-1.136,0.756-1.641,1.895-1.641c1.135,0,1.262-1.01,2.27,0.126c0.211,0.236,0.438,0.49,0.658,0.746
		c-0.004-0.026-0.01-0.053-0.016-0.079c0.891,1.013,1.771,2.105,1.352,2.419c-0.504,0.379-1.514,2.02-2.145,2.4
		c-0.633,0.378-0.885,1.514-2.4,1.765c-1.514,0.255-2.902,0.759-3.408,0.885c0,0,0.016-0.031,0.041-0.098
		c-0.049,0.014-0.102,0.029-0.139,0.039C202.678,58.466,202.93,57.961,203.434,55.562z M204.318,60.232c0,0,0.021,0.022,0.014,0.084
		c0.029-0.008,0.057-0.017,0.086-0.025c0,0,0.379,0.38-2.525,2.651c0,0-0.012-0.047-0.021-0.122
		c-0.025,0.021-0.051,0.04-0.078,0.062C201.793,62.883,201.289,60.989,204.318,60.232z M201.414,66.164
		c1.641-0.884,4.418-3.155,6.059-5.175c1.641-2.019,2.02-2.523,3.785-2.775c1.768-0.253,3.533-1.01,4.67-1.389
		c1.137-0.379,5.68-3.533,7.318-4.038c1.643-0.505,2.904-1.136,2.904-1.136s-0.012,0.047-0.027,0.121
		c0.078-0.037,0.135-0.064,0.135-0.064s-0.508,2.271-0.508,2.777c0,0.505-0.756,2.399-2.018,3.662
		c-1.262,1.262-4.418,3.03-5.049,3.407c-0.633,0.378-4.168,3.536-2.021,6.565c2.146,3.03,3.029,4.923,2.775,7.575
		c-0.252,2.65,0.254,4.798-1.387,5.302c-1.643,0.506-3.662,1.263-5.178,1.137s-3.787,0.504-6.061,1.387
		c-2.271,0.885-3.787,1.77-4.543,1.519c0,0,0.002-0.022,0.008-0.056c-0.035-0.007-0.076-0.004-0.107-0.015
		c0,0,0.506-3.533,0.127-5.175c-0.281-1.215-1.113-1.943-1.527-2.24c-0.082-0.054-0.143-0.09-0.143-0.09l-0.002-0.008
		c-0.057-0.036-0.096-0.06-0.096-0.06s-1.516-4.543-1.137-6.562C199.775,68.814,199.775,67.047,201.414,66.164z M220.572,85.41
		c0.271,0.122,0.227,0.523-0.5,1.393c-1.264,1.517-1.643,1.262-2.777,1.894c-1.137,0.633-2.398,0.885-3.029,0.885
		s-1.135,0.503-2.021,0.883c-0.883,0.378-2.775-0.125-4.041-0.379c-0.711-0.142-1.742-0.565-2.213-0.93
		c-0.453-0.311-0.555-0.595,0.221-0.654c0.891-0.069,2.146-0.884,3.912-0.758c1.768,0.126,2.65-0.126,4.543-0.757
		c1.895-0.631,3.785-1.136,4.795-1.515C219.979,85.279,220.424,85.221,220.572,85.41z M199.26,48.22l0.688,0.406
		c-0.24,2.353-0.324,7.439-1.918,9.882c-0.443,0.681-2.869,1.378-1.312,3.552c0.631,0.883,1.641,1.642,0.631,2.777
		c-1.012,1.136-1.012,2.906-3.281,2.526c0,0-0.027-0.03-0.055-0.061c-0.018-0.002-0.025,0-0.041-0.002c0,0-1.643-1.767-2.398-4.165
		c-0.078-0.249-0.283-2.194,0.58-3.368c0.865-1.174,4.93-10.31,5.271-10.82S199.26,48.22,199.26,48.22z M183.621,48.117
		c1.135-0.379,0.629-1.262,0.629-2.271s1.264,0.252,2.146,0.884c0.885,0.631,0.506,0.883,1.516,0.631
		c1.01-0.253,1.389-0.884,2.146-1.01s2.02,0,3.027-0.253c1.01-0.252,1.01-1.009,2.02-1.388c0.238-0.089,0.381-0.007,0.463,0.175
		c0.014-0.014,0.029-0.024,0.045-0.038c0.082,0.109,0.123,0.287,0.131,0.505c-0.033,0.094-0.068,0.194-0.104,0.292
		c-0.053,0.752-0.355,1.733-0.533,2.221c-0.715,1.946-4.162,8.922-5.645,11.152c-0.195,0.293-0.352,0.637-0.697,0.84
		c-0.047,0.03-0.096,0.061-0.129,0.055c-0.096-0.017-0.219-0.082-0.361-0.186c-0.947-0.604-2.998-3.278-4.021-4.417
		c-1.137-1.262-1.641-3.533-1.893-5.301C182.105,48.243,182.484,48.496,183.621,48.117z M179.834,47.865
		c0.092-0.111,0.158-0.104,0.207-0.028c0.443-0.084,0.01,3.618,0.01,3.618s-0.023-0.081-0.072-0.214
		c-0.01,0.096-0.018,0.157-0.018,0.157s-0.379-1.262-1.137-2.02C178.068,48.622,179.203,48.622,179.834,47.865z M129.479,50.265
		c0.078-0.021,0.16-0.041,0.254-0.054c0.884-0.127,0.884,0.378,1.642,0.504c0.757,0.127,1.767,0,2.523-0.631
		c0.756-0.631,0.884-0.504,1.767-0.126c0.884,0.379,2.524,0.253,2.902,0.505c0.379,0.252,1.137,0.884,0.632,1.515
		c-0.505,0.631-1.136,1.388-0.632,2.271c0.506,0.883,0.632-0.188,1.01,0.696c0.379,0.884,0.506,0.365,0.379,1.249
		c-0.127,0.883,0.127,1.641,0.631,1.641c0.505,0,1.641-0.379,1.641-0.379s1.01,0.631,1.768,0.758
		c0.756,0.126,1.009,0.126,1.641,1.136c0.63,1.01,1.514,1.01,2.397,0.631c0.883-0.379,1.767-1.515,1.388-3.155
		c-0.379-1.64-0.631-2.146-0.631-2.65s0.126-0.252,1.515,0c1.389,0.253,1.894,0.505,2.397-0.757c0.505-1.263,0.631-2.524-1.009-3.66
		c-1.642-1.136-2.108-0.888-2.739-1.267c-0.631-0.379-1.389-1.262-0.758-1.894c0.158-0.158,0.568-0.497,1.105-0.899
		c0.388-0.291,1.533,0.414,2.006,0.102c1.486-0.983,1.917-2.583,2.82-2.231c1.211,0.472,2.264,1.898,1.097,3.481
		c-0.424,0.575,0.128,1.192,0.381,1.571c0.252,0.379-0.505,2.396,0.757,2.902c1.262,0.505,1.641,1.136,2.776,1.136
		s1.515-0.505,2.019-1.009c0.506-0.505,0.631-1.136,1.768-0.758c1.136,0.379,3.029,1.515,3.659,1.262
		c0.632-0.252,0.884-1.136,1.136-1.893c0.253-0.757,0.884,0.126,1.768,0.126c0.883,0,1.893-1.01,2.271-1.136
		s1.136,0.379,2.145,1.389c1.01,1.01,1.01,1.01,1.01,1.01s0-0.379,2.398,1.641c2.397,2.019,4.417,3.154,5.3,4.795
		c0.883,1.641,4.416,5.427,5.047,6.941c0.633,1.515,2.398,4.669,3.66,6.688s2.398,4.669,3.787,6.058
		c1.387,1.388,1.766,2.65,1.641,3.281c-0.127,0.631-1.768,4.796-3.912,5.932s-2.523,1.262-3.66,1.009
		c-1.086-0.241-1.941-0.594-2.785,0.59c-0.174-0.667-0.43-1.467-0.748-1.978l-0.199-0.157c0,0-0.684-1.093-1.229-1.639
		c-0.547-0.546-0.41-2.049-0.273-3.278c0.049-0.44,0.133-1.154,0.137-2.049c0.008-1.156-0.137-2.8-1.127-3.602
		c-0.404-0.329-0.887-0.734-1.604-1.042c-1.756-0.75-3.252-0.012-4.141,0.704c-0.321,0.258-1.113,1.061-1.521,1.61
		c-0.43,0.577-0.859,1.355-0.826,2.125c0.068,1.502,0.547,1.843,1.023,2.253c0.479,0.41,0.363,1.596,0.637,2.142
		c0.273,0.546,0.866,1,1.071,1.479c0.204,0.478,0.291,0.99,0.769,0.99c0.246,0,0.948-0.159,1.349-0.376
		c0.253-0.137,0.518-0.179,0.633-0.136c0.114,0.042,0.164,0.357,0.174,0.4c0.015,0.07,0,0.143-0.026,0.215
		c-0.164,0.211-1.464,0.981-1.7,1.455c-0.252,0.505-1.01,1.599-1.936,2.44c-0.926,0.841-0.589,1.851-1.178,1.851
		c-0.589,0-2.188,0.505-2.188,0.841c0,0.337-1.683,0.674-2.44,1.431c-0.757,0.757-3.28,1.767-4.038,2.608
		c-0.757,0.841-1.683,1.514-2.607,1.43c-0.926-0.084-1.6,0.169-1.6,0.421c0,0.253-1.766,0-1.766,0
		c-2.524,0.126-4.67,0.631-6.941,1.01c-1.287,0.214-3.898,0.624-6.184,1.767c-0.378,0.188-0.645,1.877-0.732,2.968
		c-1.555-0.783-3.913-1.63-4.82-1.832c-1.137-0.252-1.263-1.388-4.417-1.641c-3.155-0.252-5.806-1.01-7.698-1.894
		c-0.256-0.12-0.509-0.216-0.76-0.3V50.265H129.479z M228.537,141.18h-99.059v-29.815c2.309,0.106,5.819,0.888,7.7,1.241l0.03,0.001
		c2.036,0.375,6.776,0.626,8.276,1.001c0.319,0.081,0.849,0.166,1.505,0.254c-0.094,2.177-0.223,3.987-0.369,4.282
		c0,0-0.303,1.535-0.713,2.423c-0.407,0.89-1.233,1.76-1.69,2.168c-0.457,0.412-1.63,1.5-1.983,1.825
		c-0.353,0.326-1.27,0.927-1.56,0.991c-0.29,0.066-0.497,0.236-0.659,0.225c-0.162-0.011-0.719,0.055-0.768,0.226
		c-0.068,0.229-0.183,0.669,0.453,0.879c0.636,0.21,0.931-0.05,1.041-0.052c0.109,0,0.246-0.055,0.748,0.076
		c1.059,0.275,2.747-0.646,3.219-0.891c0.472-0.24,1.258-0.529,1.957-0.58c0.699-0.049,0.86,0.083,1.553,0.021
		c0.919-0.082,1.084-0.726,1.197-1.191c0.113-0.466-0.004-0.838-0.189-1.568c-0.121-0.478-0.35-1.158-0.153-1.852
		c0.064-0.229,0.134-0.984,0.626-2.01c0.863-1.799,1.189-4.593,1.189-4.593c1.477,0.163,2.512,0.343,3.566,0.492
		c-0.205,0.509-0.616,1.727-0.273,2.527c0,0,0.504,1.891,0.504,3.15c0,1.263,0.378,6.554,0.253,8.19
		c-0.126,1.638-0.757,4.79-1.64,5.921c-0.881,1.139-1.764,2.523-2.394,2.899c-0.63,0.38-1.638,1.007-2.144,1.007
		c-0.315,0-0.948,0.07-0.887,0.616c0.039,0.351,0.635,0.573,0.895,0.655c0.066,0.021,0.143,0.041,0.229,0.062
		c0.428,0.102,1.046,0.189,1.316,0.208c0.985,0.063,1.716-0.213,3.11-0.911c2.016-1.007,2.143-0.756,2.646-0.756
		c0.503,0,1.639-0.251,1.26-2.016c-0.379-1.767-0.253-3.78,0.379-5.166c0.629-1.389,1.638-5.168,1.512-8.064
		c-0.127-2.898-0.631-5.798-0.631-5.798s3.101-0.812,5.726-1.637h0.069c1.948,0,4.875,0.038,7.521-0.163
		c1.815-0.244,3.713-1.396,3.713-1.396s1.016-0.836,1.27-1.266c0.716-1.215,2.312-3.539,3.07-4.233
		c1.515-1.389,7.319-7.193,9.212-8.582c1.895-1.388,2.902-2.019,5.428-3.281c2.523-1.262,3.154-2.146,4.039-3.786
		c0.883-1.64,2.145-3.028,3.531-2.649c1.391,0.378,4.418,4.164,8.203,3.407c3.785-0.758,5.68-2.02,7.699-2.65
		c2.02-0.631,2.775-1.389,4.037-2.398c1.262-1.009,1.389-0.504,2.021-1.136c0.631-0.631,1.514-1.262,1.01-2.019
		c-0.506-0.758-1.516-1.767-1.516-1.767s0.758-0.379,1.389-0.379s1.137-0.253,1.137-1.262c0-1.01-0.758-2.523,0.756-3.155
		c0.326-0.136,0.906-0.42,1.631-0.795v63.067H228.537z M228.537,73.494c-0.221,0.039-0.459,0.054-0.766,0.054
		c-1.389,0-1.895-0.378-2.65,0.756c-0.758,1.138-3.283,4.293-3.283,4.293s0.014-0.084,0.029-0.236
		c-0.084,0.105-0.135,0.169-0.135,0.169s0.758-5.3-1.135-8.203c-1.895-2.902-3.029-5.048-1.139-6.688
		c1.895-1.641,3.029-2.776,4.166-3.28c1.137-0.506,1.768-1.389,2.523-1.389c0.07,0,0.162,0.004,0.254,0.007
		c0.346-0.142,1.15-0.722,2.135-1.487V73.494L228.537,73.494z M228.537,55.467c-0.619,0.563-1.197,0.956-1.426,0.576
		c0,0,1.15-2.958,1.314-3.943c0.016-0.097,0.059-0.202,0.111-0.31V55.467L228.537,55.467z M228.537,48.883l-0.639,0.569
		c0.023,0.033,0.039,0.056,0.066,0.093l-0.312,0.275c0.01-0.062,0.02-0.118,0.027-0.175l-0.27,0.239c0,0-0.949,0.271-1.902,0.564
		c0.025,0.022,0.057,0.043,0.082,0.064c-0.342,0.105-0.68,0.212-0.977,0.311c-1.137,0.378-3.408,0.631-3.408,0.631l0.006-0.07
		c-0.07,0.008-0.111,0.013-0.111,0.013l0.254-3.281c0,0,1.262-1.262,1.893-1.388s0.885,0,1.516,0.631
		c0.631,0.631,1.389,0.757,2.27,0.757c0.848,0,1.455,0.687,1.506,0.746V48.883L228.537,48.883z M154.892,200.859h-3.188
		c-1.409,0-1.705-0.539-1.705-1.953v-1.041c0-1.217,0.296-1.955,1.867-1.955h3.254c0.889,0,1.4,0.197,1.4,0.898v0.271h2.986
		c0.025-2.76-0.524-3.672-4.778-3.672h-3.507c-2.69,0-4.289,0.676-4.289,3.526v2.898c0,2.853,1.599,3.524,4.289,3.524h4.819
		c2.993,0,3.585-1.287,3.585-2.936v-0.912h-2.983C156.642,200.723,156.237,200.859,154.892,200.859z M134.274,193.514h-8.135v9.74
		h2.986v-2.447h5.93c2.111,0,2.741-1.672,2.741-3.121v-0.84C137.796,194.943,137.113,193.514,134.274,193.514z M134.732,197.346
		c0,0.582-0.27,1.038-0.967,1.038h-4.64v-2.451h4.381c0.904,0,1.226,0.377,1.226,1.036V197.346z M156.821,150.234H146.65v37.77
		h10.171V150.234z M153.536,184.719h-3.602v-31.201h3.602V184.719z M170.488,160.511v-10.276h-10.17v37.77h10.17v-10.275h-3.284
		v6.991h-3.602v-13.933h3.707v-3.282h-3.707v-13.986h3.602v6.993L170.488,160.511L170.488,160.511z M140.654,203.254h2.982v-9.74
		h-2.982V203.254z M129.434,170.785h3.549v17.218h3.283v-37.771h-3.283v17.271h-3.549v-17.271h-3.285v37.771h3.285V170.785z
		 M143.1,150.234h-3.284v37.77h3.284V150.234z M201.225,184.719h-3.602v-34.484h-3.285v34.484h-3.549v-34.484h-3.287v37.77h17.008
		v-37.77h-3.285V184.719z M226.135,197.201c-3.197,0.01-3.559-0.016-3.559-0.857c0-0.532,0.451-0.757,1.127-0.757h3.309
		c1.371,0,1.451,0.295,1.451,1.006h2.982v-0.308c0-1.705-0.322-2.877-3.764-2.877h-4.166c-3.77,0-3.932,1.354-3.932,3.117
		c0,2.396,0.518,2.936,5.002,2.936c3.85,0,4.199,0.051,4.199,0.902c0,0.75-0.648,0.816-1.277,0.816h-3.656
		c-0.861,0-1.275-0.08-1.291-1.12h-2.988v0.677c0,2.113,1.09,2.623,3.807,2.623h3.617c3.965,0,4.855-0.436,4.855-3.053
		C231.854,197.466,230.775,197.187,226.135,197.201z M207.953,188.003h3.285v-17.218h3.602v17.218h3.283v-37.771h-10.17V188.003z
		 M211.238,153.518h3.602v13.986h-3.602V153.518z M161.023,195.933h4.2v7.321h2.987v-7.321h4.19v-2.419h-11.378L161.023,195.933
		L161.023,195.933z M221.674,177.728v10.275h10.17v-37.771h-3.283v17.271h-3.604v-17.271h-3.283v20.553h6.887v13.934h-3.604v-6.991
		H221.674z M208.451,199.349h7.264v-2.017h-7.264v-1.557h7.666v-2.263h-10.65v9.74h10.826v-2.338h-7.842V199.349z M183.902,188.003
		v-37.771h-10.171v37.771h3.285v-17.218h3.603v17.218H183.902z M177.016,167.504v-13.986h3.603v13.986H177.016z M199.004,193.514
		h-9.008v9.74h2.982v-2.531h4.691c0.93,0,1.229,0.337,1.229,1.361v1.17h2.982v-1.653c0-1.604-0.738-1.993-1.629-2.153v-0.029
		c1.373-0.321,1.668-1.086,1.668-2.393v-0.615C201.922,194.656,201.303,193.514,199.004,193.514z M199.02,197.279
		c0,0.698-0.297,1.023-1.104,1.023h-4.938v-2.371h4.666c0.941,0,1.373,0.159,1.373,1.028v0.319H199.02z M183.576,199.135
		c0,1.238-0.441,1.725-1.67,1.725h-2.96c-1.223,0-1.668-0.485-1.668-1.725v-5.621h-2.988v6.27c0,2.422,1.254,3.576,4.001,3.576
		h4.279c2.744,0,3.994-1.154,3.994-3.576v-6.27h-2.988V199.135z"/>
</g>
</svg>
