<?xml version="1.0" encoding="utf-8"?>
<!-- Generator: Adobe Illustrator 15.0.0, SVG Export Plug-In . SVG Version: 6.00 Build 0)  -->
<!DOCTYPE svg PUBLIC "-//W3C//DTD SVG 1.1//EN" "http://www.w3.org/Graphics/SVG/1.1/DTD/svg11.dtd">
<svg version="1.1" id="Layer_1" xmlns="http://www.w3.org/2000/svg" xmlns:xlink="http://www.w3.org/1999/xlink" x="0px" y="0px"
	 width="396px" height="256px" viewBox="-19 -12.5 396 256" enable-background="new -19 -12.5 396 256" xml:space="preserve">
<g>
	<path fill="#FFFFFF" d="M182.715,126.441c10.744-6.929,28.219-39.231,21.479-58.275c-10.144-19.443-16.472-5.033-17.233-4.034
		c-7.246,8.843-29.291,9.957-33.862,17.69c-8.694,10.296,3.271,20.329,7.779,17.386c-4.581-1.678-10.58-13.42,0.509-15.865
		c14.513-1.223,23.689-9.683,25.71-12.006C195.045,62.224,208.01,87.158,182.715,126.441"/>
	<path fill="#FFFFFF" d="M152.719,106.292c-0.896-9.162-16.125-16.347-22.116-9.305c-8.788,10.332-16.319,18.972-23.789,22.971
		c-2.601,1.284-4.548,2.258-7.1,4.919c-11.182,15.393,16.245,28.548,34.699,14.968c-9.607,2.747-33.019,1.15-24.933-10.063
		c4.192-3.078,19.976-22.734,24.403-28.754C137.422,97.413,144.243,97.355,152.719,106.292"/>
	<path fill="#FFFFFF" d="M187.953,152.783c0,0,7.643-5.896,15.039-5.146c7.394,0.746,22.924,0.331,22.924,0.331
		s17.289-0.448,29.816-8.06c11.219-6.812,3.573-17.697-17.691-17.607c-12.043-1.166-34.136,7.641-42.114,8.631
		c0.17,0.749,12.21-0.203,15.043-0.99c4.479-1.242,19.182-3.824,19.182-3.824s9.31-0.829,14.285,0.92
		c11.884,3.568,9.222,15.441-22.093,17.687c-11.465,0.75-11.71-0.325-21.598,0.501C191.152,146.031,187.953,152.783,187.953,152.783
		"/>
	<path fill="#FFFFFF" d="M148.917,147.049c-14.203,4.402-15.7,21.514-0.743,20.852c18.368-0.82,33.644-5.625,18.267-2.164
		c15.287-4.98,12.63-9.635,14.038-10.715c3.489,8.559-10.938,12.58-12.706,13.461c-1.161,0.578-10.795,5.562-24.171,4.235
		C122.589,168.068,139.697,144.225,148.917,147.049"/>
</g>
</svg>
