<?xml version="1.0" encoding="utf-8"?>
<!-- Generator: Adobe Illustrator 16.0.0, SVG Export Plug-In . SVG Version: 6.00 Build 0)  -->
<!DOCTYPE svg PUBLIC "-//W3C//DTD SVG 1.1//EN" "http://www.w3.org/Graphics/SVG/1.1/DTD/svg11.dtd">
<svg version="1.1" id="Layer_1" xmlns="http://www.w3.org/2000/svg" xmlns:xlink="http://www.w3.org/1999/xlink" x="0px" y="0px"
	 width="358px" height="231px" viewBox="0 0 358 231" enable-background="new 0 0 358 231" xml:space="preserve">
<g>
	<polygon fill="#FFFFFF" points="96.905,112.308 101.217,112.308 101.217,125.839 106.487,125.839 106.487,129.296 96.905,129.296 	
		"/>
	<path fill="#FFFFFF" d="M118.541,126.508c0,1.02,0.066,2.039,0.126,2.79h-3.661c-0.063-0.571-0.151-1.154-0.151-1.755
		c-1.188,1.429-2.124,2.051-3.57,2.051c-2.107,0-3.625-1.596-3.625-4.048c0-2.813,1.997-4.332,6.144-4.332h1.051v-0.382
		c0-0.807-0.611-1.74-2.239-1.74c-1.292,0-2.563,0.607-3.438,1.201l-0.135-3.139c0.977-0.397,2.476-0.838,4.462-0.838
		c4.194,0,5.036,2.093,5.036,4.705V126.508z M114.855,123.162h-0.474c-1.84,0-3.058,0.617-3.058,2.106
		c0,1.122,0.577,1.565,1.43,1.565c1.898,0,2.102-2.063,2.102-3.254V123.162z"/>
	<path fill="#FFFFFF" d="M131.697,127.197c0,0.965,0.063,1.774,0.137,2.101h-3.87c-0.077-0.501-0.105-1.405-0.105-2.112h-0.041
		c-0.228,0.684-1.029,2.409-3.375,2.409c-2.035,0-3.624-1.306-3.624-4.084v-8.888h4.143v7.62c0,1.21,0.346,1.802,1.166,1.802
		c1.177,0,1.438-1.15,1.438-2.091v-7.331h4.132V127.197z"/>
	<path fill="#FFFFFF" d="M133.976,120.293c0-1.807-0.06-3.105-0.12-3.691h3.856c0.077,0.53,0.099,1.431,0.099,2.127h0.044
		c0.344-0.992,1.073-2.412,3.053-2.412c0.306,0,0.432,0.032,0.688,0.074v3.816c-0.175-0.072-0.748-0.137-1.226-0.137
		c-1.342,0-2.267,1.234-2.267,2.924v6.304h-4.126V120.293z"/>
	<path fill="#FFFFFF" d="M146.458,124.148c0.112,2.069,1.453,2.686,2.981,2.686c1.119,0,2.484-0.547,3.493-1.01l0.091,3.045
		c-0.979,0.326-2.503,0.708-4.178,0.726c-4.841,0.017-6.232-3.443-6.232-6.684c0-3.487,1.944-6.595,5.551-6.595
		c3.729,0,5.501,3.143,5.501,6.611v1.221H146.458z M149.908,121.874v-0.362c0-1.709-0.44-2.514-1.684-2.514
		c-1.161,0-1.86,1.119-1.86,2.876H149.908z"/>
	<path fill="#FFFFFF" d="M155.659,119.193c0-0.947-0.058-2.008-0.137-2.57h3.867c0.074,0.509,0.097,1.409,0.097,2.105h0.055
		c0.219-0.681,1.025-2.41,3.374-2.41c2.027,0,3.607,1.293,3.607,4.102v8.878h-4.132v-7.596c0-1.244-0.341-1.812-1.1-1.812
		c-1.045,0-1.496,1.134-1.496,2.454v6.953h-4.135V119.193z"/>
	<path fill="#FFFFFF" d="M167.967,116.623h2.045v-2.695l4.134-1.37v4.065h2.312v2.961h-2.312v5.41c0,1.066,0.61,1.529,1.354,1.529
		c0.406,0,0.775-0.072,0.959-0.18l0.119,2.954c-0.545,0.124-1.547,0.296-2.74,0.296c-2.255,0-3.825-1.361-3.825-3.736v-6.273h-2.045
		V116.623z"/>
	<path fill="#FFFFFF" d="M178.617,111.026h4.131v3.669h-4.131V111.026z M178.617,116.623h4.131v12.675h-4.131V116.623z"/>
	<path fill="#FFFFFF" d="M195.68,126.508c0,1.02,0.074,2.039,0.162,2.79h-3.691c-0.039-0.571-0.132-1.154-0.132-1.755
		c-1.205,1.429-2.124,2.051-3.582,2.051c-2.102,0-3.614-1.596-3.614-4.048c0-2.813,1.986-4.332,6.138-4.332h1.059v-0.382
		c0-0.807-0.616-1.74-2.251-1.74c-1.271,0-2.568,0.607-3.433,1.201l-0.137-3.139c0.984-0.397,2.47-0.838,4.458-0.838
		c4.202,0,5.023,2.093,5.023,4.705V126.508z M192.019,123.162h-0.479c-1.84,0-3.044,0.617-3.044,2.106
		c0,1.122,0.562,1.565,1.418,1.565c1.917,0,2.104-2.063,2.104-3.254V123.162z"/>
	<path fill="#FFFFFF" d="M197.972,119.193c0-0.947-0.057-2.008-0.134-2.57h3.881c0.07,0.509,0.09,1.409,0.09,2.105h0.031
		c0.237-0.681,1.049-2.41,3.382-2.41c2.028,0,3.619,1.293,3.619,4.102v8.878h-4.121v-7.596c0-1.244-0.341-1.812-1.116-1.812
		c-1.022,0-1.502,1.134-1.502,2.454v6.953h-4.13V119.193z"/>
	<path fill="#FFFFFF" d="M211.832,112.308h1.411v10.705c0,2.566,0.474,5.054,3.332,5.054c2.997,0,3.317-2.743,3.317-5.054v-10.705
		h1.441v10.736c0,3.364-1.045,6.427-4.759,6.427c-3.708,0-4.743-2.766-4.743-6.427V112.308z"/>
	<path fill="#FFFFFF" d="M224.714,120.73c0-1.291-0.062-2.566-0.091-3.848h1.238c0.055,0.555,0.077,0.916,0.1,1.82h0.041
		c0.273-0.539,1.03-1.994,2.971-1.994c3.239,0,3.239,3.426,3.239,4.256v8.333h-1.328v-8.366c0-0.859,0-2.899-2.176-2.899
		c-1.627,0-2.659,1.617-2.659,3.542v7.724h-1.335V120.73z"/>
	<path fill="#FFFFFF" d="M235.455,129.298h1.33v-12.415h-1.33V129.298z M235.3,114.134h1.624v-2.203H235.3V114.134z"/>
	<polygon fill="#FFFFFF" points="238.699,116.883 240.131,116.883 242.903,127.706 242.949,127.706 245.814,116.883 
		247.146,116.883 243.718,129.298 242.13,129.298 	"/>
	<path fill="#FFFFFF" d="M249.755,123.547c0,4.613,2.775,4.613,3.312,4.613c0.751,0,1.843-0.389,2.522-1.005l0.056,1.618
		c-0.556,0.318-1.32,0.697-2.725,0.697c-4.58,0-4.58-5.134-4.58-6.375c0-4.687,2.166-6.387,4.141-6.387
		c3.404,0,3.746,3.82,3.746,6.838H249.755z M254.805,122.246c0-3.277-1.317-4.214-2.379-4.214c-1.825,0-2.671,2.597-2.671,4.214
		H254.805z"/>
	<path fill="#FFFFFF" d="M258.719,120.73c0-1.291-0.063-2.566-0.1-3.848h1.256c0.01,0.729,0.067,1.463,0.073,1.975H260
		c0.853-1.788,1.846-2.148,3.128-2.148v1.52c-2.102,0-3.074,0.965-3.074,3.262v7.808h-1.335V120.73z"/>
	<path fill="#FFFFFF" d="M269.925,118.535c-0.655-0.25-1.236-0.503-1.998-0.503c-1.363,0-1.985,1.081-1.985,1.962
		c0,1.152,0.425,1.396,1.985,2.324c1.622,0.929,2.855,1.548,2.855,3.556c0,2.242-1.492,3.597-3.466,3.597
		c-1.438,0-2.258-0.316-2.954-0.571l0.193-1.581c0.379,0.281,1.57,0.844,2.632,0.844c1.271,0,2.176-1.007,2.176-2.143
		c0-1.201-0.721-1.686-2.09-2.412c-1.966-1.037-2.745-1.705-2.745-3.468c0-2.341,1.887-3.434,3.422-3.434
		c0.803,0,1.732,0.224,2.17,0.363L269.925,118.535z"/>
	<path fill="#FFFFFF" d="M273.28,129.298h1.328v-12.415h-1.328V129.298z M273.132,114.134h1.61v-2.203h-1.61V114.134z"/>
	<path fill="#FFFFFF" d="M279.783,113.953v2.93h2.375v1.309h-2.375v8.096c0,0.996,0.15,1.873,1.287,1.873
		c0.604,0,0.831-0.141,1.088-0.268v1.405c-0.336,0.124-0.915,0.173-1.539,0.173c-1.728,0-2.168-1.404-2.168-2.799v-8.48h-1.754
		v-1.309h1.754v-2.487L279.783,113.953z"/>
	<path fill="#FFFFFF" d="M287.579,127.197h0.037l2.623-10.314h1.334l-3.824,14.734c-0.436,1.68-0.799,3.1-2.663,3.1
		c-0.369,0-0.559-0.047-0.889-0.146l0.058-1.438c0.236,0.164,0.652,0.256,0.94,0.256c0.656,0,0.989-0.639,1.197-1.423l0.58-2.371
		l-3.421-12.712h1.413L287.579,127.197z"/>
	<path fill="#FFFFFF" d="M96.905,90.642h1.424v10.719c0,2.562,0.451,5.031,3.329,5.031c3.006,0,3.323-2.743,3.323-5.031V90.642
		h1.422v10.735c0,3.391-1.026,6.431-4.745,6.431c-3.713,0-4.753-2.768-4.753-6.431V90.642z"/>
	<path fill="#FFFFFF" d="M109.793,99.07c0-1.29-0.06-2.558-0.082-3.854h1.237c0.044,0.562,0.061,0.949,0.088,1.824h0.05
		c0.269-0.528,1.037-1.989,2.981-1.989c3.227,0,3.227,3.424,3.227,4.258v8.334h-1.323v-8.378c0-0.845,0-2.899-2.178-2.899
		c-1.628,0-2.668,1.634-2.668,3.565v7.712h-1.332V99.07z"/>
	<path fill="#FFFFFF" d="M120.529,107.643h1.317V95.214h-1.317V107.643z M120.386,92.477h1.615V90.26h-1.615V92.477z"/>
	<polygon fill="#FFFFFF" points="123.783,95.214 125.203,95.214 127.983,106.031 128.027,106.031 130.896,95.214 132.216,95.214 
		128.797,107.643 127.196,107.643 	"/>
	<path fill="#FFFFFF" d="M134.84,101.9c0,4.608,2.775,4.608,3.3,4.608c0.754,0,1.854-0.413,2.522-1.035l0.063,1.623
		c-0.542,0.335-1.32,0.709-2.717,0.709c-4.59,0-4.59-5.135-4.59-6.381c0-4.662,2.169-6.373,4.145-6.373
		c3.404,0,3.735,3.823,3.735,6.849H134.84z M139.876,100.577c0-3.292-1.306-4.211-2.377-4.211c-1.817,0-2.659,2.616-2.659,4.211
		H139.876z"/>
	<path fill="#FFFFFF" d="M143.802,99.07c0-1.29-0.066-2.558-0.093-3.854h1.259c0.017,0.74,0.055,1.46,0.077,1.978h0.032
		c0.861-1.776,1.838-2.143,3.131-2.143v1.523c-2.107,0-3.075,0.955-3.075,3.249v7.82h-1.331V99.07z"/>
	<path fill="#FFFFFF" d="M155.018,96.872c-0.671-0.261-1.243-0.506-1.994-0.506c-1.377,0-1.994,1.092-1.994,1.975
		c0,1.139,0.408,1.381,1.994,2.311c1.614,0.922,2.842,1.573,2.842,3.557c0,2.252-1.491,3.598-3.466,3.598
		c-1.442,0-2.272-0.297-2.96-0.578l0.188-1.586c0.39,0.292,1.567,0.867,2.656,0.867c1.271,0,2.16-1.035,2.16-2.154
		c0-1.188-0.718-1.666-2.088-2.426c-1.969-1.022-2.749-1.686-2.749-3.449c0-2.316,1.882-3.427,3.434-3.427
		c0.784,0,1.721,0.231,2.158,0.366L155.018,96.872z"/>
	<path fill="#FFFFFF" d="M158.362,107.643h1.337V95.214h-1.337V107.643z M158.231,92.477h1.617V90.26h-1.617V92.477z"/>
	<path fill="#FFFFFF" d="M164.86,92.295v2.919h2.386v1.331h-2.386v8.09c0,0.99,0.153,1.874,1.287,1.874
		c0.603,0,0.836-0.152,1.1-0.282v1.417c-0.323,0.124-0.918,0.166-1.543,0.166c-1.724,0-2.18-1.417-2.18-2.784v-8.48h-1.744v-1.331
		h1.744v-2.479L164.86,92.295z"/>
	<path fill="#FFFFFF" d="M170.097,101.9c0,4.608,2.796,4.608,3.317,4.608c0.75,0,1.858-0.413,2.514-1.035l0.076,1.625
		c-0.554,0.333-1.344,0.71-2.729,0.71c-4.599,0-4.599-5.138-4.599-6.387c0-4.657,2.179-6.37,4.153-6.37
		c3.395,0,3.747,3.821,3.747,6.849H170.097z M175.148,100.577c0-3.292-1.309-4.211-2.387-4.211c-1.801,0-2.665,2.616-2.665,4.211
		H175.148z M174.921,89.914l-2.217,3.455h-1.122l1.732-3.455H174.921z"/>
	<polygon fill="#FFFFFF" points="178.953,90.642 183.266,90.642 183.266,104.18 188.536,104.18 188.536,107.646 178.953,107.646 	
		"/>
	<path fill="#FFFFFF" d="M200.575,104.835c0,1.031,0.073,2.063,0.143,2.808h-3.677c-0.033-0.583-0.144-1.164-0.144-1.749
		c-1.178,1.403-2.111,2.033-3.564,2.033c-2.111,0-3.636-1.601-3.636-4.027c0-2.824,2.003-4.348,6.158-4.348h1.042v-0.385
		c0-0.803-0.604-1.736-2.229-1.736c-1.292,0-2.572,0.6-3.447,1.194l-0.134-3.145c0.98-0.379,2.481-0.828,4.473-0.828
		c4.192,0,5.015,2.11,5.015,4.701V104.835z M196.897,101.499h-0.474c-1.834,0-3.047,0.618-3.047,2.104
		c0,1.117,0.577,1.549,1.433,1.549c1.887,0,2.088-2.033,2.088-3.235V101.499z"/>
	<path fill="#FFFFFF" d="M213.741,105.537c0,0.971,0.075,1.76,0.128,2.11h-3.873c-0.056-0.518-0.082-1.42-0.082-2.116h-0.057
		c-0.225,0.682-1.034,2.396-3.36,2.396c-2.041,0-3.637-1.285-3.637-4.082v-8.906h4.137v7.641c0,1.221,0.336,1.802,1.172,1.802
		c1.191,0,1.439-1.145,1.439-2.087v-7.355h4.133V105.537z"/>
	<path fill="#FFFFFF" d="M216.029,98.625c0-1.793-0.061-3.079-0.142-3.686h3.892c0.059,0.519,0.085,1.427,0.085,2.126h0.048
		c0.342-0.999,1.072-2.41,3.036-2.41c0.306,0,0.448,0.027,0.696,0.077v3.824c-0.188-0.078-0.76-0.136-1.239-0.136
		c-1.333,0-2.254,1.236-2.254,2.924v6.299h-4.122V98.625z"/>
	<path fill="#FFFFFF" d="M228.513,102.511c0.12,2.041,1.441,2.641,2.978,2.641c1.126,0,2.49-0.517,3.486-0.993l0.093,3.037
		c-0.987,0.349-2.5,0.712-4.178,0.735c-4.827,0.033-6.228-3.436-6.228-6.69c0-3.485,1.945-6.584,5.55-6.584
		c3.736,0,5.499,3.154,5.499,6.601v1.254H228.513z M231.948,100.22v-0.377c0-1.708-0.436-2.512-1.67-2.512
		c-1.166,0-1.865,1.117-1.865,2.889H231.948z"/>
	<path fill="#FFFFFF" d="M237.711,97.532c0-0.952-0.081-1.986-0.145-2.593h3.874c0.062,0.519,0.094,1.427,0.094,2.126h0.043
		c0.231-0.688,1.028-2.41,3.364-2.41c2.05,0,3.629,1.301,3.629,4.084v8.907h-4.113v-7.627c0-1.227-0.36-1.815-1.143-1.815
		c-1.021,0-1.467,1.152-1.467,2.476v6.967h-4.137V97.532z"/>
	<path fill="#FFFFFF" d="M250.012,94.939h2.046v-2.663l4.126-1.373v4.036h2.321v2.984h-2.321v5.394c0,1.094,0.626,1.543,1.355,1.543
		c0.415,0,0.782-0.071,0.966-0.193l0.114,2.976c-0.539,0.11-1.549,0.287-2.73,0.287c-2.274,0-3.831-1.356-3.831-3.722v-6.285h-2.046
		V94.939z"/>
	<path fill="#FFFFFF" d="M260.683,89.36h4.11v3.664h-4.11V89.36z M260.683,94.939h4.11v12.708h-4.11V94.939z"/>
	<path fill="#FFFFFF" d="M270.833,102.511c0.104,2.041,1.438,2.641,2.97,2.641c1.14,0,2.486-0.517,3.496-0.993l0.096,3.037
		c-0.989,0.349-2.508,0.712-4.18,0.735c-4.841,0.033-6.23-3.436-6.23-6.69c0-3.485,1.962-6.584,5.545-6.584
		c3.732,0,5.51,3.154,5.51,6.601v1.254H270.833z M274.268,100.22v-0.377c0-1.708-0.438-2.512-1.669-2.512
		c-1.172,0-1.855,1.117-1.855,2.889H274.268z"/>
	<path fill="#FFFFFF" d="M280.029,97.532c0-0.952-0.074-1.986-0.147-2.593h3.878c0.078,0.519,0.091,1.427,0.091,2.126h0.062
		c0.221-0.688,1.019-2.41,3.362-2.41c2.046,0,3.631,1.301,3.631,4.084v8.907h-4.128v-7.627c0-1.227-0.346-1.815-1.138-1.815
		c-1.033,0-1.485,1.152-1.485,2.476v6.967h-4.126V97.532z"/>
	<path fill="#FFFFFF" d="M293.194,97.532c0-0.952-0.061-1.986-0.141-2.593h3.876c0.056,0.519,0.088,1.427,0.088,2.126h0.047
		c0.234-0.688,1.021-2.41,3.367-2.41c2.035,0,3.622,1.301,3.622,4.084v8.907h-4.12v-7.627c0-1.227-0.341-1.815-1.114-1.815
		c-1.051,0-1.505,1.152-1.505,2.476v6.967h-4.12V97.532z"/>
	<path fill="#FFFFFF" d="M309.907,102.511c0.101,2.041,1.436,2.641,2.98,2.641c1.122,0,2.476-0.517,3.472-0.993l0.095,3.037
		c-0.991,0.349-2.505,0.712-4.16,0.735c-4.841,0.033-6.238-3.436-6.238-6.69c0-3.485,1.937-6.584,5.546-6.584
		c3.752,0,5.511,3.154,5.511,6.601v1.254H309.907z M313.351,100.22v-0.377c0-1.708-0.439-2.512-1.684-2.512
		c-1.169,0-1.845,1.117-1.845,2.889H313.351z"/>
	<path fill="#FFFFFF" d="M59.984,125.285c-5.344,0-10.064,2.875-12.842,7.278c3.015,3.917,7.151,7.267,12.842,9.159
		c5.68-1.893,9.823-5.242,12.848-9.159C70.051,128.16,65.329,125.285,59.984,125.285"/>
	<path fill="#FFFFFF" d="M59.984,90.615c-7.259,0-14.25,0.891-20.929,2.28v12.493c0,3.793,0.493,16.201,7.119,25.839
		c2.905-4.324,7.561-7.198,12.847-7.525c0.652-1.307,1.361-2.77,2.049-4.379c-2.035-0.502-2.035-2.701-0.836-4.087
		c0.594-0.693,1.683-1.244,3.036-1.667c0.248-0.709,0.479-1.438,0.699-2.162c-1.133,0.363-2.189,0.787-2.952,1.205
		c-1.988,1.053-1.078,3.329-3.622,3.086c-2.536-0.264-2.646-2.709-1.354-4.194c1.217-1.378,4.413-2.289,7.928-2.404
		c-0.52-0.772-0.303-1.931,0.424-2.772c0.242-0.295,0.616-0.542,1.045-0.789c0.047-0.218,0.077-0.438,0.11-0.649
		c-0.432,0.182-0.836,0.369-1.172,0.531c-1.713,0.932-0.926,2.876-3.116,2.671c-2.181-0.221-2.258-2.324-1.158-3.617
		c0.929-1.057,3.202-1.772,5.82-1.986c0.192-1.598,0.313-3.196,0.308-4.775l0.594-0.179c0.289,0.938,0.294,2.691,0.088,4.888
		c2.024-0.052,4.188,0.192,6.043,0.841c-1.876,0.028-4.316,0.567-6.293,1.211c-0.022,0.195-0.047,0.371-0.069,0.572
		c2.784-0.982,7.229-1.117,10.65,0.047c-2.734,0.077-6.616,1.128-8.59,2.192c-0.971,0.508-1.136,1.358-1.504,1.95
		c1.336,0.157,2.674,0.407,3.872,0.819c-1.669,0.047-3.688,0.402-5.583,0.908c-0.171,0.749-0.342,1.483-0.539,2.229
		c3.119-0.586,7.102-0.49,10.301,0.602c-3.171,0.094-7.693,1.31-10.009,2.539c-1.35,0.74-1.348,2.048-2.046,2.698
		c-0.534,1.607-1.145,3.199-1.793,4.718c5.127,0.433,9.599,3.278,12.446,7.481c6.626-9.638,7.116-22.046,7.116-25.839V92.895
		C74.248,91.506,67.251,90.615,59.984,90.615 M65.852,97.134c-1.554,0.853-0.842,2.624-2.842,2.417
		c-1.992-0.198-2.06-2.104-1.045-3.284c1.582-1.818,7.525-2.555,11.72-1.13C71.204,95.214,67.656,96.176,65.852,97.134"/>
</g>
</svg>
