<?xml version="1.0" encoding="utf-8"?>
<!-- Generator: Adobe Illustrator 15.0.0, SVG Export Plug-In . SVG Version: 6.00 Build 0)  -->
<!DOCTYPE svg PUBLIC "-//W3C//DTD SVG 1.1//EN" "http://www.w3.org/Graphics/SVG/1.1/DTD/svg11.dtd">
<svg version="1.1" id="Layer_1" xmlns="http://www.w3.org/2000/svg" xmlns:xlink="http://www.w3.org/1999/xlink" x="0px" y="0px"
	 width="396px" height="256px" viewBox="-19 -12.5 396 256" enable-background="new -19 -12.5 396 256" xml:space="preserve">
<g>
	<g>
		<path fill="#FFFFFF" d="M115.756,147.349v-14.267c0-3.394-2.671-6.013-6.169-6.013c-2.298,0-3.597,1.037-4.126,1.697
			c-0.639-0.66-1.871-1.697-4.047-1.697c-3.597,0-6.236,2.654-6.236,6.013v14.267c0,0.633,0.364,0.989,0.992,0.989h2.388
			c0.632,0,0.992-0.356,0.992-0.989v-13.724c0-0.938,0.619-1.976,1.912-1.976c1.232,0,1.793,1.037,1.793,1.976v10.749
			c0,0.629,0.361,0.992,0.993,0.992h2.377c0.632,0,0.993-0.363,0.993-0.992v-10.749c0-0.938,0.555-1.976,1.969-1.976
			c1.27,0,1.797,1.078,1.797,1.976v13.724c0,0.633,0.361,0.989,0.993,0.989h2.387C115.395,148.338,115.756,147.979,115.756,147.349"
			/>
		<path fill="#FFFFFF" d="M153.604,141.806c0-4.369-3.741-6.308-8.068-6.488c0,0-2.975,0-2.975-2.026
			c0-0.722,0.721-1.981,2.93-1.981c0.903,0,2.026,0.404,3.02,1.351c0.405,0.36,0.947,0.45,1.397,0.134l1.938-1.395
			c0.495-0.361,0.495-0.948,0.138-1.354c-1.535-1.894-4.016-2.976-6.492-2.976c-5.135,0-7.615,3.246-7.615,6.222
			c0,3.56,2.703,5.993,7.57,6.262c0,0,3.335-0.09,3.335,2.253c0,1.31-0.948,2.703-3.291,2.703c-1.937,0-3.74-1.441-4.641-2.654
			c-0.316-0.453-0.813-0.588-1.308-0.271l-1.8,1.217c-0.498,0.36-0.587,0.899-0.271,1.397c1.35,2.161,4.056,4.593,8.02,4.593
			C150.63,148.788,153.604,145.726,153.604,141.806"/>
		<path fill="#FFFFFF" d="M167.232,141.267c0,1.575-1.175,3.241-3.291,3.241c-2.119,0-3.29-1.666-3.29-3.241
			c0-1.578,1.171-3.201,3.29-3.201C166.058,138.063,167.232,139.688,167.232,141.267 M172.055,147.349v-12.754
			c0-4.008-3.246-7.525-8.113-7.525c-2.026,0-4.012,0.544-5.949,1.621c-0.494,0.271-0.811,0.859-0.494,1.354l1.171,1.938
			c0.316,0.541,0.767,0.721,1.261,0.453c1.398-0.726,2.707-1.082,4.012-1.082c2.116,0,3.064,1.576,3.246,2.703
			c0.045,0.224-0.182,0.401-0.405,0.312c-0.766-0.312-1.848-0.584-2.841-0.584c-4.867,0-8.112,3.47-8.112,7.481
			c0,4.008,3.245,7.521,8.112,7.521c1.58,0,2.751-0.405,3.923-1.034c0.179-0.093,0.405-0.134,0.629,0.179
			c0.182,0.271,0.449,0.405,0.811,0.405h1.759C171.695,148.338,172.055,147.979,172.055,147.349"/>
		<path fill="#FFFFFF" d="M204.752,135.406c0,0.315-0.18,0.493-0.494,0.493h-5.589c-0.316,0-0.495-0.178-0.495-0.493v-0.812
			c0-1.575,1.172-3.245,3.288-3.245c2.118,0,3.29,1.67,3.29,3.245V135.406z M209.574,137.976v-3.381
			c0-4.008-3.244-7.521-8.111-7.521s-8.11,3.515-8.11,7.521v6.672c0,4.008,3.243,7.524,8.11,7.524c4.012,0,6.535-2.298,7.392-4.506
			c0.134-0.316,0.271-0.993-0.271-1.354l-2.116-1.395c-0.498-0.316-1.037-0.271-1.354,0.223c-0.854,1.443-1.666,2.748-3.649,2.748
			c-2.116,0-3.288-1.666-3.288-3.242v-0.811c0-0.316,0.179-0.498,0.495-0.498h8.92C208.854,139.957,209.574,139.235,209.574,137.976
			"/>
		<path fill="#FFFFFF" d="M179.364,134.595c0,1.577,1.171,3.246,3.291,3.246c2.115,0,3.287-1.669,3.287-3.246
			c0-1.576-1.172-3.244-3.287-3.244C180.533,131.351,179.364,133.019,179.364,134.595 M174.541,134.595
			c0-4.008,3.246-7.525,8.112-7.525c4.76,0,8.11,3.633,8.11,7.615c0,3.924-3.243,7.211-7.569,7.438
			c-0.316,0-0.496,0.179-0.496,0.498v0.957c0,0.312,0.18,0.495,0.496,0.495c4.291,0.089,7.512,3.144,7.561,7.417h0.01v0.297
			c0,4.009-3.243,7.525-8.109,7.525c-4.013,0-6.537-2.302-7.393-4.508c-0.134-0.314-0.271-0.992,0.269-1.353l2.119-1.398
			c0.498-0.312,1.037-0.268,1.354,0.228c0.855,1.441,1.666,2.748,3.65,2.748c2.115,0,3.287-1.666,3.287-3.242v-0.278h-0.007
			c-0.035-1.682-1.206-3.169-3.733-3.169h-3.288c-0.632,0-0.992-0.359-0.992-0.988v-5.5c0-0.632-0.227-1.127-0.54-1.395
			C175.895,139.146,174.541,137.254,174.541,134.595"/>
		<path fill="#FFFFFF" d="M226.761,145.769c0.315-0.401,0.405-1.123-0.089-1.482l-1.893-1.309c-0.584-0.402-1.127-0.402-1.666,0.182
			c-0.768,0.811-1.578,1.35-2.703,1.35c-2.119,0-3.291-1.666-3.291-3.244v-9.08c0-0.316,0.179-0.492,0.494-0.492h7.037
			c0.633,0,0.992-0.363,0.992-0.992v-2.188c0-0.632-0.359-0.992-0.992-0.992h-7.037c-0.315,0-0.494-0.179-0.494-0.494v-4.459
			c0-0.631-0.36-0.992-0.992-0.992h-2.838c-0.633,0-0.992,0.361-0.992,0.992v18.697c0,4.012,3.246,7.527,8.113,7.527
			C223.154,148.791,225.322,147.62,226.761,145.769"/>
		<path fill="#FFFFFF" d="M239.744,135.406c0,0.315-0.18,0.493-0.496,0.493h-5.588c-0.315,0-0.494-0.178-0.494-0.493v-0.812
			c0-1.575,1.172-3.245,3.287-3.245c2.119,0,3.291,1.67,3.291,3.245V135.406z M244.563,137.976v-3.381
			c0-4.008-3.243-7.521-8.108-7.521c-4.867,0-8.11,3.515-8.11,7.521v6.672c0,4.008,3.243,7.524,8.11,7.524
			c4.012,0,6.535-2.298,7.392-4.506c0.134-0.316,0.271-0.993-0.271-1.354l-2.116-1.395c-0.498-0.316-1.037-0.271-1.354,0.223
			c-0.854,1.443-1.669,2.748-3.65,2.748c-2.115,0-3.287-1.666-3.287-3.242v-0.811c0-0.316,0.179-0.498,0.494-0.498h8.92
			C243.846,139.957,244.563,139.235,244.563,137.976"/>
		<path fill="#FFFFFF" d="M262.822,141.806c0-4.369-3.729-6.308-8.053-6.488c0,0-2.968,0-2.968-2.026
			c0-0.722,0.718-1.981,2.924-1.981c0.899,0,2.026,0.404,3.017,1.351c0.404,0.36,0.943,0.45,1.392,0.134l1.938-1.395
			c0.49-0.361,0.49-0.948,0.133-1.354c-1.527-1.894-4.002-2.976-6.479-2.976c-5.129,0-7.6,3.246-7.6,6.222
			c0,3.56,2.697,5.993,7.555,6.262c0,0,3.329-0.09,3.329,2.253c0,1.31-0.945,2.703-3.284,2.703c-1.936,0-3.73-1.441-4.631-2.654
			c-0.316-0.453-0.812-0.588-1.303-0.271l-1.803,1.217c-0.492,0.36-0.582,0.899-0.27,1.397c1.352,2.161,4.047,4.593,8.005,4.593
			C259.854,148.788,262.822,145.726,262.822,141.806"/>
		<path fill="#FFFFFF" d="M118.759,141.267v-12.754c0-0.633,0.361-0.99,0.993-0.99h2.837c0.632,0,0.993,0.357,0.993,0.99v12.754
			c0,1.575,1.171,3.241,3.287,3.241c2.119,0,3.291-1.666,3.291-3.241v-12.754c0-0.633,0.36-0.99,0.989-0.99h2.841
			c0.632,0,0.989,0.357,0.989,0.99v12.754c0,4.012-3.243,7.521-8.11,7.521C122.005,148.788,118.759,145.276,118.759,141.267"/>
	</g>
	<g>
		<path fill="#FFFFFF" d="M147.208,103.483c4.391,0,7.947-3.562,7.947-7.946c0-4.393-3.557-7.95-7.947-7.95
			c-4.391,0-7.95,3.559-7.95,7.95C139.259,99.922,142.817,103.483,147.208,103.483"/>
		<path fill="#FFFFFF" d="M178.999,103.483c4.392,0,7.949-3.562,7.949-7.946c0-4.393-3.558-7.95-7.949-7.95
			c-4.39,0-7.946,3.559-7.946,7.95C171.053,99.922,174.61,103.483,178.999,103.483"/>
		<path fill="#FFFFFF" d="M210.795,103.483c4.391,0,7.949-3.562,7.949-7.946c0-4.393-3.56-7.95-7.949-7.95
			c-4.391,0-7.948,3.559-7.948,7.95C202.847,99.922,206.406,103.483,210.795,103.483"/>
		<path fill="#FFFFFF" d="M194.896,87.587c4.393,0,7.948-3.562,7.948-7.948c0-4.392-3.558-7.95-7.948-7.95
			c-4.39,0-7.947,3.56-7.947,7.95C186.949,84.025,190.507,87.587,194.896,87.587"/>
		<path fill="#FFFFFF" d="M163.104,87.587c4.391,0,7.949-3.562,7.949-7.948c0-4.392-3.559-7.95-7.949-7.95
			c-4.39,0-7.948,3.56-7.948,7.95C155.156,84.025,158.714,87.587,163.104,87.587"/>
	</g>
</g>
</svg>
