<?xml version="1.0" encoding="utf-8"?>
<!-- Generator: Adobe Illustrator 16.0.0, SVG Export Plug-In . SVG Version: 6.00 Build 0)  -->
<!DOCTYPE svg PUBLIC "-//W3C//DTD SVG 1.1//EN" "http://www.w3.org/Graphics/SVG/1.1/DTD/svg11.dtd">
<svg version="1.1" id="Layer_1" xmlns="http://www.w3.org/2000/svg" xmlns:xlink="http://www.w3.org/1999/xlink" x="0px" y="0px"
	 width="358px" height="231px" viewBox="0 0 358 231" enable-background="new 0 0 358 231" xml:space="preserve">
<g>
	<g>
		<path fill="#FFFFFF" d="M115.16,148.141v-14.267c0-3.393-2.671-6.013-6.169-6.013c-2.298,0-3.597,1.037-4.126,1.698
			c-0.639-0.661-1.871-1.698-4.047-1.698c-3.597,0-6.236,2.655-6.236,6.013v14.267c0,0.632,0.364,0.989,0.992,0.989h2.388
			c0.632,0,0.992-0.357,0.992-0.989v-13.724c0-0.938,0.619-1.976,1.912-1.976c1.232,0,1.793,1.037,1.793,1.976v10.749
			c0,0.629,0.361,0.992,0.993,0.992h2.377c0.632,0,0.993-0.363,0.993-0.992v-10.749c0-0.938,0.555-1.976,1.969-1.976
			c1.27,0,1.797,1.079,1.797,1.976v13.724c0,0.632,0.361,0.989,0.993,0.989h2.387C114.799,149.13,115.16,148.772,115.16,148.141"/>
		<path fill="#FFFFFF" d="M153.009,142.597c0-4.369-3.741-6.307-8.068-6.488c0,0-2.975,0-2.975-2.026
			c0-0.722,0.721-1.982,2.93-1.982c0.903,0,2.026,0.405,3.02,1.351c0.405,0.36,0.947,0.45,1.397,0.134l1.938-1.395
			c0.495-0.361,0.495-0.948,0.138-1.354c-1.535-1.893-4.016-2.975-6.492-2.975c-5.135,0-7.615,3.246-7.615,6.221
			c0,3.559,2.703,5.993,7.57,6.262c0,0,3.335-0.09,3.335,2.253c0,1.309-0.948,2.703-3.291,2.703c-1.937,0-3.74-1.442-4.641-2.655
			c-0.316-0.453-0.813-0.587-1.308-0.271l-1.8,1.217c-0.498,0.36-0.587,0.899-0.271,1.397c1.35,2.161,4.056,4.593,8.02,4.593
			C150.034,149.58,153.009,146.517,153.009,142.597"/>
		<path fill="#FFFFFF" d="M166.637,142.058c0,1.576-1.175,3.242-3.291,3.242c-2.119,0-3.29-1.666-3.29-3.242
			c0-1.577,1.171-3.201,3.29-3.201C165.462,138.856,166.637,140.48,166.637,142.058 M171.459,148.141v-12.754
			c0-4.008-3.246-7.525-8.113-7.525c-2.026,0-4.012,0.543-5.949,1.621c-0.494,0.271-0.811,0.859-0.494,1.354l1.171,1.938
			c0.316,0.542,0.767,0.721,1.261,0.453c1.398-0.725,2.707-1.082,4.012-1.082c2.116,0,3.064,1.577,3.246,2.703
			c0.045,0.224-0.182,0.402-0.405,0.312c-0.766-0.312-1.848-0.584-2.841-0.584c-4.867,0-8.112,3.47-8.112,7.481
			c0,4.009,3.245,7.522,8.112,7.522c1.58,0,2.751-0.405,3.923-1.034c0.179-0.093,0.405-0.134,0.629,0.179
			c0.182,0.271,0.449,0.405,0.811,0.405h1.759C171.099,149.13,171.459,148.772,171.459,148.141"/>
		<path fill="#FFFFFF" d="M204.156,136.198c0,0.315-0.179,0.494-0.494,0.494h-5.589c-0.316,0-0.495-0.179-0.495-0.494v-0.812
			c0-1.576,1.172-3.245,3.288-3.245c2.119,0,3.29,1.669,3.29,3.245V136.198z M208.979,138.767v-3.38
			c0-4.008-3.245-7.522-8.112-7.522s-8.11,3.515-8.11,7.522v6.671c0,4.009,3.243,7.525,8.11,7.525c4.012,0,6.536-2.298,7.392-4.506
			c0.134-0.316,0.271-0.993-0.271-1.354l-2.116-1.395c-0.498-0.316-1.037-0.271-1.354,0.223c-0.854,1.443-1.666,2.748-3.65,2.748
			c-2.116,0-3.288-1.666-3.288-3.242v-0.811c0-0.316,0.179-0.498,0.495-0.498h8.92C208.258,140.749,208.979,140.027,208.979,138.767
			"/>
		<path fill="#FFFFFF" d="M178.768,135.387c0,1.577,1.171,3.246,3.29,3.246c2.116,0,3.288-1.669,3.288-3.246
			c0-1.576-1.172-3.245-3.288-3.245C179.938,132.142,178.768,133.811,178.768,135.387 M173.945,135.387
			c0-4.008,3.246-7.525,8.112-7.525c4.759,0,8.11,3.632,8.11,7.615c0,3.923-3.243,7.21-7.57,7.437c-0.316,0-0.495,0.179-0.495,0.498
			v0.957c0,0.312,0.179,0.495,0.495,0.495c4.292,0.089,7.513,3.144,7.561,7.417h0.01v0.297c0,4.009-3.243,7.525-8.11,7.525
			c-4.012,0-6.536-2.301-7.392-4.507c-0.134-0.315-0.271-0.992,0.269-1.353l2.119-1.398c0.498-0.312,1.037-0.268,1.354,0.227
			c0.855,1.442,1.666,2.748,3.65,2.748c2.116,0,3.288-1.666,3.288-3.242v-0.278h-0.007c-0.035-1.682-1.206-3.169-3.734-3.169h-3.287
			c-0.632,0-0.992-0.36-0.992-0.989v-5.499c0-0.632-0.227-1.127-0.54-1.395C175.299,139.938,173.945,138.046,173.945,135.387"/>
		<path fill="#FFFFFF" d="M226.165,146.561c0.316-0.402,0.405-1.123-0.089-1.483l-1.893-1.309c-0.584-0.402-1.127-0.402-1.666,0.182
			c-0.767,0.811-1.577,1.35-2.703,1.35c-2.119,0-3.291-1.666-3.291-3.245v-9.08c0-0.316,0.179-0.492,0.495-0.492h7.037
			c0.632,0,0.992-0.363,0.992-0.992v-2.187c0-0.632-0.36-0.992-0.992-0.992h-7.037c-0.316,0-0.495-0.179-0.495-0.495v-4.458
			c0-0.632-0.36-0.993-0.992-0.993h-2.838c-0.632,0-0.992,0.361-0.992,0.993v18.696c0,4.012,3.246,7.528,8.113,7.528
			C222.559,149.583,224.726,148.412,226.165,146.561"/>
		<path fill="#FFFFFF" d="M239.148,136.198c0,0.315-0.179,0.494-0.495,0.494h-5.588c-0.316,0-0.495-0.179-0.495-0.494v-0.812
			c0-1.576,1.172-3.245,3.288-3.245c2.119,0,3.29,1.669,3.29,3.245V136.198z M243.968,138.767v-3.38
			c0-4.008-3.243-7.522-8.109-7.522c-4.867,0-8.11,3.515-8.11,7.522v6.671c0,4.009,3.243,7.525,8.11,7.525
			c4.012,0,6.536-2.298,7.392-4.506c0.134-0.316,0.271-0.993-0.271-1.354l-2.116-1.395c-0.498-0.316-1.037-0.271-1.354,0.223
			c-0.855,1.443-1.669,2.748-3.65,2.748c-2.116,0-3.288-1.666-3.288-3.242v-0.811c0-0.316,0.179-0.498,0.495-0.498h8.92
			C243.25,140.749,243.968,140.027,243.968,138.767"/>
		<path fill="#FFFFFF" d="M262.227,142.597c0-4.369-3.73-6.307-8.053-6.488c0,0-2.968,0-2.968-2.026
			c0-0.722,0.718-1.982,2.924-1.982c0.899,0,2.026,0.405,3.016,1.351c0.405,0.36,0.944,0.45,1.392,0.134l1.938-1.395
			c0.491-0.361,0.491-0.948,0.134-1.354c-1.528-1.893-4.002-2.975-6.479-2.975c-5.129,0-7.6,3.246-7.6,6.221
			c0,3.559,2.697,5.993,7.555,6.262c0,0,3.329-0.09,3.329,2.253c0,1.309-0.945,2.703-3.284,2.703c-1.935,0-3.731-1.442-4.631-2.655
			c-0.316-0.453-0.812-0.587-1.303-0.271l-1.803,1.217c-0.492,0.36-0.581,0.899-0.269,1.397c1.351,2.161,4.047,4.593,8.005,4.593
			C259.259,149.58,262.227,146.517,262.227,142.597"/>
		<path fill="#FFFFFF" d="M118.163,142.058v-12.754c0-0.632,0.361-0.989,0.993-0.989h2.837c0.632,0,0.993,0.357,0.993,0.989v12.754
			c0,1.576,1.171,3.242,3.287,3.242c2.119,0,3.291-1.666,3.291-3.242v-12.754c0-0.632,0.36-0.989,0.989-0.989h2.841
			c0.632,0,0.989,0.357,0.989,0.989v12.754c0,4.012-3.243,7.522-8.11,7.522C121.409,149.58,118.163,146.069,118.163,142.058"/>
	</g>
	<g>
		<path fill="#FFFFFF" d="M146.612,104.276c4.391,0,7.947-3.562,7.947-7.947c0-4.392-3.557-7.95-7.947-7.95
			c-4.391,0-7.95,3.559-7.95,7.95C138.663,100.714,142.221,104.276,146.612,104.276"/>
		<path fill="#FFFFFF" d="M178.403,104.276c4.392,0,7.949-3.562,7.949-7.947c0-4.392-3.558-7.95-7.949-7.95
			c-4.39,0-7.946,3.559-7.946,7.95C170.457,100.714,174.014,104.276,178.403,104.276"/>
		<path fill="#FFFFFF" d="M210.199,104.276c4.391,0,7.949-3.562,7.949-7.947c0-4.392-3.559-7.95-7.949-7.95
			c-4.39,0-7.948,3.559-7.948,7.95C202.251,100.714,205.81,104.276,210.199,104.276"/>
		<path fill="#FFFFFF" d="M194.301,88.379c4.392,0,7.948-3.561,7.948-7.948c0-4.392-3.557-7.95-7.948-7.95
			c-4.39,0-7.947,3.559-7.947,7.95C186.354,84.818,189.911,88.379,194.301,88.379"/>
		<path fill="#FFFFFF" d="M162.508,88.379c4.391,0,7.949-3.561,7.949-7.948c0-4.392-3.559-7.95-7.949-7.95
			c-4.39,0-7.948,3.559-7.948,7.95C154.56,84.818,158.118,88.379,162.508,88.379"/>
	</g>
</g>
</svg>
