<?xml version="1.0" encoding="utf-8"?>
<!-- Generator: Adobe Illustrator 15.0.0, SVG Export Plug-In . SVG Version: 6.00 Build 0)  -->
<!DOCTYPE svg PUBLIC "-//W3C//DTD SVG 1.1//EN" "http://www.w3.org/Graphics/SVG/1.1/DTD/svg11.dtd">
<svg version="1.1" id="Layer_1" xmlns="http://www.w3.org/2000/svg" xmlns:xlink="http://www.w3.org/1999/xlink" x="0px" y="0px"
	 width="396px" height="256px" viewBox="-19 -12.5 396 256" enable-background="new -19 -12.5 396 256" xml:space="preserve">
<g>
	<g>
		<g>
			<path opacity="0.9" fill="#FFFFFF" enable-background="new    " d="M124.062,89.084c-19.111-0.149-35.6,11.34-42.738,27.844
				H68.667c4.378-25.537,26.623-44.974,53.41-44.974c29.931,0,54.196,24.265,54.196,54.198c0,17.723-8.509,33.457-21.663,43.346
				c9.268-8.363,15.133-20.436,15.238-33.904C170.047,110.108,149.548,89.285,124.062,89.084z"/>
			<path opacity="0.4" fill="#FFFFFF" enable-background="new    " d="M124.062,89.084c-19.111-0.149-35.6,11.34-42.738,27.844
				H68.667c4.378-25.537,26.623-44.974,53.41-44.974c29.933,0,54.196,24.266,54.196,54.198c0,17.723-8.509,33.457-21.663,43.346
				c9.268-8.363,15.133-20.436,15.238-33.904C170.047,110.108,149.548,89.285,124.062,89.084z"/>
			<g>
				<path fill="#FFFFFF" d="M191.746,103.094h-3.16v7.132h-3.08V91.532h4.971c2.73,0,3.73,0.271,4.754,0.892
					c1.648,0.973,2.566,2.647,2.566,4.701C197.797,100.797,195.123,103.094,191.746,103.094z M193.609,94.961
					c-0.566-0.594-1.377-0.918-2.594-0.918h-2.432v6.564h2.432c2.297,0,3.352-1.08,3.352-3.295
					C194.367,96.286,194.123,95.502,193.609,94.961z"/>
				<path fill="#FFFFFF" d="M209.854,110.793c-0.838-0.324-1.541-0.973-1.863-1.838c-1.107,1.243-2.297,1.676-3.756,1.676
					c-3.135,0-4.539-1.729-4.539-4.107c0-3.16,2.379-4.754,6.756-4.754h0.918v-0.729c0-1.567-0.271-2.404-1.893-2.404
					c-1.756,0-3.646,1.243-4.08,1.567l-1.322-2.135c2.053-1.297,3.756-1.863,5.809-1.863c2.135,0,3.566,0.782,4.16,2.269
					c0.244,0.595,0.244,1.323,0.217,3.351l-0.055,3.916c-0.027,1.838,0.135,2.432,1.188,3.161L209.854,110.793z M206.773,103.77
					c-2.973,0-3.863,0.864-3.863,2.594c0,1.297,0.701,2.106,1.891,2.106c0.945,0,1.865-0.566,2.459-1.432l0.053-3.241
					C207.26,103.796,206.963,103.77,206.773,103.77z"/>
				<path fill="#FFFFFF" d="M217.17,110.524c-2.998,0-2.998-2.702-2.998-3.863V95.017c0-1.863-0.08-2.863-0.271-3.998l3.055-0.676
					c0.215,0.838,0.242,1.973,0.242,3.756v11.589c0,1.837,0.082,2.134,0.297,2.458c0.162,0.244,0.623,0.379,0.973,0.217l0.486,1.837
					C218.414,110.415,217.846,110.524,217.17,110.524z"/>
				<path fill="#FFFFFF" d="M224.211,110.524c-3,0-3-2.702-3-3.863V95.017c0-1.863-0.08-2.863-0.27-3.998l3.053-0.676
					c0.217,0.838,0.242,1.973,0.242,3.756v11.589c0,1.837,0.082,2.134,0.299,2.458c0.16,0.244,0.621,0.379,0.973,0.217l0.486,1.837
					C225.453,110.415,224.887,110.524,224.211,110.524z"/>
				<path fill="#FFFFFF" d="M237.756,110.793c-0.838-0.324-1.541-0.973-1.863-1.838c-1.107,1.243-2.297,1.676-3.756,1.676
					c-3.135,0-4.539-1.729-4.539-4.107c0-3.16,2.377-4.754,6.754-4.754h0.918v-0.729c0-1.567-0.27-2.404-1.891-2.404
					c-1.756,0-3.646,1.243-4.08,1.567l-1.322-2.135c2.053-1.297,3.754-1.863,5.809-1.863c2.135,0,3.564,0.782,4.16,2.269
					c0.242,0.595,0.242,1.323,0.217,3.351l-0.055,3.916c-0.025,1.838,0.135,2.432,1.188,3.161L237.756,110.793z M234.676,103.77
					c-2.973,0-3.863,0.864-3.863,2.594c0,1.297,0.703,2.106,1.893,2.106c0.943,0,1.863-0.566,2.459-1.432l0.053-3.241
					C235.162,103.796,234.865,103.77,234.676,103.77z"/>
				<path fill="#FFFFFF" d="M250.445,110.226c-0.135-0.297-0.16-0.486-0.242-1.053c-0.918,0.918-2,1.352-3.35,1.352
					c-3.484,0-5.594-2.729-5.594-6.997c0-4.295,2.379-7.213,5.674-7.213c1.162,0,2.107,0.378,2.945,1.242
					c-0.027-0.216-0.082-1.188-0.082-2.242v-4.998l2.945,0.46v14.696c0,2.701,0.16,4.079,0.432,4.754H250.445z M249.799,99.797
					c-0.676-0.729-1.486-1.106-2.486-1.106c-1.891,0-2.756,1.514-2.756,4.809c0,3.025,0.594,4.539,2.838,4.539
					c1.107,0,1.998-0.621,2.404-1.297V99.797z"/>
				<path fill="#FFFFFF" d="M258.211,94.531c-1.08,0-1.916-0.892-1.916-1.973c0-1.107,0.863-1.999,1.971-1.999
					c1.055,0,1.945,0.865,1.945,1.999C260.211,93.639,259.318,94.531,258.211,94.531z M256.727,110.226V96.773l2.998-0.54v13.993
					H256.727z"/>
				<path fill="#FFFFFF" d="M271.186,110.226v-9.076c0-1.864-0.434-2.378-1.566-2.378c-0.865,0-2.107,0.647-2.998,1.54v9.914h-2.918
					v-10.049c0-1.432-0.137-2.27-0.516-3.242l2.703-0.757c0.322,0.622,0.484,1.216,0.484,1.945c1.459-1.242,2.729-1.891,4.188-1.891
					c2.107,0,3.566,1.27,3.566,3.782v10.211L271.186,110.226L271.186,110.226z"/>
				<path fill="#FFFFFF" d="M283.281,110.577c-3.701,0-6.023-2.782-6.023-7.158c0-4.377,2.35-7.187,5.969-7.187
					c3.893,0,6.105,2.891,6.105,7.213C289.332,107.849,286.98,110.577,283.281,110.577z M283.254,98.475
					c-1.891,0-2.701,1.432-2.701,4.755c0,3.971,1,5.133,2.783,5.133c1.756,0,2.729-1.432,2.729-4.863
					C286.062,99.636,284.982,98.475,283.254,98.475z"/>
				<path fill="#FFFFFF" d="M188.867,115.528h1.76l5.396,16.31h-1.521l-1.688-5.303h-6.324l-1.688,5.303h-1.354L188.867,115.528z
					 M192.48,125.441l-2.781-8.703l-2.828,8.703H192.48z"/>
				<path fill="#FFFFFF" d="M204.965,130.27c-0.928,1.211-2.236,1.877-3.805,1.877c-1.379,0-2.33-0.547-2.781-1.379
					c-0.311-0.451-0.477-1.117-0.477-1.877v-8.822l1.262-0.262v8.703c0,1.02,0.213,1.615,0.734,2.02
					c0.381,0.311,0.977,0.521,1.617,0.521c1.236,0,2.521-0.783,3.328-2.139v-8.846l1.285-0.213v9.035
					c0,1.426,0.188,1.973,0.643,2.473l-0.855,0.855C205.346,131.695,205.084,131.195,204.965,130.27z"/>
				<path fill="#FFFFFF" d="M210.984,131.719c-0.643-0.379-0.928-1.094-0.928-2.188v-8.559h-1.545v-0.977h1.545
					c0-1.213,0.145-2.779,0.191-3.043l1.379-0.285c-0.072,0.238-0.262,1.762-0.262,3.33h2.924l-0.404,0.975h-2.566v8.227
					c0,1.311,0.402,1.949,1.592,1.949c0.547,0,0.904-0.096,1.236-0.262l0.191,0.855c-0.523,0.262-1.094,0.404-1.855,0.404
					C211.816,132.146,211.365,131.957,210.984,131.719z"/>
				<path fill="#FFFFFF" d="M216.549,130.127c-0.713-1.07-1.094-2.473-1.094-4.256c0-1.832,0.453-3.377,1.236-4.422
					c0.738-0.977,1.975-1.736,3.639-1.736c1.949,0,3.186,0.975,3.875,2.02c0.689,1.047,1.047,2.426,1.047,4.305
					c0,1.617-0.334,2.877-0.904,3.854c-0.736,1.307-2.115,2.211-3.971,2.211C218.547,132.1,217.287,131.244,216.549,130.127z
					 M223.23,129.223c0.428-0.977,0.57-1.711,0.57-3.09c0-1.689-0.238-2.881-0.689-3.734c-0.475-0.949-1.545-1.615-2.805-1.615
					c-1.309,0-2.307,0.689-2.734,1.473c-0.451,0.809-0.713,1.951-0.713,3.424c0,1.688,0.309,3.115,0.809,3.924
					c0.451,0.736,1.449,1.426,2.732,1.426C221.828,131.029,222.779,130.246,223.23,129.223z"/>
				<path fill="#FFFFFF" d="M235.164,129.889c-1.166-1.428-1.783-3.494-1.783-6.158c0-2.83,0.666-4.898,2.092-6.467
					c1.117-1.236,2.545-1.903,4.328-1.903c1.664,0,3.066,0.477,4.23,1.451l-0.594,0.856c-1.236-0.856-2.283-1.213-3.613-1.213
					c-1.855,0-3.4,0.951-4.113,2.664c-0.57,1.377-0.879,2.875-0.879,4.658c0,2.213,0.475,4.113,1.211,5.207
					c0.881,1.285,2.545,1.951,4.209,1.951c1.094,0,2.164-0.238,2.947-0.738v-5.561h-3.732l-0.262-1.119h5.277v7.395
					c-1.164,0.738-2.779,1.166-4.35,1.166C238.111,132.076,236.4,131.387,235.164,129.889z"/>
				<path fill="#FFFFFF" d="M247.957,122.494c0-1.568-0.309-2.234-0.379-2.377l1.283-0.334c0.07,0.119,0.402,0.785,0.355,1.998
					c0.334-0.5,0.785-0.975,1.283-1.332c0.689-0.523,1.355-0.736,2.021-0.736c0.311,0,0.619,0.094,0.643,0.119l-0.523,1.379
					c-0.119-0.049-0.332-0.096-0.521-0.096c-0.736,0-1.449,0.285-2.068,0.904c-0.617,0.617-0.809,1.045-0.809,1.996v7.82h-1.283
					v-9.342H247.957z"/>
				<path fill="#FFFFFF" d="M254.996,130.127c-0.713-1.07-1.094-2.473-1.094-4.256c0-1.832,0.451-3.377,1.236-4.422
					c0.738-0.977,1.975-1.736,3.639-1.736c1.949,0,3.186,0.975,3.875,2.02c0.689,1.047,1.047,2.426,1.047,4.305
					c0,1.617-0.334,2.877-0.904,3.854c-0.736,1.307-2.115,2.211-3.971,2.211C256.994,132.1,255.732,131.244,254.996,130.127z
					 M261.678,129.223c0.428-0.977,0.57-1.711,0.57-3.09c0-1.689-0.238-2.881-0.689-3.734c-0.475-0.949-1.545-1.615-2.805-1.615
					c-1.309,0-2.307,0.689-2.734,1.473c-0.451,0.809-0.713,1.951-0.713,3.424c0,1.688,0.311,3.115,0.809,3.924
					c0.451,0.736,1.449,1.426,2.732,1.426C260.273,131.029,261.227,130.246,261.678,129.223z"/>
				<path fill="#FFFFFF" d="M273.631,130.27c-0.928,1.211-2.236,1.877-3.805,1.877c-1.379,0-2.33-0.547-2.781-1.379
					c-0.311-0.451-0.477-1.117-0.477-1.877v-8.822l1.262-0.262v8.703c0,1.02,0.213,1.615,0.734,2.02
					c0.381,0.311,0.977,0.521,1.617,0.521c1.236,0,2.521-0.783,3.328-2.139v-8.846l1.285-0.213v9.035
					c0,1.426,0.189,1.973,0.643,2.473l-0.855,0.855C274.012,131.695,273.75,131.195,273.631,130.27z"/>
				<path fill="#FFFFFF" d="M278.457,122.398c0-1.615-0.213-2.258-0.285-2.377l1.332-0.238c0.047,0.096,0.166,0.619,0.166,1.783
					c0.928-1.141,2.164-1.783,3.52-1.783c1.188,0,2.354,0.5,3.113,1.451c0.881,1.094,1.285,2.52,1.285,4.637
					c0,1.9-0.334,3.113-0.928,4.088c-0.855,1.381-2.094,2.141-3.639,2.141c-1.213,0-2.473-0.547-3.279-1.475v5.85l-1.285,0.262
					V122.398z M285.59,129.389c0.381-0.76,0.643-1.877,0.643-3.375c0-1.594-0.285-2.949-0.762-3.758
					c-0.498-0.832-1.449-1.307-2.424-1.307c-1.236,0-2.402,0.594-3.305,1.76v6.68c0.832,1.07,1.996,1.641,3.064,1.641
					C284.021,131.029,285.066,130.387,285.59,129.389z"/>
			</g>
			<g>
				<path opacity="0.3" fill="#FFFFFF" enable-background="new    " d="M191.746,103.094h-3.16v7.132h-3.08V91.532h4.971
					c2.73,0,3.73,0.271,4.754,0.892c1.648,0.973,2.566,2.647,2.566,4.701C197.797,100.797,195.123,103.094,191.746,103.094z
					 M193.609,94.961c-0.566-0.594-1.377-0.918-2.594-0.918h-2.432v6.564h2.432c2.297,0,3.352-1.08,3.352-3.295
					C194.367,96.286,194.123,95.502,193.609,94.961z"/>
				<path opacity="0.3" fill="#FFFFFF" enable-background="new    " d="M209.854,110.793c-0.838-0.324-1.541-0.973-1.863-1.838
					c-1.107,1.243-2.297,1.676-3.756,1.676c-3.135,0-4.539-1.729-4.539-4.107c0-3.16,2.379-4.754,6.756-4.754h0.918v-0.729
					c0-1.567-0.271-2.404-1.893-2.404c-1.756,0-3.646,1.243-4.08,1.567l-1.322-2.135c2.053-1.297,3.756-1.863,5.809-1.863
					c2.135,0,3.566,0.782,4.16,2.269c0.244,0.595,0.244,1.323,0.217,3.351l-0.055,3.916c-0.027,1.838,0.135,2.432,1.188,3.161
					L209.854,110.793z M206.773,103.77c-2.973,0-3.863,0.864-3.863,2.594c0,1.297,0.701,2.106,1.891,2.106
					c0.945,0,1.865-0.566,2.459-1.432l0.053-3.241C207.26,103.796,206.963,103.77,206.773,103.77z"/>
				<path opacity="0.3" fill="#FFFFFF" enable-background="new    " d="M217.17,110.524c-2.998,0-2.998-2.702-2.998-3.863V95.017
					c0-1.863-0.08-2.863-0.271-3.998l3.055-0.676c0.215,0.838,0.242,1.973,0.242,3.756v11.589c0,1.837,0.082,2.134,0.297,2.458
					c0.162,0.244,0.623,0.379,0.973,0.217l0.486,1.837C218.414,110.415,217.846,110.524,217.17,110.524z"/>
				<path opacity="0.3" fill="#FFFFFF" enable-background="new    " d="M224.211,110.524c-3,0-3-2.702-3-3.863V95.017
					c0-1.863-0.08-2.863-0.27-3.998l3.053-0.676c0.217,0.838,0.242,1.973,0.242,3.756v11.589c0,1.837,0.082,2.134,0.299,2.458
					c0.16,0.244,0.621,0.379,0.973,0.217l0.486,1.837C225.453,110.415,224.887,110.524,224.211,110.524z"/>
				<path opacity="0.3" fill="#FFFFFF" enable-background="new    " d="M237.756,110.793c-0.838-0.324-1.541-0.973-1.863-1.838
					c-1.107,1.243-2.297,1.676-3.756,1.676c-3.135,0-4.539-1.729-4.539-4.107c0-3.16,2.377-4.754,6.754-4.754h0.918v-0.729
					c0-1.567-0.27-2.404-1.891-2.404c-1.756,0-3.646,1.243-4.08,1.567l-1.322-2.135c2.053-1.297,3.754-1.863,5.809-1.863
					c2.135,0,3.564,0.782,4.16,2.269c0.242,0.595,0.242,1.323,0.217,3.351l-0.055,3.916c-0.025,1.838,0.135,2.432,1.188,3.161
					L237.756,110.793z M234.676,103.77c-2.973,0-3.863,0.864-3.863,2.594c0,1.297,0.703,2.106,1.893,2.106
					c0.943,0,1.863-0.566,2.459-1.432l0.053-3.241C235.162,103.796,234.865,103.77,234.676,103.77z"/>
				<path opacity="0.3" fill="#FFFFFF" enable-background="new    " d="M250.445,110.226c-0.135-0.297-0.16-0.486-0.242-1.053
					c-0.918,0.918-2,1.352-3.35,1.352c-3.484,0-5.594-2.729-5.594-6.997c0-4.295,2.379-7.213,5.674-7.213
					c1.162,0,2.107,0.378,2.945,1.242c-0.027-0.216-0.082-1.188-0.082-2.242v-4.998l2.945,0.46v14.696
					c0,2.701,0.16,4.079,0.432,4.754H250.445z M249.799,99.797c-0.676-0.729-1.486-1.106-2.486-1.106
					c-1.891,0-2.756,1.514-2.756,4.809c0,3.025,0.594,4.539,2.838,4.539c1.107,0,1.998-0.621,2.404-1.297V99.797z"/>
				<path opacity="0.3" fill="#FFFFFF" enable-background="new    " d="M258.211,94.531c-1.08,0-1.916-0.892-1.916-1.973
					c0-1.107,0.863-1.999,1.971-1.999c1.055,0,1.945,0.865,1.945,1.999C260.211,93.639,259.318,94.531,258.211,94.531z
					 M256.727,110.226V96.773l2.998-0.54v13.993H256.727z"/>
				<path opacity="0.3" fill="#FFFFFF" enable-background="new    " d="M271.186,110.226v-9.076c0-1.864-0.434-2.378-1.566-2.378
					c-0.865,0-2.107,0.647-2.998,1.54v9.914h-2.918v-10.049c0-1.432-0.137-2.27-0.516-3.242l2.703-0.757
					c0.322,0.622,0.484,1.216,0.484,1.945c1.459-1.242,2.729-1.891,4.188-1.891c2.107,0,3.566,1.27,3.566,3.782v10.211
					L271.186,110.226L271.186,110.226z"/>
				<path opacity="0.3" fill="#FFFFFF" enable-background="new    " d="M283.281,110.577c-3.701,0-6.023-2.782-6.023-7.158
					c0-4.377,2.35-7.187,5.969-7.187c3.893,0,6.105,2.891,6.105,7.213C289.332,107.849,286.98,110.577,283.281,110.577z
					 M283.254,98.475c-1.891,0-2.701,1.432-2.701,4.755c0,3.971,1,5.133,2.783,5.133c1.756,0,2.729-1.432,2.729-4.863
					C286.062,99.636,284.982,98.475,283.254,98.475z"/>
			</g>
		</g>
	</g>
	<path fill="#FFFFFF" d="M180.197,61.502l-60.958,62.947c0,0-2.576,2.947,0,5.324c1.68,1.549,3.234,1.078,4.112,0.561
		c0.468-0.273,0.743-0.561,0.743-0.561l56.679-67.854L180.197,61.502z"/>
</g>
</svg>
