<?xml version="1.0" encoding="utf-8"?>
<!-- Generator: Adobe Illustrator 16.0.0, SVG Export Plug-In . SVG Version: 6.00 Build 0)  -->
<!DOCTYPE svg PUBLIC "-//W3C//DTD SVG 1.1//EN" "http://www.w3.org/Graphics/SVG/1.1/DTD/svg11.dtd">
<svg version="1.1" id="Layer_1" xmlns="http://www.w3.org/2000/svg" xmlns:xlink="http://www.w3.org/1999/xlink" x="0px" y="0px"
	 width="358px" height="231px" viewBox="0 0 358 231" enable-background="new 0 0 358 231" xml:space="preserve">
<g>
	<g>
		<g>
			<path opacity="0.9" fill="#FFFFFF" d="M124.352,87.925c-19.111-0.149-35.6,11.34-42.738,27.844H68.958
				c4.378-25.537,26.623-44.974,53.41-44.974c29.931,0,54.196,24.265,54.196,54.197c0,17.723-8.509,33.457-21.663,43.346
				c9.268-8.363,15.133-20.436,15.238-33.904C170.338,108.948,149.839,88.125,124.352,87.925z"/>
			<path opacity="0.4" fill="#FFFFFF" d="M124.352,87.925c-19.111-0.149-35.6,11.34-42.738,27.844H68.958
				c4.378-25.537,26.623-44.974,53.41-44.974c29.933,0,54.196,24.266,54.196,54.197c0,17.723-8.509,33.457-21.663,43.346
				c9.268-8.363,15.133-20.436,15.238-33.904C170.338,108.948,149.839,88.125,124.352,87.925z"/>
			<g>
				<path fill="#FFFFFF" d="M192.037,101.934h-3.161v7.132h-3.08V90.372h4.972c2.729,0,3.729,0.271,4.754,0.892
					c1.648,0.973,2.566,2.647,2.566,4.701C198.088,99.638,195.414,101.934,192.037,101.934z M193.9,93.802
					c-0.566-0.594-1.377-0.918-2.593-0.918h-2.432v6.564h2.432c2.296,0,3.35-1.08,3.35-3.295
					C194.657,95.126,194.414,94.343,193.9,93.802z"/>
				<path fill="#FFFFFF" d="M210.145,109.634c-0.838-0.324-1.541-0.973-1.865-1.838c-1.107,1.243-2.296,1.676-3.755,1.676
					c-3.134,0-4.538-1.729-4.538-4.107c0-3.16,2.377-4.754,6.754-4.754h0.918v-0.729c0-1.567-0.27-2.404-1.891-2.404
					c-1.757,0-3.647,1.243-4.08,1.567l-1.323-2.135c2.053-1.297,3.755-1.863,5.809-1.863c2.134,0,3.565,0.782,4.16,2.269
					c0.243,0.595,0.243,1.323,0.216,3.351l-0.054,3.916c-0.027,1.838,0.135,2.432,1.188,3.161L210.145,109.634z M207.064,102.61
					c-2.973,0-3.863,0.864-3.863,2.594c0,1.297,0.702,2.106,1.891,2.106c0.945,0,1.864-0.566,2.459-1.432l0.053-3.241
					C207.551,102.637,207.254,102.61,207.064,102.61z"/>
				<path fill="#FFFFFF" d="M217.461,109.364c-2.998,0-2.998-2.702-2.998-3.863V93.857c0-1.863-0.081-2.863-0.271-3.998l3.053-0.676
					c0.216,0.838,0.243,1.973,0.243,3.756v11.589c0,1.837,0.082,2.134,0.297,2.458c0.162,0.244,0.622,0.379,0.973,0.217l0.486,1.837
					C218.704,109.255,218.137,109.364,217.461,109.364z"/>
				<path fill="#FFFFFF" d="M224.502,109.364c-3,0-3-2.702-3-3.863V93.857c0-1.863-0.08-2.863-0.27-3.998l3.053-0.676
					c0.217,0.838,0.243,1.973,0.243,3.756v11.589c0,1.837,0.081,2.134,0.297,2.458c0.162,0.244,0.622,0.379,0.974,0.217l0.485,1.837
					C225.744,109.255,225.177,109.364,224.502,109.364z"/>
				<path fill="#FFFFFF" d="M238.047,109.634c-0.838-0.324-1.541-0.973-1.864-1.838c-1.108,1.243-2.297,1.676-3.756,1.676
					c-3.134,0-4.538-1.729-4.538-4.107c0-3.16,2.377-4.754,6.754-4.754h0.918v-0.729c0-1.567-0.27-2.404-1.891-2.404
					c-1.756,0-3.647,1.243-4.08,1.567l-1.323-2.135c2.053-1.297,3.755-1.863,5.809-1.863c2.134,0,3.565,0.782,4.16,2.269
					c0.243,0.595,0.243,1.323,0.216,3.351l-0.054,3.916c-0.026,1.838,0.135,2.432,1.188,3.161L238.047,109.634z M234.967,102.61
					c-2.973,0-3.863,0.864-3.863,2.594c0,1.297,0.702,2.106,1.891,2.106c0.945,0,1.864-0.566,2.459-1.432l0.053-3.241
					C235.453,102.637,235.156,102.61,234.967,102.61z"/>
				<path fill="#FFFFFF" d="M250.737,109.066c-0.136-0.297-0.162-0.486-0.243-1.053c-0.919,0.918-2,1.351-3.35,1.351
					c-3.485,0-5.593-2.729-5.593-6.997c0-4.295,2.378-7.213,5.674-7.213c1.161,0,2.106,0.378,2.944,1.242
					c-0.027-0.216-0.081-1.188-0.081-2.242v-4.998l2.944,0.46v14.696c0,2.701,0.162,4.079,0.433,4.754H250.737z M250.089,98.638
					c-0.675-0.729-1.485-1.107-2.485-1.107c-1.892,0-2.756,1.514-2.756,4.809c0,3.025,0.594,4.539,2.837,4.539
					c1.108,0,1.999-0.621,2.404-1.297V98.638z"/>
				<path fill="#FFFFFF" d="M258.502,93.371c-1.08,0-1.917-0.892-1.917-1.973c0-1.107,0.864-1.999,1.972-1.999
					c1.054,0,1.945,0.865,1.945,1.999C260.502,92.479,259.61,93.371,258.502,93.371z M257.017,109.066V95.613l2.999-0.54v13.993
					H257.017z"/>
				<path fill="#FFFFFF" d="M271.476,109.066V99.99c0-1.864-0.433-2.378-1.567-2.378c-0.864,0-2.107,0.648-2.998,1.54v9.914h-2.918
					V99.017c0-1.432-0.135-2.27-0.514-3.242l2.702-0.757c0.323,0.622,0.485,1.216,0.485,1.945c1.459-1.242,2.729-1.891,4.188-1.891
					c2.107,0,3.566,1.27,3.566,3.782v10.211H271.476z"/>
				<path fill="#FFFFFF" d="M283.571,109.417c-3.7,0-6.023-2.782-6.023-7.158c0-4.377,2.35-7.187,5.97-7.187
					c3.891,0,6.105,2.891,6.105,7.213C289.623,106.689,287.272,109.417,283.571,109.417z M283.545,97.315
					c-1.891,0-2.701,1.432-2.701,4.755c0,3.971,0.999,5.133,2.782,5.133c1.756,0,2.729-1.432,2.729-4.863
					C286.354,98.476,285.273,97.315,283.545,97.315z"/>
				<path fill="#FFFFFF" d="M189.158,114.368h1.76l5.397,16.31h-1.522l-1.688-5.303h-6.324l-1.688,5.303h-1.354L189.158,114.368z
					 M192.772,124.281l-2.782-8.702l-2.828,8.702H192.772z"/>
				<path fill="#FFFFFF" d="M205.255,129.109c-0.927,1.211-2.235,1.877-3.804,1.877c-1.379,0-2.33-0.547-2.782-1.379
					c-0.309-0.451-0.476-1.117-0.476-1.877v-8.822l1.261-0.262v8.703c0,1.021,0.214,1.617,0.736,2.021
					c0.38,0.309,0.976,0.521,1.617,0.521c1.236,0,2.521-0.783,3.328-2.139v-8.846l1.284-0.213v9.035
					c0,1.426,0.189,1.973,0.643,2.473l-0.856,0.855C205.636,130.535,205.374,130.035,205.255,129.109z"/>
				<path fill="#FFFFFF" d="M211.275,130.559c-0.642-0.379-0.927-1.094-0.927-2.188v-8.559h-1.546v-0.975h1.546
					c0-1.213,0.143-2.781,0.19-3.043l1.379-0.285c-0.071,0.237-0.262,1.76-0.262,3.329h2.924l-0.403,0.975h-2.567v8.227
					c0,1.309,0.403,1.949,1.592,1.949c0.547,0,0.904-0.096,1.236-0.262l0.191,0.855c-0.523,0.262-1.094,0.404-1.855,0.404
					C212.107,130.986,211.656,130.797,211.275,130.559z"/>
				<path fill="#FFFFFF" d="M216.84,128.967c-0.713-1.07-1.094-2.473-1.094-4.256c0-1.832,0.453-3.377,1.237-4.422
					c0.737-0.977,1.974-1.736,3.638-1.736c1.949,0,3.186,0.975,3.875,2.02c0.689,1.047,1.047,2.426,1.047,4.305
					c0,1.617-0.334,2.877-0.904,3.852c-0.736,1.307-2.115,2.211-3.971,2.211C218.838,130.939,217.578,130.084,216.84,128.967z
					 M223.521,128.062c0.428-0.975,0.57-1.711,0.57-3.09c0-1.689-0.237-2.879-0.689-3.734c-0.475-0.949-1.545-1.615-2.805-1.615
					c-1.309,0-2.307,0.689-2.734,1.473c-0.452,0.809-0.713,1.951-0.713,3.424c0,1.688,0.309,3.115,0.808,3.924
					c0.452,0.736,1.45,1.426,2.733,1.426C222.119,129.869,223.07,129.086,223.521,128.062z"/>
				<path fill="#FFFFFF" d="M235.454,128.729c-1.165-1.428-1.782-3.494-1.782-6.158c0-2.83,0.665-4.898,2.092-6.467
					c1.117-1.237,2.544-1.903,4.327-1.903c1.664,0,3.067,0.477,4.231,1.451l-0.594,0.856c-1.236-0.856-2.283-1.213-3.613-1.213
					c-1.855,0-3.4,0.952-4.113,2.665c-0.571,1.377-0.88,2.875-0.88,4.658c0,2.213,0.476,4.113,1.212,5.207
					c0.88,1.285,2.544,1.951,4.209,1.951c1.094,0,2.163-0.238,2.947-0.738v-5.562h-3.732l-0.262-1.119h5.278v7.395
					c-1.165,0.738-2.781,1.166-4.351,1.166C238.402,130.916,236.691,130.227,235.454,128.729z"/>
				<path fill="#FFFFFF" d="M248.248,121.334c0-1.568-0.309-2.234-0.38-2.377l1.284-0.334c0.07,0.119,0.403,0.785,0.355,1.998
					c0.334-0.5,0.785-0.975,1.284-1.332c0.689-0.523,1.355-0.736,2.021-0.736c0.31,0,0.619,0.094,0.643,0.119l-0.523,1.379
					c-0.119-0.049-0.332-0.096-0.523-0.096c-0.736,0-1.449,0.285-2.068,0.904c-0.617,0.617-0.808,1.045-0.808,1.996v7.822h-1.284
					V121.334z"/>
				<path fill="#FFFFFF" d="M255.287,128.967c-0.713-1.07-1.094-2.473-1.094-4.256c0-1.832,0.452-3.377,1.236-4.422
					c0.738-0.977,1.975-1.736,3.639-1.736c1.949,0,3.186,0.975,3.875,2.02c0.689,1.047,1.046,2.426,1.046,4.305
					c0,1.617-0.333,2.877-0.903,3.852c-0.736,1.307-2.116,2.211-3.971,2.211C257.285,130.939,256.024,130.084,255.287,128.967z
					 M261.969,128.062c0.428-0.975,0.57-1.711,0.57-3.09c0-1.689-0.238-2.879-0.689-3.734c-0.476-0.949-1.546-1.615-2.806-1.615
					c-1.308,0-2.306,0.689-2.733,1.473c-0.452,0.809-0.714,1.951-0.714,3.424c0,1.688,0.31,3.115,0.808,3.924
					c0.452,0.736,1.451,1.426,2.734,1.426C260.565,129.869,261.518,129.086,261.969,128.062z"/>
				<path fill="#FFFFFF" d="M273.921,129.109c-0.927,1.211-2.235,1.877-3.804,1.877c-1.379,0-2.33-0.547-2.782-1.379
					c-0.309-0.451-0.476-1.117-0.476-1.877v-8.822l1.261-0.262v8.703c0,1.021,0.214,1.617,0.736,2.021
					c0.38,0.309,0.976,0.521,1.617,0.521c1.236,0,2.521-0.783,3.328-2.139v-8.846l1.284-0.213v9.035c0,1.426,0.19,1.973,0.643,2.473
					l-0.856,0.855C274.302,130.535,274.04,130.035,273.921,129.109z"/>
				<path fill="#FFFFFF" d="M278.748,121.238c0-1.615-0.214-2.258-0.285-2.377l1.331-0.238c0.048,0.096,0.167,0.619,0.167,1.783
					c0.927-1.141,2.163-1.783,3.519-1.783c1.188,0,2.354,0.5,3.114,1.451c0.88,1.094,1.284,2.52,1.284,4.637
					c0,1.9-0.333,3.113-0.928,4.088c-0.855,1.381-2.092,2.141-3.637,2.141c-1.213,0-2.474-0.547-3.281-1.475v5.85l-1.284,0.262
					V121.238z M285.881,128.229c0.38-0.76,0.642-1.877,0.642-3.375c0-1.594-0.285-2.949-0.761-3.758
					c-0.499-0.832-1.45-1.307-2.425-1.307c-1.236,0-2.401,0.594-3.305,1.76v6.68c0.832,1.07,1.997,1.641,3.066,1.641
					C284.312,129.869,285.357,129.227,285.881,128.229z"/>
			</g>
			<g>
				<path opacity="0.3" fill="#FFFFFF" d="M192.037,101.934h-3.161v7.132h-3.08V90.372h4.972c2.729,0,3.729,0.271,4.754,0.892
					c1.648,0.973,2.566,2.647,2.566,4.701C198.088,99.638,195.414,101.934,192.037,101.934z M193.9,93.802
					c-0.566-0.594-1.377-0.918-2.593-0.918h-2.432v6.564h2.432c2.296,0,3.35-1.08,3.35-3.295
					C194.657,95.126,194.414,94.343,193.9,93.802z"/>
				<path opacity="0.3" fill="#FFFFFF" d="M210.145,109.634c-0.838-0.324-1.541-0.973-1.865-1.838
					c-1.107,1.243-2.296,1.676-3.755,1.676c-3.134,0-4.538-1.729-4.538-4.107c0-3.16,2.377-4.754,6.754-4.754h0.918v-0.729
					c0-1.567-0.27-2.404-1.891-2.404c-1.757,0-3.647,1.243-4.08,1.567l-1.323-2.135c2.053-1.297,3.755-1.863,5.809-1.863
					c2.134,0,3.565,0.782,4.16,2.269c0.243,0.595,0.243,1.323,0.216,3.351l-0.054,3.916c-0.027,1.838,0.135,2.432,1.188,3.161
					L210.145,109.634z M207.064,102.61c-2.973,0-3.863,0.864-3.863,2.594c0,1.297,0.702,2.106,1.891,2.106
					c0.945,0,1.864-0.566,2.459-1.432l0.053-3.241C207.551,102.637,207.254,102.61,207.064,102.61z"/>
				<path opacity="0.3" fill="#FFFFFF" d="M217.461,109.364c-2.998,0-2.998-2.702-2.998-3.863V93.857
					c0-1.863-0.081-2.863-0.271-3.998l3.053-0.676c0.216,0.838,0.243,1.973,0.243,3.756v11.589c0,1.837,0.082,2.134,0.297,2.458
					c0.162,0.244,0.622,0.379,0.973,0.217l0.486,1.837C218.704,109.255,218.137,109.364,217.461,109.364z"/>
				<path opacity="0.3" fill="#FFFFFF" d="M224.502,109.364c-3,0-3-2.702-3-3.863V93.857c0-1.863-0.08-2.863-0.27-3.998l3.053-0.676
					c0.217,0.838,0.243,1.973,0.243,3.756v11.589c0,1.837,0.081,2.134,0.297,2.458c0.162,0.244,0.622,0.379,0.974,0.217l0.485,1.837
					C225.744,109.255,225.177,109.364,224.502,109.364z"/>
				<path opacity="0.3" fill="#FFFFFF" d="M238.047,109.634c-0.838-0.324-1.541-0.973-1.864-1.838
					c-1.108,1.243-2.297,1.676-3.756,1.676c-3.134,0-4.538-1.729-4.538-4.107c0-3.16,2.377-4.754,6.754-4.754h0.918v-0.729
					c0-1.567-0.27-2.404-1.891-2.404c-1.756,0-3.647,1.243-4.08,1.567l-1.323-2.135c2.053-1.297,3.755-1.863,5.809-1.863
					c2.134,0,3.565,0.782,4.16,2.269c0.243,0.595,0.243,1.323,0.216,3.351l-0.054,3.916c-0.026,1.838,0.135,2.432,1.188,3.161
					L238.047,109.634z M234.967,102.61c-2.973,0-3.863,0.864-3.863,2.594c0,1.297,0.702,2.106,1.891,2.106
					c0.945,0,1.864-0.566,2.459-1.432l0.053-3.241C235.453,102.637,235.156,102.61,234.967,102.61z"/>
				<path opacity="0.3" fill="#FFFFFF" d="M250.737,109.066c-0.136-0.297-0.162-0.486-0.243-1.053c-0.919,0.918-2,1.351-3.35,1.351
					c-3.485,0-5.593-2.729-5.593-6.997c0-4.295,2.378-7.213,5.674-7.213c1.161,0,2.106,0.378,2.944,1.242
					c-0.027-0.216-0.081-1.188-0.081-2.242v-4.998l2.944,0.46v14.696c0,2.701,0.162,4.079,0.433,4.754H250.737z M250.089,98.638
					c-0.675-0.729-1.485-1.107-2.485-1.107c-1.892,0-2.756,1.514-2.756,4.809c0,3.025,0.594,4.539,2.837,4.539
					c1.108,0,1.999-0.621,2.404-1.297V98.638z"/>
				<path opacity="0.3" fill="#FFFFFF" d="M258.502,93.371c-1.08,0-1.917-0.892-1.917-1.973c0-1.107,0.864-1.999,1.972-1.999
					c1.054,0,1.945,0.865,1.945,1.999C260.502,92.479,259.61,93.371,258.502,93.371z M257.017,109.066V95.613l2.999-0.54v13.993
					H257.017z"/>
				<path opacity="0.3" fill="#FFFFFF" d="M271.476,109.066V99.99c0-1.864-0.433-2.378-1.567-2.378c-0.864,0-2.107,0.648-2.998,1.54
					v9.914h-2.918V99.017c0-1.432-0.135-2.27-0.514-3.242l2.702-0.757c0.323,0.622,0.485,1.216,0.485,1.945
					c1.459-1.242,2.729-1.891,4.188-1.891c2.107,0,3.566,1.27,3.566,3.782v10.211H271.476z"/>
				<path opacity="0.3" fill="#FFFFFF" d="M283.571,109.417c-3.7,0-6.023-2.782-6.023-7.158c0-4.377,2.35-7.187,5.97-7.187
					c3.891,0,6.105,2.891,6.105,7.213C289.623,106.689,287.272,109.417,283.571,109.417z M283.545,97.315
					c-1.891,0-2.701,1.432-2.701,4.755c0,3.971,0.999,5.133,2.782,5.133c1.756,0,2.729-1.432,2.729-4.863
					C286.354,98.476,285.273,97.315,283.545,97.315z"/>
			</g>
		</g>
	</g>
	<path fill="#FFFFFF" d="M180.488,60.343l-60.958,62.946c0,0-2.576,2.947,0,5.324c1.68,1.549,3.234,1.078,4.112,0.562
		c0.468-0.275,0.743-0.562,0.743-0.562l56.679-67.853L180.488,60.343z"/>
</g>
</svg>
