<?xml version="1.0" encoding="utf-8"?>
<!-- Generator: Adobe Illustrator 15.0.0, SVG Export Plug-In . SVG Version: 6.00 Build 0)  -->
<!DOCTYPE svg PUBLIC "-//W3C//DTD SVG 1.1//EN" "http://www.w3.org/Graphics/SVG/1.1/DTD/svg11.dtd">
<svg version="1.1" id="Layer_1" xmlns="http://www.w3.org/2000/svg" xmlns:xlink="http://www.w3.org/1999/xlink" x="0px" y="0px"
	 width="396px" height="256px" viewBox="0 0 396 256" enable-background="new 0 0 396 256" xml:space="preserve">
<g>
	<path fill="#FFFFFF" d="M177.184,114.085h-7.227v9.882h7.227c3.546,0,6.173-1.453,6.173-4.999
		C183.356,115.421,180.729,114.085,177.184,114.085z"/>
	<path fill="#FFFFFF" d="M266.232,114.612h-4.533v27.058h4.533c8.931,0,12.676-4.6,12.676-13.531
		C278.908,119.208,275.163,114.612,266.232,114.612z"/>
	<path fill="#FFFFFF" d="M93.881,92.542v70.917h208.238V92.542H93.881z M185.195,150.732l-10.77-18.227h-4.402v18.227h-11.229
		v-45.185h19.702c10.771,0,16.549,4.728,16.549,13.067c0,8.473-5.908,12.049-9.061,12.84l12.084,19.277H185.195z M241.937,143.904
		c0,0-5.781,7.881-19.308,7.881c-13.529,0-21.739-9.195-21.739-23.776c0-14.58,8.865-23.381,21.999-23.381
		c13.137,0,17.537,8.406,18.127,9.853l-9.523,4.468c-0.591-1.446-2.954-5.256-8.471-5.256c-5.516,0-10.444,3.81-10.444,14.447
		c0,10.64,4.666,14.451,10.312,14.451c5.649,0,7.948-2.496,7.948-2.496v-7.486h-9.129v-8.737h20.229V143.904z M268.071,150.732
		h-17.603v-45.185h17.603c14.184,0,22.592,8.407,22.592,22.591C290.663,142.326,282.255,150.732,268.071,150.732z"/>
</g>
</svg>
