<?xml version="1.0" encoding="utf-8"?>
<!-- Generator: Adobe Illustrator 15.0.0, SVG Export Plug-In . SVG Version: 6.00 Build 0)  -->
<!DOCTYPE svg PUBLIC "-//W3C//DTD SVG 1.1//EN" "http://www.w3.org/Graphics/SVG/1.1/DTD/svg11.dtd">
<svg version="1.1" id="Layer_1" xmlns="http://www.w3.org/2000/svg" xmlns:xlink="http://www.w3.org/1999/xlink" x="0px" y="0px"
	 width="396px" height="256px" viewBox="-19 -12.5 396 256" enable-background="new -19 -12.5 396 256" xml:space="preserve">
<g>
	<path fill="#FFFFFF" d="M145.837,144.331c3.071,0,6.001,0.138,13.399,0.562l0.557-0.562v-2.653l-0.557-0.557
		c-7.259-0.559-8.793-0.839-10.188-3.485c0.557-3.911,5.024-15.076,7.397-20.659l22.299-57.059l25.152,72.831
		c0.559,1.395,1.535,3.348,1.535,4.743c0,3.07-4.747,3.21-9.771,3.629l-0.559,0.557v2.653l0.559,0.562
		c5.442-0.281,11.585-0.562,16.749-0.562c5.023,0,12.559,0.42,16.187,0.562l0.56-0.562v-2.653l-0.56-0.557
		c-7.396-0.559-8.096-0.977-11.724-9.909l-30.565-74.528c-1.256-3.07-1.533-3.768-2.512-7.256h-4.885
		c-2.231,5.581-1.812,5.442-4.604,11.864l-25.262,59.036c-2.513,5.861-5.164,10.746-8.793,16.746
		c-1.255,2.234-2.092,3.489-9.35,4.048l-0.558,0.557v2.653l0.558,0.562C135.788,144.751,140.811,144.331,145.837,144.331z"/>
	<path fill="#FFFFFF" d="M100.766,171.99c-3.727-0.794-4.599-1.688-4.599-3.312c0-1.547,1.406-2.756,3.607-2.756
		c1.741,0,3.312,0.556,4.886,1.838l1.114-1.476c-1.718-1.379-3.486-2.081-5.953-2.081c-3.218,0-5.564,1.937-5.564,4.645
		c0,2.809,1.789,4.063,5.685,4.914c3.556,0.749,4.404,1.645,4.404,3.242c0,1.715-1.502,2.903-3.775,2.903
		c-2.35,0-4.042-0.802-5.807-2.396l-1.186,1.405c2.032,1.814,4.235,2.708,6.92,2.708c3.362,0,5.782-1.886,5.782-4.815
		C106.282,174.197,104.538,172.818,100.766,171.99z"/>
	<polygon fill="#FFFFFF" points="113.737,181.384 115.672,181.384 115.672,166.21 121.357,166.21 121.357,164.444 108.051,164.444 
		108.051,166.21 113.737,166.21 	"/>
	<rect x="121.433" y="178.842" fill="#FFFFFF" width="2.226" height="2.542"/>
	<path fill="#FFFFFF" d="M140.307,164.324l-7.718,17.06h1.958l2.01-4.479h9.218l1.985,4.479h2.055l-7.717-17.06H140.307z
		 M137.306,175.189l3.872-8.639l3.848,8.639H137.306z"/>
	<polygon fill="#FFFFFF" points="166.922,181.384 166.922,164.444 165.061,164.444 165.061,178.02 154.39,164.444 152.601,164.444 
		152.601,181.384 154.463,181.384 154.463,167.497 165.399,181.384 	"/>
	<path fill="#FFFFFF" d="M186.041,172.891c0-4.789-3.678-8.444-9.002-8.444h-5.877v16.938h5.877
		C182.362,181.384,186.041,177.682,186.041,172.891z M177.039,179.616h-3.968v-13.404h3.968c4.282,0,7.016,2.953,7.016,6.728
		C184.054,176.709,181.32,179.616,177.039,179.616z"/>
	<path fill="#FFFFFF" d="M201.187,181.384h2.351l-5.204-6.92c2.66-0.484,4.598-2.13,4.598-4.963c0-3.047-2.397-5.055-6.123-5.055
		h-7.282v16.938h1.912v-6.581h4.839L201.187,181.384z M191.438,166.21h5.229c2.729,0,4.328,1.259,4.328,3.364
		c0,2.203-1.815,3.506-4.355,3.506h-5.202V166.21L191.438,166.21z"/>
	<polygon fill="#FFFFFF" points="218.83,179.641 208.378,179.641 208.378,173.714 217.62,173.714 217.62,171.97 208.378,171.97 
		208.378,166.188 218.709,166.188 218.709,164.444 206.465,164.444 206.465,181.384 218.83,181.384 	"/>
	<polygon fill="#FFFFFF" points="245.446,164.444 243.439,164.444 238.601,178.551 233.954,164.396 232.379,164.396 
		227.737,178.551 222.898,164.444 220.815,164.444 226.865,181.504 228.462,181.504 233.131,167.761 237.775,181.504 
		239.396,181.504 	"/>
	<path fill="#FFFFFF" d="M247.191,169.093l0.293,0.845c1.838-0.408,2.683-1.354,2.683-3.315v-2.178h-2.222v2.539h0.869
		C248.911,168.027,248.402,168.657,247.191,169.093z"/>
	<path fill="#FFFFFF" d="M259.605,179.907c-2.346,0-4.042-0.802-5.808-2.396l-1.184,1.405c2.03,1.814,4.232,2.708,6.918,2.708
		c3.364,0,5.784-1.886,5.784-4.815c0-2.611-1.741-3.99-5.517-4.818c-3.726-0.794-4.599-1.688-4.599-3.312
		c0-1.547,1.403-2.756,3.606-2.756c1.741,0,3.315,0.556,4.887,1.838l1.111-1.476c-1.714-1.379-3.482-2.081-5.949-2.081
		c-3.218,0-5.563,1.937-5.563,4.645c0,2.809,1.789,4.063,5.684,4.914c3.559,0.749,4.405,1.645,4.405,3.242
		C263.382,178.719,261.881,179.907,259.605,179.907z"/>
	<polygon fill="#FFFFFF" points="180.551,145.666 180.551,108.155 192.436,108.155 190.922,103.219 180.551,103.219 180.551,92.78 
		175.043,92.78 175.043,103.219 164.1,103.219 162.188,108.155 175.043,108.155 175.043,145.666 	"/>
</g>
</svg>
