<?xml version="1.0" encoding="utf-8"?>
<!-- Generator: Adobe Illustrator 16.0.0, SVG Export Plug-In . SVG Version: 6.00 Build 0)  -->
<!DOCTYPE svg PUBLIC "-//W3C//DTD SVG 1.1//EN" "http://www.w3.org/Graphics/SVG/1.1/DTD/svg11.dtd">
<svg version="1.1" id="Layer_1" xmlns="http://www.w3.org/2000/svg" xmlns:xlink="http://www.w3.org/1999/xlink" x="0px" y="0px"
	 width="358px" height="231px" viewBox="0 0 358 231" enable-background="new 0 0 358 231" xml:space="preserve">
<g>
	<g>
		<defs>
			<rect id="SVGID_1_" x="49.862" y="60.953" width="258.275" height="109.094"/>
		</defs>
		<clipPath id="SVGID_2_">
			<use xlink:href="#SVGID_1_"  overflow="visible"/>
		</clipPath>
		<g clip-path="url(#SVGID_2_)">
			<defs>
				<rect id="SVGID_3_" x="49.861" y="60.952" width="258.274" height="109.094"/>
			</defs>
			<clipPath id="SVGID_4_">
				<use xlink:href="#SVGID_3_"  overflow="visible"/>
			</clipPath>
			<g clip-path="url(#SVGID_4_)">
				<defs>
					<rect id="SVGID_5_" x="49.861" y="60.952" width="258.274" height="109.094"/>
				</defs>
				<clipPath id="SVGID_6_">
					<use xlink:href="#SVGID_5_"  overflow="visible"/>
				</clipPath>
				<g clip-path="url(#SVGID_6_)">
					<g>
						<defs>
							<rect id="SVGID_7_" x="49.862" y="60.953" width="258.275" height="109.094"/>
						</defs>
						<clipPath id="SVGID_8_">
							<use xlink:href="#SVGID_7_"  overflow="visible"/>
						</clipPath>
						<g clip-path="url(#SVGID_8_)">
							<defs>
								<rect id="SVGID_9_" x="49.861" y="60.952" width="258.274" height="109.094"/>
							</defs>
							<clipPath id="SVGID_10_">
								<use xlink:href="#SVGID_9_"  overflow="visible"/>
							</clipPath>
							<g clip-path="url(#SVGID_10_)">
								<defs>
									<rect id="SVGID_11_" x="49.861" y="60.952" width="258.274" height="109.094"/>
								</defs>
								<clipPath id="SVGID_12_">
									<use xlink:href="#SVGID_11_"  overflow="visible"/>
								</clipPath>
								<polygon clip-path="url(#SVGID_12_)" fill="#FFFFFF" points="82.368,91.881 77.102,60.956 49.861,60.956 49.861,97.425 
																	"/>
								<polygon clip-path="url(#SVGID_12_)" fill="#FFFFFF" points="88.608,90.82 132.008,83.426 132.008,60.956 83.521,60.956 
																	"/>
								<polygon clip-path="url(#SVGID_12_)" fill="#FFFFFF" points="89.672,97.06 97.515,143.098 132.008,143.098 132.008,89.846 
																	"/>
								<polygon clip-path="url(#SVGID_12_)" fill="#FFFFFF" points="83.433,98.125 49.861,103.844 49.861,143.098 91.095,143.098 
																	"/>
								<polygon clip-path="url(#SVGID_12_)" fill="#FFFFFF" points="146.849,60.956 137.929,60.956 137.929,143.098 
									201.147,143.098 								"/>
								<polygon clip-path="url(#SVGID_12_)" fill="#FFFFFF" points="154.438,60.956 208.736,143.098 220.073,143.098 
									220.073,60.956 								"/>
								<path clip-path="url(#SVGID_12_)" fill="#FFFFFF" d="M271.587,75.416c-17.156,0-31.11,13.957-31.11,31.113
									c0,17.157,13.954,31.114,31.11,31.114c17.155,0,31.113-13.957,31.113-31.114C302.7,89.373,288.742,75.416,271.587,75.416"/>
								<path clip-path="url(#SVGID_12_)" fill="#FFFFFF" d="M234.148,106.529c0-20.645,16.793-37.44,37.438-37.44
									c17.862,0,32.831,12.576,36.549,29.333V60.956h-82.141v82.142h37.58C246.769,139.419,234.148,124.426,234.148,106.529"/>
								<path clip-path="url(#SVGID_12_)" fill="#FFFFFF" d="M279.603,143.098h28.533v-28.465
									C304.993,128.815,293.796,139.991,279.603,143.098"/>
								<polygon clip-path="url(#SVGID_12_)" fill="#FFFFFF" points="56.396,166.794 60.022,166.794 60.022,169.893 53.12,169.893 
									53.12,156.817 56.396,156.817 								"/>
								<polygon clip-path="url(#SVGID_12_)" fill="#FFFFFF" points="61.294,156.817 69.133,156.817 69.133,159.936 64.57,159.936 
									64.57,161.794 69.133,161.794 69.133,164.912 64.57,164.912 64.57,166.794 69.133,166.794 69.133,169.893 61.294,169.893 
																	"/>
								<polygon clip-path="url(#SVGID_12_)" fill="#FFFFFF" points="74.664,159.936 74.664,156.817 83.228,156.817 83.228,159.936 
									80.584,159.936 80.584,169.893 77.309,169.893 77.309,159.936 								"/>
								<polygon clip-path="url(#SVGID_12_)" fill="#FFFFFF" points="90.05,161.794 90.05,156.817 93.322,156.817 93.322,169.893 
									90.05,169.893 90.05,164.893 87.445,164.893 87.445,169.893 84.17,169.893 84.17,156.817 87.445,156.817 87.445,161.794 
																	"/>
								<path clip-path="url(#SVGID_12_)" fill="#FFFFFF" d="M98.204,155.776l-1.335-1.332l3.589-4.703l2.428,2.428L98.204,155.776z
									 M95.597,156.817h7.842v3.118h-4.567v1.858h4.567v3.118h-4.567v1.882h4.567v3.099h-7.842V156.817z"/>
								<path clip-path="url(#SVGID_12_)" fill="#FFFFFF" d="M109.986,160.914c0-0.646-0.371-0.979-0.825-0.979
									c-0.432,0-0.823,0.332-0.823,0.979v2.451h1.648V160.914z M111.493,155.719l-2.447-1.882l-2.473,1.882l-1.333-1.332
									l3.176-4.018h1.234l3.179,4.018L111.493,155.719z M109.986,169.893v-3.431h-1.648v3.431h-3.254v-8.979
									c0-2.448,1.825-4.253,4.078-4.253c2.255,0,4.077,1.805,4.077,4.253v8.979H109.986z"/>
								<polygon clip-path="url(#SVGID_12_)" fill="#FFFFFF" points="113.868,159.936 113.868,156.817 122.429,156.817 
									122.429,159.936 119.784,159.936 119.784,169.893 116.514,169.893 116.514,159.936 								"/>
								<path clip-path="url(#SVGID_12_)" fill="#FFFFFF" d="M126.646,163.522c0.981,0,1.802-0.825,1.802-1.806
									s-0.821-1.781-1.802-1.781V163.522z M132.526,169.893h-3.646l-1.588-3.293c-0.157,0.02-0.314,0.02-0.492,0.02h-0.153v3.273
									h-3.275v-13.075h3.429c2.71,0,4.902,2.215,4.902,4.899c0,1.354-0.549,2.61-1.47,3.51L132.526,169.893z"/>
								<polygon clip-path="url(#SVGID_12_)" fill="#FFFFFF" points="133.172,156.817 141.016,156.817 141.016,159.936 
									136.447,159.936 136.447,161.794 141.016,161.794 141.016,164.912 136.447,164.912 136.447,166.794 141.016,166.794 
									141.016,169.893 133.172,169.893 								"/>
								<path clip-path="url(#SVGID_12_)" fill="#FFFFFF" d="M154.085,163.365c0-1.903-1.096-3.43-2.468-3.43h-0.469v6.858h0.469
									C152.99,166.794,154.085,165.247,154.085,163.365 M157.575,163.365c0,3.586-2.646,6.527-5.877,6.527h-3.824v-13.075h3.824
									C154.929,156.817,157.575,159.758,157.575,163.365"/>
								<path clip-path="url(#SVGID_12_)" fill="#FFFFFF" d="M163.067,166.794c0.448,0,0.821-0.351,0.821-0.981v-8.995h3.254v8.995
									c0,2.451-1.822,4.237-4.075,4.237c-2.258,0-4.079-1.786-4.079-4.237v-8.995h3.254v8.995
									C162.243,166.443,162.636,166.794,163.067,166.794"/>
								<polygon clip-path="url(#SVGID_12_)" fill="#FFFFFF" points="180.219,156.817 183.155,156.817 183.155,169.893 
									181.295,169.893 176.945,163.857 176.945,169.893 174.005,169.893 174.005,156.817 175.863,156.817 180.219,162.855 
																	"/>
								<path clip-path="url(#SVGID_12_)" fill="#FFFFFF" d="M189.192,166.637c0.549,0,0.823-1.431,0.823-3.271
									c0-1.862-0.274-3.293-0.823-3.293c-0.526,0-0.821,1.431-0.821,3.293C188.371,165.206,188.666,166.637,189.192,166.637
									 M189.192,156.661c2.963,0,4.297,3.035,4.297,6.704c0,3.646-1.334,6.685-4.297,6.685c-2.957,0-4.271-3.038-4.271-6.685
									C184.921,159.696,186.235,156.661,189.192,156.661"/>
								<path clip-path="url(#SVGID_12_)" fill="#FFFFFF" d="M198.996,166.794c0.448,0,0.821-0.351,0.821-0.981v-8.995h3.254v8.995
									c0,2.451-1.824,4.237-4.075,4.237c-2.256,0-4.082-1.786-4.082-4.237v-8.995h3.255v8.995
									C198.169,166.443,198.564,166.794,198.996,166.794"/>
								<polygon clip-path="url(#SVGID_12_)" fill="#FFFFFF" points="209.285,170.05 208.304,170.05 203.091,156.817 
									206.597,156.817 208.794,162.403 211.008,156.817 214.498,156.817 								"/>
								<polygon clip-path="url(#SVGID_12_)" fill="#FFFFFF" points="214.831,156.817 222.673,156.817 222.673,159.936 
									218.107,159.936 218.107,161.794 222.673,161.794 222.673,164.912 218.107,164.912 218.107,166.794 222.673,166.794 
									222.673,169.893 214.831,169.893 								"/>
								<polygon clip-path="url(#SVGID_12_)" fill="#FFFFFF" points="227.905,166.794 231.533,166.794 231.533,169.893 
									224.629,169.893 224.629,156.817 227.905,156.817 								"/>
								<rect x="233.298" y="163.03" clip-path="url(#SVGID_12_)" fill="#FFFFFF" width="6.544" height="3.098"/>
								<path clip-path="url(#SVGID_12_)" fill="#FFFFFF" d="M246.369,166.637c0.551,0,0.824-1.431,0.824-3.271
									c0-1.862-0.273-3.293-0.824-3.293c-0.528,0-0.823,1.431-0.823,3.293C245.546,165.206,245.841,166.637,246.369,166.637
									 M246.369,156.661c2.963,0,4.295,3.035,4.295,6.704c0,3.646-1.332,6.685-4.295,6.685c-2.958,0-4.271-3.038-4.271-6.685
									C242.099,159.696,243.411,156.661,246.369,156.661"/>
								<polygon clip-path="url(#SVGID_12_)" fill="#FFFFFF" points="258.62,156.817 261.564,156.817 261.564,169.893 
									259.699,169.893 255.35,163.857 255.35,169.893 252.407,169.893 252.407,156.817 254.268,156.817 258.62,162.855 								
									"/>
								<polygon clip-path="url(#SVGID_12_)" fill="#FFFFFF" points="262.502,159.936 262.502,156.817 271.067,156.817 
									271.067,159.936 268.425,159.936 268.425,169.893 265.147,169.893 265.147,159.936 								"/>
								<path clip-path="url(#SVGID_12_)" fill="#FFFFFF" d="M276.594,160.914c0-0.646-0.365-0.979-0.821-0.979
									c-0.431,0-0.82,0.332-0.82,0.979v2.451h1.642V160.914z M276.594,169.893v-3.431h-1.642v3.431h-3.254v-8.979
									c0-2.448,1.817-4.253,4.074-4.253c2.254,0,4.078,1.805,4.078,4.253v8.979H276.594z"/>
								<path clip-path="url(#SVGID_12_)" fill="#FFFFFF" d="M285.087,163.522c0.979,0,1.801-0.825,1.801-1.806
									s-0.822-1.781-1.801-1.781V163.522z M290.964,169.893h-3.643l-1.59-3.293c-0.157,0.02-0.314,0.02-0.49,0.02h-0.154v3.273
									h-3.273v-13.075h3.428c2.708,0,4.898,2.215,4.898,4.899c0,1.354-0.549,2.61-1.471,3.51L290.964,169.893z"/>
								<polygon clip-path="url(#SVGID_12_)" fill="#FFFFFF" points="292.922,159.936 291.454,159.936 291.454,156.817 
									297.668,156.817 297.668,159.936 296.196,159.936 296.196,166.794 297.668,166.794 297.668,169.893 291.454,169.893 
									291.454,166.794 292.922,166.794 								"/>
								<path clip-path="url(#SVGID_12_)" fill="#FFFFFF" d="M303.547,166.637c0.551,0,0.824-1.431,0.824-3.271
									c0-1.862-0.273-3.293-0.824-3.293c-0.528,0-0.823,1.431-0.823,3.293C302.724,165.206,303.019,166.637,303.547,166.637
									 M303.547,156.661c2.963,0,4.295,3.035,4.295,6.704c0,3.646-1.332,6.685-4.295,6.685c-2.958,0-4.271-3.038-4.271-6.685
									C299.276,159.696,300.589,156.661,303.547,156.661"/>
							</g>
						</g>
					</g>
				</g>
			</g>
		</g>
	</g>
</g>
</svg>
