<?xml version="1.0" encoding="utf-8"?>
<!-- Generator: Adobe Illustrator 15.0.0, SVG Export Plug-In . SVG Version: 6.00 Build 0)  -->
<!DOCTYPE svg PUBLIC "-//W3C//DTD SVG 1.1//EN" "http://www.w3.org/Graphics/SVG/1.1/DTD/svg11.dtd">
<svg version="1.1" id="Layer_1" xmlns="http://www.w3.org/2000/svg" xmlns:xlink="http://www.w3.org/1999/xlink" x="0px" y="0px"
	 width="396px" height="256px" viewBox="0 0 396 256" enable-background="new 0 0 396 256" xml:space="preserve">
<g>
	<polygon fill="#FFFFFF" points="111.259,106.796 106.531,79.035 82.079,79.035 82.079,111.772 	"/>
	<polygon fill="#FFFFFF" points="116.86,105.843 155.819,99.206 155.819,79.035 112.294,79.035 	"/>
	<polygon fill="#FFFFFF" points="117.816,111.445 124.855,152.771 155.819,152.771 155.819,104.968 	"/>
	<polygon fill="#FFFFFF" points="112.214,112.4 82.079,117.534 82.079,152.771 119.092,152.771 	"/>
	<polygon fill="#FFFFFF" points="169.14,79.035 161.133,79.035 161.133,152.771 217.883,152.771 	"/>
	<polygon fill="#FFFFFF" points="175.952,79.035 224.694,152.771 234.871,152.771 234.871,79.035 	"/>
	<path fill="#FFFFFF" d="M281.112,92.015c-15.399,0-27.927,12.529-27.927,27.93c0,15.399,12.525,27.929,27.927,27.929
		c15.399,0,27.929-12.528,27.929-27.929C309.041,104.543,296.512,92.015,281.112,92.015"/>
	<path fill="#FFFFFF" d="M247.506,119.945c0-18.533,15.074-33.609,33.606-33.609c16.034,0,29.471,11.289,32.809,26.332V79.035
		h-73.733v73.734h33.734C258.834,149.468,247.506,136.009,247.506,119.945"/>
	<path fill="#FFFFFF" d="M288.307,152.771h25.613v-25.553C311.1,139.95,301.049,149.981,288.307,152.771"/>
	<polygon fill="#FFFFFF" points="87.944,174.041 91.199,174.041 91.199,176.821 85.004,176.821 85.004,165.086 87.944,165.086 	"/>
	<polygon fill="#FFFFFF" points="92.342,165.086 99.379,165.086 99.379,167.885 95.282,167.885 95.282,169.553 99.379,169.553 
		99.379,172.352 95.282,172.352 95.282,174.041 99.379,174.041 99.379,176.821 92.342,176.821 	"/>
	<polygon fill="#FFFFFF" points="104.343,167.885 104.343,165.086 112.031,165.086 112.031,167.885 109.657,167.885 
		109.657,176.821 106.717,176.821 106.717,167.885 	"/>
	<polygon fill="#FFFFFF" points="118.154,169.553 118.154,165.086 121.092,165.086 121.092,176.821 118.154,176.821 
		118.154,172.334 115.816,172.334 115.816,176.821 112.876,176.821 112.876,165.086 115.816,165.086 115.816,169.553 	"/>
	<path fill="#FFFFFF" d="M125.474,164.151l-1.199-1.195l3.222-4.223l2.18,2.181L125.474,164.151z M123.134,165.086h7.039v2.799h-4.1
		v1.668h4.1v2.799h-4.1v1.689h4.1v2.78h-7.039V165.086z"/>
	<path fill="#FFFFFF" d="M136.05,168.763c0-0.58-0.333-0.878-0.74-0.878c-0.388,0-0.739,0.298-0.739,0.878v2.201h1.479V168.763z
		 M137.403,164.1l-2.197-1.688l-2.22,1.688l-1.196-1.196l2.851-3.604h1.108l2.854,3.604L137.403,164.1z M136.05,176.821v-3.078
		h-1.479v3.078h-2.921v-8.06c0-2.196,1.639-3.817,3.661-3.817c2.024,0,3.659,1.621,3.659,3.817v8.06H136.05z"/>
	<polygon fill="#FFFFFF" points="139.534,167.885 139.534,165.086 147.22,165.086 147.22,167.885 144.845,167.885 144.845,176.821 
		141.91,176.821 141.91,167.885 	"/>
	<path fill="#FFFFFF" d="M151.006,171.104c0.88,0,1.617-0.74,1.617-1.621c0-0.88-0.737-1.599-1.617-1.599V171.104z M156.283,176.821
		h-3.272l-1.426-2.955c-0.141,0.018-0.282,0.018-0.441,0.018h-0.138v2.938h-2.94v-11.735h3.078c2.433,0,4.4,1.987,4.4,4.397
		c0,1.215-0.493,2.344-1.32,3.149L156.283,176.821z"/>
	<polygon fill="#FFFFFF" points="156.863,165.086 163.904,165.086 163.904,167.885 159.803,167.885 159.803,169.553 
		163.904,169.553 163.904,172.352 159.803,172.352 159.803,174.041 163.904,174.041 163.904,176.821 156.863,176.821 	"/>
	<path fill="#FFFFFF" d="M175.636,170.964c0-1.709-0.984-3.079-2.215-3.079H173v6.156h0.421
		C174.653,174.041,175.636,172.653,175.636,170.964 M178.769,170.964c0,3.219-2.375,5.857-5.276,5.857h-3.433v-11.735h3.433
		C176.393,165.086,178.769,167.726,178.769,170.964"/>
	<path fill="#FFFFFF" d="M183.699,174.041c0.402,0,0.737-0.314,0.737-0.882v-8.073h2.921v8.073c0,2.201-1.635,3.805-3.658,3.805
		c-2.027,0-3.662-1.604-3.662-3.805v-8.073h2.921v8.073C182.959,173.727,183.312,174.041,183.699,174.041"/>
	<polygon fill="#FFFFFF" points="199.096,165.086 201.731,165.086 201.731,176.821 200.061,176.821 196.157,171.405 
		196.157,176.821 193.517,176.821 193.517,165.086 195.185,165.086 199.096,170.506 	"/>
	<path fill="#FFFFFF" d="M207.15,173.901c0.492,0,0.738-1.285,0.738-2.938c0-1.672-0.246-2.956-0.738-2.956
		c-0.473,0-0.737,1.284-0.737,2.956C206.413,172.616,206.678,173.901,207.15,173.901 M207.15,164.946
		c2.66,0,3.857,2.725,3.857,6.019c0,3.272-1.197,6-3.857,6c-2.654,0-3.834-2.728-3.834-6
		C203.316,167.67,204.496,164.946,207.15,164.946"/>
	<path fill="#FFFFFF" d="M215.951,174.041c0.402,0,0.736-0.314,0.736-0.882v-8.073h2.922v8.073c0,2.201-1.639,3.805-3.658,3.805
		c-2.025,0-3.664-1.604-3.664-3.805v-8.073h2.922v8.073C215.209,173.727,215.563,174.041,215.951,174.041"/>
	<polygon fill="#FFFFFF" points="225.186,176.964 224.305,176.964 219.627,165.086 222.773,165.086 224.746,170.1 226.733,165.086 
		229.866,165.086 	"/>
	<polygon fill="#FFFFFF" points="230.165,165.086 237.204,165.086 237.204,167.885 233.106,167.885 233.106,169.553 
		237.204,169.553 237.204,172.352 233.106,172.352 233.106,174.041 237.204,174.041 237.204,176.821 230.165,176.821 	"/>
	<polygon fill="#FFFFFF" points="241.901,174.041 245.158,174.041 245.158,176.821 238.96,176.821 238.96,165.086 241.901,165.086 	
		"/>
	<rect x="246.742" y="170.663" fill="#FFFFFF" width="5.874" height="2.779"/>
	<path fill="#FFFFFF" d="M258.475,173.901c0.494,0,0.74-1.285,0.74-2.938c0-1.672-0.246-2.956-0.74-2.956
		c-0.475,0-0.738,1.284-0.738,2.956C257.736,172.616,258.001,173.901,258.475,173.901 M258.475,164.946
		c2.66,0,3.855,2.725,3.855,6.019c0,3.272-1.195,6-3.855,6c-2.654,0-3.832-2.728-3.832-6
		C254.643,167.67,255.82,164.946,258.475,164.946"/>
	<polygon fill="#FFFFFF" points="269.473,165.086 272.115,165.086 272.115,176.821 270.441,176.821 266.537,171.405 
		266.537,176.821 263.896,176.821 263.896,165.086 265.565,165.086 269.473,170.506 	"/>
	<polygon fill="#FFFFFF" points="272.957,167.885 272.957,165.086 280.646,165.086 280.646,167.885 278.274,167.885 
		278.274,176.821 275.332,176.821 275.332,167.885 	"/>
	<path fill="#FFFFFF" d="M285.606,168.763c0-0.58-0.327-0.878-0.737-0.878c-0.386,0-0.736,0.298-0.736,0.878v2.201h1.475
		L285.606,168.763L285.606,168.763z M285.606,176.821v-3.078h-1.474v3.078h-2.922v-8.06c0-2.196,1.633-3.817,3.657-3.817
		c2.022,0,3.661,1.621,3.661,3.817v8.06H285.606z"/>
	<path fill="#FFFFFF" d="M293.23,171.104c0.879,0,1.617-0.74,1.617-1.621c0-0.88-0.738-1.599-1.617-1.599V171.104z M298.506,176.821
		h-3.27l-1.428-2.955c-0.142,0.018-0.281,0.018-0.439,0.018h-0.139v2.938h-2.938v-11.735h3.077c2.432,0,4.396,1.987,4.396,4.397
		c0,1.215-0.492,2.344-1.319,3.149L298.506,176.821z"/>
	<polygon fill="#FFFFFF" points="300.264,167.885 298.946,167.885 298.946,165.086 304.524,165.086 304.524,167.885 
		303.203,167.885 303.203,174.041 304.524,174.041 304.524,176.821 298.946,176.821 298.946,174.041 300.264,174.041 	"/>
	<path fill="#FFFFFF" d="M309.803,173.901c0.493,0,0.738-1.285,0.738-2.938c0-1.672-0.245-2.956-0.738-2.956
		c-0.476,0-0.739,1.284-0.739,2.956C309.062,172.616,309.327,173.901,309.803,173.901 M309.803,164.946
		c2.658,0,3.854,2.725,3.854,6.019c0,3.272-1.196,6-3.854,6c-2.655,0-3.834-2.728-3.834-6
		C305.969,167.67,307.146,164.946,309.803,164.946"/>
</g>
</svg>
