<?xml version="1.0" encoding="utf-8"?>
<!-- Generator: Adobe Illustrator 16.0.0, SVG Export Plug-In . SVG Version: 6.00 Build 0)  -->
<!DOCTYPE svg PUBLIC "-//W3C//DTD SVG 1.1//EN" "http://www.w3.org/Graphics/SVG/1.1/DTD/svg11.dtd">
<svg version="1.1" id="Layer_1" xmlns="http://www.w3.org/2000/svg" xmlns:xlink="http://www.w3.org/1999/xlink" x="0px" y="0px"
	 width="1500px" height="845px" viewBox="0 0 1500 845" enable-background="new 0 0 1500 845" xml:space="preserve">
<g>
	<path fill="#FFFFFF" d="M292.833,274.69c-28.728,0-45.612,26.712-47.627,52.416h95.003
		C339.705,299.89,322.569,274.69,292.833,274.69z"/>
	<path fill="#FFFFFF" d="M1226.732,274.69c-28.729,0-45.611,26.712-47.629,52.416h95.004
		C1273.604,299.89,1256.469,274.69,1226.732,274.69z"/>
	<path fill="#FFFFFF" d="M1052.349,274.69c-34.523,0-47.376,28.98-47.376,59.724s10.836,59.22,47.376,59.22
		c33.769,0,48.637-27.216,48.637-59.22C1100.984,304.93,1087.124,274.69,1052.349,274.69z"/>
	<path fill="#FFFFFF" d="M2,0v845h1498V0H2z M93.251,403.209c-53.928,0-85.68-41.58-85.68-94.248s31.752-94.248,85.68-94.248
		c63.756,0,72.072,55.44,72.324,57.96h-11.088c-4.788-30.24-31.248-48.384-61.236-48.384c-47.124,0-74.591,38.556-74.591,84.672
		s27.468,84.671,74.591,84.671c35.028,0,62.244-31.248,64.26-64.764h11.088C164.567,371.709,132.815,403.209,93.251,403.209z
		 M207.407,244.954c0,13.356-3.78,27.216-16.128,31.752v-8.316c7.308-3.276,8.568-16.632,8.568-23.436h-5.292v-25.956h12.852
		V244.954z M349.785,335.421h-104.58c-0.504,30.492,15.624,58.212,47.627,58.212c24.444,0,41.832-14.616,46.368-38.556h9.576
		c-5.04,30.24-25.2,46.872-55.944,46.872c-37.8,0-57.708-29.736-57.204-65.521c-0.504-35.532,18.144-70.056,57.204-70.056
		C333.405,266.374,351.549,298.378,349.785,335.421z M419.588,401.949c-29.484,0-51.66-15.876-52.416-46.116h9.576
		c1.512,23.94,19.404,37.8,42.84,37.8c16.884,0,41.076-5.04,41.076-27.468c0-21.924-22.176-25.2-44.352-29.736
		c-22.429-4.536-44.604-10.332-44.604-36.792c0-25.704,24.948-33.264,46.872-33.264c27.468,0,47.88,11.844,47.88,41.328h-9.576
		c-0.252-23.436-16.632-33.012-38.304-33.012c-17.641,0-37.295,6.552-37.295,24.948c0,20.664,22.176,23.94,43.092,28.477
		c25.704,4.788,45.864,10.836,45.864,38.052C470.24,394.137,442.268,401.949,419.588,401.949z M541.049,277.714h-28.224v90.468
		c0,20.916,9.828,22.932,27.972,22.428v8.316c-19.656,1.26-38.556-1.512-37.548-30.744v-90.468h-23.94v-8.316h23.94v-40.32h9.576
		v40.32h28.224V277.714z M676.118,401.949c-29.484,0-51.66-15.876-52.416-46.116h9.576c1.512,23.94,19.403,37.8,42.84,37.8
		c16.884,0,41.076-5.04,41.076-27.468c0-21.924-22.177-25.2-44.353-29.736c-22.428-4.536-44.604-10.332-44.604-36.792
		c0-25.704,24.947-33.264,46.872-33.264c27.468,0,47.879,11.844,47.879,41.328h-9.576c-0.252-23.436-16.632-33.012-38.304-33.012
		c-17.641,0-37.297,6.552-37.297,24.948c0,20.664,22.177,23.94,43.093,28.477c25.704,4.788,45.864,10.836,45.864,38.052
		C726.77,394.137,698.798,401.949,676.118,401.949z M761.795,398.925h-9.576V269.398h9.576V398.925z M761.795,244.954h-9.576
		v-25.956h9.576V244.954z M964.402,398.925h-9.576v-88.704c0-33.012-23.437-35.532-30.996-35.532
		c-23.436,0-40.571,16.632-40.571,47.627v76.608h-9.575V310.22c0-32.508-22.177-35.532-30.492-35.532
		c-18.396,0-41.076,14.364-41.076,47.627v76.608h-9.575V269.398h9.575v26.46h0.505c4.031-16.38,21.167-29.484,40.571-29.484
		c24.695,0,36.287,14.112,39.06,27.468h0.504c7.562-17.64,20.16-27.468,41.076-27.468c23.437,0,40.572,13.608,40.572,44.1
		L964.402,398.925L964.402,398.925z M1052.349,401.949c-21.42,0-39.563-9.072-47.124-29.988h-0.504v73.332h-9.576V269.398h9.576
		v29.736h0.504c4.032-12.852,18.647-32.76,47.124-32.76c39.815,0,58.212,31.5,58.212,68.04
		C1110.561,373.726,1091.912,401.949,1052.349,401.949z M1144.833,398.925h-9.576V218.998h9.576V398.925z M1283.686,335.421h-104.58
		c-0.504,30.492,15.624,58.212,47.628,58.212c24.443,0,41.832-14.616,46.368-38.556h9.576c-5.041,30.24-25.2,46.872-55.944,46.872
		c-37.8,0-57.708-29.736-57.203-65.521c-0.505-35.532,18.144-70.056,57.203-70.056
		C1267.305,266.374,1285.448,298.378,1283.686,335.421z M1333.328,398.925h-12.854v-25.956h12.854V398.925z"/>
</g>
</svg>
