<?xml version="1.0" encoding="utf-8"?>
<!-- Generator: Adobe Illustrator 15.0.0, SVG Export Plug-In . SVG Version: 6.00 Build 0)  -->
<!DOCTYPE svg PUBLIC "-//W3C//DTD SVG 1.1 Tiny//EN" "http://www.w3.org/Graphics/SVG/1.1/DTD/svg11-tiny.dtd">
<svg version="1.1" baseProfile="tiny" id="Layer_1" xmlns="http://www.w3.org/2000/svg" xmlns:xlink="http://www.w3.org/1999/xlink"
	 x="0px" y="0px" width="14px" height="195px" viewBox="0 0 14 195" overflow="inherit" xml:space="preserve">
<g>
	<rect x="6.515" y="49.888" fill="#6B6B6B" width="0.971" height="4.989"/>
	<rect x="6.515" y="59.866" fill="#6B6B6B" width="0.971" height="4.989"/>
	<rect x="6.515" y="39.911" fill="#6B6B6B" width="0.971" height="4.989"/>
	<rect x="6.515" y="79.821" fill="#6B6B6B" width="0.971" height="4.989"/>
	<rect x="6.515" y="69.843" fill="#6B6B6B" width="0.971" height="4.989"/>
	<rect x="6.515" y="29.932" fill="#6B6B6B" width="0.971" height="4.99"/>
	<rect x="6.515" fill="#6B6B6B" width="0.971" height="4.989"/>
	<rect x="6.515" y="9.978" fill="#6B6B6B" width="0.971" height="4.989"/>
	<rect x="6.515" y="89.798" fill="#6B6B6B" width="0.971" height="4.989"/>
	<rect x="6.515" y="19.955" fill="#6B6B6B" width="0.971" height="4.989"/>
	<rect x="6.515" y="159.642" fill="#6B6B6B" width="0.971" height="4.989"/>
	<rect x="6.515" y="169.619" fill="#6B6B6B" width="0.971" height="4.989"/>
	<rect x="6.515" y="149.664" fill="#6B6B6B" width="0.971" height="4.989"/>
	<rect x="6.515" y="179.597" fill="#6B6B6B" width="0.971" height="4.989"/>
	<rect x="6.515" y="139.687" fill="#6B6B6B" width="0.971" height="4.989"/>
	<rect x="6.515" y="119.731" fill="#6B6B6B" width="0.971" height="4.988"/>
	<rect x="6.515" y="129.709" fill="#6B6B6B" width="0.971" height="4.989"/>
	<rect x="6.515" y="109.754" fill="#6B6B6B" width="0.971" height="4.988"/>
	<rect x="6.515" y="99.776" fill="#6B6B6B" width="0.971" height="4.988"/>
	<polygon fill="#6B6B6B" points="14,187.8 0,187.8 7,195 	"/>
</g>
</svg>
