<?xml version="1.0" encoding="utf-8"?>
<!-- Generator: Adobe Illustrator 15.0.0, SVG Export Plug-In . SVG Version: 6.00 Build 0)  -->
<!DOCTYPE svg PUBLIC "-//W3C//DTD SVG 1.1 Tiny//EN" "http://www.w3.org/Graphics/SVG/1.1/DTD/svg11-tiny.dtd">
<svg version="1.1" baseProfile="tiny" id="Layer_1" xmlns="http://www.w3.org/2000/svg" xmlns:xlink="http://www.w3.org/1999/xlink"
	 x="0px" y="0px" width="140px" height="140px" viewBox="0 0 140 140" overflow="inherit" xml:space="preserve">
<path fill="#BF2D2D" d="M70,0C31.34,0,0,31.34,0,70s31.34,70,70,70c38.661,0,70-31.34,70-70S108.661,0,70,0z M89.354,43.189
	l9.053,9.052L82.425,68.223L73.2,59.345L89.354,43.189z M47.818,103.609l-13.86,3.551l4.462-13.643l3.378,0.52l-0.043,5.154
	l6.236,0.865L47.818,103.609z M51.37,99.451l-0.217-2.814l-5.804-0.348l-0.606-5.283l-3.725-0.693L58.257,73.68l9.441,9.443
	L51.37,99.451z M106.195,98.5l-7.962-7.961l-7.275,7.275l8.268,8.268c-4.697,2.061-10.371,1.18-14.217-2.664
	c-3.461-3.463-4.526-8.41-3.202-12.789L49.121,57.946c-4.379,1.324-9.327,0.259-12.788-3.203c-3.576-3.576-4.584-8.733-3.053-13.217
	l7.961,7.961l7.276-7.276l-8.268-8.268c4.696-2.059,10.371-1.179,14.216,2.666c3.461,3.462,4.527,8.409,3.203,12.788L90.354,82.08
	c4.38-1.324,9.326-0.258,12.789,3.203C106.719,88.859,107.727,94.018,106.195,98.5z M105.597,44.271l-2.858,2.859
	c-0.313,0.312-0.651,0.581-1.008,0.811l-8.378-8.378c0.229-0.357,0.497-0.696,0.811-1.009l2.858-2.858
	c2.368-2.368,6.206-2.368,8.575,0C107.966,38.064,107.966,41.903,105.597,44.271z"/>
</svg>
