<?xml version="1.0" encoding="utf-8"?>
<!-- Generator: Adobe Illustrator 15.0.0, SVG Export Plug-In . SVG Version: 6.00 Build 0)  -->
<!DOCTYPE svg PUBLIC "-//W3C//DTD SVG 1.1 Tiny//EN" "http://www.w3.org/Graphics/SVG/1.1/DTD/svg11-tiny.dtd">
<svg version="1.1" baseProfile="tiny" id="Layer_1" xmlns="http://www.w3.org/2000/svg" xmlns:xlink="http://www.w3.org/1999/xlink"
	 x="0px" y="0px" width="140px" height="140px" viewBox="0 0 140 140" overflow="inherit" xml:space="preserve">
<g>
	<path fill="#BF2D2D" d="M77.005,45.43c-4.228-4.229-9.851-6.558-15.832-6.558c-5.979,0-11.604,2.331-15.833,6.556
		c-4.229,4.23-6.559,9.852-6.559,15.835c0,5.979,2.33,11.603,6.558,15.833c4.229,4.229,9.853,6.557,15.833,6.557
		c5.982,0,11.604-2.328,15.833-6.557C85.735,68.365,85.735,54.159,77.005,45.43z"/>
	<path fill="#BF2D2D" d="M70,0C31.34,0,0,31.34,0,70s31.34,70,70,70s70-31.34,70-70S108.66,0,70,0z M61.173,91.539
		c-8.088,0-15.689-3.148-21.408-8.869c-11.804-11.804-11.804-31.013,0.002-42.816c5.717-5.72,13.319-8.869,21.406-8.869
		c8.091,0,15.691,3.149,21.408,8.869c5.72,5.719,8.869,13.321,8.869,21.41c0,8.085-3.149,15.689-8.869,21.406
		C76.864,88.39,69.262,91.539,61.173,91.539z M82.874,88.951c-0.703-0.703-0.564-1.996,0.314-2.873l2.965-2.965
		c0.875-0.876,2.169-1.016,2.872-0.312c0.704,0.703,1.279,1.28,1.279,1.28l-6.15,6.151C84.154,90.232,83.578,89.656,82.874,88.951z
		 M108.43,105.393l-2.966,2.964c-0.876,0.876-2.309,0.876-3.186,0L88.333,94.41l-1.593-1.592l6.149-6.152
		c0,0,0.718,0.716,1.595,1.592l13.945,13.947C109.306,103.082,109.306,104.515,108.43,105.393z"/>
</g>
</svg>
