<?xml version="1.0" encoding="utf-8"?>
<!-- Generator: Adobe Illustrator 15.0.0, SVG Export Plug-In . SVG Version: 6.00 Build 0)  -->
<!DOCTYPE svg PUBLIC "-//W3C//DTD SVG 1.1 Tiny//EN" "http://www.w3.org/Graphics/SVG/1.1/DTD/svg11-tiny.dtd">
<svg version="1.1" baseProfile="tiny" id="Layer_1" xmlns="http://www.w3.org/2000/svg" xmlns:xlink="http://www.w3.org/1999/xlink"
	 x="0px" y="0px" width="140px" height="140px" viewBox="0 0 140 140" overflow="inherit" xml:space="preserve">
<g>
	<polygon fill="#BF2D2D" points="94.207,80.164 91.496,78.704 88.984,76.914 86.145,78.114 83.186,78.964 82.354,81.936 
		81.176,84.775 82.975,87.275 84.455,89.977 87.535,90.115 90.576,90.645 92.604,88.324 94.916,86.273 94.364,83.244 	"/>
	<polygon fill="#BF2D2D" points="49.264,65.698 46.949,64.538 44.788,63.103 42.431,64.193 39.958,64.987 39.342,67.511 
		38.423,69.932 40.008,71.988 41.336,74.22 43.928,74.255 46.495,74.621 48.143,72.614 50.035,70.822 49.49,68.283 	"/>
	<polygon fill="#BF2D2D" points="73.527,50.492 75.527,50.521 77.508,50.801 78.777,49.261 80.236,47.881 79.816,45.921 
		79.646,43.931 77.857,43.032 76.198,41.922 74.379,42.762 72.469,43.372 71.998,45.322 71.284,47.181 72.508,48.771 	"/>
	<path fill="#BF2D2D" d="M70,0C31.34,0,0,31.34,0,70s31.34,70,70,70c38.661,0,70-31.34,70-70S108.661,0,70,0z M62.093,37.129
		l3.025-3.24l4.024,2.488c0.002-0.001,0.002-0.003,0.004-0.004c1.342-0.84,2.854-1.441,4.463-1.721l1.291-4.567l4.418,0.345
		l0.565,4.705c1.548,0.529,2.937,1.359,4.134,2.407l4.373-1.839l2.484,3.67l-3.327,3.375c0.001,0.002,0.001,0.004,0.002,0.005
		c0.521,1.47,0.771,3.061,0.689,4.72v0.005l4.168,2.276l-1.318,4.231l-4.707-0.495c-0.001,0-0.001,0.002-0.002,0.003
		c-0.86,1.37-1.971,2.56-3.271,3.499l0.817,4.663l-4.131,1.604l-2.556-3.999h-0.004c-0.789,0.103-1.58,0.111-2.398,0.05
		c-0.811-0.06-1.6-0.198-2.361-0.42l0,0l-3.146,3.555L65.5,60.218l1.535-4.487c-1.13-1.13-2.05-2.47-2.68-3.958v-0.001l-4.738-0.24
		l-0.648-4.385l4.467-1.602c0.171-1.647,0.67-3.185,1.421-4.562v-0.001L62.093,37.129z M58.005,78.084
		c-1.111,1.782-2.548,3.312-4.231,4.539l1.07,6.054L49.49,90.77l-3.311-5.17h-0.005c-1.018,0.112-2.058,0.135-3.12,0.059
		c-1.061-0.09-2.086-0.266-3.071-0.535l-4.061,4.605l-4.975-2.884l1.984-5.832c-1.481-1.459-2.669-3.194-3.49-5.116
		c-0.001-0.002-0.001-0.004-0.002-0.004l-6.138-0.306L22.454,69.9l5.793-2.082c0.224-2.143,0.869-4.136,1.83-5.924l-3.589-4.99
		l3.92-4.205l5.234,3.227c1.734-1.106,3.686-1.887,5.776-2.261c0.001,0,0.002,0,0.004-0.001l1.66-5.913l5.732,0.439l0.74,6.1
		c2.005,0.688,3.816,1.759,5.365,3.115l5.667-2.393l3.229,4.756l-4.309,4.382c0.681,1.915,1.005,3.986,0.911,6.129v0.008
		l5.402,2.938l-1.704,5.492L58.005,78.084C58.005,78.083,58.005,78.084,58.005,78.084z M111.309,96.188l-7.225-0.99v0.001
		c-1.379,2.067-3.156,3.845-5.193,5.226l1.034,7.221l-6.434,2.271l-3.73-6.268c-1.209,0.099-2.448,0.09-3.698-0.051
		c-1.258-0.142-2.457-0.392-3.617-0.762l-5.008,5.32l-5.789-3.61l2.574-6.83c-1.699-1.789-3.039-3.907-3.939-6.221v-0.002
		l-7.269-0.601l-0.786-6.773l6.956-2.248c0.353-2.528,1.18-4.866,2.398-6.955l-4.066-6.059l4.812-4.841l6.086,4.03
		c0-0.001,0.002-0.001,0.002-0.002c2.101-1.239,4.448-2.089,6.937-2.45l2.205-6.96l6.78,0.743l0.644,7.275
		c0.002,0.001,0.002,0.002,0.004,0.002c2.352,0.889,4.471,2.229,6.248,3.888l6.809-2.615l3.646,5.767l-5.28,5.033
		c0.737,2.299,1.05,4.774,0.841,7.312l6.3,3.697L111.309,96.188z"/>
</g>
</svg>
