<?xml version="1.0" encoding="utf-8"?>
<!-- Generator: Adobe Illustrator 16.0.0, SVG Export Plug-In . SVG Version: 6.00 Build 0)  -->
<!DOCTYPE svg PUBLIC "-//W3C//DTD SVG 1.1//EN" "http://www.w3.org/Graphics/SVG/1.1/DTD/svg11.dtd">
<svg version="1.1" id="Layer_1" xmlns="http://www.w3.org/2000/svg" xmlns:xlink="http://www.w3.org/1999/xlink" x="0px" y="0px"
	 width="358px" height="231px" viewBox="0 0 358 231" enable-background="new 0 0 358 231" xml:space="preserve">
<g>
	<path fill="#FFFFFF" d="M148.833,96.228h2.73v5.694h-2.73c-0.774-2.047-2.118-3.068-4.031-3.068c-1.582,0-2.776,0.538-3.584,1.614
		c-0.811,1.077-1.215,2.367-1.215,3.87c0,1.572,0.428,2.844,1.283,3.817c0.856,0.973,1.945,1.458,3.271,1.458
		c1.084,0,2.032-0.368,2.847-1.103c0.812-0.736,1.363-1.759,1.65-3.066l3.183,1.516c-1.208,3.752-3.869,5.627-7.982,5.627
		c-2.905,0-5.095-0.782-6.571-2.346c-1.475-1.564-2.213-3.543-2.213-5.937c0-1.705,0.384-3.196,1.15-4.474
		c0.768-1.277,1.8-2.24,3.097-2.887c1.298-0.646,2.721-0.97,4.271-0.97c1.927,0,3.543,0.503,4.845,1.51V96.228z"/>
	<path fill="#FFFFFF" d="M162.319,108.996l2.787,0.895c-1.169,1.837-2.996,2.754-5.483,2.754c-1.983,0-3.529-0.523-4.642-1.568
		c-1.111-1.046-1.668-2.42-1.668-4.124c0-1.736,0.573-3.183,1.721-4.346c1.146-1.162,2.605-1.744,4.379-1.744
		c1.286,0,2.398,0.326,3.335,0.976c0.938,0.653,1.589,1.46,1.952,2.429c0.364,0.968,0.546,2.048,0.546,3.241h-8.378
		c0.055,1.023,0.379,1.749,0.971,2.174c0.593,0.426,1.219,0.638,1.877,0.638C160.576,110.321,161.443,109.88,162.319,108.996z
		 M161.633,105.512c-0.084-0.627-0.329-1.162-0.735-1.604c-0.408-0.442-0.965-0.661-1.67-0.661c-1.317,0-2.083,0.754-2.301,2.265
		H161.633z"/>
	<path fill="#FFFFFF" d="M165.959,103.733v-2.59h5.309v1.045c1.084-0.812,2.185-1.219,3.301-1.219c2.27,0,3.404,1.449,3.404,4.345
		v4.485h1.696v2.591h-5.287v-6.808c0-0.613-0.084-1.03-0.249-1.256c-0.167-0.225-0.44-0.337-0.82-0.337
		c-0.666,0-1.347,0.245-2.045,0.731v5.079H173v2.591h-7.041v-2.591h1.719v-6.065H165.959z"/>
	<path fill="#FFFFFF" d="M179.498,103.733v-2.59h2.367v-1.767l3.59-2.58v4.346h2.538v2.59h-2.538v4.877
		c0,0.443,0.056,0.739,0.169,0.891c0.112,0.151,0.37,0.227,0.771,0.227c0.334,0,0.71-0.077,1.128-0.232v2.486
		c-0.922,0.379-1.824,0.568-2.707,0.568c-1.968,0-2.951-0.976-2.951-2.931v-5.887H179.498z"/>
	<path fill="#FFFFFF" d="M196.387,109.799v2.591h-7.912v-2.591h2.08v-6.065h-1.953v-2.59h5.241v2.858
		c0.202-0.82,0.661-1.533,1.378-2.133c0.715-0.599,1.562-0.899,2.537-0.899c0.163,0,0.356,0.003,0.583,0.011v3.394
		c-0.907,0-1.647,0.101-2.22,0.301c-0.574,0.201-1.045,0.643-1.419,1.324c-0.373,0.683-0.558,1.488-0.558,2.418v1.382H196.387z"/>
	<path fill="#FFFFFF" d="M207.344,108.996l2.789,0.895c-1.17,1.837-2.998,2.754-5.484,2.754c-1.982,0-3.53-0.523-4.642-1.568
		c-1.112-1.046-1.666-2.42-1.666-4.124c0-1.736,0.572-3.183,1.719-4.346c1.146-1.162,2.606-1.744,4.38-1.744
		c1.287,0,2.398,0.326,3.334,0.976c0.938,0.653,1.588,1.46,1.954,2.429c0.362,0.968,0.546,2.048,0.546,3.241h-8.379
		c0.055,1.023,0.378,1.749,0.972,2.174c0.591,0.426,1.217,0.638,1.875,0.638C205.602,110.321,206.47,109.88,207.344,108.996z
		 M206.66,105.512c-0.084-0.627-0.329-1.162-0.737-1.604c-0.409-0.442-0.965-0.661-1.668-0.661c-1.319,0-2.084,0.754-2.302,2.265
		H206.66z"/>
	<path fill="#FFFFFF" d="M228.787,101.143v4.566h-2.555c-0.583-1.256-1.493-1.883-2.731-1.883c-0.789,0-1.42,0.263-1.89,0.784
		c-0.467,0.523-0.701,1.223-0.701,2.097c0,1.062,0.249,1.847,0.743,2.353c0.495,0.508,1.104,0.761,1.825,0.761
		c0.572,0,1.115-0.164,1.626-0.494c0.511-0.328,0.922-0.764,1.231-1.307l2.788,1.226c-1.039,2.265-2.857,3.398-5.462,3.398
		c-1.958,0-3.522-0.534-4.688-1.604c-1.165-1.068-1.749-2.498-1.749-4.286c0-1.791,0.571-3.201,1.715-4.235
		c1.143-1.034,2.472-1.551,3.99-1.551c1.217,0,2.353,0.367,3.405,1.103v-0.929H228.787z"/>
	<path fill="#FFFFFF" d="M243.306,109.799v2.591h-5.404v-0.958c-1.077,0.747-2.168,1.12-3.275,1.12
		c-1.086,0-1.936-0.303-2.551-0.912c-0.616-0.609-0.924-1.468-0.924-2.577v-5.329h-1.685v-2.59h5.264v7.005
		c0,0.558,0.084,0.941,0.254,1.145c0.172,0.207,0.481,0.308,0.931,0.308c0.604,0,1.268-0.268,1.986-0.801v-5.066h-1.73v-2.59h5.32
		v8.656H243.306z"/>
	<path fill="#FFFFFF" d="M243.82,112.39v-2.591h1.766v-10.98h-1.766v-2.591h5.355v13.571h1.616v2.591H243.82z"/>
	<path fill="#FFFFFF" d="M250.418,103.733v-2.59h2.367v-1.767l3.59-2.58v4.346h3.008v2.59h-3.008v4.877
		c0,0.443,0.057,0.739,0.169,0.891c0.112,0.151,0.37,0.227,0.772,0.227c0.333,0,0.709-0.077,1.128-0.232v2.486
		c-0.923,0.379-1.825,0.568-2.709,0.568c-1.968,0-2.95-0.976-2.95-2.931v-5.887H250.418z"/>
	<path fill="#FFFFFF" d="M273.854,109.799v2.591h-5.403v-0.958c-1.077,0.747-2.168,1.12-3.276,1.12c-1.085,0-1.935-0.303-2.55-0.912
		c-0.616-0.609-0.924-1.468-0.924-2.577v-5.329h-1.685v-2.59h5.265v7.005c0,0.558,0.083,0.941,0.255,1.145
		c0.17,0.207,0.48,0.308,0.929,0.308c0.604,0,1.268-0.268,1.986-0.801v-5.066h-1.73v-2.59h5.321v8.656H273.854z"/>
	<path fill="#FFFFFF" d="M282.401,109.799v2.591h-7.912v-2.591h2.079v-6.065h-1.951v-2.59h5.239v2.858
		c0.2-0.82,0.662-1.533,1.377-2.133c0.718-0.599,1.562-0.899,2.538-0.899c0.163,0,0.357,0.003,0.582,0.011v3.394
		c-0.905,0-1.646,0.101-2.22,0.301c-0.572,0.201-1.047,0.643-1.418,1.324c-0.372,0.683-0.558,1.488-0.558,2.418v1.382H282.401z"/>
	<path fill="#FFFFFF" d="M293.957,108.996l2.79,0.895c-1.172,1.837-2.998,2.754-5.486,2.754c-1.98,0-3.528-0.523-4.641-1.568
		c-1.111-1.046-1.666-2.42-1.666-4.124c0-1.736,0.571-3.183,1.719-4.346c1.146-1.162,2.607-1.744,4.38-1.744
		c1.285,0,2.399,0.326,3.335,0.976c0.937,0.653,1.589,1.46,1.952,2.429c0.365,0.968,0.546,2.048,0.546,3.241h-8.377
		c0.054,1.023,0.376,1.749,0.971,2.174c0.593,0.426,1.217,0.638,1.875,0.638C292.215,110.321,293.082,109.88,293.957,108.996z
		 M293.273,105.512c-0.086-0.627-0.329-1.162-0.737-1.604c-0.408-0.442-0.963-0.661-1.669-0.661c-1.316,0-2.084,0.754-2.301,2.265
		H293.273z"/>
	<path fill="#FFFFFF" d="M297.62,112.39v-2.591h1.769v-10.98h-1.769v-2.591h5.358v13.571h1.614v2.591H297.62z"/>
	<path fill="#FFFFFF" d="M134.972,135.6v-2.732h2.312v-10.7h-2.312v-2.73h14.466v4.984h-3.091v-2.254h-4.856v3.74h3.497v2.731
		h-3.497v4.229h2.485v2.732H134.972z"/>
	<path fill="#FFFFFF" d="M158.065,133.136v2.59h-7.913v-2.59h2.081v-6.066h-1.953v-2.59h5.239v2.858
		c0.203-0.822,0.662-1.532,1.377-2.134c0.718-0.599,1.563-0.899,2.54-0.899c0.161,0,0.355,0.003,0.58,0.012v3.394
		c-0.905,0-1.645,0.099-2.22,0.301c-0.572,0.201-1.045,0.644-1.417,1.325s-0.557,1.487-0.557,2.417v1.383H158.065z"/>
	<path fill="#FFFFFF" d="M166.428,135.907c-1.656,0-3.057-0.524-4.2-1.573c-1.144-1.052-1.714-2.489-1.714-4.317
		c0-1.829,0.57-3.268,1.714-4.316c1.144-1.051,2.544-1.575,4.2-1.575c1.665,0,3.068,0.524,4.206,1.575
		c1.139,1.049,1.708,2.487,1.708,4.316c0,1.805-0.563,3.237-1.69,4.299C169.525,135.377,168.116,135.907,166.428,135.907z
		 M166.416,133.119c0.666,0,1.206-0.257,1.621-0.769c0.415-0.511,0.622-1.312,0.622-2.404c0-0.961-0.202-1.71-0.604-2.248
		c-0.403-0.538-0.949-0.807-1.639-0.807c-1.479,0-2.219,1.067-2.219,3.205c0,0.876,0.184,1.599,0.552,2.168
		C165.116,132.834,165.673,133.119,166.416,133.119z"/>
	<path fill="#FFFFFF" d="M172.949,126.943v-2.591h5.309v1.044c1.086-0.812,2.186-1.219,3.301-1.219c2.27,0,3.404,1.449,3.404,4.346
		v4.484h1.696v2.592h-5.287v-6.811c0-0.611-0.084-1.029-0.249-1.254c-0.167-0.226-0.44-0.336-0.818-0.336
		c-0.668,0-1.349,0.243-2.047,0.73v5.078h1.732v2.592h-7.041v-2.592h1.719v-6.064H172.949z"/>
	<path fill="#FFFFFF" d="M186.02,126.943v-2.591h2.366v-1.767l3.59-2.581v4.348h3.009v2.591h-3.009v4.877
		c0,0.443,0.057,0.738,0.169,0.89c0.111,0.152,0.371,0.229,0.773,0.229c0.332,0,0.708-0.078,1.128-0.232v2.486
		c-0.923,0.379-1.825,0.569-2.709,0.569c-1.966,0-2.951-0.979-2.951-2.933v-5.886H186.02z"/>
	<path fill="#FFFFFF" d="M204.138,132.206l2.788,0.896c-1.17,1.835-2.998,2.752-5.484,2.752c-1.982,0-3.53-0.521-4.64-1.567
		c-1.113-1.046-1.67-2.421-1.67-4.124c0-1.736,0.575-3.186,1.721-4.347c1.146-1.161,2.606-1.743,4.381-1.743
		c1.285,0,2.397,0.325,3.334,0.977c0.937,0.652,1.589,1.459,1.951,2.429c0.365,0.967,0.547,2.047,0.547,3.241h-8.378
		c0.055,1.023,0.378,1.748,0.972,2.173c0.592,0.427,1.218,0.64,1.876,0.64C202.395,133.531,203.263,133.09,204.138,132.206z
		 M203.452,128.72c-0.083-0.628-0.329-1.162-0.735-1.604c-0.408-0.44-0.965-0.661-1.671-0.661c-1.315,0-2.083,0.755-2.299,2.265
		H203.452z"/>
	<path fill="#FFFFFF" d="M207.778,126.943v-2.591h5.31v1.044c1.085-0.812,2.184-1.219,3.3-1.219c2.27,0,3.404,1.449,3.404,4.346
		v4.484h1.696v2.592h-5.287v-6.811c0-0.611-0.082-1.029-0.249-1.254c-0.166-0.226-0.439-0.336-0.819-0.336
		c-0.666,0-1.348,0.243-2.045,0.73v5.078h1.73v2.592h-7.04v-2.592h1.72v-6.064H207.778z"/>
	<path fill="#FFFFFF" d="M234.399,133.008v2.592h-5.402v-0.89c-0.968,0.7-1.99,1.052-3.066,1.052c-1.115,0-2.078-0.318-2.888-0.953
		c-0.811-0.635-1.214-1.488-1.214-2.556c0-1.078,0.426-1.979,1.278-2.708c0.851-0.729,1.951-1.092,3.298-1.092
		c0.752,0,1.616,0.19,2.592,0.569v-0.686c0-0.573-0.194-1.044-0.58-1.412c-0.388-0.368-0.908-0.551-1.558-0.551
		c-0.807,0-1.494,0.293-2.069,0.882l-2.892-0.523c0.837-1.771,2.653-2.66,5.449-2.66c1.085,0,1.983,0.122,2.695,0.366
		c0.713,0.244,1.243,0.56,1.592,0.947c0.348,0.388,0.595,0.812,0.739,1.272c0.142,0.46,0.213,1.21,0.213,2.248v4.102H234.399z
		 M228.997,131.438c-0.867-0.543-1.561-0.812-2.079-0.812c-0.41,0-0.786,0.119-1.123,0.36c-0.336,0.24-0.505,0.589-0.505,1.046
		c0,0.41,0.137,0.763,0.407,1.058c0.272,0.294,0.621,0.441,1.047,0.441c0.666,0,1.417-0.392,2.253-1.175V131.438z"/>
	<path fill="#FFFFFF" d="M245.8,124.353v4.565h-2.558c-0.582-1.255-1.491-1.883-2.73-1.883c-0.79,0-1.42,0.262-1.889,0.785
		c-0.469,0.522-0.703,1.222-0.703,2.097c0,1.062,0.248,1.846,0.744,2.354c0.494,0.508,1.103,0.761,1.824,0.761
		c0.572,0,1.116-0.165,1.626-0.494c0.512-0.328,0.924-0.766,1.231-1.307l2.79,1.227c-1.038,2.264-2.858,3.396-5.462,3.396
		c-1.96,0-3.522-0.534-4.688-1.603c-1.166-1.069-1.749-2.498-1.749-4.287c0-1.79,0.572-3.202,1.715-4.234
		c1.141-1.034,2.472-1.552,3.99-1.552c1.217,0,2.351,0.368,3.403,1.104v-0.929H245.8z"/>
</g>
<path fill="#FFFFFF" d="M87.202,81.711C68.344,81.711,53,97.055,53,115.913c0,16.335,11.513,30.023,26.847,33.397
	c0.078,0.017,0.155,0.039,0.234,0.055c1.733,0.369,3.512,0.609,5.331,0.705c0-1.416,0-3.104,0-4.971c0-6.521,0-15.258,0-22.418
	c0-1.749,0-3.401,0-4.907c0-1.982,0-3.703,0-5.039c0-5.496-3.272-8.377-9.358-8.377c-1.047,0-2.554,0.199-3.601,0.523v3.359v1.485
	c0.981-0.328,2.162-0.46,3.143-0.46c2.684,0,4.251,0.852,4.251,3.798v1.804v2.907h-7.394v2.489v2.418h7.394v21.532
	c-12.575-3.27-21.889-14.716-21.889-28.3c0-16.124,13.119-29.245,29.244-29.245c16.127,0,29.246,13.122,29.246,29.245
	c0,13.607-9.344,25.065-21.948,28.316v-21.548h7.394v-2.418v-2.489H94.5v-2.907v-1.804c0-2.946,1.569-3.798,4.251-3.798
	c0.981,0,2.161,0.132,3.143,0.46v-1.485v-3.358c-1.048-0.325-2.553-0.523-3.6-0.523c-6.086,0-9.358,2.881-9.358,8.377
	c0,1.336,0,3.056,0,5.039c0,1.506,0,3.158,0,4.907c0,7.16,0,15.899,0,22.423c0,1.867,0,3.554,0,4.968
	c1.819-0.092,3.599-0.327,5.333-0.693c0.077-0.017,0.154-0.038,0.232-0.056c15.364-3.351,26.904-17.054,26.904-33.41
	C121.404,97.055,106.062,81.711,87.202,81.711z"/>
<circle fill="#FFFFFF" cx="87.174" cy="97.485" r="5.43"/>
</svg>
