<?xml version="1.0" encoding="utf-8"?>
<!-- Generator: Adobe Illustrator 16.0.0, SVG Export Plug-In . SVG Version: 6.00 Build 0)  -->
<!DOCTYPE svg PUBLIC "-//W3C//DTD SVG 1.1//EN" "http://www.w3.org/Graphics/SVG/1.1/DTD/svg11.dtd">
<svg version="1.1" id="Layer_1" xmlns="http://www.w3.org/2000/svg" xmlns:xlink="http://www.w3.org/1999/xlink" x="0px" y="0px"
	 width="358px" height="231px" viewBox="0 0 358 231" enable-background="new 0 0 358 231" xml:space="preserve">
<g>
	<path fill="#FFFFFF" d="M203.024,109.895c-0.91,0-1.978-0.473-2.643-1.067l0.876-1.383c0.438,0.35,1.207,0.806,1.785,0.806
		c0.891,0,1.486-0.631,1.486-1.505c0-1.838-4.374-2.118-4.374-5.478c0-1.784,1.365-2.922,3.096-2.922
		c1.051,0,2.259,0.524,2.87,1.381l-1.049,1.032c-0.421-0.454-1.104-0.839-1.732-0.839c-0.754,0-1.313,0.49-1.313,1.261
		c0,2.309,4.374,2.012,4.374,5.581C206.4,108.67,204.862,109.895,203.024,109.895"/>
	<path fill="#FFFFFF" d="M211.983,105.642l-2.45,1.016c-0.07,0.245-0.139,0.524-0.139,0.77c0,0.49,0.279,0.963,0.804,0.963
		c1.119,0,1.785-1.383,1.785-2.433V105.642z M213.681,109.877c-0.77,0-1.383-0.473-1.523-1.242
		c-0.524,0.805-1.171,1.259-2.168,1.259c-1.558,0-2.328-0.927-2.328-2.449c0-0.542,0.279-1.26,0.525-1.732l3.762-1.627v-0.858
		c0-0.664-0.421-0.856-1.016-0.856c-0.77,0-1.68,0.524-2.221,1.05l-0.632-1.103c0.701-0.84,1.909-1.521,3.01-1.521
		c1.576,0,2.714,0.77,2.714,2.449v4.987c0,0.21,0.069,0.454,0.331,0.454c0.106,0,0.211-0.052,0.315-0.104l0.472,0.927
		C214.556,109.736,214.117,109.877,213.681,109.877"/>
	<path fill="#FFFFFF" d="M219.034,102.124c-0.91,0-1.189,0.788-1.189,1.559c0,0.875,0.191,1.715,1.225,1.715
		c0.91,0,1.172-0.84,1.172-1.593C220.241,103.035,219.961,102.124,219.034,102.124 M219.595,109.387h-1.015
		c0,0-1.032,0.525-1.032,1.243c0,0.893,0.664,1.137,1.312,1.137c1.016,0,2.064-0.63,2.064-1.715
		C220.924,109.387,220.066,109.387,219.595,109.387 M221.765,102.633c0.121,0.402,0.244,0.857,0.244,1.295
		c0,1.435-0.806,2.467-2.222,2.816c-0.192,0.035-0.386,0.054-0.595,0.105c-0.28,0.07-1.051,0.21-1.051,0.787
		c0,0.474,1.383,0.332,1.784,0.332h0.561c1.174,0,2.205,0.683,2.205,1.943c0,2.064-2.047,3.185-3.902,3.185
		c-1.418,0-3.043-0.561-3.043-2.223c0-0.874,0.925-1.522,1.573-1.803c-0.525-0.069-1.032-0.647-1.032-1.241
		c0-0.683,0.612-1.174,1.225-1.4c-1.015-0.42-1.469-1.575-1.469-2.556c0-1.872,1.241-3.079,3.096-3.079
		c0.491,0,0.998,0.071,1.435,0.262h2.188v1.576H221.765z"/>
	<path fill="#FFFFFF" d="M227.484,102.161c-0.892,0-1.312,0.769-1.504,1.556h2.922C228.833,102.913,228.377,102.161,227.484,102.161
		 M225.735,105.239c-0.017,0.105-0.017,0.211-0.017,0.315c0,0.98,0.419,2.782,1.678,2.782c0.736,0,1.698-0.489,2.293-0.945
		l0.612,1.19c-0.751,0.63-2.029,1.312-3.01,1.312c-2.589,0-3.43-2.59-3.43-4.76s1.382-4.341,3.745-4.341
		c1.697,0,3.062,1.663,3.114,3.291c0,0.385,0.018,0.77,0.018,1.154H225.735z"/>
	<path fill="#FFFFFF" d="M234.957,109.895c-0.857,0-1.925-0.525-2.592-1.05l0.685-1.226c0.489,0.351,1.347,0.806,1.959,0.806
		c0.665,0,1.312-0.263,1.312-1.032c0-0.508-0.473-0.841-0.875-1.05c-0.787-0.421-1.592-0.823-2.38-1.243
		c-0.629-0.332-0.945-1.085-0.945-1.784c0-1.697,1.487-2.521,3.045-2.521c0.91,0,2.117,0.386,2.66,1.189l-0.963,0.945
		c-0.42-0.438-1.138-0.718-1.732-0.718c-0.524,0-1.189,0.368-1.189,0.962c0,0.438,0.49,0.719,0.822,0.876l2.136,1.085
		c0.787,0.402,1.224,1.26,1.224,2.117C238.123,109.036,236.565,109.895,234.957,109.895"/>
	<rect x="239.418" y="104.382" fill="#FFFFFF" width="3.763" height="1.575"/>
	<path fill="#FFFFFF" d="M247.152,100.165v0.892h1.592v1.541h-1.592v7.034h-1.839v-7.069l-1.119-0.192v-1.313h1.119v-0.979
		c0-2.693,3.256-2.799,3.256-2.799l0.313,1.33C248.883,98.608,247.152,98.712,247.152,100.165"/>
	<path fill="#FFFFFF" d="M253.346,102.161c-0.894,0-1.312,0.769-1.506,1.556h2.923C254.692,102.913,254.237,102.161,253.346,102.161
		 M251.596,105.239c-0.018,0.105-0.018,0.211-0.018,0.315c0,0.98,0.42,2.782,1.681,2.782c0.734,0,1.695-0.489,2.291-0.945
		l0.613,1.19c-0.753,0.63-2.03,1.312-3.011,1.312c-2.589,0-3.43-2.59-3.43-4.76s1.383-4.341,3.745-4.341
		c1.697,0,3.062,1.663,3.114,3.291c0,0.385,0.018,0.77,0.018,1.154H251.596z"/>
	<path fill="#FFFFFF" d="M267.589,109.632v-6.404c0-0.63-0.157-0.841-0.753-0.841c-0.753,0-1.436,0.508-1.82,0.787v6.458h-1.836
		v-6.159c0-0.63-0.158-1.086-0.753-1.086c-0.684,0-1.751,0.7-2.048,0.945v6.3h-1.837v-8.575h1.837v0.613
		c0.333-0.298,1.453-0.875,2.152-0.875c0.98,0,1.646,0.542,2.013,1.016c0.543-0.333,1.539-1.016,2.396-1.016
		c1.942,0,2.486,1.086,2.486,2.433v6.404H267.589z"/>
	<path fill="#FFFFFF" d="M281.079,109.632v-6.404c0-0.63-0.158-0.841-0.754-0.841c-0.751,0-1.434,0.508-1.819,0.787v6.458h-1.837
		v-6.159c0-0.63-0.158-1.086-0.752-1.086c-0.684,0-1.751,0.7-2.047,0.945v6.3h-1.837v-8.575h1.837v0.613
		c0.332-0.298,1.451-0.875,2.152-0.875c0.979,0,1.644,0.542,2.012,1.016c0.543-0.333,1.54-1.016,2.396-1.016
		c1.943,0,2.485,1.086,2.485,2.433v6.404H281.079z"/>
	<path fill="#FFFFFF" d="M288.567,102.161c-0.893,0-1.312,0.769-1.506,1.556h2.923C289.914,102.913,289.46,102.161,288.567,102.161
		 M286.816,105.239c-0.018,0.105-0.018,0.211-0.018,0.315c0,0.98,0.421,2.782,1.681,2.782c0.734,0,1.697-0.489,2.292-0.945
		l0.613,1.19c-0.754,0.63-2.03,1.312-3.011,1.312c-2.589,0-3.43-2.59-3.43-4.76s1.383-4.341,3.745-4.341
		c1.697,0,3.062,1.663,3.115,3.291c0,0.385,0.018,0.77,0.018,1.154H286.816z"/>
	<path fill="#FFFFFF" d="M296.038,109.895c-0.857,0-1.926-0.525-2.59-1.05l0.682-1.226c0.49,0.351,1.348,0.806,1.961,0.806
		c0.664,0,1.312-0.263,1.312-1.032c0-0.508-0.473-0.841-0.876-1.05c-0.787-0.421-1.592-0.823-2.38-1.243
		c-0.629-0.332-0.944-1.085-0.944-1.784c0-1.697,1.486-2.521,3.044-2.521c0.911,0,2.118,0.386,2.661,1.189l-0.964,0.945
		c-0.419-0.438-1.137-0.718-1.731-0.718c-0.526,0-1.189,0.368-1.189,0.962c0,0.438,0.489,0.719,0.822,0.876l2.134,1.085
		c0.787,0.402,1.225,1.26,1.225,2.117C299.204,109.036,297.647,109.895,296.038,109.895"/>
	<path fill="#FFFFFF" d="M205.058,121.592c0,0-0.943-0.289-1.595-0.289c-1.448,0-1.667,1.792-1.667,3.239
		c0,0.853,0.183,2.772,1.451,2.863c1.231,0.09,1.811-1.866,1.811-2.792V121.592z M206.979,129.054c0,0-0.727,0.036-1.053-0.181
		c-0.396-0.271-0.578-0.707-0.689-1.176c-0.29,0.558-0.979,1.356-2.118,1.356c-2.01,0-3.278-1.976-3.278-4.313
		c0-2.516,0.76-5.104,3.55-5.104c0.744,0,1.668,0.289,1.668,0.289v-3.732h1.9v10.723c0,0.545,0.037,0.781,0.597,0.781
		L206.979,129.054z"/>
	<path fill="#FFFFFF" d="M212.388,121.048c-0.923,0-1.358,0.798-1.557,1.611h3.023C213.782,121.828,213.312,121.048,212.388,121.048
		 M210.576,124.237c-0.02,0.108-0.02,0.218-0.02,0.323c0,1.014,0.437,2.88,1.741,2.88c0.761,0,1.757-0.507,2.372-0.978l0.636,1.234
		c-0.781,0.651-2.101,1.356-3.117,1.356c-2.681,0-3.549-2.681-3.549-4.928s1.431-4.489,3.876-4.489c1.76,0,3.17,1.718,3.225,3.404
		c0,0.396,0.017,0.796,0.017,1.196H210.576z"/>
	<path fill="#FFFFFF" d="M222.545,128.78c-0.201-0.504-0.525-1.628-0.525-3.709v-8.879h1.864v8.879c0,1.464,0.218,2.352,0.617,3.709
		H222.545z"/>
	<path fill="#FFFFFF" d="M226.42,121.684l-1.124-0.78c0.562-0.815,1.216-1.903,1.216-2.917c0-0.146-0.021-0.289-0.056-0.435
		c0.289-0.215,0.741-0.454,1.086-0.454c0.56,0,1.161,0.618,1.446,1.053C228.338,119.419,227.415,120.65,226.42,121.684"/>
	<path fill="#FFFFFF" d="M233.697,121.048c-0.921,0-1.356,0.798-1.557,1.611h3.024C235.093,121.828,234.622,121.048,233.697,121.048
		 M231.887,124.237c-0.018,0.108-0.018,0.218-0.018,0.323c0,1.014,0.436,2.88,1.739,2.88c0.758,0,1.755-0.507,2.373-0.978
		l0.632,1.234c-0.778,0.651-2.1,1.356-3.114,1.356c-2.68,0-3.552-2.681-3.552-4.928s1.432-4.489,3.879-4.489
		c1.755,0,3.166,1.718,3.222,3.404c0,0.396,0.02,0.796,0.02,1.196H231.887z"/>
	<path fill="#FFFFFF" d="M240.976,129.054c-0.889,0-1.99-0.545-2.679-1.087l0.705-1.267c0.507,0.358,1.395,0.83,2.028,0.83
		c0.688,0,1.359-0.27,1.359-1.067c0-0.523-0.49-0.868-0.905-1.088c-0.816-0.432-1.651-0.848-2.464-1.284
		c-0.652-0.345-0.978-1.124-0.978-1.849c0-1.753,1.537-2.605,3.149-2.605c0.942,0,2.192,0.396,2.754,1.23l-0.998,0.979
		c-0.435-0.453-1.178-0.742-1.791-0.742c-0.544,0-1.232,0.38-1.232,0.994c0,0.455,0.507,0.744,0.853,0.907l2.21,1.121
		c0.813,0.416,1.267,1.304,1.267,2.192C244.254,128.166,242.643,129.054,240.976,129.054"/>
	<path fill="#FFFFFF" d="M247.638,129.054c-1.321,0-1.811-1.032-1.811-2.227v-5.363l-1.144-0.198v-1.36h1.217v-1.593h1.791v1.593
		h1.612v1.615h-1.577v5.251c0,0.287,0.02,0.634,0.456,0.634c0.417,0,0.94-0.234,0.94-0.234l0.454,1.338
		C248.796,128.892,248.525,129.054,247.638,129.054"/>
	<path fill="#FFFFFF" d="M260.459,121.592c0,0-0.943-0.289-1.595-0.289c-1.449,0-1.669,1.792-1.669,3.239
		c0,0.853,0.186,2.772,1.45,2.863c1.233,0.09,1.813-1.866,1.813-2.792V121.592z M262.377,129.054c0,0-0.726,0.036-1.051-0.181
		c-0.399-0.271-0.578-0.707-0.689-1.176c-0.286,0.558-0.977,1.356-2.116,1.356c-2.012,0-3.28-1.976-3.28-4.313
		c0-2.516,0.761-5.104,3.551-5.104c0.742,0,1.668,0.289,1.668,0.289v-3.732h1.9v10.723c0,0.545,0.035,0.781,0.599,0.781
		L262.377,129.054z"/>
	<path fill="#FFFFFF" d="M264.944,121.684l-1.121-0.78c0.561-0.815,1.212-1.903,1.212-2.917c0-0.146-0.017-0.289-0.055-0.435
		c0.292-0.215,0.743-0.454,1.088-0.454c0.56,0,1.159,0.618,1.448,1.053C266.867,119.419,265.941,120.65,264.944,121.684"/>
	<path fill="#FFFFFF" d="M272.297,118.838c-1.646,0-2.081,2.465-2.081,4.238c0,1.775,0.436,4.238,2.081,4.238
		c1.65,0,2.082-2.463,2.082-4.238C274.379,121.303,273.947,118.838,272.297,118.838 M272.297,129.054
		c-2.949,0-4.056-3.297-4.056-5.978s1.156-5.978,4.056-5.978c2.935,0,4.058,3.297,4.058,5.978S275.231,129.054,272.297,129.054"/>
	<path fill="#FFFFFF" d="M280.062,129.054c-1.319,0-1.809-1.032-1.809-2.227v-5.363l-1.142-0.198v-1.36h1.215v-1.593h1.793v1.593
		h1.611v1.615h-1.577v5.251c0,0.287,0.02,0.634,0.456,0.634c0.415,0,0.94-0.234,0.94-0.234l0.453,1.338
		C281.224,128.892,280.952,129.054,280.062,129.054"/>
	<path fill="#FFFFFF" d="M285.149,129.054c-1.319,0-1.809-1.032-1.809-2.227v-5.363l-1.143-0.198v-1.36h1.216v-1.593h1.792v1.593
		h1.612v1.615h-1.577v5.251c0,0.287,0.021,0.634,0.456,0.634c0.413,0,0.938-0.234,0.938-0.234l0.455,1.338
		C286.311,128.892,286.037,129.054,285.149,129.054"/>
	<path fill="#FFFFFF" d="M292.14,124.652l-2.536,1.051c-0.071,0.253-0.142,0.544-0.142,0.795c0,0.509,0.288,0.997,0.831,0.997
		c1.158,0,1.847-1.427,1.847-2.517V124.652z M293.896,129.036c-0.793,0-1.43-0.491-1.574-1.288
		c-0.543,0.835-1.215,1.306-2.247,1.306c-1.612,0-2.407-0.961-2.407-2.534c0-0.563,0.29-1.307,0.541-1.795l3.896-1.684v-0.888
		c0-0.689-0.437-0.888-1.05-0.888c-0.797,0-1.738,0.54-2.301,1.087l-0.651-1.143c0.726-0.866,1.973-1.573,3.114-1.573
		c1.631,0,2.809,0.795,2.809,2.534v5.16c0,0.222,0.072,0.473,0.344,0.473c0.108,0,0.216-0.056,0.325-0.106l0.489,0.958
		C294.804,128.892,294.352,129.036,293.896,129.036"/>
	<path fill="#FFFFFF" d="M304.273,128.78h-1.811l-0.908-3.258c-0.233-0.888-0.469-2.446-0.469-2.446s-0.236,1.577-0.49,2.446
		l-0.923,3.258h-1.882l-2.719-8.875h2.009l1.633,6.034l1.43-6.034h1.812l1.558,6.034c0.613-1.939,1.177-4.296,1.395-6.034h1.991
		C306.48,123.022,305.396,126.282,304.273,128.78"/>
	<path fill="#FFFFFF" d="M311.802,124.652l-2.533,1.051c-0.073,0.253-0.147,0.544-0.147,0.795c0,0.509,0.292,0.997,0.835,0.997
		c1.158,0,1.846-1.427,1.846-2.517V124.652z M313.562,129.036c-0.8,0-1.434-0.491-1.578-1.288c-0.543,0.835-1.215,1.306-2.247,1.306
		c-1.612,0-2.409-0.961-2.409-2.534c0-0.563,0.29-1.307,0.543-1.795l3.896-1.684v-0.888c0-0.689-0.437-0.888-1.05-0.888
		c-0.797,0-1.739,0.54-2.302,1.087l-0.651-1.143c0.727-0.866,1.974-1.573,3.115-1.573c1.631,0,2.809,0.795,2.809,2.534v5.16
		c0,0.222,0.072,0.473,0.344,0.473c0.107,0,0.217-0.056,0.326-0.106l0.488,0.958C314.466,128.892,314.014,129.036,313.562,129.036"
		/>
	<polygon fill="#FFFFFF" points="40.243,109.762 40.243,98.35 46.401,98.35 46.401,100.106 42.217,100.106 42.217,102.935 
		45.425,102.935 45.425,104.71 42.217,104.71 42.217,107.969 46.581,107.969 46.581,109.762 	"/>
	<path fill="#FFFFFF" d="M52.321,105.635l-2.536,1.048c-0.074,0.254-0.145,0.546-0.145,0.798c0,0.506,0.289,0.998,0.832,0.998
		c1.161,0,1.849-1.433,1.849-2.521V105.635z M54.077,110.017c-0.794,0-1.431-0.49-1.575-1.287c-0.542,0.834-1.212,1.305-2.247,1.305
		c-1.611,0-2.408-0.96-2.408-2.537c0-0.561,0.29-1.301,0.543-1.791l3.893-1.686v-0.887c0-0.689-0.434-0.889-1.05-0.889
		c-0.797,0-1.74,0.544-2.298,1.09l-0.653-1.142c0.725-0.87,1.973-1.577,3.114-1.577c1.63,0,2.809,0.794,2.809,2.536v5.161
		c0,0.217,0.072,0.472,0.345,0.472c0.107,0,0.216-0.056,0.325-0.109l0.487,0.957C54.982,109.871,54.53,110.017,54.077,110.017"/>
	<path fill="#FFFFFF" d="M59.325,110.034c-0.884,0-1.992-0.546-2.679-1.084l0.707-1.271c0.506,0.362,1.393,0.834,2.027,0.834
		c0.689,0,1.359-0.273,1.359-1.07c0-0.524-0.49-0.867-0.908-1.087c-0.814-0.434-1.644-0.851-2.46-1.286
		c-0.654-0.343-0.979-1.12-0.979-1.845c0-1.757,1.538-2.609,3.15-2.609c0.944,0,2.192,0.4,2.754,1.23l-0.997,0.979
		c-0.435-0.451-1.177-0.74-1.792-0.74c-0.543,0-1.233,0.38-1.233,0.994c0,0.453,0.507,0.742,0.851,0.904l2.211,1.122
		c0.815,0.417,1.267,1.306,1.267,2.195C62.604,109.146,60.993,110.034,59.325,110.034"/>
	<path fill="#FFFFFF" d="M66.442,110.034c-1.322,0-1.811-1.033-1.811-2.228v-5.361l-1.142-0.201v-1.356h1.213v-1.593h1.795v1.593
		h1.611v1.613h-1.575v5.251c0,0.29,0.016,0.634,0.451,0.634c0.417,0,0.943-0.237,0.943-0.237l0.452,1.34
		C67.601,109.87,67.329,110.034,66.442,110.034"/>
	<path fill="#FFFFFF" d="M79.116,99.82c-1.648,0-2.083,2.46-2.083,4.235c0,1.776,0.434,4.24,2.083,4.24
		c1.646,0,2.082-2.464,2.082-4.24C81.198,102.28,80.762,99.82,79.116,99.82 M79.116,110.034c-2.952,0-4.058-3.297-4.058-5.979
		c0-2.679,1.16-5.974,4.058-5.974c2.934,0,4.056,3.295,4.056,5.974C83.172,106.737,82.05,110.034,79.116,110.034"/>
	<path fill="#FFFFFF" d="M87.334,110.034c-1.321,0-1.813-1.033-1.813-2.228v-5.361l-1.139-0.201v-1.356h1.212v-1.593h1.793v1.593H89
		v1.613h-1.577v5.251c0,0.29,0.02,0.634,0.456,0.634c0.417,0,0.939-0.237,0.939-0.237l0.451,1.34
		C88.493,109.87,88.22,110.034,87.334,110.034"/>
	<path fill="#FFFFFF" d="M92.876,110.034c-1.323,0-1.813-1.033-1.813-2.228v-5.361l-1.139-0.201v-1.356h1.211v-1.593h1.792v1.593
		h1.613v1.613h-1.575v5.251c0,0.29,0.018,0.634,0.453,0.634c0.416,0,0.939-0.237,0.939-0.237l0.456,1.34
		C94.033,109.87,93.764,110.034,92.876,110.034"/>
	<path fill="#FFFFFF" d="M100.317,105.635l-2.535,1.048c-0.073,0.254-0.146,0.546-0.146,0.798c0,0.506,0.289,0.998,0.833,0.998
		c1.159,0,1.848-1.433,1.848-2.521V105.635z M102.074,110.017c-0.796,0-1.43-0.49-1.575-1.287c-0.544,0.834-1.214,1.305-2.244,1.305
		c-1.613,0-2.412-0.96-2.412-2.537c0-0.561,0.292-1.301,0.545-1.791l3.893-1.686v-0.887c0-0.689-0.434-0.889-1.053-0.889
		c-0.796,0-1.735,0.544-2.298,1.09l-0.654-1.142c0.725-0.87,1.978-1.577,3.119-1.577c1.629,0,2.806,0.794,2.806,2.536v5.161
		c0,0.217,0.071,0.472,0.345,0.472c0.107,0,0.218-0.056,0.324-0.109l0.49,0.957C102.981,109.871,102.525,110.017,102.074,110.017"/>
	<path fill="#FFFFFF" d="M112.903,109.762h-1.813l-0.905-3.259c-0.238-0.888-0.471-2.447-0.471-2.447s-0.236,1.579-0.49,2.447
		l-0.923,3.259h-1.884l-2.718-8.874h2.013l1.628,6.031l1.431-6.031h1.812l1.558,6.031c0.616-1.936,1.177-4.294,1.392-6.031h1.994
		C115.11,104.002,114.025,107.264,112.903,109.762"/>
	<path fill="#FFFFFF" d="M120.884,105.635l-2.536,1.048c-0.072,0.254-0.145,0.546-0.145,0.798c0,0.506,0.292,0.998,0.834,0.998
		c1.157,0,1.847-1.433,1.847-2.521V105.635z M122.64,110.017c-0.795,0-1.431-0.49-1.574-1.287c-0.544,0.834-1.214,1.305-2.246,1.305
		c-1.614,0-2.411-0.96-2.411-2.537c0-0.561,0.292-1.301,0.543-1.791l3.895-1.686v-0.887c0-0.689-0.436-0.889-1.05-0.889
		c-0.795,0-1.739,0.544-2.299,1.09l-0.653-1.142c0.726-0.87,1.975-1.577,3.114-1.577c1.629,0,2.807,0.794,2.807,2.536v5.161
		c0,0.217,0.075,0.472,0.344,0.472c0.111,0,0.218-0.056,0.327-0.109l0.49,0.957C123.547,109.871,123.095,110.017,122.64,110.017"/>
	<path fill="#FFFFFF" d="M66.442,128.78v-6.285l0.146-1.321l-2.643,7.606h-1.631l-2.645-7.606l0.146,1.321v6.285h-1.976v-11.408
		h2.318l2.716,7.733c0.183,0.543,0.254,1.014,0.254,1.014s0.074-0.486,0.253-1.014l2.715-7.733h2.322v11.408H66.442z"/>
	<path fill="#FFFFFF" d="M71.058,119.906h1.864v8.875h-1.864V119.906z M71.962,118.874c-0.65,0-1.211-0.489-1.211-1.157
		c0-0.688,0.617-1.253,1.284-1.253c0.652,0,1.214,0.494,1.214,1.162C73.249,118.313,72.633,118.874,71.962,118.874"/>
	<path fill="#FFFFFF" d="M80.167,121.592c0,0-0.941-0.289-1.595-0.289c-1.448,0-1.664,1.792-1.664,3.239
		c0,0.853,0.18,2.772,1.448,2.863c1.23,0.09,1.811-1.866,1.811-2.792V121.592z M82.086,129.054c0,0-0.725,0.036-1.05-0.181
		c-0.4-0.271-0.583-0.707-0.689-1.176c-0.289,0.558-0.979,1.356-2.12,1.356c-2.009,0-3.277-1.976-3.277-4.313
		c0-2.516,0.761-5.104,3.55-5.104c0.741,0,1.667,0.289,1.667,0.289v-3.732h1.9v10.723c0,0.545,0.038,0.781,0.599,0.781
		L82.086,129.054z"/>
	<path fill="#FFFFFF" d="M92.732,128.78H90.92l-0.905-3.258c-0.235-0.888-0.471-2.446-0.471-2.446s-0.234,1.577-0.487,2.446
		l-0.924,3.258h-1.884l-2.716-8.875h2.009l1.631,6.034l1.429-6.034h1.812l1.56,6.034c0.614-1.939,1.177-4.296,1.395-6.034h1.988
		C94.941,123.022,93.855,126.282,92.732,128.78"/>
	<path fill="#FFFFFF" d="M96.768,119.906h1.864v8.875h-1.864V119.906z M97.671,118.874c-0.652,0-1.212-0.489-1.212-1.157
		c0-0.688,0.615-1.253,1.287-1.253c0.651,0,1.214,0.494,1.214,1.162C98.959,118.313,98.341,118.874,97.671,118.874"/>
	<path fill="#FFFFFF" d="M104.645,128.78h-1.397l-3.224-8.875h2.047l1.938,6.141c0.799-2.027,1.413-4.003,1.865-6.141h2.029
		C107.071,122.949,105.984,125.922,104.645,128.78"/>
	<path fill="#FFFFFF" d="M112.575,121.048c-0.926,0-1.36,0.798-1.562,1.611h3.027C113.969,121.828,113.499,121.048,112.575,121.048
		 M110.764,124.237c-0.021,0.108-0.021,0.218-0.021,0.323c0,1.014,0.436,2.88,1.74,2.88c0.761,0,1.755-0.507,2.372-0.978
		l0.636,1.234c-0.781,0.651-2.102,1.356-3.117,1.356c-2.68,0-3.548-2.681-3.548-4.928s1.43-4.489,3.874-4.489
		c1.758,0,3.173,1.718,3.224,3.404c0,0.396,0.019,0.796,0.019,1.196H110.764z"/>
	<path fill="#FFFFFF" d="M120.306,129.054c-0.887,0-1.993-0.545-2.683-1.087l0.708-1.267c0.507,0.358,1.393,0.83,2.029,0.83
		c0.688,0,1.359-0.27,1.359-1.067c0-0.523-0.492-0.868-0.906-1.088c-0.816-0.432-1.648-0.848-2.464-1.284
		c-0.653-0.345-0.979-1.124-0.979-1.849c0-1.753,1.542-2.605,3.152-2.605c0.942,0,2.191,0.396,2.752,1.23l-0.994,0.979
		c-0.436-0.453-1.177-0.742-1.795-0.742c-0.54,0-1.229,0.38-1.229,0.994c0,0.455,0.506,0.744,0.849,0.907l2.211,1.121
		c0.815,0.416,1.268,1.304,1.268,2.192C123.583,128.166,121.97,129.054,120.306,129.054"/>
	<path fill="#FFFFFF" d="M143.759,121.097c-3.569-12.149,3.385-24.896,15.537-28.467c5.652-1.663,11.433-1.042,16.36,1.317
		c-5.932-3.649-13.327-4.864-20.534-2.748c-13.502,3.971-21.227,18.131-17.26,31.634c3.971,13.5,18.129,21.226,31.631,17.257
		c7.211-2.12,12.77-7.147,15.783-13.424c-2.867,4.652-7.394,8.302-13.048,9.965C160.078,140.201,147.335,133.246,143.759,121.097"/>
	<path fill="#FFFFFF" d="M160.309,95.05c-5.794,1.703-10.259,5.743-12.681,10.787c2.303-3.736,5.939-6.669,10.483-8.004
		c9.764-2.87,20.003,2.716,22.874,12.478c2.871,9.764-2.717,20.005-12.48,22.874c-4.545,1.336-9.19,0.839-13.151-1.058
		c4.771,2.931,10.711,3.912,16.505,2.207c10.847-3.188,17.055-14.567,13.866-25.416S171.155,91.863,160.309,95.05"/>
</g>
</svg>
