<?xml version="1.0" encoding="utf-8"?>
<!-- Generator: Adobe Illustrator 16.0.0, SVG Export Plug-In . SVG Version: 6.00 Build 0)  -->
<!DOCTYPE svg PUBLIC "-//W3C//DTD SVG 1.1//EN" "http://www.w3.org/Graphics/SVG/1.1/DTD/svg11.dtd">
<svg version="1.1" id="Layer_1" xmlns="http://www.w3.org/2000/svg" xmlns:xlink="http://www.w3.org/1999/xlink" x="0px" y="0px"
	 width="358px" height="231px" viewBox="0 0 358 231" enable-background="new 0 0 358 231" xml:space="preserve">
<g>
	<path fill="#FFFFFF" d="M182.446,127.81c10.743-6.928,28.218-39.23,21.479-58.274c-10.144-19.443-16.472-5.033-17.234-4.034
		c-7.246,8.843-29.29,9.957-33.862,17.69c-8.694,10.296,3.271,20.329,7.779,17.386c-4.581-1.678-10.58-13.42,0.509-15.865
		c14.513-1.223,23.69-9.683,25.71-12.006C194.776,63.594,207.74,88.528,182.446,127.81"/>
	<path fill="#FFFFFF" d="M152.449,107.662c-0.896-9.162-16.125-16.347-22.116-9.305c-8.788,10.332-16.319,18.972-23.789,22.97
		c-2.601,1.285-4.548,2.258-7.1,4.919c-11.182,15.393,16.245,28.548,34.699,14.968c-9.607,2.747-33.019,1.15-24.933-10.064
		c4.192-3.078,19.976-22.733,24.403-28.753C137.153,98.782,143.973,98.725,152.449,107.662"/>
	<path fill="#FFFFFF" d="M187.684,154.153c0,0,7.642-5.896,15.038-5.147c7.394,0.746,22.925,0.331,22.925,0.331
		s17.288-0.449,29.816-8.059c11.219-6.812,3.573-17.698-17.692-17.608c-12.042-1.166-34.135,7.641-42.114,8.631
		c0.17,0.749,12.21-0.204,15.043-0.99c4.479-1.242,19.182-3.824,19.182-3.824s9.309-0.83,14.285,0.919
		c11.884,3.569,9.221,15.441-22.093,17.687c-11.465,0.75-11.71-0.325-21.597,0.501C190.883,147.4,187.684,154.153,187.684,154.153"
		/>
	<path fill="#FFFFFF" d="M148.647,148.418c-14.203,4.402-15.7,21.514-0.743,20.851c18.368-0.82,33.644-5.624,18.267-2.163
		c15.287-4.981,12.63-9.635,14.038-10.715c3.489,8.558-10.938,12.58-12.706,13.461c-1.161,0.578-10.795,5.562-24.171,4.235
		C122.32,169.437,139.428,145.594,148.647,148.418"/>
</g>
</svg>
