<?xml version="1.0" encoding="utf-8"?>
<!-- Generator: Adobe Illustrator 15.0.0, SVG Export Plug-In . SVG Version: 6.00 Build 0)  -->
<!DOCTYPE svg PUBLIC "-//W3C//DTD SVG 1.1//EN" "http://www.w3.org/Graphics/SVG/1.1/DTD/svg11.dtd">
<svg version="1.1" id="Layer_1" xmlns="http://www.w3.org/2000/svg" xmlns:xlink="http://www.w3.org/1999/xlink" x="0px" y="0px"
	 width="396px" height="256px" viewBox="-19 -12.5 396 256" enable-background="new -19 -12.5 396 256" xml:space="preserve">
<g>
	<polygon fill="#FFFFFF" points="96.905,112.267 101.217,112.267 101.217,125.798 106.487,125.798 106.487,129.255 96.905,129.255 	
		"/>
	<path fill="#FFFFFF" d="M118.541,126.467c0,1.02,0.066,2.039,0.126,2.79h-3.661c-0.063-0.571-0.151-1.153-0.151-1.755
		c-1.188,1.43-2.124,2.051-3.57,2.051c-2.107,0-3.625-1.596-3.625-4.048c0-2.813,1.997-4.332,6.144-4.332h1.051v-0.382
		c0-0.807-0.611-1.74-2.239-1.74c-1.292,0-2.563,0.607-3.438,1.201l-0.135-3.139c0.977-0.397,2.476-0.838,4.462-0.838
		c4.194,0,5.036,2.093,5.036,4.705V126.467z M114.855,123.121h-0.474c-1.84,0-3.058,0.617-3.058,2.105
		c0,1.123,0.577,1.565,1.43,1.565c1.898,0,2.102-2.063,2.102-3.254V123.121z"/>
	<path fill="#FFFFFF" d="M131.697,127.156c0,0.965,0.062,1.773,0.137,2.101h-3.87c-0.077-0.501-0.105-1.405-0.105-2.112h-0.041
		c-0.228,0.685-1.029,2.409-3.375,2.409c-2.035,0-3.624-1.306-3.624-4.084v-8.888h4.143v7.62c0,1.21,0.346,1.802,1.166,1.802
		c1.177,0,1.438-1.15,1.438-2.091v-7.331h4.132L131.697,127.156L131.697,127.156z"/>
	<path fill="#FFFFFF" d="M133.976,120.252c0-1.807-0.06-3.105-0.12-3.691h3.856c0.077,0.53,0.099,1.432,0.099,2.127h0.044
		c0.344-0.991,1.073-2.412,3.053-2.412c0.306,0,0.432,0.033,0.688,0.074v3.816c-0.175-0.072-0.748-0.137-1.226-0.137
		c-1.342,0-2.267,1.233-2.267,2.924v6.304h-4.126L133.976,120.252L133.976,120.252z"/>
	<path fill="#FFFFFF" d="M146.458,124.107c0.112,2.068,1.453,2.686,2.981,2.686c1.119,0,2.484-0.547,3.493-1.01l0.091,3.045
		c-0.979,0.326-2.503,0.708-4.178,0.726c-4.841,0.017-6.231-3.442-6.231-6.684c0-3.487,1.944-6.595,5.551-6.595
		c3.729,0,5.501,3.143,5.501,6.61v1.222H146.458z M149.908,121.833v-0.362c0-1.709-0.44-2.514-1.684-2.514
		c-1.161,0-1.86,1.119-1.86,2.876H149.908z"/>
	<path fill="#FFFFFF" d="M155.659,119.152c0-0.947-0.058-2.008-0.137-2.57h3.867c0.074,0.509,0.097,1.409,0.097,2.105h0.055
		c0.219-0.682,1.025-2.41,3.374-2.41c2.027,0,3.607,1.293,3.607,4.102v8.878h-4.132v-7.596c0-1.244-0.341-1.812-1.1-1.812
		c-1.045,0-1.496,1.133-1.496,2.453v6.953h-4.135V119.152z"/>
	<path fill="#FFFFFF" d="M167.967,116.582h2.045v-2.695l4.134-1.37v4.065h2.312v2.961h-2.312v5.41c0,1.066,0.61,1.529,1.354,1.529
		c0.406,0,0.775-0.072,0.959-0.181l0.119,2.954c-0.545,0.124-1.547,0.296-2.74,0.296c-2.255,0-3.825-1.36-3.825-3.735v-6.273h-2.045
		L167.967,116.582L167.967,116.582z"/>
	<path fill="#FFFFFF" d="M178.617,110.984h4.131v3.669h-4.131V110.984z M178.617,116.582h4.131v12.675h-4.131V116.582z"/>
	<path fill="#FFFFFF" d="M195.68,126.467c0,1.02,0.074,2.039,0.162,2.79h-3.691c-0.039-0.571-0.131-1.153-0.131-1.755
		c-1.205,1.43-2.125,2.051-3.582,2.051c-2.103,0-3.614-1.596-3.614-4.048c0-2.813,1.985-4.332,6.138-4.332h1.059v-0.382
		c0-0.807-0.615-1.74-2.25-1.74c-1.271,0-2.568,0.607-3.434,1.201l-0.137-3.139c0.984-0.397,2.47-0.838,4.458-0.838
		c4.202,0,5.022,2.093,5.022,4.705V126.467z M192.02,123.121h-0.479c-1.84,0-3.044,0.617-3.044,2.105
		c0,1.123,0.562,1.565,1.418,1.565c1.917,0,2.104-2.063,2.104-3.254v-0.417H192.02z"/>
	<path fill="#FFFFFF" d="M197.973,119.152c0-0.947-0.058-2.008-0.135-2.57h3.881c0.07,0.509,0.09,1.409,0.09,2.105h0.031
		c0.237-0.682,1.049-2.41,3.383-2.41c2.027,0,3.618,1.293,3.618,4.102v8.878h-4.121v-7.596c0-1.244-0.341-1.812-1.116-1.812
		c-1.021,0-1.502,1.133-1.502,2.453v6.953h-4.129V119.152z"/>
	<path fill="#FFFFFF" d="M211.832,112.267h1.411v10.706c0,2.565,0.474,5.053,3.332,5.053c2.997,0,3.317-2.742,3.317-5.053v-10.706
		h1.44v10.736c0,3.364-1.045,6.427-4.759,6.427c-3.708,0-4.743-2.766-4.743-6.427L211.832,112.267L211.832,112.267z"/>
	<path fill="#FFFFFF" d="M224.714,120.689c0-1.291-0.062-2.566-0.091-3.849h1.238c0.055,0.556,0.076,0.916,0.1,1.82h0.041
		c0.273-0.539,1.03-1.994,2.971-1.994c3.239,0,3.239,3.426,3.239,4.256v8.333h-1.328v-8.365c0-0.859,0-2.899-2.176-2.899
		c-1.627,0-2.659,1.616-2.659,3.542v7.724h-1.335V120.689z"/>
	<path fill="#FFFFFF" d="M235.455,129.257h1.33v-12.415h-1.33V129.257z M235.3,114.093h1.624v-2.203H235.3V114.093z"/>
	<polygon fill="#FFFFFF" points="238.699,116.842 240.131,116.842 242.902,127.665 242.949,127.665 245.814,116.842 
		247.146,116.842 243.718,129.257 242.13,129.257 	"/>
	<path fill="#FFFFFF" d="M249.755,123.506c0,4.613,2.775,4.613,3.312,4.613c0.752,0,1.844-0.389,2.522-1.005l0.056,1.618
		c-0.556,0.317-1.319,0.697-2.725,0.697c-4.58,0-4.58-5.135-4.58-6.375c0-4.688,2.166-6.388,4.141-6.388
		c3.404,0,3.746,3.82,3.746,6.838L249.755,123.506L249.755,123.506z M254.805,122.205c0-3.277-1.316-4.214-2.379-4.214
		c-1.824,0-2.671,2.597-2.671,4.214H254.805z"/>
	<path fill="#FFFFFF" d="M258.719,120.689c0-1.291-0.062-2.566-0.1-3.849h1.256c0.01,0.729,0.066,1.463,0.073,1.976H260
		c0.854-1.789,1.846-2.148,3.128-2.148v1.52c-2.103,0-3.074,0.965-3.074,3.263v7.808h-1.335V120.689z"/>
	<path fill="#FFFFFF" d="M269.925,118.494c-0.655-0.25-1.235-0.503-1.998-0.503c-1.362,0-1.985,1.081-1.985,1.962
		c0,1.152,0.426,1.396,1.985,2.324c1.622,0.929,2.855,1.548,2.855,3.556c0,2.242-1.492,3.597-3.466,3.597
		c-1.438,0-2.258-0.315-2.955-0.57l0.193-1.582c0.379,0.281,1.57,0.845,2.633,0.845c1.271,0,2.176-1.007,2.176-2.144
		c0-1.201-0.721-1.686-2.09-2.412c-1.967-1.037-2.746-1.705-2.746-3.467c0-2.342,1.888-3.435,3.423-3.435
		c0.803,0,1.731,0.224,2.17,0.362L269.925,118.494z"/>
	<path fill="#FFFFFF" d="M273.28,129.257h1.327v-12.415h-1.327V129.257z M273.132,114.093h1.61v-2.203h-1.61V114.093z"/>
	<path fill="#FFFFFF" d="M279.783,113.912v2.93h2.375v1.309h-2.375v8.097c0,0.996,0.15,1.873,1.287,1.873
		c0.604,0,0.83-0.142,1.088-0.269v1.405c-0.336,0.124-0.915,0.173-1.539,0.173c-1.729,0-2.168-1.404-2.168-2.799v-8.48h-1.754
		v-1.309h1.754v-2.487L279.783,113.912z"/>
	<path fill="#FFFFFF" d="M287.579,127.156h0.037l2.623-10.314h1.334l-3.824,14.734c-0.437,1.68-0.799,3.1-2.663,3.1
		c-0.369,0-0.559-0.047-0.889-0.146l0.058-1.438c0.236,0.164,0.652,0.256,0.94,0.256c0.656,0,0.988-0.639,1.197-1.423l0.58-2.371
		l-3.422-12.712h1.413L287.579,127.156z"/>
	<path fill="#FFFFFF" d="M96.905,90.601h1.424v10.719c0,2.562,0.451,5.031,3.329,5.031c3.006,0,3.323-2.743,3.323-5.031V90.601
		h1.422v10.735c0,3.391-1.026,6.431-4.745,6.431c-3.713,0-4.753-2.768-4.753-6.431V90.601z"/>
	<path fill="#FFFFFF" d="M109.793,99.028c0-1.289-0.06-2.558-0.082-3.854h1.237c0.044,0.562,0.061,0.949,0.088,1.824h0.05
		c0.269-0.528,1.037-1.989,2.981-1.989c3.227,0,3.227,3.424,3.227,4.258v8.334h-1.323v-8.378c0-0.845,0-2.898-2.178-2.898
		c-1.628,0-2.668,1.634-2.668,3.564v7.712h-1.332V99.028z"/>
	<path fill="#FFFFFF" d="M120.529,107.602h1.317V95.173h-1.317V107.602z M120.386,92.436h1.615v-2.217h-1.615V92.436z"/>
	<polygon fill="#FFFFFF" points="123.783,95.173 125.203,95.173 127.983,105.99 128.027,105.99 130.896,95.173 132.216,95.173 
		128.797,107.602 127.196,107.602 	"/>
	<path fill="#FFFFFF" d="M134.84,101.858c0,4.608,2.775,4.608,3.3,4.608c0.754,0,1.854-0.413,2.522-1.035l0.063,1.623
		c-0.542,0.335-1.32,0.709-2.717,0.709c-4.59,0-4.59-5.135-4.59-6.381c0-4.662,2.169-6.373,4.145-6.373
		c3.404,0,3.735,3.823,3.735,6.849H134.84z M139.876,100.536c0-3.292-1.306-4.211-2.377-4.211c-1.817,0-2.659,2.615-2.659,4.211
		H139.876z"/>
	<path fill="#FFFFFF" d="M143.802,99.028c0-1.289-0.066-2.558-0.093-3.854h1.259c0.017,0.74,0.055,1.46,0.077,1.978h0.032
		c0.861-1.775,1.838-2.143,3.131-2.143v1.523c-2.107,0-3.075,0.955-3.075,3.249v7.819h-1.331V99.028z"/>
	<path fill="#FFFFFF" d="M155.018,96.831c-0.671-0.262-1.243-0.506-1.994-0.506c-1.377,0-1.994,1.092-1.994,1.975
		c0,1.139,0.408,1.381,1.994,2.311c1.614,0.923,2.842,1.573,2.842,3.558c0,2.252-1.491,3.598-3.466,3.598
		c-1.442,0-2.272-0.297-2.96-0.578l0.188-1.586c0.39,0.292,1.567,0.867,2.656,0.867c1.271,0,2.16-1.035,2.16-2.154
		c0-1.188-0.718-1.666-2.088-2.426c-1.969-1.021-2.749-1.686-2.749-3.449c0-2.315,1.882-3.427,3.434-3.427
		c0.784,0,1.721,0.231,2.158,0.366L155.018,96.831z"/>
	<path fill="#FFFFFF" d="M158.362,107.602h1.337V95.173h-1.337V107.602z M158.231,92.436h1.617v-2.217h-1.617V92.436z"/>
	<path fill="#FFFFFF" d="M164.86,92.254v2.919h2.386v1.331h-2.386v8.09c0,0.99,0.153,1.874,1.287,1.874
		c0.603,0,0.836-0.152,1.1-0.282v1.417c-0.323,0.124-0.918,0.166-1.543,0.166c-1.724,0-2.18-1.417-2.18-2.784v-8.479h-1.744v-1.331
		h1.744v-2.479L164.86,92.254z"/>
	<path fill="#FFFFFF" d="M170.097,101.858c0,4.608,2.796,4.608,3.317,4.608c0.75,0,1.858-0.413,2.514-1.035l0.076,1.625
		c-0.554,0.333-1.344,0.71-2.729,0.71c-4.599,0-4.599-5.138-4.599-6.387c0-4.657,2.179-6.37,4.153-6.37
		c3.395,0,3.747,3.821,3.747,6.849H170.097z M175.148,100.536c0-3.292-1.309-4.211-2.387-4.211c-1.801,0-2.665,2.615-2.665,4.211
		H175.148z M174.921,89.873l-2.217,3.455h-1.122l1.732-3.455H174.921z"/>
	<polygon fill="#FFFFFF" points="178.953,90.601 183.266,90.601 183.266,104.139 188.536,104.139 188.536,107.604 178.953,107.604 	
		"/>
	<path fill="#FFFFFF" d="M200.575,104.794c0,1.031,0.073,2.062,0.143,2.808h-3.677c-0.033-0.583-0.145-1.164-0.145-1.749
		c-1.178,1.403-2.11,2.033-3.563,2.033c-2.11,0-3.636-1.601-3.636-4.027c0-2.823,2.003-4.348,6.158-4.348h1.041v-0.385
		c0-0.803-0.604-1.736-2.229-1.736c-1.292,0-2.572,0.601-3.447,1.194l-0.134-3.146c0.979-0.379,2.481-0.828,4.474-0.828
		c4.191,0,5.015,2.11,5.015,4.701V104.794z M196.896,101.458h-0.474c-1.834,0-3.047,0.618-3.047,2.104
		c0,1.117,0.577,1.549,1.433,1.549c1.887,0,2.088-2.032,2.088-3.234V101.458z"/>
	<path fill="#FFFFFF" d="M213.741,105.496c0,0.971,0.075,1.76,0.128,2.109h-3.873c-0.057-0.518-0.082-1.42-0.082-2.115h-0.057
		c-0.226,0.682-1.034,2.396-3.36,2.396c-2.041,0-3.638-1.285-3.638-4.082v-8.906h4.138v7.642c0,1.221,0.336,1.802,1.172,1.802
		c1.19,0,1.438-1.145,1.438-2.087v-7.355h4.134V105.496z"/>
	<path fill="#FFFFFF" d="M216.029,98.584c0-1.793-0.062-3.079-0.143-3.687h3.893c0.059,0.52,0.085,1.428,0.085,2.126h0.048
		c0.342-0.999,1.072-2.409,3.036-2.409c0.306,0,0.448,0.026,0.696,0.076v3.824c-0.188-0.078-0.761-0.136-1.239-0.136
		c-1.333,0-2.255,1.236-2.255,2.924v6.299h-4.121V98.584L216.029,98.584z"/>
	<path fill="#FFFFFF" d="M228.514,102.47c0.119,2.041,1.44,2.641,2.978,2.641c1.126,0,2.489-0.517,3.485-0.992l0.094,3.037
		c-0.987,0.349-2.5,0.712-4.178,0.734c-4.828,0.033-6.229-3.436-6.229-6.689c0-3.485,1.945-6.584,5.55-6.584
		c3.736,0,5.499,3.153,5.499,6.601v1.254L228.514,102.47L228.514,102.47z M231.948,100.179v-0.377c0-1.708-0.437-2.512-1.671-2.512
		c-1.166,0-1.864,1.117-1.864,2.889H231.948z"/>
	<path fill="#FFFFFF" d="M237.711,97.491c0-0.952-0.081-1.986-0.145-2.594h3.873c0.062,0.52,0.095,1.428,0.095,2.126h0.043
		c0.231-0.688,1.028-2.409,3.364-2.409c2.05,0,3.629,1.301,3.629,4.084v8.906h-4.113v-7.627c0-1.227-0.359-1.814-1.143-1.814
		c-1.021,0-1.467,1.151-1.467,2.476v6.967h-4.138L237.711,97.491L237.711,97.491z"/>
	<path fill="#FFFFFF" d="M250.012,94.897h2.047v-2.663l4.125-1.373v4.036h2.321v2.984h-2.321v5.394c0,1.095,0.627,1.543,1.355,1.543
		c0.415,0,0.782-0.07,0.966-0.192l0.114,2.976c-0.539,0.11-1.549,0.287-2.73,0.287c-2.273,0-3.83-1.355-3.83-3.722v-6.285h-2.047
		V94.897L250.012,94.897z"/>
	<path fill="#FFFFFF" d="M260.684,89.318h4.109v3.664h-4.109V89.318z M260.684,94.897h4.109v12.708h-4.109V94.897z"/>
	<path fill="#FFFFFF" d="M270.833,102.47c0.104,2.041,1.438,2.641,2.97,2.641c1.141,0,2.486-0.517,3.496-0.992l0.096,3.037
		c-0.988,0.349-2.508,0.712-4.18,0.734c-4.841,0.033-6.23-3.436-6.23-6.689c0-3.485,1.963-6.584,5.546-6.584
		c3.731,0,5.51,3.153,5.51,6.601v1.254L270.833,102.47L270.833,102.47z M274.268,100.179v-0.377c0-1.708-0.438-2.512-1.668-2.512
		c-1.173,0-1.855,1.117-1.855,2.889H274.268z"/>
	<path fill="#FFFFFF" d="M280.029,97.491c0-0.952-0.074-1.986-0.147-2.594h3.878c0.078,0.52,0.092,1.428,0.092,2.126h0.062
		c0.221-0.688,1.019-2.409,3.362-2.409c2.045,0,3.631,1.301,3.631,4.084v8.906h-4.129v-7.627c0-1.227-0.346-1.814-1.137-1.814
		c-1.033,0-1.485,1.151-1.485,2.476v6.967h-4.126V97.491L280.029,97.491z"/>
	<path fill="#FFFFFF" d="M293.193,97.491c0-0.952-0.061-1.986-0.141-2.594h3.877c0.055,0.52,0.088,1.428,0.088,2.126h0.047
		c0.233-0.688,1.021-2.409,3.367-2.409c2.034,0,3.621,1.301,3.621,4.084v8.906h-4.119v-7.627c0-1.227-0.342-1.814-1.115-1.814
		c-1.051,0-1.504,1.151-1.504,2.476v6.967h-4.121V97.491L293.193,97.491z"/>
	<path fill="#FFFFFF" d="M309.907,102.47c0.101,2.041,1.436,2.641,2.979,2.641c1.122,0,2.477-0.517,3.473-0.992l0.095,3.037
		c-0.991,0.349-2.505,0.712-4.16,0.734c-4.841,0.033-6.238-3.436-6.238-6.689c0-3.485,1.938-6.584,5.546-6.584
		c3.752,0,5.512,3.153,5.512,6.601v1.254L309.907,102.47L309.907,102.47z M313.351,100.179v-0.377c0-1.708-0.438-2.512-1.684-2.512
		c-1.169,0-1.845,1.117-1.845,2.889H313.351z"/>
	<path fill="#FFFFFF" d="M59.984,125.244c-5.344,0-10.064,2.875-12.842,7.277c3.015,3.918,7.151,7.268,12.842,9.16
		c5.68-1.894,9.823-5.242,12.848-9.16C70.051,128.119,65.329,125.244,59.984,125.244"/>
	<path fill="#FFFFFF" d="M59.984,90.574c-7.259,0-14.25,0.891-20.929,2.279v12.493c0,3.793,0.493,16.201,7.119,25.839
		c2.905-4.324,7.561-7.197,12.847-7.524c0.652-1.308,1.361-2.771,2.049-4.379c-2.035-0.502-2.035-2.701-0.836-4.088
		c0.594-0.692,1.683-1.243,3.036-1.667c0.248-0.709,0.479-1.438,0.699-2.161c-1.133,0.362-2.189,0.786-2.952,1.205
		c-1.988,1.053-1.078,3.328-3.622,3.086c-2.536-0.265-2.646-2.709-1.354-4.194c1.217-1.378,4.413-2.289,7.928-2.404
		c-0.52-0.771-0.303-1.931,0.424-2.771c0.242-0.295,0.616-0.542,1.045-0.789c0.047-0.218,0.077-0.438,0.11-0.649
		c-0.432,0.183-0.836,0.369-1.172,0.531c-1.713,0.932-0.926,2.876-3.116,2.671c-2.181-0.221-2.258-2.324-1.158-3.617
		c0.929-1.057,3.202-1.771,5.82-1.985c0.192-1.599,0.313-3.196,0.308-4.775l0.594-0.179c0.289,0.938,0.294,2.69,0.088,4.888
		c2.024-0.052,4.188,0.192,6.043,0.841c-1.876,0.028-4.316,0.567-6.293,1.211c-0.022,0.195-0.047,0.371-0.069,0.572
		c2.784-0.982,7.229-1.117,10.65,0.047c-2.734,0.077-6.616,1.128-8.59,2.192c-0.971,0.508-1.136,1.357-1.504,1.949
		c1.336,0.157,2.674,0.407,3.872,0.819c-1.669,0.047-3.688,0.402-5.583,0.908c-0.171,0.749-0.342,1.483-0.539,2.229
		c3.119-0.586,7.102-0.489,10.301,0.603c-3.171,0.094-7.693,1.31-10.009,2.539c-1.35,0.74-1.348,2.048-2.046,2.698
		c-0.534,1.606-1.145,3.199-1.793,4.718c5.127,0.433,9.599,3.278,12.446,7.481c6.626-9.639,7.116-22.047,7.116-25.84V92.854
		C74.248,91.465,67.251,90.574,59.984,90.574 M65.852,97.093c-1.554,0.854-0.842,2.624-2.842,2.417
		c-1.992-0.198-2.06-2.104-1.045-3.284c1.582-1.817,7.525-2.555,11.72-1.13C71.204,95.173,67.656,96.135,65.852,97.093"/>
</g>
</svg>
