<?xml version="1.0" encoding="utf-8"?>
<!-- Generator: Adobe Illustrator 16.0.0, SVG Export Plug-In . SVG Version: 6.00 Build 0)  -->
<!DOCTYPE svg PUBLIC "-//W3C//DTD SVG 1.1//EN" "http://www.w3.org/Graphics/SVG/1.1/DTD/svg11.dtd">
<svg version="1.1" id="Layer_1" xmlns="http://www.w3.org/2000/svg" xmlns:xlink="http://www.w3.org/1999/xlink" x="0px" y="0px"
	 width="358px" height="231px" viewBox="0 0 358 231" enable-background="new 0 0 358 231" xml:space="preserve">
<g>
	<g>
		<path fill="#FFFFFF" d="M47.964,127.023c-0.796,0-1.553-0.04-2.151-0.12v10.953c0,0.479-0.239,0.678-0.717,0.678h-3.505
			c-0.478,0-0.677-0.199-0.677-0.678v-26.247c0-0.479,0.16-0.717,0.717-0.876c0.796-0.239,3.664-0.638,6.851-0.638
			c6.891,0,10.793,2.948,10.793,8.444S55.532,127.023,47.964,127.023z M48.642,112.884c-1.395,0-2.151,0.08-2.829,0.2v11.072
			c0.438,0.079,1.076,0.119,1.673,0.119c4.661,0,6.811-1.911,6.811-5.655C54.297,115.153,52.505,112.884,48.642,112.884z"/>
		<path fill="#FFFFFF" d="M76.281,137.816c-0.876,0.598-3.425,1.235-5.935,1.235c-4.62,0-8.443-1.753-8.443-5.617
			c0-5.376,6.572-6.729,11.51-7.687v-2.709c0-1.99-1.195-3.225-2.907-3.225c-2.23,0-3.306,1.831-3.665,3.105
			c-0.238,0.838-1.036,1.354-2.031,1.354c-1.076,0-2.031-0.597-2.031-1.832c0-1.752,2.35-5.058,8.364-5.058
			c3.625,0,6.651,1.951,6.651,6.014v11.231C77.794,136.343,77.396,137.06,76.281,137.816z M73.413,127.78
			c-3.704,0.756-7.129,1.831-7.129,5.298c0,1.911,1.394,3.505,3.983,3.505c1.513,0,3.146-0.519,3.146-2.231V127.78z"/>
		<path fill="#FFFFFF" d="M89.502,139.012c-2.031,0-5.217-0.757-5.217-5.734v-12.826h-2.111c-0.478,0-0.677-0.239-0.677-0.717
			v-1.155c0-0.478,0.199-0.678,0.677-0.678h2.111v-2.866c0-0.558,0.039-0.876,0.438-1.076l2.868-1.395
			c0.159-0.079,0.358-0.239,0.557-0.239c0.438,0,0.638,0.239,0.638,0.677v4.898h3.306c0.478,0,0.677,0.2,0.677,0.678v1.155
			c0,0.478-0.199,0.717-0.677,0.717h-3.306v12.905c0,2.629,1.274,3.186,2.469,3.186c0.398,0,0.637-0.079,0.916-0.079
			c0.637,0,0.956,0.319,0.956,0.836C93.126,138.255,91.574,139.012,89.502,139.012z"/>
		<path fill="#FFFFFF" d="M113.08,138.534h-3.186c-0.478,0-0.677-0.199-0.677-0.678v-13.859c0-2.59-1.633-3.824-3.625-3.824
			c-1.792,0-3.107,0.717-4.062,1.752v15.932c0,0.479-0.24,0.678-0.717,0.678h-3.146c-0.478,0-0.717-0.199-0.717-0.678v-29.115
			c0-0.478,0.239-0.677,0.717-0.677h3.146c0.478,0,0.717,0.199,0.717,0.677v10.874c1.155-1.155,3.187-2.23,5.735-2.23
			c3.425,0,6.492,2.031,6.492,5.974v14.498C113.757,138.335,113.558,138.534,113.08,138.534z"/>
		<path fill="#FFFFFF" d="M125.745,139.052c-5.377,0-7.647-3.266-7.647-5.019c0-1.274,0.797-1.912,1.912-1.912
			c0.996,0,1.833,0.518,2.151,1.313c0.637,1.595,1.513,3.028,3.665,3.028c1.593,0,2.987-1.155,2.987-3.028
			c0-4.778-10.316-3.823-10.316-10.195c0-3.704,2.987-5.854,7.208-5.854c4.899,0,6.851,2.827,6.851,4.421
			c0,1.195-0.796,1.792-1.792,1.792c-0.916,0-1.673-0.518-1.992-1.354c-0.517-1.234-1.354-2.628-3.146-2.628
			c-1.873,0-2.948,1.075-2.948,2.827c0,4.66,10.475,3.505,10.475,10.316C133.152,136.542,130.285,139.052,125.745,139.052z"/>
		<path fill="#FFFFFF" d="M143.945,139.012c-2.032,0-5.218-0.757-5.218-5.734v-12.826h-2.111c-0.478,0-0.677-0.239-0.677-0.717
			v-1.155c0-0.478,0.199-0.678,0.677-0.678h2.111v-2.866c0-0.558,0.04-0.876,0.438-1.076l2.869-1.395
			c0.158-0.079,0.358-0.239,0.557-0.239c0.439,0,0.638,0.239,0.638,0.677v4.898h3.306c0.478,0,0.677,0.2,0.677,0.678v1.155
			c0,0.478-0.199,0.717-0.677,0.717h-3.306v12.905c0,2.629,1.274,3.186,2.469,3.186c0.397,0,0.637-0.079,0.916-0.079
			c0.638,0,0.956,0.319,0.956,0.836C147.569,138.255,146.016,139.012,143.945,139.012z"/>
		<path fill="#FFFFFF" d="M159.673,139.052c-6.015,0-9.36-4.819-9.36-10.913c0-6.095,3.465-10.754,9.36-10.754
			c5.895,0,9.399,4.659,9.399,10.754C169.072,134.232,165.687,139.052,159.673,139.052z M159.593,119.934
			c-3.267,0-4.62,3.545-4.62,7.847c0,4.381,1.394,8.443,4.739,8.443c3.505,0,4.7-3.624,4.7-7.966S162.978,119.934,159.593,119.934z"
			/>
		<path fill="#FFFFFF" d="M189.701,138.534h-3.186c-0.478,0-0.677-0.199-0.677-0.678v-14.14c0-1.951-0.956-3.863-4.144-3.863
			c-3.226,0-3.544,1.354-3.544,2.629v15.374c0,0.479-0.239,0.678-0.717,0.678h-3.146c-0.478,0-0.717-0.199-0.717-0.678v-16.808
			c0-1.314,0.399-1.872,1.593-2.47c1.314-0.637,3.744-1.194,6.692-1.194c4.221,0,8.523,1.354,8.523,6.134v14.338
			C190.379,138.335,190.18,138.534,189.701,138.534z"/>
		<path fill="#FFFFFF" d="M203.999,139.052c-4.819,0-9.12-3.146-9.12-10.953c0-7.408,4.381-10.714,9.12-10.714
			c4.979,0,7.807,3.863,7.807,7.886c0,0.876-0.358,1.154-1.195,1.274l-11.59,1.912c0.239,3.744,2.071,6.97,5.895,6.97
			c2.549,0,4.222-1.911,5.059-3.386c0.199-0.357,0.557-0.716,1.035-0.716c0.518,0,0.916,0.478,0.916,0.995
			C211.925,134.711,209.097,139.052,203.999,139.052z M203.521,119.894c-3.187,0-4.54,3.187-4.7,6.294l8.644-1.475
			C207.344,122.243,206.349,119.894,203.521,119.894z"/>
	</g>
	<path fill="#FFFFFF" d="M294.648,105.975c0.017,3.251-4.797,5.819-10.75,5.736c-5.952-0.083-10.793-2.784-10.81-6.035
		c-0.017-3.25,4.796-5.816,10.749-5.735C289.79,100.022,294.632,102.725,294.648,105.975z"/>
	<path fill="#FFFFFF" d="M258.868,129.148c0.031,5.415-7.353,9.707-16.489,9.593c-9.136-0.117-16.567-4.599-16.598-10.014
		c-0.03-5.412,7.351-9.707,16.487-9.59C251.406,119.253,258.837,123.736,258.868,129.148z"/>
	<path fill="#FFFFFF" d="M289.053,122.909c-10.88,1.402-21.493-2.462-30.704-10.18c8.093,9.95,17.033,15.238,25.945,14.087
		c4.169-0.537,8.054-2.459,11.619-5.533C293.69,122.043,291.405,122.604,289.053,122.909z"/>
	<path fill="#FFFFFF" d="M234.811,115.207c11.458-1.478,22.628,2.878,32.166,11.436c-8.362-10.792-17.687-16.597-26.982-15.399
		c-4.104,0.53-7.931,2.404-11.449,5.395C230.58,115.98,232.666,115.484,234.811,115.207z"/>
	<g>
		<path fill="#FFFFFF" d="M265.368,112.663c-14.577-9.021-29.142-7.072-41.186,3.243c12.632-12.987,28.555-16.212,44.496-6.35
			c14.576,9.011,29.131,7.066,41.175-3.244C297.229,119.297,281.31,122.526,265.368,112.663z"/>
	</g>
	<path fill="#FFFFFF" d="M297.108,100.971c6.83,4.08,13.592,3.999,19.53,0.566c-5.397,1.344-11.179,0.463-17.001-3.011
		c-12.437-7.428-24.719-4.723-34.349,5.491C274.494,95.878,285.738,94.18,297.108,100.971z"/>
	<path fill="#FFFFFF" d="M317.227,95.793c0.01,1.867-2.928,3.337-6.564,3.288c-3.633-0.051-6.588-1.604-6.6-3.47
		c-0.008-1.866,2.931-3.337,6.566-3.286C314.263,92.375,317.216,93.927,317.227,95.793z"/>
</g>
</svg>
