<?xml version="1.0" encoding="utf-8"?>
<!-- Generator: Adobe Illustrator 16.0.0, SVG Export Plug-In . SVG Version: 6.00 Build 0)  -->
<!DOCTYPE svg PUBLIC "-//W3C//DTD SVG 1.1//EN" "http://www.w3.org/Graphics/SVG/1.1/DTD/svg11.dtd">
<svg version="1.1" id="Layer_1" xmlns="http://www.w3.org/2000/svg" xmlns:xlink="http://www.w3.org/1999/xlink" x="0px" y="0px"
	 width="358px" height="231px" viewBox="0 0 358 231" enable-background="new 0 0 358 231" xml:space="preserve">
<g>
	<g>
		<circle fill="#FFFFFF" cx="79.376" cy="116.491" r="5.767"/>
		<circle fill="#FFFFFF" cx="74.885" cy="132.776" r="6.879"/>
		<circle fill="#FFFFFF" cx="74.753" cy="149.078" r="6.034"/>
		<circle fill="#FFFFFF" cx="93.684" cy="92.415" r="4.121"/>
		<circle fill="#FFFFFF" cx="81.764" cy="162.498" r="4.646"/>
		<path fill="#FFFFFF" d="M92.218,169.139c0,1.733-1.401,3.134-3.135,3.134c-1.729,0-3.132-1.4-3.132-3.134
			c0-1.729,1.403-3.131,3.132-3.131C90.816,166.008,92.218,167.409,92.218,169.139z"/>
		<circle fill="#FFFFFF" cx="95.823" cy="72.422" r="2.605"/>
		<circle fill="#FFFFFF" cx="96.903" cy="80.643" r="3.659"/>
		<path fill="#FFFFFF" d="M92.695,66.7c0.602,0.945,0.321,2.201-0.625,2.799c-0.948,0.603-2.203,0.321-2.802-0.625
			c-0.6-0.949-0.32-2.202,0.627-2.8C90.842,65.473,92.095,65.753,92.695,66.7z"/>
		<circle fill="#FFFFFF" cx="87.785" cy="103.352" r="4.719"/>
		<path fill="#FFFFFF" d="M98.171,171.685c0.326,1.071-0.28,2.204-1.351,2.531c-1.075,0.325-2.208-0.281-2.532-1.355
			c-0.325-1.072,0.281-2.204,1.352-2.53C96.713,170.006,97.847,170.61,98.171,171.685z"/>
		<path fill="#FFFFFF" d="M89.944,57.962c0.166,0.545-0.143,1.125-0.692,1.292c-0.546,0.166-1.125-0.146-1.291-0.691
			c-0.166-0.548,0.144-1.125,0.691-1.292C89.2,57.105,89.779,57.415,89.944,57.962z"/>
		<path fill="#FFFFFF" d="M89.498,62.403c0.24,0.792-0.207,1.629-1,1.869c-0.792,0.24-1.628-0.209-1.868-0.998
			c-0.241-0.794,0.206-1.632,0.999-1.872C88.42,61.163,89.257,61.612,89.498,62.403z"/>
		<g>
			<path fill="#FFFFFF" d="M99.055,139.713h1.309c0.731,0,1.226,0.029,1.483,0.088c0.391,0.091,0.708,0.28,0.952,0.576
				c0.245,0.294,0.368,0.656,0.368,1.085c0,0.357-0.085,0.673-0.253,0.944c-0.168,0.271-0.409,0.476-0.723,0.616
				c-0.312,0.139-0.744,0.209-1.294,0.212l2.364,3.053h-0.813l-2.364-3.053h-0.372v3.053h-0.656V139.713z M99.711,140.355v2.235
				l1.134,0.009c0.438,0,0.762-0.042,0.973-0.125c0.209-0.084,0.374-0.217,0.493-0.399c0.117-0.185,0.176-0.389,0.176-0.615
				c0-0.221-0.059-0.421-0.179-0.601c-0.119-0.181-0.275-0.311-0.471-0.386c-0.193-0.08-0.516-0.118-0.966-0.118H99.711z"/>
			<path fill="#FFFFFF" d="M104.598,139.713h3.767v0.643h-3.111v2.062h3.083v0.644h-3.083v2.583h3.083v0.644h-3.74V139.713z"/>
			<path fill="#FFFFFF" d="M109.665,139.713h0.656v2.757h3.349v-2.757h0.657v6.574h-0.657v-3.174h-3.349v3.174h-0.656V139.713z"/>
			<path fill="#FFFFFF" d="M118.661,139.713l3.066,6.574h-0.71l-1.035-2.164h-2.832l-1.024,2.164h-0.734l3.107-6.574H118.661z
				 M118.577,141.109l-1.126,2.379h2.248L118.577,141.109z"/>
			<path fill="#FFFFFF" d="M122.799,139.713h1.296c0.521,0,0.921,0.061,1.203,0.185c0.279,0.123,0.501,0.314,0.665,0.569
				c0.161,0.258,0.242,0.541,0.242,0.854c0,0.294-0.07,0.559-0.212,0.799c-0.143,0.241-0.353,0.434-0.628,0.583
				c0.343,0.117,0.604,0.254,0.789,0.408c0.185,0.157,0.327,0.347,0.43,0.568c0.103,0.223,0.154,0.464,0.154,0.723
				c0,0.527-0.194,0.973-0.579,1.337c-0.387,0.366-0.902,0.549-1.553,0.549h-1.806V139.713z M123.442,140.355v2.105h0.376
				c0.457,0,0.792-0.042,1.007-0.128c0.216-0.084,0.386-0.218,0.511-0.401c0.126-0.184,0.188-0.387,0.188-0.611
				c0-0.3-0.104-0.536-0.315-0.707c-0.209-0.171-0.545-0.258-1.006-0.258H123.442z M123.442,143.123v2.521h0.814
				c0.481,0,0.833-0.048,1.058-0.141c0.223-0.095,0.403-0.241,0.539-0.44c0.136-0.2,0.205-0.416,0.205-0.648
				c0-0.292-0.095-0.547-0.286-0.765c-0.192-0.217-0.454-0.367-0.788-0.446c-0.225-0.054-0.614-0.08-1.169-0.08H123.442z"/>
			<path fill="#FFFFFF" d="M128.09,139.713h0.657v6.574h-0.657V139.713z"/>
			<path fill="#FFFFFF" d="M130.433,139.713h0.657v5.938h2.53v0.636h-3.188V139.713z"/>
			<path fill="#FFFFFF" d="M134.646,139.713h0.657v6.574h-0.657V139.713z"/>
			<path fill="#FFFFFF" d="M136.283,140.355v-0.643h3.602v0.643h-1.466v5.932h-0.67v-5.932H136.283z"/>
			<path fill="#FFFFFF" d="M143.166,139.713l3.066,6.574h-0.708l-1.036-2.164h-2.832l-1.023,2.164h-0.734l3.107-6.574H143.166z
				 M143.083,141.109l-1.126,2.379h2.247L143.083,141.109z"/>
			<path fill="#FFFFFF" d="M146.244,140.355v-0.643h3.601v0.643h-1.465v5.932h-0.669v-5.932H146.244z"/>
			<path fill="#FFFFFF" d="M150.824,139.713h0.657v6.574h-0.657V139.713z"/>
			<path fill="#FFFFFF" d="M156.261,139.547c0.996,0,1.828,0.332,2.501,0.997c0.668,0.663,1.004,1.483,1.004,2.453
				c0,0.963-0.333,1.778-1.003,2.449s-1.485,1.005-2.449,1.005c-0.976,0-1.797-0.332-2.468-1.001
				c-0.671-0.667-1.006-1.474-1.006-2.421c0-0.634,0.153-1.219,0.458-1.757c0.305-0.54,0.722-0.963,1.25-1.268
				C155.076,139.7,155.647,139.547,156.261,139.547z M156.291,140.187c-0.486,0-0.948,0.127-1.384,0.38
				c-0.436,0.254-0.775,0.595-1.021,1.024c-0.245,0.429-0.367,0.908-0.367,1.437c0,0.779,0.271,1.439,0.812,1.979
				c0.541,0.539,1.195,0.807,1.959,0.807c0.509,0,0.981-0.123,1.416-0.37c0.435-0.248,0.773-0.586,1.016-1.015
				c0.243-0.431,0.365-0.908,0.365-1.433c0-0.521-0.122-0.993-0.365-1.417c-0.242-0.421-0.585-0.758-1.027-1.012
				C157.254,140.313,156.785,140.187,156.291,140.187z"/>
			<path fill="#FFFFFF" d="M161.188,146.287v-6.574h0.143l4.375,5.039v-5.039h0.65v6.574h-0.149l-4.339-4.979v4.979H161.188z"/>
			<path fill="#FFFFFF" d="M175.463,143.854l0.445,0.474c-0.286,0.252-0.558,0.47-0.814,0.654c0.18,0.165,0.412,0.392,0.699,0.679
				c0.227,0.226,0.423,0.435,0.587,0.626h-0.917l-0.872-0.899c-0.548,0.442-0.993,0.729-1.337,0.863
				c-0.343,0.135-0.704,0.2-1.085,0.2c-0.506,0-0.912-0.144-1.22-0.435c-0.306-0.292-0.461-0.654-0.461-1.089
				c0-0.327,0.105-0.657,0.312-0.985c0.208-0.329,0.63-0.746,1.267-1.25c-0.36-0.435-0.592-0.756-0.696-0.963
				c-0.102-0.207-0.153-0.405-0.153-0.592c0-0.329,0.126-0.6,0.379-0.813c0.293-0.25,0.656-0.375,1.091-0.375
				c0.274,0,0.524,0.055,0.749,0.166c0.228,0.108,0.4,0.259,0.521,0.444c0.119,0.187,0.178,0.384,0.178,0.592
				c0,0.221-0.077,0.455-0.232,0.704s-0.462,0.567-0.917,0.953l0.996,1.046l0.653,0.663
				C174.986,144.26,175.263,144.039,175.463,143.854z M172.499,143.188c-0.559,0.42-0.926,0.755-1.099,1.004
				c-0.173,0.25-0.259,0.479-0.259,0.69c0,0.251,0.105,0.471,0.319,0.664c0.211,0.191,0.47,0.289,0.777,0.289
				c0.233,0,0.461-0.048,0.686-0.144c0.353-0.152,0.756-0.41,1.211-0.774l-1.037-1.069
				C172.918,143.662,172.718,143.442,172.499,143.188z M172.579,142.318c0.318-0.248,0.559-0.49,0.722-0.729
				c0.111-0.169,0.169-0.321,0.169-0.451c0-0.15-0.075-0.282-0.222-0.394c-0.148-0.109-0.345-0.164-0.589-0.164
				c-0.234,0-0.424,0.056-0.57,0.168c-0.147,0.114-0.219,0.247-0.219,0.403c0,0.119,0.029,0.232,0.089,0.335
				C172.105,141.739,172.312,142.017,172.579,142.318z"/>
			<path fill="#FFFFFF" d="M186.084,141.099l-0.519,0.397c-0.286-0.373-0.63-0.653-1.03-0.847c-0.4-0.191-0.841-0.287-1.32-0.287
				c-0.524,0-1.011,0.124-1.458,0.378c-0.447,0.251-0.793,0.589-1.037,1.014c-0.248,0.424-0.37,0.902-0.37,1.433
				c0,0.802,0.274,1.471,0.825,2.006c0.549,0.537,1.243,0.805,2.079,0.805c0.922,0,1.691-0.36,2.312-1.081l0.519,0.394
				c-0.328,0.417-0.736,0.738-1.227,0.968c-0.49,0.228-1.037,0.342-1.643,0.342c-1.149,0-2.058-0.384-2.723-1.148
				c-0.557-0.647-0.836-1.427-0.836-2.342c0-0.964,0.338-1.772,1.013-2.43s1.521-0.985,2.537-0.985c0.614,0,1.167,0.121,1.662,0.363
				C185.363,140.32,185.769,140.66,186.084,141.099z"/>
			<path fill="#FFFFFF" d="M190.338,139.714c0.996,0,1.831,0.332,2.501,0.995c0.671,0.666,1.007,1.483,1.007,2.454
				c0,0.962-0.335,1.78-1.005,2.451c-0.669,0.669-1.485,1.005-2.448,1.005c-0.976,0-1.798-0.335-2.469-1.001
				c-0.67-0.669-1.007-1.476-1.007-2.424c0-0.631,0.153-1.217,0.458-1.756c0.307-0.539,0.724-0.961,1.251-1.267
				C189.153,139.865,189.725,139.714,190.338,139.714z M190.367,140.352c-0.485,0-0.948,0.127-1.383,0.381
				c-0.435,0.255-0.774,0.595-1.02,1.025c-0.246,0.429-0.368,0.907-0.368,1.435c0,0.782,0.271,1.441,0.812,1.979
				c0.543,0.538,1.194,0.808,1.958,0.808c0.51,0,0.984-0.125,1.417-0.372c0.435-0.246,0.773-0.585,1.017-1.015
				s0.365-0.905,0.365-1.432c0-0.522-0.122-0.994-0.365-1.415c-0.243-0.422-0.585-0.759-1.027-1.014
				C191.331,140.479,190.864,140.352,190.367,140.352z"/>
			<path fill="#FFFFFF" d="M195.265,146.452v-6.573h0.145l4.375,5.04v-5.04h0.647v6.573h-0.146l-4.34-4.977v4.977H195.265z"/>
			<path fill="#FFFFFF" d="M202.171,146.452v-6.573h1.363c0.983,0,1.696,0.079,2.141,0.237c0.639,0.223,1.136,0.61,1.494,1.161
				c0.36,0.553,0.539,1.209,0.539,1.971c0,0.659-0.142,1.238-0.426,1.739c-0.285,0.501-0.653,0.87-1.108,1.108
				c-0.455,0.239-1.092,0.356-1.912,0.356H202.171z M202.802,145.832h0.76c0.908,0,1.539-0.057,1.891-0.17
				c0.494-0.16,0.883-0.451,1.166-0.868c0.283-0.419,0.425-0.93,0.425-1.534c0-0.635-0.154-1.176-0.461-1.625
				c-0.308-0.45-0.734-0.758-1.282-0.926c-0.411-0.124-1.09-0.186-2.034-0.186h-0.464V145.832z"/>
			<path fill="#FFFFFF" d="M209.065,139.879h0.657v6.573h-0.657V139.879z"/>
			<path fill="#FFFFFF" d="M210.702,140.523v-0.645h3.602v0.645h-1.467v5.929h-0.67v-5.929H210.702z"/>
			<path fill="#FFFFFF" d="M215.281,139.879h0.657v6.573h-0.657V139.879z"/>
			<path fill="#FFFFFF" d="M220.718,139.714c0.996,0,1.828,0.332,2.5,0.995c0.67,0.666,1.007,1.483,1.007,2.454
				c0,0.962-0.335,1.78-1.006,2.451c-0.668,0.669-1.484,1.005-2.448,1.005c-0.975,0-1.797-0.335-2.468-1.001
				c-0.67-0.669-1.006-1.476-1.006-2.424c0-0.631,0.153-1.217,0.458-1.756s0.723-0.961,1.25-1.267
				C219.534,139.865,220.103,139.714,220.718,139.714z M220.748,140.352c-0.488,0-0.949,0.127-1.384,0.381
				c-0.437,0.255-0.776,0.595-1.021,1.025c-0.244,0.429-0.366,0.907-0.366,1.435c0,0.782,0.271,1.441,0.812,1.979
				c0.542,0.538,1.195,0.808,1.96,0.808c0.509,0,0.98-0.125,1.415-0.372c0.435-0.246,0.774-0.585,1.018-1.015
				c0.242-0.43,0.363-0.905,0.363-1.432c0-0.522-0.121-0.994-0.363-1.415c-0.243-0.422-0.587-0.759-1.028-1.014
				C221.711,140.479,221.242,140.352,220.748,140.352z"/>
			<path fill="#FFFFFF" d="M225.645,146.452v-6.573h0.143l4.375,5.04v-5.04h0.649v6.573h-0.148l-4.339-4.977v4.977H225.645z"/>
			<path fill="#FFFFFF" d="M232.498,139.879h0.658v6.573h-0.658V139.879z"/>
			<path fill="#FFFFFF" d="M234.848,146.452v-6.573h0.143l4.375,5.04v-5.04h0.648v6.573h-0.147l-4.339-4.977v4.977H234.848z"/>
			<path fill="#FFFFFF" d="M248.032,140.983l-0.51,0.481c-0.367-0.36-0.768-0.633-1.204-0.819c-0.438-0.187-0.863-0.279-1.276-0.279
				c-0.516,0-1.006,0.126-1.474,0.38c-0.466,0.253-0.827,0.598-1.082,1.029c-0.257,0.435-0.385,0.893-0.385,1.375
				c0,0.494,0.132,0.965,0.398,1.41c0.264,0.445,0.631,0.796,1.098,1.05c0.469,0.255,0.98,0.383,1.539,0.383
				c0.675,0,1.247-0.19,1.715-0.572c0.469-0.382,0.746-0.876,0.832-1.483h-2.096v-0.636h2.834c-0.006,1.017-0.309,1.823-0.905,2.421
				c-0.598,0.598-1.396,0.896-2.398,0.896c-1.216,0-2.179-0.414-2.888-1.244c-0.544-0.637-0.816-1.374-0.816-2.212
				c0-0.621,0.154-1.201,0.468-1.738c0.313-0.536,0.742-0.955,1.288-1.258c0.545-0.302,1.162-0.453,1.85-0.453
				c0.558,0,1.082,0.101,1.573,0.302S247.563,140.538,248.032,140.983z"/>
			<path fill="#FFFFFF" d="M258.329,141.099l-0.518,0.397c-0.286-0.373-0.631-0.653-1.031-0.847c-0.4-0.191-0.841-0.287-1.321-0.287
				c-0.523,0-1.009,0.124-1.456,0.378c-0.447,0.251-0.794,0.589-1.038,1.014c-0.248,0.424-0.37,0.902-0.37,1.433
				c0,0.802,0.274,1.471,0.825,2.006c0.549,0.537,1.243,0.805,2.079,0.805c0.922,0,1.692-0.36,2.312-1.081l0.518,0.394
				c-0.328,0.417-0.736,0.738-1.227,0.968c-0.49,0.228-1.037,0.342-1.644,0.342c-1.149,0-2.057-0.384-2.721-1.148
				c-0.558-0.647-0.837-1.427-0.837-2.342c0-0.964,0.338-1.772,1.013-2.43c0.676-0.657,1.521-0.985,2.537-0.985
				c0.614,0,1.167,0.121,1.662,0.363C257.608,140.32,258.014,140.66,258.329,141.099z"/>
			<path fill="#FFFFFF" d="M259.625,139.879h3.768v0.645h-3.11v2.059h3.085v0.644h-3.085v2.584h3.085v0.643h-3.742V139.879z"/>
			<path fill="#FFFFFF" d="M264.702,146.452v-6.573h0.145l4.373,5.04v-5.04h0.65v6.573h-0.149l-4.338-4.977v4.977H264.702z"/>
			<path fill="#FFFFFF" d="M270.897,140.523v-0.645h3.602v0.645h-1.466v5.929h-0.67v-5.929H270.897z"/>
			<path fill="#FFFFFF" d="M275.545,139.879h1.31c0.729,0,1.225,0.029,1.484,0.09c0.39,0.09,0.707,0.28,0.952,0.575
				c0.244,0.293,0.364,0.655,0.364,1.085c0,0.358-0.082,0.673-0.251,0.943c-0.168,0.272-0.409,0.478-0.722,0.616
				c-0.313,0.139-0.745,0.21-1.296,0.213l2.363,3.051h-0.812l-2.363-3.051h-0.372v3.051h-0.657V139.879z M276.202,140.523v2.234
				l1.133,0.008c0.438,0,0.763-0.041,0.974-0.124c0.211-0.084,0.374-0.218,0.492-0.4s0.177-0.389,0.177-0.614
				c0-0.223-0.06-0.422-0.18-0.603c-0.119-0.18-0.276-0.308-0.469-0.386c-0.194-0.077-0.518-0.115-0.967-0.115H276.202z"/>
			<path fill="#FFFFFF" d="M281.088,139.879h3.767v0.645h-3.11v2.059h3.085v0.644h-3.085v2.584h3.085v0.643h-3.741V139.879z"/>
		</g>
		<g>
			<path fill="#FFFFFF" d="M99.336,112.594h4.146c2.377,0,3.981,0.104,4.811,0.312c1.188,0.292,2.16,0.894,2.916,1.804
				c0.753,0.911,1.132,2.054,1.132,3.431c0,1.387-0.369,2.53-1.104,3.432s-1.75,1.508-3.042,1.818
				c-0.943,0.226-2.708,0.339-5.292,0.339h-1.485v9.681h-2.081V112.594z M101.417,114.631v7.061l3.523,0.043
				c1.424,0,2.466-0.129,3.126-0.389c0.661-0.259,1.179-0.678,1.558-1.256c0.376-0.58,0.566-1.227,0.566-1.944
				c0-0.695-0.189-1.332-0.566-1.911c-0.378-0.58-0.875-0.992-1.494-1.237c-0.617-0.244-1.63-0.367-3.035-0.367H101.417z"/>
			<path fill="#FFFFFF" d="M116.204,112.594h2.081v20.816h-2.081V112.594z"/>
			<path fill="#FFFFFF" d="M123.051,112.594h2.081v18.806h8.009v2.011h-10.09V112.594z"/>
			<path fill="#FFFFFF" d="M144.943,112.594l9.707,20.816h-2.247l-3.273-6.85h-8.967l-3.242,6.85h-2.321l9.834-20.816H144.943z
				 M144.68,117.016l-3.566,7.536h7.116L144.68,117.016z"/>
			<path fill="#FFFFFF" d="M153.462,114.631v-2.038h11.404v2.038h-4.642v18.779h-2.121v-18.779H153.462z"/>
			<path fill="#FFFFFF" d="M167.881,112.594h11.928v2.038h-9.849v6.524h9.765v2.038h-9.765v8.179h9.765v2.038h-11.844V112.594z"/>
			<path fill="#FFFFFF" d="M181.253,129.531l1.77-1.061c1.245,2.293,2.684,3.438,4.316,3.438c0.697,0,1.354-0.162,1.966-0.489
				c0.613-0.324,1.08-0.761,1.4-1.308c0.321-0.547,0.482-1.128,0.482-1.74c0-0.698-0.236-1.382-0.708-2.052
				c-0.65-0.926-1.839-2.038-3.566-3.34c-1.735-1.312-2.815-2.259-3.24-2.844c-0.735-0.981-1.104-2.043-1.104-3.185
				c0-0.905,0.217-1.731,0.651-2.476c0.434-0.746,1.045-1.333,1.832-1.762c0.788-0.429,1.644-0.644,2.569-0.644
				c0.979,0,1.897,0.243,2.751,0.729c0.854,0.486,1.757,1.38,2.71,2.682l-1.698,1.287c-0.783-1.038-1.449-1.721-2.002-2.051
				c-0.552-0.33-1.153-0.495-1.804-0.495c-0.84,0-1.526,0.255-2.059,0.765c-0.534,0.509-0.8,1.136-0.8,1.881
				c0,0.453,0.094,0.893,0.282,1.315c0.189,0.426,0.533,0.887,1.034,1.388c0.272,0.265,1.169,0.957,2.688,2.08
				c1.802,1.33,3.037,2.514,3.708,3.551c0.669,1.038,1.005,2.081,1.005,3.129c0,1.51-0.574,2.819-1.72,3.933
				c-1.146,1.113-2.54,1.671-4.182,1.671c-1.265,0-2.41-0.337-3.438-1.013C183.069,132.246,182.121,131.116,181.253,129.531z"/>
			<path fill="#FFFFFF" d="M205.848,112.594h4.146c2.377,0,3.981,0.104,4.812,0.312c1.188,0.292,2.16,0.894,2.916,1.804
				c0.753,0.911,1.132,2.054,1.132,3.431c0,1.387-0.369,2.53-1.104,3.432c-0.736,0.901-1.75,1.508-3.042,1.818
				c-0.943,0.226-2.708,0.339-5.293,0.339h-1.484v9.681h-2.081V112.594z M207.929,114.631v7.061l3.522,0.043
				c1.425,0,2.467-0.129,3.127-0.389c0.66-0.259,1.179-0.678,1.558-1.256c0.376-0.58,0.565-1.227,0.565-1.944
				c0-0.695-0.189-1.332-0.565-1.911c-0.379-0.58-0.875-0.992-1.494-1.237c-0.617-0.244-1.63-0.367-3.034-0.367H207.929z"/>
			<path fill="#FFFFFF" d="M223.125,112.594h4.146c2.312,0,3.877,0.095,4.698,0.284c1.235,0.284,2.239,0.89,3.015,1.821
				c0.772,0.93,1.159,2.075,1.159,3.437c0,1.132-0.267,2.13-0.799,2.989c-0.533,0.859-1.296,1.509-2.285,1.947
				c-0.991,0.439-2.359,0.664-4.104,0.673l7.486,9.666h-2.573l-7.486-9.666h-1.177v9.666h-2.08V112.594z M225.205,114.631v7.076
				l3.586,0.028c1.39,0,2.416-0.131,3.083-0.396c0.666-0.263,1.186-0.687,1.559-1.267c0.373-0.579,0.56-1.229,0.56-1.946
				c0-0.698-0.188-1.331-0.565-1.903c-0.379-0.57-0.874-0.978-1.488-1.223s-1.636-0.368-3.062-0.368H225.205z"/>
			<path fill="#FFFFFF" d="M250.513,112.07c3.153,0,5.791,1.052,7.915,3.156c2.125,2.104,3.187,4.692,3.187,7.768
				c0,3.048-1.06,5.632-3.179,7.755c-2.12,2.122-4.703,3.185-7.753,3.185c-3.087,0-5.691-1.057-7.816-3.17
				c-2.123-2.112-3.186-4.671-3.186-7.67c0-2,0.484-3.854,1.452-5.561c0.968-1.709,2.286-3.045,3.957-4.012
				S248.568,112.07,250.513,112.07z M250.605,114.094c-1.54,0-3,0.401-4.38,1.205s-2.457,1.882-3.231,3.243
				c-0.774,1.359-1.162,2.874-1.162,4.545c0,2.474,0.857,4.563,2.572,6.268s3.781,2.556,6.201,2.556c1.615,0,3.11-0.393,4.485-1.175
				c1.375-0.783,2.447-1.854,3.218-3.216c0.771-1.359,1.155-2.869,1.155-4.531c0-1.651-0.385-3.146-1.155-4.481
				c-0.771-1.337-1.854-2.404-3.253-3.208S252.173,114.094,250.605,114.094z"/>
		</g>
	</g>
	<g>
		<path fill="#FFFFFF" d="M266.728,123.72h0.887v8.865h-0.887V123.72z"/>
		<path fill="#FFFFFF" d="M269.651,132.585v-8.865h0.193l5.899,6.795v-6.795h0.874v8.865h-0.199l-5.851-6.715v6.715H269.651z"/>
		<path fill="#FFFFFF" d="M287.033,125.364l-0.698,0.535c-0.386-0.501-0.85-0.883-1.39-1.142c-0.541-0.259-1.135-0.389-1.782-0.389
			c-0.707,0-1.36,0.17-1.965,0.51c-0.602,0.339-1.068,0.795-1.4,1.368s-0.497,1.217-0.497,1.932c0,1.081,0.369,1.982,1.111,2.706
			c0.741,0.724,1.678,1.085,2.806,1.085c1.242,0,2.28-0.486,3.117-1.458l0.698,0.53c-0.442,0.562-0.994,0.997-1.654,1.304
			c-0.66,0.309-1.399,0.461-2.216,0.461c-1.551,0-2.773-0.516-3.67-1.549c-0.752-0.872-1.127-1.925-1.127-3.157
			c0-1.298,0.455-2.39,1.365-3.276c0.909-0.886,2.05-1.329,3.421-1.329c0.827,0,1.574,0.163,2.241,0.491
			S286.607,124.773,287.033,125.364z"/>
		<path fill="#FFFFFF" d="M289.601,131.258c0.206,0,0.38,0.073,0.524,0.218s0.218,0.321,0.218,0.53c0,0.205-0.073,0.38-0.218,0.526
			c-0.145,0.147-0.318,0.221-0.524,0.221c-0.205,0-0.379-0.073-0.523-0.221c-0.146-0.146-0.219-0.321-0.219-0.526
			c0-0.209,0.073-0.386,0.219-0.53C289.222,131.331,289.396,131.258,289.601,131.258z"/>
	</g>
</g>
</svg>
