<?xml version="1.0" encoding="utf-8"?>
<!-- Generator: Adobe Illustrator 15.0.0, SVG Export Plug-In . SVG Version: 6.00 Build 0)  -->
<!DOCTYPE svg PUBLIC "-//W3C//DTD SVG 1.1//EN" "http://www.w3.org/Graphics/SVG/1.1/DTD/svg11.dtd">
<svg version="1.1" id="Layer_1" xmlns="http://www.w3.org/2000/svg" xmlns:xlink="http://www.w3.org/1999/xlink" x="0px" y="0px"
	 width="396px" height="256px" viewBox="-19 -12.5 396 256" enable-background="new -19 -12.5 396 256" xml:space="preserve">
<g>
	<g>
		<circle fill="#FFFFFF" cx="79.202" cy="116.226" r="5.767"/>
		<circle fill="#FFFFFF" cx="74.71" cy="132.511" r="6.879"/>
		<circle fill="#FFFFFF" cx="74.579" cy="148.813" r="6.034"/>
		<circle fill="#FFFFFF" cx="93.51" cy="92.15" r="4.121"/>
		<circle fill="#FFFFFF" cx="81.59" cy="162.233" r="4.646"/>
		<path fill="#FFFFFF" d="M92.043,168.874c0,1.733-1.401,3.135-3.135,3.135c-1.729,0-3.132-1.4-3.132-3.135
			c0-1.729,1.403-3.131,3.132-3.131C90.642,165.743,92.043,167.145,92.043,168.874z"/>
		<circle fill="#FFFFFF" cx="95.649" cy="72.157" r="2.605"/>
		<circle fill="#FFFFFF" cx="96.729" cy="80.378" r="3.659"/>
		<path fill="#FFFFFF" d="M92.521,66.435c0.602,0.945,0.321,2.201-0.625,2.799c-0.948,0.603-2.203,0.321-2.802-0.625
			c-0.6-0.949-0.32-2.202,0.627-2.8C90.667,65.208,91.92,65.488,92.521,66.435z"/>
		<circle fill="#FFFFFF" cx="87.611" cy="103.087" r="4.719"/>
		<path fill="#FFFFFF" d="M97.997,171.421c0.326,1.07-0.28,2.203-1.351,2.53c-1.075,0.325-2.208-0.28-2.532-1.354
			c-0.325-1.072,0.281-2.204,1.352-2.53C96.539,169.741,97.673,170.345,97.997,171.421z"/>
		<path fill="#FFFFFF" d="M89.77,57.697c0.166,0.545-0.143,1.125-0.692,1.292c-0.546,0.166-1.125-0.146-1.291-0.691
			c-0.166-0.548,0.144-1.125,0.691-1.292C89.026,56.84,89.604,57.15,89.77,57.697z"/>
		<path fill="#FFFFFF" d="M89.324,62.138c0.24,0.792-0.207,1.629-1,1.869c-0.792,0.24-1.628-0.209-1.868-0.998
			c-0.241-0.794,0.206-1.632,0.999-1.872C88.246,60.898,89.083,61.347,89.324,62.138z"/>
		<g>
			<path fill="#FFFFFF" d="M98.881,139.448h1.309c0.73,0,1.226,0.029,1.483,0.088c0.391,0.092,0.708,0.28,0.952,0.576
				c0.245,0.294,0.368,0.656,0.368,1.085c0,0.356-0.085,0.673-0.253,0.944c-0.168,0.271-0.409,0.476-0.723,0.615
				c-0.312,0.14-0.744,0.209-1.294,0.213l2.364,3.053h-0.812l-2.364-3.053h-0.372v3.053h-0.656L98.881,139.448L98.881,139.448z
				 M99.537,140.091v2.234l1.134,0.01c0.438,0,0.762-0.043,0.973-0.125c0.209-0.084,0.374-0.218,0.493-0.399
				c0.117-0.185,0.176-0.39,0.176-0.615c0-0.221-0.059-0.421-0.179-0.601c-0.119-0.182-0.275-0.312-0.471-0.387
				c-0.193-0.08-0.516-0.117-0.966-0.117H99.537z"/>
			<path fill="#FFFFFF" d="M104.424,139.448h3.767v0.643h-3.111v2.062h3.083v0.645h-3.083v2.582h3.083v0.645h-3.74L104.424,139.448
				L104.424,139.448z"/>
			<path fill="#FFFFFF" d="M109.491,139.448h0.656v2.757h3.349v-2.757h0.657v6.574h-0.657v-3.174h-3.349v3.174h-0.656V139.448z"/>
			<path fill="#FFFFFF" d="M118.487,139.448l3.066,6.574h-0.71l-1.035-2.164h-2.832l-1.024,2.164h-0.734l3.107-6.574H118.487z
				 M118.403,140.845l-1.126,2.379h2.248L118.403,140.845z"/>
			<path fill="#FFFFFF" d="M122.625,139.448h1.296c0.521,0,0.921,0.061,1.203,0.186c0.279,0.123,0.501,0.313,0.665,0.568
				c0.161,0.258,0.242,0.541,0.242,0.854c0,0.295-0.07,0.56-0.212,0.8c-0.143,0.241-0.353,0.435-0.628,0.583
				c0.343,0.117,0.604,0.254,0.789,0.408c0.185,0.156,0.327,0.347,0.43,0.567c0.103,0.224,0.154,0.464,0.154,0.724
				c0,0.526-0.194,0.973-0.579,1.337c-0.387,0.366-0.902,0.549-1.553,0.549h-1.806L122.625,139.448L122.625,139.448z
				 M123.268,140.091v2.104h0.376c0.457,0,0.792-0.042,1.007-0.128c0.216-0.084,0.386-0.218,0.511-0.4
				c0.126-0.185,0.188-0.388,0.188-0.611c0-0.301-0.104-0.536-0.315-0.707c-0.209-0.172-0.545-0.258-1.006-0.258H123.268z
				 M123.268,142.858v2.521h0.814c0.481,0,0.833-0.049,1.058-0.142c0.223-0.095,0.403-0.241,0.539-0.44s0.205-0.416,0.205-0.647
				c0-0.292-0.095-0.547-0.286-0.765c-0.192-0.217-0.454-0.367-0.788-0.446c-0.225-0.054-0.614-0.08-1.169-0.08L123.268,142.858
				L123.268,142.858z"/>
			<path fill="#FFFFFF" d="M127.916,139.448h0.657v6.574h-0.657V139.448z"/>
			<path fill="#FFFFFF" d="M130.259,139.448h0.657v5.938h2.53v0.637h-3.188L130.259,139.448L130.259,139.448z"/>
			<path fill="#FFFFFF" d="M134.472,139.448h0.657v6.574h-0.657V139.448z"/>
			<path fill="#FFFFFF" d="M136.109,140.091v-0.644h3.602v0.644h-1.466v5.932h-0.67v-5.932H136.109z"/>
			<path fill="#FFFFFF" d="M142.992,139.448l3.066,6.574h-0.708l-1.036-2.164h-2.832l-1.023,2.164h-0.734l3.107-6.574H142.992z
				 M142.909,140.845l-1.126,2.379h2.247L142.909,140.845z"/>
			<path fill="#FFFFFF" d="M146.07,140.091v-0.644h3.601v0.644h-1.465v5.932h-0.669v-5.932H146.07z"/>
			<path fill="#FFFFFF" d="M150.65,139.448h0.657v6.574h-0.657V139.448z"/>
			<path fill="#FFFFFF" d="M156.086,139.282c0.996,0,1.828,0.332,2.501,0.997c0.668,0.663,1.004,1.483,1.004,2.453
				c0,0.963-0.333,1.778-1.003,2.448c-0.67,0.672-1.485,1.006-2.449,1.006c-0.976,0-1.797-0.332-2.468-1.001
				c-0.671-0.667-1.006-1.474-1.006-2.421c0-0.635,0.153-1.219,0.458-1.758c0.305-0.539,0.722-0.963,1.25-1.268
				C154.902,139.436,155.473,139.282,156.086,139.282z M156.117,139.923c-0.486,0-0.948,0.127-1.384,0.379
				c-0.436,0.254-0.775,0.596-1.021,1.024c-0.245,0.429-0.367,0.908-0.367,1.437c0,0.779,0.271,1.439,0.812,1.979
				c0.541,0.539,1.195,0.808,1.959,0.808c0.509,0,0.981-0.123,1.416-0.371c0.435-0.247,0.773-0.586,1.016-1.014
				c0.243-0.432,0.365-0.908,0.365-1.434c0-0.521-0.122-0.993-0.365-1.417c-0.242-0.421-0.585-0.758-1.027-1.013
				C157.08,140.048,156.611,139.923,156.117,139.923z"/>
			<path fill="#FFFFFF" d="M161.014,146.022v-6.574h0.143l4.375,5.039v-5.039h0.65v6.574h-0.149l-4.339-4.979v4.979H161.014z"/>
			<path fill="#FFFFFF" d="M175.289,143.589l0.445,0.475c-0.286,0.252-0.558,0.47-0.814,0.654c0.18,0.164,0.412,0.392,0.699,0.679
				c0.227,0.226,0.423,0.435,0.587,0.626h-0.917l-0.872-0.898c-0.548,0.441-0.993,0.729-1.337,0.862
				c-0.343,0.135-0.704,0.2-1.085,0.2c-0.506,0-0.912-0.145-1.22-0.436c-0.306-0.291-0.461-0.654-0.461-1.089
				c0-0.327,0.104-0.657,0.312-0.985c0.208-0.328,0.63-0.745,1.267-1.25c-0.36-0.435-0.592-0.756-0.696-0.963
				c-0.102-0.207-0.153-0.404-0.153-0.592c0-0.328,0.126-0.6,0.379-0.812c0.293-0.25,0.656-0.375,1.091-0.375
				c0.274,0,0.524,0.055,0.749,0.166c0.228,0.107,0.4,0.259,0.521,0.443c0.119,0.188,0.178,0.385,0.178,0.592
				c0,0.222-0.077,0.455-0.232,0.705c-0.155,0.248-0.462,0.566-0.917,0.953l0.996,1.045l0.653,0.664
				C174.812,143.995,175.089,143.774,175.289,143.589z M172.325,142.923c-0.559,0.42-0.926,0.756-1.099,1.004
				c-0.173,0.25-0.259,0.479-0.259,0.69c0,0.251,0.105,0.472,0.319,0.664c0.211,0.19,0.47,0.289,0.777,0.289
				c0.233,0,0.461-0.048,0.686-0.144c0.353-0.152,0.756-0.41,1.211-0.774l-1.037-1.069
				C172.744,143.397,172.543,143.177,172.325,142.923z M172.405,142.054c0.318-0.248,0.559-0.49,0.722-0.729
				c0.111-0.169,0.169-0.321,0.169-0.45c0-0.15-0.075-0.283-0.222-0.395c-0.148-0.109-0.345-0.164-0.589-0.164
				c-0.234,0-0.424,0.056-0.57,0.168c-0.147,0.113-0.219,0.247-0.219,0.402c0,0.119,0.029,0.232,0.089,0.336
				C171.931,141.475,172.138,141.753,172.405,142.054z"/>
			<path fill="#FFFFFF" d="M185.91,140.835l-0.52,0.396c-0.285-0.373-0.629-0.653-1.029-0.848c-0.4-0.19-0.842-0.287-1.32-0.287
				c-0.523,0-1.012,0.125-1.459,0.379c-0.445,0.251-0.793,0.589-1.037,1.014c-0.246,0.424-0.369,0.902-0.369,1.434
				c0,0.802,0.273,1.471,0.824,2.006c0.551,0.537,1.244,0.805,2.08,0.805c0.922,0,1.691-0.359,2.312-1.081l0.518,0.394
				c-0.328,0.418-0.734,0.738-1.227,0.969c-0.49,0.228-1.037,0.342-1.643,0.342c-1.148,0-2.059-0.385-2.723-1.148
				c-0.557-0.646-0.836-1.427-0.836-2.342c0-0.964,0.338-1.771,1.012-2.43c0.676-0.658,1.521-0.985,2.537-0.985
				c0.615,0,1.168,0.121,1.662,0.363C185.189,140.056,185.596,140.396,185.91,140.835z"/>
			<path fill="#FFFFFF" d="M190.164,139.449c0.996,0,1.83,0.332,2.5,0.995c0.672,0.666,1.008,1.482,1.008,2.454
				c0,0.962-0.336,1.78-1.006,2.451c-0.668,0.669-1.484,1.005-2.447,1.005c-0.977,0-1.799-0.335-2.469-1.001
				c-0.67-0.669-1.008-1.476-1.008-2.425c0-0.631,0.154-1.217,0.459-1.756c0.307-0.539,0.725-0.961,1.25-1.267
				C188.979,139.601,189.551,139.449,190.164,139.449z M190.193,140.087c-0.486,0-0.949,0.127-1.383,0.381
				c-0.436,0.256-0.775,0.596-1.021,1.025s-0.367,0.907-0.367,1.436c0,0.781,0.271,1.44,0.812,1.979
				c0.543,0.538,1.193,0.809,1.957,0.809c0.51,0,0.984-0.125,1.418-0.373c0.434-0.246,0.773-0.584,1.016-1.015
				c0.244-0.43,0.365-0.905,0.365-1.432c0-0.522-0.121-0.994-0.365-1.415c-0.242-0.422-0.584-0.76-1.025-1.014
				C191.156,140.214,190.689,140.087,190.193,140.087z"/>
			<path fill="#FFFFFF" d="M195.092,146.188v-6.573h0.145l4.375,5.04v-5.04h0.646v6.573h-0.146l-4.34-4.978v4.978H195.092z"/>
			<path fill="#FFFFFF" d="M201.996,146.188v-6.573h1.363c0.984,0,1.697,0.079,2.141,0.237c0.641,0.223,1.137,0.61,1.494,1.161
				c0.361,0.553,0.539,1.209,0.539,1.971c0,0.659-0.141,1.238-0.426,1.738c-0.285,0.502-0.652,0.871-1.107,1.108
				c-0.455,0.239-1.092,0.356-1.912,0.356L201.996,146.188L201.996,146.188z M202.627,145.567h0.762c0.906,0,1.539-0.057,1.891-0.17
				c0.494-0.16,0.883-0.451,1.166-0.868c0.283-0.419,0.424-0.93,0.424-1.534c0-0.635-0.152-1.176-0.461-1.625
				c-0.307-0.449-0.732-0.758-1.281-0.926c-0.41-0.124-1.09-0.186-2.033-0.186h-0.465v5.309H202.627z"/>
			<path fill="#FFFFFF" d="M208.891,139.614h0.658v6.573h-0.658V139.614z"/>
			<path fill="#FFFFFF" d="M210.527,140.259v-0.646h3.604v0.646h-1.469v5.929h-0.67v-5.929H210.527z"/>
			<path fill="#FFFFFF" d="M215.107,139.614h0.656v6.573h-0.656V139.614z"/>
			<path fill="#FFFFFF" d="M220.543,139.449c0.996,0,1.828,0.332,2.5,0.995c0.672,0.666,1.008,1.482,1.008,2.454
				c0,0.962-0.334,1.78-1.006,2.451c-0.668,0.669-1.484,1.005-2.447,1.005c-0.977,0-1.797-0.335-2.469-1.001
				c-0.67-0.669-1.006-1.476-1.006-2.425c0-0.631,0.152-1.217,0.457-1.756c0.307-0.539,0.725-0.961,1.25-1.267
				C219.359,139.601,219.93,139.449,220.543,139.449z M220.574,140.087c-0.488,0-0.949,0.127-1.385,0.381
				c-0.438,0.256-0.775,0.596-1.021,1.025c-0.242,0.43-0.365,0.907-0.365,1.436c0,0.781,0.271,1.44,0.812,1.979
				s1.195,0.809,1.959,0.809c0.51,0,0.98-0.125,1.416-0.373c0.436-0.246,0.773-0.584,1.018-1.015
				c0.242-0.43,0.363-0.905,0.363-1.432c0-0.522-0.121-0.994-0.363-1.415c-0.242-0.422-0.588-0.76-1.027-1.014
				C221.537,140.214,221.068,140.087,220.574,140.087z"/>
			<path fill="#FFFFFF" d="M225.471,146.188v-6.573h0.143l4.375,5.04v-5.04h0.65v6.573h-0.148l-4.34-4.978v4.978H225.471z"/>
			<path fill="#FFFFFF" d="M232.324,139.614h0.658v6.573h-0.658V139.614z"/>
			<path fill="#FFFFFF" d="M234.674,146.188v-6.573h0.143l4.375,5.04v-5.04h0.648v6.573h-0.146l-4.34-4.978v4.978H234.674z"/>
			<path fill="#FFFFFF" d="M247.857,140.718l-0.51,0.481c-0.367-0.36-0.768-0.633-1.203-0.819c-0.439-0.187-0.863-0.278-1.277-0.278
				c-0.516,0-1.006,0.126-1.473,0.38c-0.467,0.253-0.828,0.598-1.082,1.029c-0.258,0.435-0.385,0.893-0.385,1.375
				c0,0.494,0.131,0.965,0.396,1.41c0.266,0.444,0.631,0.795,1.1,1.049c0.469,0.256,0.979,0.384,1.537,0.384
				c0.676,0,1.248-0.19,1.717-0.572s0.746-0.876,0.832-1.483h-2.098v-0.636h2.834c-0.006,1.017-0.309,1.823-0.904,2.421
				c-0.598,0.599-1.396,0.896-2.398,0.896c-1.215,0-2.178-0.414-2.887-1.244c-0.545-0.637-0.816-1.374-0.816-2.212
				c0-0.621,0.154-1.201,0.467-1.738c0.314-0.536,0.742-0.955,1.289-1.258c0.545-0.302,1.162-0.453,1.85-0.453
				c0.559,0,1.082,0.101,1.572,0.302C246.91,139.952,247.389,140.273,247.857,140.718z"/>
			<path fill="#FFFFFF" d="M258.154,140.835l-0.518,0.396c-0.285-0.373-0.631-0.653-1.031-0.848c-0.4-0.19-0.84-0.287-1.32-0.287
				c-0.523,0-1.01,0.125-1.457,0.379c-0.445,0.251-0.793,0.589-1.037,1.014c-0.248,0.424-0.369,0.902-0.369,1.434
				c0,0.802,0.273,1.471,0.824,2.006c0.549,0.537,1.242,0.805,2.078,0.805c0.922,0,1.693-0.359,2.312-1.081l0.518,0.394
				c-0.328,0.418-0.736,0.738-1.227,0.969c-0.49,0.228-1.037,0.342-1.645,0.342c-1.148,0-2.057-0.385-2.721-1.148
				c-0.557-0.646-0.836-1.427-0.836-2.342c0-0.964,0.338-1.771,1.012-2.43c0.676-0.657,1.521-0.985,2.537-0.985
				c0.615,0,1.168,0.121,1.662,0.363C257.434,140.056,257.84,140.396,258.154,140.835z"/>
			<path fill="#FFFFFF" d="M259.451,139.614h3.768v0.645h-3.109v2.06h3.084v0.644h-3.084v2.584h3.084v0.644h-3.742V139.614
				L259.451,139.614z"/>
			<path fill="#FFFFFF" d="M264.527,146.188v-6.573h0.146l4.371,5.04v-5.04h0.65v6.573h-0.148l-4.338-4.978v4.978H264.527z"/>
			<path fill="#FFFFFF" d="M270.723,140.259v-0.646h3.602v0.646h-1.465v5.929h-0.67v-5.929H270.723z"/>
			<path fill="#FFFFFF" d="M275.371,139.614h1.311c0.729,0,1.225,0.029,1.482,0.09c0.391,0.09,0.707,0.28,0.953,0.575
				c0.244,0.293,0.363,0.655,0.363,1.085c0,0.357-0.082,0.673-0.25,0.943c-0.168,0.271-0.41,0.478-0.723,0.615
				c-0.312,0.14-0.744,0.211-1.295,0.213l2.361,3.052h-0.811l-2.363-3.052h-0.373v3.052h-0.656V139.614z M276.027,140.259v2.233
				l1.133,0.009c0.439,0,0.764-0.041,0.975-0.125s0.375-0.218,0.492-0.399c0.117-0.183,0.178-0.39,0.178-0.614
				c0-0.223-0.061-0.422-0.182-0.604c-0.117-0.18-0.275-0.308-0.469-0.385c-0.193-0.078-0.518-0.115-0.967-0.115H276.027z"/>
			<path fill="#FFFFFF" d="M280.914,139.614h3.768v0.645h-3.111v2.06h3.086v0.644h-3.086v2.584h3.086v0.644h-3.742V139.614
				L280.914,139.614z"/>
		</g>
		<g>
			<path fill="#FFFFFF" d="M99.162,112.329h4.146c2.377,0,3.981,0.104,4.811,0.312c1.188,0.292,2.16,0.894,2.916,1.804
				c0.753,0.911,1.132,2.054,1.132,3.431c0,1.387-0.369,2.53-1.104,3.433c-0.735,0.901-1.75,1.508-3.042,1.817
				c-0.943,0.227-2.708,0.34-5.292,0.34h-1.485v9.681h-2.081L99.162,112.329L99.162,112.329z M101.243,114.366v7.061l3.523,0.043
				c1.424,0,2.466-0.129,3.126-0.389c0.661-0.259,1.179-0.678,1.558-1.256c0.376-0.58,0.566-1.227,0.566-1.943
				c0-0.695-0.189-1.332-0.566-1.913c-0.378-0.579-0.875-0.991-1.494-1.236c-0.617-0.244-1.63-0.367-3.035-0.367H101.243z"/>
			<path fill="#FFFFFF" d="M116.03,112.329h2.081v20.817h-2.081V112.329z"/>
			<path fill="#FFFFFF" d="M122.876,112.329h2.081v18.807h8.009v2.011h-10.09V112.329z"/>
			<path fill="#FFFFFF" d="M144.769,112.329l9.707,20.817h-2.247l-3.273-6.85h-8.967l-3.242,6.85h-2.321l9.834-20.817H144.769z
				 M144.506,116.751l-3.566,7.536h7.116L144.506,116.751z"/>
			<path fill="#FFFFFF" d="M153.288,114.366v-2.038h11.404v2.038h-4.642v18.78h-2.121v-18.78H153.288z"/>
			<path fill="#FFFFFF" d="M167.707,112.329h11.928v2.038h-9.849v6.525h9.765v2.037h-9.765v8.18h9.765v2.038h-11.844V112.329z"/>
			<path fill="#FFFFFF" d="M181.078,129.267l1.771-1.062c1.244,2.294,2.684,3.438,4.314,3.438c0.697,0,1.355-0.162,1.967-0.489
				c0.613-0.324,1.08-0.761,1.4-1.308s0.482-1.129,0.482-1.74c0-0.698-0.236-1.382-0.709-2.053c-0.65-0.926-1.838-2.037-3.566-3.34
				c-1.734-1.312-2.814-2.259-3.24-2.844c-0.734-0.98-1.104-2.043-1.104-3.185c0-0.906,0.217-1.732,0.65-2.477
				c0.436-0.746,1.047-1.333,1.832-1.762c0.789-0.429,1.645-0.644,2.57-0.644c0.979,0,1.896,0.243,2.75,0.729
				c0.855,0.486,1.758,1.38,2.711,2.682l-1.699,1.287c-0.781-1.038-1.447-1.721-2.002-2.051c-0.551-0.33-1.152-0.495-1.803-0.495
				c-0.84,0-1.527,0.255-2.059,0.765c-0.535,0.509-0.801,1.136-0.801,1.882c0,0.452,0.094,0.893,0.281,1.315
				c0.189,0.426,0.533,0.887,1.035,1.387c0.271,0.266,1.168,0.957,2.688,2.08c1.803,1.33,3.037,2.515,3.709,3.552
				c0.668,1.038,1.004,2.081,1.004,3.129c0,1.51-0.574,2.819-1.721,3.933c-1.145,1.113-2.539,1.672-4.182,1.672
				c-1.264,0-2.41-0.338-3.438-1.014C182.895,131.981,181.947,130.852,181.078,129.267z"/>
			<path fill="#FFFFFF" d="M205.674,112.329h4.146c2.377,0,3.98,0.104,4.812,0.312c1.188,0.292,2.158,0.894,2.916,1.804
				c0.752,0.911,1.131,2.054,1.131,3.431c0,1.387-0.369,2.53-1.104,3.433c-0.736,0.901-1.75,1.508-3.043,1.817
				c-0.941,0.227-2.707,0.34-5.293,0.34h-1.482v9.681h-2.082v-20.818H205.674z M207.756,114.366v7.061l3.521,0.043
				c1.424,0,2.467-0.129,3.127-0.389c0.66-0.259,1.178-0.678,1.557-1.256c0.377-0.58,0.566-1.227,0.566-1.943
				c0-0.695-0.189-1.332-0.566-1.913c-0.379-0.579-0.875-0.991-1.492-1.236c-0.617-0.244-1.631-0.367-3.035-0.367H207.756z"/>
			<path fill="#FFFFFF" d="M222.951,112.329h4.146c2.311,0,3.877,0.095,4.697,0.284c1.234,0.284,2.238,0.89,3.016,1.821
				c0.771,0.93,1.158,2.075,1.158,3.437c0,1.132-0.268,2.13-0.799,2.989c-0.533,0.859-1.297,1.509-2.285,1.947
				c-0.99,0.438-2.359,0.664-4.104,0.673l7.486,9.666h-2.574l-7.486-9.666h-1.176v9.666h-2.08V112.329z M225.031,114.366v7.077
				l3.586,0.027c1.391,0,2.416-0.131,3.082-0.396c0.666-0.263,1.188-0.687,1.561-1.267c0.373-0.579,0.559-1.229,0.559-1.946
				c0-0.698-0.188-1.331-0.564-1.904c-0.379-0.57-0.873-0.978-1.488-1.223c-0.613-0.245-1.637-0.368-3.062-0.368L225.031,114.366
				L225.031,114.366z"/>
			<path fill="#FFFFFF" d="M250.34,111.805c3.152,0,5.789,1.052,7.914,3.156c2.125,2.104,3.188,4.692,3.188,7.769
				c0,3.048-1.061,5.632-3.18,7.755c-2.119,2.122-4.703,3.185-7.752,3.185c-3.088,0-5.691-1.057-7.816-3.17
				c-2.123-2.111-3.186-4.671-3.186-7.67c0-2,0.482-3.854,1.451-5.561c0.969-1.709,2.285-3.045,3.957-4.013
				S248.395,111.805,250.34,111.805z M250.432,113.829c-1.541,0-3,0.401-4.381,1.205c-1.381,0.805-2.457,1.883-3.23,3.244
				c-0.775,1.358-1.162,2.874-1.162,4.545c0,2.474,0.857,4.563,2.572,6.269s3.781,2.556,6.201,2.556
				c1.613,0,3.109-0.394,4.484-1.175c1.375-0.783,2.447-1.854,3.219-3.217c0.77-1.358,1.154-2.869,1.154-4.53
				c0-1.651-0.385-3.146-1.154-4.481c-0.771-1.337-1.855-2.405-3.254-3.208S251.998,113.829,250.432,113.829z"/>
		</g>
	</g>
	<g>
		<path fill="#FFFFFF" d="M266.555,123.455h0.887v8.865h-0.887V123.455z"/>
		<path fill="#FFFFFF" d="M269.477,132.32v-8.864h0.193l5.898,6.795v-6.795h0.875v8.864h-0.199l-5.852-6.715v6.715H269.477z"/>
		<path fill="#FFFFFF" d="M286.859,125.1l-0.699,0.534c-0.385-0.5-0.85-0.883-1.389-1.142c-0.541-0.259-1.135-0.389-1.783-0.389
			c-0.707,0-1.359,0.17-1.965,0.51c-0.602,0.339-1.068,0.795-1.4,1.368c-0.332,0.572-0.496,1.217-0.496,1.932
			c0,1.081,0.369,1.982,1.111,2.706c0.74,0.724,1.678,1.085,2.805,1.085c1.242,0,2.281-0.486,3.117-1.458l0.699,0.53
			c-0.443,0.562-0.994,0.997-1.654,1.305c-0.66,0.309-1.398,0.461-2.217,0.461c-1.551,0-2.771-0.517-3.67-1.55
			c-0.752-0.872-1.127-1.925-1.127-3.157c0-1.298,0.455-2.39,1.365-3.275c0.908-0.887,2.051-1.329,3.422-1.329
			c0.826,0,1.574,0.163,2.24,0.491C285.887,124.05,286.434,124.509,286.859,125.1z"/>
		<path fill="#FFFFFF" d="M289.428,130.993c0.205,0,0.379,0.073,0.523,0.219c0.145,0.145,0.217,0.32,0.217,0.529
			c0,0.205-0.072,0.38-0.217,0.526c-0.145,0.147-0.318,0.221-0.523,0.221s-0.379-0.073-0.523-0.221
			c-0.146-0.146-0.219-0.321-0.219-0.526c0-0.209,0.072-0.386,0.219-0.529C289.049,131.066,289.223,130.993,289.428,130.993z"/>
	</g>
</g>
</svg>
