<?xml version="1.0" encoding="utf-8"?>
<!-- Generator: Adobe Illustrator 15.0.0, SVG Export Plug-In . SVG Version: 6.00 Build 0)  -->
<!DOCTYPE svg PUBLIC "-//W3C//DTD SVG 1.1//EN" "http://www.w3.org/Graphics/SVG/1.1/DTD/svg11.dtd">
<svg version="1.1" id="Layer_1" xmlns="http://www.w3.org/2000/svg" xmlns:xlink="http://www.w3.org/1999/xlink" x="0px" y="0px"
	 width="396px" height="256px" viewBox="0 0 396 256" enable-background="new 0 0 396 256" xml:space="preserve">
<g>
	<polygon fill="#FFFFFF" points="177.225,92.822 129.426,163.178 142.673,163.178 190.472,92.822 	"/>
	<path fill="#FFFFFF" d="M147.183,159.089h4.738c0,0-0.017-3.685-0.022-6.94L147.183,159.089z"/>
	<path fill="#FFFFFF" d="M293.316,128.298l21.441-30.972H301.51l-14.816,21.403l-14.818-21.403h-13.246l21.439,30.972l-1.723,2.491
		h-0.002L276.4,133.6l-1.945-2.811h-0.01l0.01-0.001l-23.166-33.462h-8.82v33.463v3.422v24.878h11.818V142.48h15.98l-11.516,16.607
		H272l4.4-6.355l4.398,6.355h13.248l-11.023-15.922l3.67-5.303l14.695,21.225h13.244l-19.592-28.3L293.316,128.298z
		 M254.287,130.665v-9.872l6.834,9.872H254.287z"/>
	<polygon fill="#FFFFFF" points="207.137,130.789 204.543,134.537 204.543,130.789 204.543,97.327 195.724,97.327 172.559,130.789 
		152.965,159.089 166.211,159.089 185.805,130.789 192.727,120.793 192.727,130.789 192.727,159.089 200.791,159.089 
		220.385,130.789 227.307,120.793 227.307,130.789 227.307,159.089 239.123,159.089 239.123,130.789 239.123,97.327 230.303,97.327 
			"/>
	<path fill="#FFFFFF" d="M138.501,147.271h-3.153v-13.543h12.354l1.996-2.939l2.202-3.241c-0.006-2.862-0.005-5.638,0.021-5.638
		h-16.573v-12.765h16.573c0,0-0.054-11.819,0-11.819h-28.39v33.463h-0.001v26.404l-15.231-18.678
		c2.435-1.13,6.295-3.746,9.279-7.726h0.001c2.444-3.257,4.299-7.425,4.299-12.434c0-11.917-8.33-21.031-17.543-21.031H81.243
		v33.463v28.3c0,0,11.818-0.054,11.818,0v-19.051l16.225,19.051h21.188L138.501,147.271z M101.781,126.56h-8.72v-17.334h8.72
		c3.926,0,7.853,3.111,7.853,8.664C109.633,123.442,105.707,126.56,101.781,126.56z"/>
</g>
</svg>
