<?xml version="1.0" encoding="utf-8"?>
<!-- Generator: Adobe Illustrator 15.0.0, SVG Export Plug-In . SVG Version: 6.00 Build 0)  -->
<!DOCTYPE svg PUBLIC "-//W3C//DTD SVG 1.1 Tiny//EN" "http://www.w3.org/Graphics/SVG/1.1/DTD/svg11-tiny.dtd">
<svg version="1.1" baseProfile="tiny" id="Layer_1" xmlns="http://www.w3.org/2000/svg" xmlns:xlink="http://www.w3.org/1999/xlink"
	 x="0px" y="0px" width="396px" height="256px" viewBox="-19 -12.5 396 256" overflow="inherit" xml:space="preserve">
<g>
	<polygon fill="#FFFFFF" points="158.224,80.322 110.426,150.678 123.673,150.678 171.471,80.322 	"/>
	<path fill="#FFFFFF" d="M128.182,146.589h4.738c0,0-0.017-3.685-0.022-6.941L128.182,146.589z"/>
	<path fill="#FFFFFF" d="M232.288,84.826h-8.82v33.462h31.986L232.288,84.826z M235.287,108.293l6.833,9.872h-6.833V108.293z"/>
	<polygon fill="#FFFFFF" points="274.316,115.798 295.758,84.826 282.511,84.826 267.693,106.229 252.875,84.826 239.628,84.826 
		261.069,115.798 259.346,118.289 259.344,118.289 257.4,121.099 255.454,118.289 223.468,118.289 223.468,146.589 235.287,146.589 
		235.287,129.981 251.268,129.981 239.752,146.589 253,146.589 257.4,140.233 261.8,146.589 275.047,146.589 264.023,130.667 
		267.693,125.364 282.388,146.589 295.634,146.589 276.041,118.289 	"/>
	<polygon fill="#FFFFFF" points="188.137,118.289 185.542,122.037 185.542,118.289 185.542,84.827 176.723,84.827 153.558,118.289 
		153.558,118.289 133.965,146.589 147.211,146.589 166.804,118.289 173.726,108.293 173.726,118.289 173.726,146.589 
		181.791,146.589 201.384,118.289 208.306,108.293 208.306,118.289 208.306,146.589 220.122,146.589 220.122,118.289 
		220.122,84.827 211.303,84.827 	"/>
	<path fill="#FFFFFF" d="M119.501,134.771h-3.153v-13.543h12.354l1.996-2.939l2.202-3.241c-0.006-2.862-0.005-5.638,0.021-5.638
		h-16.573V96.645h16.573c0,0-0.054-11.819,0-11.819h-28.39v33.463h-0.001v26.404l-15.231-18.677c2.435-1.13,6.295-3.747,9.279-7.726
		h0.001c2.444-3.257,4.299-7.425,4.299-12.434c0-11.917-8.33-21.031-17.543-21.031H62.242v33.463v28.3c0,0,11.818-0.054,11.818,0
		v-19.051l16.225,19.051h21.188L119.501,134.771z M82.78,114.06h-8.72V96.726h8.72c3.926,0,7.853,3.111,7.853,8.664
		C90.633,110.942,86.706,114.06,82.78,114.06z"/>
</g>
</svg>
