<?xml version="1.0" encoding="utf-8"?>
<!-- Generator: Adobe Illustrator 16.0.0, SVG Export Plug-In . SVG Version: 6.00 Build 0)  -->
<!DOCTYPE svg PUBLIC "-//W3C//DTD SVG 1.1//EN" "http://www.w3.org/Graphics/SVG/1.1/DTD/svg11.dtd">
<svg version="1.1" id="Layer_1" xmlns="http://www.w3.org/2000/svg" xmlns:xlink="http://www.w3.org/1999/xlink" x="0px" y="0px"
	 width="358px" height="231px" viewBox="0 0 358 231" enable-background="new 0 0 358 231" xml:space="preserve">
<g>
	<polygon fill="#FFFFFF" points="153.979,76.416 168.885,76.416 115.101,155.584 100.195,155.584 153.979,76.416 	"/>
	<path fill-rule="evenodd" clip-rule="evenodd" fill="#FFFFFF" d="M86.864,119.138c-3.357,4.478-7.702,7.425-10.443,8.695
		l17.139,21.017v-29.712h29.446l-2.247,3.308h-13.901v15.239h3.548l-9.034,13.298H77.53l-18.256-21.437v21.437
		c0-0.061-13.298,0-13.298,0v-31.845H86.864L86.864,119.138z M163.634,119.138l-22.047,31.845h-14.905l22.047-31.845H163.634
		L163.634,119.138z M184.719,119.138v4.218l2.92-4.218h14.906l-22.047,31.845h-9.076v-31.845H184.719L184.719,119.138z
		 M223.63,119.138v31.845h-13.297v-31.845H223.63L223.63,119.138z M263.387,119.138l2.189,3.162l2.188-3.162h18.788l22.047,31.845
		h-14.906L277.158,127.1l-4.129,5.966l12.405,17.917h-14.907l-4.951-7.152l-4.951,7.152h-14.907l12.958-18.687h-17.982v18.687
		h-13.299v-31.845H263.387L263.387,119.138z M125.481,143.172c0.006,3.664,0.025,7.811,0.025,7.811h-5.331L125.481,143.172
		L125.481,143.172z"/>
	<path fill-rule="evenodd" clip-rule="evenodd" fill="#FFFFFF" d="M45.976,119.138V81.485h25.985
		c10.367,0,19.74,10.255,19.74,23.664c0,5.636-2.087,10.327-4.837,13.992L45.976,119.138L45.976,119.138z M93.561,119.138V81.485
		h31.946c-0.061,0,0,13.298,0,13.298h-18.649v14.364h18.649c-0.03,0-0.031,3.124-0.024,6.345l-2.477,3.646H93.561L93.561,119.138z
		 M148.728,119.138l26.067-37.652h9.924v37.652h-13.297V107.89l-7.788,11.248H148.728L148.728,119.138z M187.639,119.138
		l26.067-37.652h9.924v37.652h-13.297V107.89l-7.788,11.248H187.639L187.639,119.138z M227.395,119.138V81.485h9.925l26.067,37.652
		H227.395L227.395,119.138z M267.765,119.138l1.94-2.803l-24.126-34.85h14.905l16.674,24.083l16.674-24.083h14.906l-24.127,34.85
		l1.941,2.803H267.765L267.765,119.138z M240.693,107.89v11.109h7.69L240.693,107.89L240.693,107.89z M59.274,94.875h9.812
		c4.418,0,8.837,3.5,8.837,9.748s-4.419,9.756-8.837,9.756h-9.812V94.875L59.274,94.875z"/>
</g>
</svg>
