<?xml version="1.0" encoding="utf-8"?>
<!-- Generator: Adobe Illustrator 16.0.0, SVG Export Plug-In . SVG Version: 6.00 Build 0)  -->
<!DOCTYPE svg PUBLIC "-//W3C//DTD SVG 1.1//EN" "http://www.w3.org/Graphics/SVG/1.1/DTD/svg11.dtd">
<svg version="1.1" id="Layer_1" xmlns="http://www.w3.org/2000/svg" xmlns:xlink="http://www.w3.org/1999/xlink" x="0px" y="0px"
	 width="358px" height="231px" viewBox="0 0 358 231" enable-background="new 0 0 358 231" xml:space="preserve">
<g>
	<g>
		<line fill="#FFFFFF" stroke="#FFFFFF" stroke-width="0.7335" x1="138.577" y1="91.828" x2="138.577" y2="141.146"/>
	</g>
	<g>
		<g>
			<path fill="#FFFFFF" d="M54.494,108.836h7.723c2.884,0,5.233,1.302,5.233,4.093c0,2.162-1.023,3.604-3.117,4.094v0.044
				c1.396,0.372,1.489,1.606,2.302,3.582l1.582,4.421h-4.512l-0.93-2.93c-0.885-2.793-1.442-3.49-3.048-3.49H58.82v6.42h-4.326
				V108.836z M58.82,115.58h1.14c1.396,0,3.163-0.045,3.163-1.883c0-1.513-1.511-1.791-3.163-1.791h-1.14V115.58z"/>
			<path fill="#FFFFFF" d="M93.414,124.604c-2.747,0.696-4.792,0.745-6.281,0.745c-4.326,0-9.327-2.188-9.327-8.326
				c0-6.118,4.303-8.468,10.257-8.468c1.071,0,3.326,0.116,4.907,0.721l-0.348,3.537c-1.35-0.793-2.931-1.047-3.954-1.047
				c-3.513,0-6.397,1.464-6.397,5.257c0,3.186,2.257,5.117,5.42,5.117c0.582,0,1.139-0.094,1.534-0.281v-3.209H86.69v-3.071h6.724
				V124.604z"/>
			<path fill="#FFFFFF" d="M104.937,108.836h5.911c5.65,0,9.604,1.766,9.604,8.047c0,6.068-4.071,8.187-9.604,8.187h-5.911V108.836z
				 M109.264,121.859h1.675c3.233,0,5.047-1.674,5.047-4.907c0-3.233-1.884-4.907-5.047-4.907h-1.675V121.859z"/>
		</g>
		<path fill="#FFFFFF" d="M163.972,108.604c4.885,0,7.188,4,7.14,8.396c-0.048,4.979-2.463,8.396-7.14,8.396
			c-4.676,0-7.097-3.418-7.143-8.396C156.783,112.604,159.084,108.604,163.972,108.604z M158.433,117c0,3.443,1.723,7,5.539,7
			c3.813,0,5.533-3.557,5.533-7c0-3.442-1.72-7.001-5.533-7.001C160.155,109.999,158.433,113.558,158.433,117z"/>
		<path fill="#FFFFFF" d="M183.462,108.884h2.023l8.258,14.28h0.045v-14.28h1.606v16.233h-2.165l-8.114-14h-0.049v14h-1.604V108.884
			z"/>
		<path fill="#FFFFFF" d="M211.513,125.117h1.604v-14.84h4.793v-1.393H206.72v1.393h4.793V125.117z"/>
		<path fill="#FFFFFF" d="M232.798,108.884h1.812l6.445,16.233h-1.675l-1.744-4.35h-8.188l-1.745,4.35h-1.559L232.798,108.884z
			 M233.589,110.419l-3.536,8.954h7.047L233.589,110.419z"/>
		<path fill="#FFFFFF" d="M252.707,108.884h4.185c2.886,0,4.769,1.23,4.769,4.207c0,2.096-1.603,3.491-3.604,3.747v0.046
			c1.304,0.163,1.584,0.86,2.096,1.954l2.765,6.279h-1.766l-2.35-5.49c-0.93-2.092-1.628-2.162-3.164-2.162h-1.324v7.652h-1.605
			V108.884z M254.312,116.07h1.697c1.886,0,4.048-0.722,4.048-2.979c0-2.649-1.884-2.814-4.094-2.814h-1.651V116.07z"/>
		<path fill="#FFFFFF" d="M274.688,108.884h1.603v16.233h-1.603V108.884z"/>
		<path fill="#FFFFFF" d="M295.759,108.604c4.887,0,7.188,4,7.142,8.396c-0.047,4.979-2.467,8.396-7.142,8.396
			s-7.094-3.418-7.138-8.396C288.573,112.604,290.876,108.604,295.759,108.604z M290.225,117c0,3.443,1.722,7,5.534,7
			c3.817,0,5.537-3.557,5.537-7c0-3.442-1.72-7.001-5.537-7.001C291.946,109.999,290.225,113.558,290.225,117z"/>
	</g>
</g>
</svg>
