<?xml version="1.0" encoding="utf-8"?>
<!-- Generator: Adobe Illustrator 15.0.0, SVG Export Plug-In . SVG Version: 6.00 Build 0)  -->
<!DOCTYPE svg PUBLIC "-//W3C//DTD SVG 1.1//EN" "http://www.w3.org/Graphics/SVG/1.1/DTD/svg11.dtd">
<svg version="1.1" id="Layer_1" xmlns="http://www.w3.org/2000/svg" xmlns:xlink="http://www.w3.org/1999/xlink" x="0px" y="0px"
	 width="396px" height="256px" viewBox="0 0 396 256" enable-background="new 0 0 396 256" xml:space="preserve">
<g>
	<g>
		<line fill="none" stroke="#FFFFFF" stroke-width="0.7335" x1="157.879" y1="103.341" x2="157.879" y2="152.659"/>
	</g>
	<g>
		<g>
			<path fill="#FFFFFF" d="M73.796,120.349h7.723c2.884,0,5.233,1.302,5.233,4.093c0,2.162-1.023,3.604-3.117,4.096v0.043
				c1.396,0.373,1.489,1.605,2.302,3.582l1.582,4.422h-4.512l-0.93-2.93c-0.885-2.793-1.442-3.49-3.048-3.49h-0.907v6.42h-4.326
				V120.349z M78.122,127.093h1.14c1.396,0,3.163-0.045,3.163-1.883c0-1.513-1.511-1.791-3.163-1.791h-1.14V127.093z"/>
			<path fill="#FFFFFF" d="M112.716,136.117c-2.747,0.695-4.792,0.746-6.281,0.746c-4.326,0-9.327-2.188-9.327-8.326
				c0-6.118,4.303-8.469,10.257-8.469c1.071,0,3.326,0.116,4.907,0.721l-0.348,3.537c-1.35-0.793-2.931-1.047-3.954-1.047
				c-3.513,0-6.397,1.464-6.397,5.256c0,3.187,2.257,5.117,5.42,5.117c0.582,0,1.139-0.095,1.534-0.281v-3.209h-2.535v-3.07h6.724
				V136.117z"/>
			<path fill="#FFFFFF" d="M124.239,120.349h5.911c5.65,0,9.604,1.766,9.604,8.047c0,6.068-4.071,8.188-9.604,8.188h-5.911V120.349z
				 M128.566,133.371h1.675c3.233,0,5.047-1.674,5.047-4.906c0-3.233-1.884-4.907-5.047-4.907h-1.675V133.371z"/>
		</g>
		<path fill="#FFFFFF" d="M183.274,120.117c4.885,0,7.188,4,7.14,8.396c-0.048,4.979-2.463,8.396-7.14,8.396
			c-4.676,0-7.097-3.418-7.143-8.396C176.085,124.117,178.386,120.117,183.274,120.117z M177.735,128.513c0,3.442,1.723,7,5.539,7
			c3.813,0,5.533-3.558,5.533-7c0-3.442-1.72-7.001-5.533-7.001C179.458,121.512,177.735,125.071,177.735,128.513z"/>
		<path fill="#FFFFFF" d="M202.765,120.396h2.021l8.26,14.28h0.045v-14.28h1.605v16.233h-2.166l-8.112-14h-0.05v14h-1.604V120.396z"
			/>
		<path fill="#FFFFFF" d="M230.816,136.63h1.604v-14.84h4.793v-1.393h-11.19v1.393h4.795v14.84H230.816z"/>
		<path fill="#FFFFFF" d="M252.101,120.396h1.812l6.445,16.233h-1.675l-1.744-4.351h-8.188l-1.745,4.351h-1.559L252.101,120.396z
			 M252.892,121.932l-3.536,8.954h7.047L252.892,121.932z"/>
		<path fill="#FFFFFF" d="M272.01,120.396h4.186c2.885,0,4.77,1.23,4.77,4.207c0,2.096-1.604,3.491-3.604,3.747v0.046
			c1.305,0.163,1.584,0.86,2.096,1.954l2.766,6.279h-1.766l-2.352-5.49c-0.93-2.092-1.628-2.162-3.162-2.162h-1.324v7.652h-1.605
			v-16.233H272.01z M273.615,127.583h1.695c1.887,0,4.049-0.722,4.049-2.979c0-2.649-1.885-2.814-4.095-2.814h-1.649V127.583z"/>
		<path fill="#FFFFFF" d="M293.99,120.396h1.604v16.233h-1.604V120.396z"/>
		<path fill="#FFFFFF" d="M315.062,120.117c4.888,0,7.188,4,7.142,8.396c-0.047,4.979-2.467,8.396-7.142,8.396
			s-7.094-3.418-7.138-8.396C307.876,124.117,310.179,120.117,315.062,120.117z M309.527,128.513c0,3.442,1.724,7,5.534,7
			c3.817,0,5.537-3.558,5.537-7c0-3.442-1.72-7.001-5.537-7.001C311.249,121.512,309.527,125.071,309.527,128.513z"/>
	</g>
</g>
</svg>
