<?xml version="1.0" encoding="utf-8"?>
<!-- Generator: Adobe Illustrator 16.0.0, SVG Export Plug-In . SVG Version: 6.00 Build 0)  -->
<!DOCTYPE svg PUBLIC "-//W3C//DTD SVG 1.1//EN" "http://www.w3.org/Graphics/SVG/1.1/DTD/svg11.dtd">
<svg version="1.1" id="Layer_1" xmlns="http://www.w3.org/2000/svg" xmlns:xlink="http://www.w3.org/1999/xlink" x="0px" y="0px"
	 width="358px" height="231px" viewBox="0 0 358 231" enable-background="new 0 0 358 231" xml:space="preserve">
<g>
	<path fill="#FFFFFF" d="M143.834,146.048c3.254,0,6.359,0.146,14.197,0.595l0.59-0.595v-2.812l-0.59-0.589
		c-7.691-0.592-9.317-0.889-10.795-3.694c0.59-4.145,5.323-15.974,7.838-21.891l23.628-60.458l26.651,77.171
		c0.592,1.478,1.628,3.547,1.628,5.027c0,3.253-5.031,3.4-10.354,3.845l-0.592,0.589v2.812l0.592,0.595
		c5.767-0.298,12.275-0.595,17.748-0.595c5.322,0,13.307,0.444,17.151,0.595l0.592-0.595v-2.812l-0.592-0.589
		c-7.836-0.592-8.579-1.036-12.423-10.501l-32.386-78.969c-1.331-3.253-1.625-3.992-2.662-7.689h-5.176
		c-2.365,5.914-1.921,5.767-4.878,12.571l-26.767,62.554c-2.663,6.211-5.472,11.387-9.318,17.745
		c-1.33,2.367-2.217,3.697-9.907,4.289l-0.591,0.589v2.812l0.591,0.595C133.186,146.492,138.509,146.048,143.834,146.048z"/>
	<path fill="#FFFFFF" d="M96.077,175.356c-3.949-0.843-4.873-1.79-4.873-3.51c0-1.64,1.49-2.921,3.822-2.921
		c1.845,0,3.51,0.589,5.177,1.948l1.18-1.564c-1.82-1.461-3.694-2.205-6.308-2.205c-3.41,0-5.896,2.052-5.896,4.921
		c0,2.976,1.895,4.306,6.024,5.207c3.768,0.794,4.666,1.743,4.666,3.435c0,1.818-1.591,3.077-4,3.077
		c-2.489,0-4.282-0.849-6.152-2.54l-1.257,1.489c2.153,1.923,4.487,2.869,7.333,2.869c3.562,0,6.126-1.997,6.126-5.101
		C101.922,177.694,100.074,176.233,96.077,175.356z"/>
	<polygon fill="#FFFFFF" points="109.821,185.309 111.872,185.309 111.872,169.231 117.896,169.231 117.896,167.36 103.796,167.36 
		103.796,169.231 109.821,169.231 	"/>
	<rect x="117.976" y="182.615" fill="#FFFFFF" width="2.358" height="2.693"/>
	<path fill="#FFFFFF" d="M137.974,167.233l-8.178,18.075h2.074l2.13-4.745h9.767l2.104,4.745h2.177l-8.177-18.075H137.974z
		 M134.795,178.745l4.102-9.153l4.077,9.153H134.795z"/>
	<polygon fill="#FFFFFF" points="166.176,185.309 166.176,167.36 164.203,167.36 164.203,181.744 152.897,167.36 151.001,167.36 
		151.001,185.309 152.974,185.309 152.974,170.594 164.562,185.309 	"/>
	<path fill="#FFFFFF" d="M186.433,176.309c0-5.074-3.896-8.948-9.538-8.948h-6.227v17.948h6.227
		C182.536,185.309,186.433,181.386,186.433,176.309z M176.895,183.436h-4.204v-14.204h4.204c4.536,0,7.434,3.129,7.434,7.129
		C184.328,180.355,181.431,183.436,176.895,183.436z"/>
	<path fill="#FFFFFF" d="M202.483,185.309h2.489l-5.514-7.332c2.82-0.514,4.872-2.257,4.872-5.259c0-3.229-2.54-5.357-6.488-5.357
		h-7.716v17.948h2.026v-6.974h5.127L202.483,185.309z M192.153,169.231h5.54c2.892,0,4.586,1.333,4.586,3.564
		c0,2.335-1.923,3.715-4.615,3.715h-5.511V169.231z"/>
	<polygon fill="#FFFFFF" points="221.177,183.461 210.102,183.461 210.102,177.181 219.895,177.181 219.895,175.333 
		210.102,175.333 210.102,169.208 221.049,169.208 221.049,167.36 208.075,167.36 208.075,185.309 221.177,185.309 	"/>
	<polygon fill="#FFFFFF" points="249.379,167.36 247.253,167.36 242.126,182.307 237.202,167.309 235.533,167.309 230.615,182.307 
		225.488,167.36 223.28,167.36 229.691,185.436 231.383,185.436 236.33,170.874 241.251,185.436 242.969,185.436 	"/>
	<path fill="#FFFFFF" d="M251.229,172.285l0.31,0.895c1.948-0.433,2.843-1.435,2.843-3.513v-2.307h-2.355v2.69h0.921
		C253.051,171.156,252.512,171.823,251.229,172.285z"/>
	<path fill="#FFFFFF" d="M264.383,183.744c-2.487,0-4.283-0.849-6.154-2.54l-1.255,1.489c2.152,1.923,4.485,2.869,7.331,2.869
		c3.564,0,6.128-1.997,6.128-5.101c0-2.768-1.844-4.229-5.845-5.105c-3.948-0.843-4.872-1.79-4.872-3.51
		c0-1.64,1.486-2.921,3.821-2.921c1.845,0,3.513,0.589,5.178,1.948l1.178-1.564c-1.817-1.461-3.691-2.205-6.304-2.205
		c-3.409,0-5.896,2.052-5.896,4.921c0,2.976,1.896,4.306,6.023,5.207c3.77,0.794,4.668,1.743,4.668,3.435
		C268.384,182.485,266.793,183.744,264.383,183.744z"/>
	<polygon fill="#FFFFFF" points="180.616,147.462 180.616,107.716 193.21,107.716 191.605,102.486 180.616,102.486 180.616,91.425 
		174.78,91.425 174.78,102.486 163.185,102.486 161.16,107.716 174.78,107.716 174.78,147.462 	"/>
</g>
</svg>
